<svg width="160" height="180" viewBox="0 0 160 180" fill="none" xmlns="http://www.w3.org/2000/svg">
<path d="M86.4729 131.799C123.068 131.799 152.734 102.295 152.734 65.8994C152.734 29.5042 123.068 0 86.4729 0C49.8777 0 20.2114 29.5042 20.2114 65.8994C20.2114 102.295 49.8777 131.799 86.4729 131.799Z" fill="#FED853"/>
<path d="M29.9018 96.5071C33.7479 108.452 41.0763 119.316 52.531 125.054C57.2132 127.594 64.7465 128.916 69.9053 130.263C76.1217 131.827 82.3131 132.779 88.7052 134.35C89.0772 134.425 89.1399 134.995 88.7762 135.136C85.6199 136.562 82.288 137.373 78.9018 137.855C67.5558 139.398 58.714 136.787 49.2953 130.496C40.5788 124.925 34.2621 116.086 31.2312 106.336C30.2571 103.172 29.5799 99.9413 29.1242 96.6817C29.0657 96.216 29.7304 96.0164 29.8976 96.5071H29.9018Z" fill="#010101"/>
<path d="M144.344 96.7726C140.573 108.073 135.732 119.91 126.246 127.822C118.069 134.703 110.929 137.002 100.356 137.131C97.3503 137.152 94.3445 137.023 91.2091 136.449C90.8119 136.387 90.674 135.826 91.0126 135.597C93.5836 133.718 96.301 132.354 99.0058 131.107C104.211 128.791 107.892 129.748 114.829 125.328C122.868 123.216 128.934 117.303 133.913 110.859C137.421 106.36 140.489 101.408 143.541 96.4109C143.666 96.203 143.942 96.1324 144.151 96.2612C144.331 96.3693 144.402 96.5814 144.344 96.7726Z" fill="#010101"/>
<path d="M31.4738 96.594C31.4738 96.594 40.3616 133.34 87.2045 133.319C130.64 133.298 142.692 96.594 142.692 96.594H31.4738Z" stroke="#010101" stroke-width="3.76503" stroke-linecap="round" stroke-linejoin="round"/>
<path d="M59.4162 135.09C59.4162 135.09 57.6479 140.699 64.0315 141.456C70.4152 142.212 109.165 141.456 109.165 141.456C109.165 141.456 114.787 140.213 113.726 135.09" fill="#010101"/>
<path d="M59.4162 135.09C59.4162 135.09 57.6479 140.699 64.0315 141.456C70.4152 142.212 109.165 141.456 109.165 141.456C109.165 141.456 114.787 140.213 113.726 135.09" stroke="#010101" stroke-width="0.289617" stroke-miterlimit="10" stroke-linecap="round"/>
<path d="M2.27923 122.799C37.0404 90.9266 66.5717 44.6723 66.5717 44.6723C66.5717 44.6723 69.774 41.1341 70.7689 33.9163C72.2865 22.9068 82.1233 13.2859 92.8296 13.7474C104.355 14.2422 108.707 19.8384 113.394 29.1059C114.84 31.9664 119.301 31.1598 123.64 37.4587C123.64 37.4587 114.986 37.2674 110.476 38.8973C110.066 39.0469 109.652 39.18 109.234 39.3089C107.487 39.8452 102.574 42.0405 103.574 49.6283C104.422 56.0935 112.257 81.842 79.0965 97.608C59.5985 106.88 44.6573 100.614 41.8104 102.988C36.9484 107.038 4.9506 127.897 4.9506 127.897C4.9506 127.897 -3.77 128.35 2.28342 122.799H2.27923Z" fill="#010101" stroke="#010101" stroke-width="0.289617" stroke-miterlimit="10" stroke-linecap="round"/>
<path d="M52.3036 93.1303C52.3036 93.1303 73.7831 89.7626 86.1408 76.1462C95.037 66.3465 88.1684 56.2974 88.1684 56.2974C97.3112 77.8093 52.3036 93.1345 52.3036 93.1345V93.1303Z" fill="#FED853"/>
<path d="M134.419 98.1765C134.419 98.1765 141.05 90.5825 156.425 83.0913C162.872 79.9508 156.688 71.0594 150.019 74.2395C138.854 79.5632 123.617 96.7724 123.617 96.7724L134.423 98.1805L134.419 98.1765Z" fill="#010101"/>
<path d="M27.5054 173.393L35.1976 155.669H35.383L43.0752 173.393H39.1828L34.2709 160.928L36.7036 159.26L30.8186 173.393H27.5054ZM32.7648 167.23H37.8853L39.0669 170.057H31.7222L32.7648 167.23ZM54.6666 160.465C54.0179 160.11 53.3537 159.816 52.674 159.584C52.0099 159.353 51.3843 159.237 50.7973 159.237C50.0714 159.237 49.4998 159.384 49.0828 159.677C48.6657 159.971 48.4572 160.411 48.4572 160.998C48.4572 161.399 48.6117 161.762 48.9206 162.087C49.245 162.396 49.6543 162.674 50.1486 162.921C50.6583 163.168 51.1835 163.392 51.7241 163.593C52.2184 163.778 52.7049 164.002 53.1838 164.265C53.6781 164.512 54.1183 164.828 54.5044 165.215C54.8906 165.585 55.1995 166.056 55.4312 166.628C55.6629 167.184 55.7787 167.871 55.7787 168.69C55.7787 169.555 55.5548 170.358 55.1068 171.1C54.6589 171.841 54.0024 172.443 53.1374 172.907C52.2724 173.355 51.2067 173.579 49.9401 173.579C49.2913 173.579 48.6271 173.517 47.9475 173.393C47.2833 173.254 46.6268 173.053 45.9781 172.791C45.3293 172.513 44.7038 172.165 44.1014 171.748L45.5842 169.13C45.9858 169.424 46.4183 169.686 46.8817 169.918C47.3605 170.134 47.8394 170.304 48.3182 170.428C48.797 170.551 49.2373 170.613 49.6389 170.613C50.0405 170.613 50.4421 170.559 50.8437 170.451C51.2607 170.327 51.6005 170.126 51.8631 169.848C52.1412 169.57 52.2802 169.184 52.2802 168.69C52.2802 168.35 52.1643 168.041 51.9326 167.763C51.7164 167.485 51.4152 167.23 51.029 166.999C50.6583 166.767 50.249 166.566 49.801 166.396C49.2759 166.195 48.7353 165.964 48.1792 165.701C47.6231 165.438 47.0979 165.122 46.6037 164.751C46.1248 164.365 45.731 163.894 45.422 163.338C45.1285 162.766 44.9818 162.071 44.9818 161.253C44.9818 160.264 45.1981 159.407 45.6306 158.681C46.0785 157.955 46.7041 157.383 47.5073 156.966C48.3105 156.534 49.2373 156.294 50.2876 156.248C51.6623 156.248 52.7744 156.41 53.624 156.735C54.489 157.059 55.2613 157.445 55.9409 157.893L54.6666 160.465ZM57.1459 173.393L64.8382 155.669H65.0235L72.7158 173.393H68.8233L63.9114 160.928L66.3442 159.26L60.4591 173.393H57.1459ZM62.4054 167.23H67.5258L68.7075 170.057H61.3628L62.4054 167.23ZM75.2016 156.341H85.8595V159.584H78.5611V163.454H84.8864V166.697H78.5611V173.393H75.2016V156.341ZM94.2609 156.341C95.3267 156.341 96.2767 156.48 97.1108 156.758C97.9449 157.02 98.64 157.406 99.196 157.916C99.7675 158.41 100.2 159.013 100.494 159.723C100.787 160.418 100.934 161.206 100.934 162.087C100.934 162.782 100.826 163.477 100.609 164.172C100.409 164.867 100.069 165.5 99.5899 166.072C99.1265 166.643 98.5087 167.107 97.7363 167.462C96.964 167.802 96.0064 167.972 94.8633 167.972H92.4537V173.393H89.0942V156.341H94.2609ZM94.8402 164.728C95.3499 164.728 95.7747 164.643 96.1145 164.473C96.4543 164.303 96.7169 164.087 96.9022 163.824C97.1031 163.562 97.2421 163.291 97.3193 163.013C97.412 162.72 97.4583 162.45 97.4583 162.202C97.4583 162.017 97.4274 161.785 97.3656 161.507C97.3193 161.214 97.2112 160.92 97.0413 160.627C96.8714 160.333 96.6088 160.086 96.2535 159.886C95.9137 159.685 95.4503 159.584 94.8633 159.584H92.4537V164.728H94.8402ZM97.9912 166.813L102.208 173.393H98.2924L93.9829 166.906L97.9912 166.813ZM103.055 173.393L110.747 155.669H110.932L118.625 173.393H114.732L109.82 160.928L112.253 159.26L106.368 173.393H103.055ZM108.314 167.23H113.435L114.616 170.057H107.272L108.314 167.23ZM121.11 173.393V155.646H121.134L130.61 169.084L129.173 168.759L138.627 155.646H138.673V173.393H135.313V163.222L135.522 164.96L129.753 173.162H129.706L123.775 164.96L124.354 163.361V173.393H121.11Z" fill="white"/>
</svg>
