<svg width="860" height="520" viewBox="0 0 860 520" fill="none" xmlns="http://www.w3.org/2000/svg">
<ellipse cx="261.514" cy="186.964" rx="187.091" ry="186.964" fill="#FED853"/>
<path d="M108.331 277.885C81.8801 347.331 7.98611 411.363 7.98611 411.363C7.98611 411.363 72.825 387.824 131.274 411.363C189.723 434.902 229.236 501.53 229.236 501.53C229.236 501.53 223.557 429.224 229.698 383.567C235.839 337.91 248.077 277.885 260.421 269.669C272.765 261.452 306.214 245.056 337.459 249.253C359.156 252.167 399.934 273.278 399.934 273.278C399.934 273.278 385.9 238.041 360.581 216.922C335.262 195.803 303.194 180.701 303.194 180.701C303.194 180.701 300.557 135.904 281.421 113.531C243.483 69.1753 195.521 70.4877 152.307 109.738C113.144 145.309 127.16 228.453 108.331 277.885Z" stroke="white" stroke-width="15" stroke-linecap="round" stroke-linejoin="round"/>
<path d="M372.883 134.768L394.131 85.8078H394.643L415.891 134.768H405.139L391.571 100.336L398.291 95.7278L382.035 134.768H372.883ZM387.411 117.744H401.555L404.819 125.552H384.531L387.411 117.744ZM447.91 99.0558C446.118 98.0745 444.283 97.2638 442.406 96.6238C440.571 95.9838 438.843 95.6638 437.222 95.6638C435.216 95.6638 433.638 96.0692 432.486 96.8798C431.334 97.6905 430.758 98.9065 430.758 100.528C430.758 101.637 431.184 102.64 432.038 103.536C432.934 104.389 434.064 105.157 435.43 105.84C436.838 106.523 438.288 107.141 439.782 107.696C441.147 108.208 442.491 108.827 443.814 109.552C445.179 110.235 446.395 111.109 447.462 112.176C448.528 113.2 449.382 114.501 450.022 116.08C450.662 117.616 450.982 119.515 450.982 121.776C450.982 124.165 450.363 126.384 449.126 128.432C447.888 130.48 446.075 132.144 443.686 133.424C441.296 134.661 438.352 135.28 434.854 135.28C433.062 135.28 431.227 135.109 429.35 134.768C427.515 134.384 425.702 133.829 423.91 133.104C422.118 132.336 420.39 131.376 418.726 130.224L422.822 122.992C423.931 123.803 425.126 124.528 426.406 125.168C427.728 125.765 429.051 126.235 430.374 126.576C431.696 126.917 432.912 127.088 434.022 127.088C435.131 127.088 436.24 126.939 437.35 126.64C438.502 126.299 439.44 125.744 440.166 124.976C440.934 124.208 441.318 123.141 441.318 121.776C441.318 120.837 440.998 119.984 440.358 119.216C439.76 118.448 438.928 117.744 437.862 117.104C436.838 116.464 435.707 115.909 434.47 115.44C433.019 114.885 431.526 114.245 429.99 113.52C428.454 112.795 427.003 111.92 425.638 110.896C424.315 109.829 423.227 108.528 422.374 106.992C421.563 105.413 421.158 103.493 421.158 101.232C421.158 98.5012 421.755 96.1332 422.95 94.1278C424.187 92.1225 425.915 90.5438 428.134 89.3918C430.352 88.1972 432.912 87.5358 435.814 87.4078C439.611 87.4078 442.683 87.8558 445.03 88.7518C447.419 89.6478 449.552 90.7145 451.43 91.9518L447.91 99.0558ZM454.758 134.768L476.006 85.8078H476.518L497.766 134.768H487.014L473.446 100.336L480.166 95.7278L463.91 134.768H454.758ZM469.286 117.744H483.43L486.694 125.552H466.406L469.286 117.744ZM504.633 87.6638H534.073V96.6238H513.913V107.312H531.385V116.272H513.913V134.768H504.633V87.6638ZM557.28 87.6638C560.224 87.6638 562.848 88.0478 565.152 88.8158C567.456 89.5412 569.376 90.6078 570.912 92.0158C572.49 93.3812 573.685 95.0452 574.496 97.0078C575.306 98.9278 575.712 101.104 575.712 103.536C575.712 105.456 575.413 107.376 574.816 109.296C574.261 111.216 573.322 112.965 572 114.544C570.72 116.123 569.013 117.403 566.88 118.384C564.746 119.323 562.101 119.792 558.944 119.792H552.288V134.768H543.008V87.6638H557.28ZM558.88 110.832C560.288 110.832 561.461 110.597 562.4 110.128C563.338 109.659 564.064 109.061 564.576 108.336C565.13 107.611 565.514 106.864 565.728 106.096C565.984 105.285 566.112 104.539 566.112 103.856C566.112 103.344 566.026 102.704 565.856 101.936C565.728 101.125 565.429 100.315 564.96 99.5038C564.49 98.6932 563.765 98.0105 562.784 97.4558C561.845 96.9012 560.565 96.6238 558.944 96.6238H552.288V110.832H558.88ZM567.584 116.592L579.232 134.768H568.416L556.512 116.848L567.584 116.592ZM581.571 134.768L602.819 85.8078H603.331L624.579 134.768H613.827L600.259 100.336L606.979 95.7278L590.723 134.768H581.571ZM596.099 117.744H610.243L613.507 125.552H593.219L596.099 117.744ZM631.445 134.768V85.7438H631.509L657.685 122.864L653.717 121.968L679.829 85.7438H679.957V134.768H670.677V106.672L671.253 111.472L655.317 134.128H655.189L638.805 111.472L640.405 107.056V134.768H631.445Z" fill="white"/>
</svg>
