<svg width="299" height="313" viewBox="0 0 299 313" fill="none" xmlns="http://www.w3.org/2000/svg">
<path d="M56.33 156.657C63.546 179.192 77.2958 199.687 98.7871 210.511C107.572 215.303 121.706 217.798 131.385 220.339C143.048 223.288 154.665 225.084 166.657 228.049C167.355 228.19 167.473 229.265 166.791 229.531C160.869 232.222 154.617 233.751 148.264 234.661C126.977 237.571 110.388 232.645 92.7162 220.778C76.3624 210.268 64.5108 193.592 58.8242 175.199C56.9967 169.23 55.726 163.136 54.8711 156.987C54.7613 156.108 56.0084 155.732 56.3221 156.657H56.33Z" fill="white"/>
<path d="M271.048 157.159C263.973 178.478 254.89 200.808 237.093 215.735C221.751 228.716 208.354 233.053 188.518 233.296C182.878 233.336 177.239 233.092 171.356 232.01C170.611 231.892 170.352 230.834 170.987 230.402C175.811 226.857 180.91 224.284 185.984 221.931C195.75 217.562 205.703 214.001 215.672 211.029C230.755 207.044 242.136 195.891 251.478 183.733C258.059 175.246 263.816 165.905 269.542 156.477C269.777 156.085 270.295 155.951 270.687 156.194C271.024 156.398 271.157 156.798 271.048 157.159Z" fill="white"/>
<path d="M59.2793 156.822C59.2793 156.822 75.9547 226.143 163.842 226.104C245.336 226.065 267.149 156.822 267.149 156.822H59.2793Z" stroke="white" stroke-width="13" stroke-linecap="round" stroke-linejoin="round"/>
<path d="M111.705 229.445C111.705 229.445 108.388 240.026 120.365 241.454C132.342 242.881 205.044 241.454 205.044 241.454C205.044 241.454 215.593 239.108 213.601 229.445" fill="white"/>
<path d="M111.705 229.445C111.705 229.445 108.388 240.026 120.365 241.454C132.342 242.881 205.044 241.454 205.044 241.454C205.044 241.454 215.593 239.108 213.601 229.445" stroke="white" stroke-miterlimit="10" stroke-linecap="round"/>
<path d="M4.50457 206.258C69.7237 146.13 125.13 58.8704 125.13 58.8704C125.13 58.8704 131.139 52.1955 133.005 38.5791C135.853 17.8094 154.308 -0.340545 174.396 0.530088C196.02 1.46347 204.186 12.0209 212.978 29.5041C215.692 34.9005 224.061 33.3789 232.203 45.2618C232.203 45.2618 215.967 44.901 207.503 47.9757C206.735 48.2581 205.958 48.5091 205.174 48.7522C201.895 49.764 192.679 53.9054 194.554 68.2199C196.146 80.4166 210.845 128.992 148.63 158.734C112.047 176.226 84.0146 164.405 78.6731 168.884C69.5511 176.524 9.5166 215.875 9.5166 215.875C9.5166 215.875 -6.84504 216.73 4.51242 206.258H4.50457Z" fill="white" stroke="white" stroke-miterlimit="10" stroke-linecap="round"/>
<path d="M98.3604 150.287C98.3604 150.287 138.66 143.934 161.846 118.246C178.537 99.7589 165.65 80.801 165.65 80.801C182.804 121.384 98.3604 150.295 98.3604 150.295V150.287Z" fill="black"/>
<path d="M252.309 162.202C252.309 162.202 264.764 147.143 293.644 132.287C305.755 126.059 294.138 108.427 281.612 114.733C260.639 125.291 232.018 159.418 232.018 159.418L252.317 162.21L252.309 162.202Z" fill="white"/>
<path d="M63.98 302.088L77.26 271.488H77.58L90.86 302.088H84.14L75.66 280.568L79.86 277.688L69.7 302.088H63.98ZM73.06 291.448H81.9L83.94 296.328H71.26L73.06 291.448ZM110.872 279.768C109.752 279.155 108.605 278.648 107.432 278.248C106.285 277.848 105.205 277.648 104.192 277.648C102.938 277.648 101.952 277.901 101.232 278.408C100.512 278.915 100.152 279.675 100.152 280.688C100.152 281.381 100.418 282.008 100.952 282.568C101.512 283.101 102.218 283.581 103.072 284.008C103.952 284.435 104.858 284.821 105.792 285.168C106.645 285.488 107.485 285.875 108.312 286.328C109.165 286.755 109.925 287.301 110.592 287.968C111.258 288.608 111.792 289.421 112.192 290.408C112.592 291.368 112.792 292.555 112.792 293.968C112.792 295.461 112.405 296.848 111.632 298.128C110.858 299.408 109.725 300.448 108.232 301.248C106.738 302.021 104.898 302.408 102.712 302.408C101.592 302.408 100.445 302.301 99.2716 302.088C98.1249 301.848 96.9916 301.501 95.8716 301.048C94.7516 300.568 93.6716 299.968 92.6316 299.248L95.1916 294.728C95.8849 295.235 96.6316 295.688 97.4316 296.088C98.2582 296.461 99.0849 296.755 99.9116 296.968C100.738 297.181 101.498 297.288 102.192 297.288C102.885 297.288 103.578 297.195 104.272 297.008C104.992 296.795 105.578 296.448 106.032 295.968C106.512 295.488 106.752 294.821 106.752 293.968C106.752 293.381 106.552 292.848 106.152 292.368C105.778 291.888 105.258 291.448 104.592 291.048C103.952 290.648 103.245 290.301 102.472 290.008C101.565 289.661 100.632 289.261 99.6716 288.808C98.7116 288.355 97.8049 287.808 96.9516 287.168C96.1249 286.501 95.4449 285.688 94.9116 284.728C94.4049 283.741 94.1516 282.541 94.1516 281.128C94.1516 279.421 94.5249 277.941 95.2716 276.688C96.0449 275.435 97.1249 274.448 98.5116 273.728C99.8982 272.981 101.498 272.568 103.312 272.488C105.685 272.488 107.605 272.768 109.072 273.328C110.565 273.888 111.898 274.555 113.072 275.328L110.872 279.768ZM115.152 302.088L128.432 271.488H128.752L142.032 302.088H135.312L126.832 280.568L131.032 277.688L120.872 302.088H115.152ZM124.232 291.448H133.072L135.112 296.328H122.432L124.232 291.448ZM146.323 272.648H164.723V278.248H152.123V284.928H163.043V290.528H152.123V302.088H146.323V272.648ZM179.228 272.648C181.068 272.648 182.708 272.888 184.148 273.368C185.588 273.821 186.788 274.488 187.748 275.368C188.734 276.221 189.481 277.261 189.988 278.488C190.494 279.688 190.748 281.048 190.748 282.568C190.748 283.768 190.561 284.968 190.188 286.168C189.841 287.368 189.254 288.461 188.428 289.448C187.628 290.435 186.561 291.235 185.228 291.848C183.894 292.435 182.241 292.728 180.268 292.728H176.108V302.088H170.308V272.648H179.228ZM180.228 287.128C181.108 287.128 181.841 286.981 182.428 286.688C183.014 286.395 183.468 286.021 183.788 285.568C184.134 285.115 184.374 284.648 184.508 284.168C184.668 283.661 184.748 283.195 184.748 282.768C184.748 282.448 184.694 282.048 184.588 281.568C184.508 281.061 184.321 280.555 184.028 280.048C183.734 279.541 183.281 279.115 182.668 278.768C182.081 278.421 181.281 278.248 180.268 278.248H176.108V287.128H180.228ZM185.668 290.728L192.948 302.088H186.188L178.748 290.888L185.668 290.728ZM194.41 302.088L207.69 271.488H208.01L221.29 302.088H214.57L206.09 280.568L210.29 277.688L200.13 302.088H194.41ZM203.49 291.448H212.33L214.37 296.328H201.69L203.49 291.448ZM225.581 302.088V271.448H225.621L241.981 294.648L239.501 294.088L255.821 271.448H255.901V302.088H250.101V284.528L250.461 287.528L240.501 301.688H240.421L230.181 287.528L231.181 284.768V302.088H225.581Z" fill="white"/>
</svg>
