<svg width="32" height="43" viewBox="0 0 32 43" fill="none" xmlns="http://www.w3.org/2000/svg">
<g filter="url(#filter0_f_596_20878)">
<path d="M4.22897 32.9256C4.22897 29.7559 6.78864 27.1863 9.94608 27.1863H15.6632V32.9256C15.6632 36.0953 13.1035 38.6649 9.94608 38.6649C6.78864 38.6649 4.22897 36.0953 4.22897 32.9256Z" fill="#24CB71"/>
<path d="M15.6632 4.229V15.7076H21.3803C24.5377 15.7076 27.0974 13.138 27.0974 9.96832C27.0974 6.79861 24.5377 4.229 21.3803 4.229H15.6632Z" fill="#FF7237"/>
<path d="M21.3327 27.1862C24.4901 27.1862 27.0498 24.6166 27.0498 21.4468C27.0498 18.2771 24.4901 15.7075 21.3327 15.7075C18.1752 15.7075 15.6156 18.2771 15.6156 21.4468C15.6156 24.6166 18.1752 27.1862 21.3327 27.1862Z" fill="#00B6FF"/>
<path d="M4.22898 9.96832C4.22898 13.138 6.78864 15.7076 9.94609 15.7076H15.6632V4.229H9.94609C6.78864 4.229 4.22898 6.79861 4.22898 9.96832Z" fill="#FF3737"/>
<path d="M4.22897 21.4468C4.22897 24.6166 6.78864 27.1862 9.94608 27.1862H15.6632V15.7075H9.94608C6.78864 15.7075 4.22897 18.2771 4.22897 21.4468Z" fill="#874FFF"/>
</g>
<path d="M3.536 32.9256C3.536 29.7559 6.09567 27.1863 9.25311 27.1863H14.9702V32.9256C14.9702 36.0953 12.4106 38.6649 9.25311 38.6649C6.09567 38.6649 3.536 36.0953 3.536 32.9256Z" fill="#24CB71"/>
<path d="M14.9702 4.229V15.7076H20.6873C23.8448 15.7076 26.4044 13.138 26.4044 9.96832C26.4044 6.79861 23.8448 4.229 20.6873 4.229H14.9702Z" fill="#FF7237"/>
<path d="M20.6397 27.1862C23.7972 27.1862 26.3568 24.6166 26.3568 21.4468C26.3568 18.2771 23.7972 15.7075 20.6397 15.7075C17.4822 15.7075 14.9226 18.2771 14.9226 21.4468C14.9226 24.6166 17.4822 27.1862 20.6397 27.1862Z" fill="#00B6FF"/>
<path d="M3.536 9.96832C3.536 13.138 6.09567 15.7076 9.25311 15.7076H14.9702V4.229H9.25311C6.09567 4.229 3.536 6.79861 3.536 9.96832Z" fill="#FF3737"/>
<path d="M3.536 21.4468C3.536 24.6166 6.09567 27.1862 9.25311 27.1862H14.9702V15.7075H9.25311C6.09567 15.7075 3.536 18.2771 3.536 21.4468Z" fill="#874FFF"/>
<defs>
<filter id="filter0_f_596_20878" x="0" y="3.05176e-05" width="31.3264" height="42.894" filterUnits="userSpaceOnUse" color-interpolation-filters="sRGB">
<feFlood flood-opacity="0" result="BackgroundImageFix"/>
<feBlend mode="normal" in="SourceGraphic" in2="BackgroundImageFix" result="shape"/>
<feGaussianBlur stdDeviation="2.11449" result="effect1_foregroundBlur_596_20878"/>
</filter>
</defs>
</svg>
