<svg width="52" height="86" viewBox="0 0 52 86" fill="none" xmlns="http://www.w3.org/2000/svg">
<g filter="url(#filter0_f_344_14243)">
<path d="M7 54.5C7 49.2533 11.2369 45 16.4632 45H25.9265V54.5C25.9265 59.7467 21.6896 64 16.4632 64C11.2369 64 7 59.7467 7 54.5Z" fill="#24CB71"/>
<path d="M25.9265 7V26H35.3897C40.616 26 44.8529 21.7467 44.8529 16.5C44.8529 11.2533 40.616 7 35.3897 7H25.9265Z" fill="#FF7237"/>
<path d="M35.3109 44.9998C40.5373 44.9998 44.7741 40.7465 44.7741 35.4998C44.7741 30.2531 40.5373 25.9998 35.3109 25.9998C30.0845 25.9998 25.8476 30.2531 25.8476 35.4998C25.8476 40.7465 30.0845 44.9998 35.3109 44.9998Z" fill="#00B6FF"/>
<path d="M7.00002 16.5C7.00002 21.7467 11.2369 26 16.4633 26H25.9265V7H16.4633C11.2369 7 7.00002 11.2533 7.00002 16.5Z" fill="#FF3737"/>
<path d="M7 35.4998C7 40.7464 11.2369 44.9998 16.4632 44.9998H25.9265V25.9998H16.4632C11.2369 25.9998 7 30.2531 7 35.4998Z" fill="#874FFF"/>
</g>
<path d="M5.32758 75.0469V85H4.00824V75.0469H5.32758ZM9.4975 79.5244V80.6045H5.04047V79.5244H9.4975ZM10.1743 75.0469V76.127H5.04047V75.0469H10.1743ZM13.1616 75.0469V85H11.8422V75.0469H13.1616ZM22.9164 80.0439V83.6875C22.7934 83.8698 22.5974 84.0749 22.3286 84.3027C22.0597 84.526 21.6883 84.722 21.2143 84.8906C20.7449 85.0547 20.1388 85.1367 19.3959 85.1367C18.7898 85.1367 18.2315 85.0319 17.7211 84.8223C17.2153 84.6081 16.7755 84.2982 16.4018 83.8926C16.0327 83.4824 15.7455 82.9857 15.5405 82.4023C15.3399 81.8145 15.2397 81.1491 15.2397 80.4062V79.6338C15.2397 78.891 15.3263 78.2279 15.4995 77.6445C15.6772 77.0612 15.937 76.5667 16.2787 76.1611C16.6205 75.751 17.0398 75.4411 17.5366 75.2314C18.0333 75.0173 18.603 74.9102 19.2455 74.9102C20.0066 74.9102 20.6424 75.0423 21.1528 75.3066C21.6677 75.5664 22.0688 75.9264 22.3559 76.3867C22.6476 76.847 22.8344 77.3711 22.9164 77.959H21.5971C21.5379 77.599 21.4194 77.2708 21.2416 76.9746C21.0685 76.6784 20.8201 76.4414 20.4965 76.2637C20.173 76.0814 19.756 75.9902 19.2455 75.9902C18.7853 75.9902 18.3865 76.0745 18.0493 76.2432C17.712 76.4118 17.434 76.6533 17.2153 76.9678C16.9965 77.2822 16.8325 77.6628 16.7231 78.1094C16.6183 78.556 16.5659 79.0596 16.5659 79.6201V80.4062C16.5659 80.9805 16.6319 81.4932 16.7641 81.9443C16.9008 82.3955 17.0945 82.7806 17.3452 83.0996C17.5958 83.4141 17.8943 83.6533 18.2407 83.8174C18.5916 83.9814 18.9789 84.0635 19.4028 84.0635C19.8722 84.0635 20.2527 84.0247 20.5444 83.9473C20.836 83.8652 21.0639 83.7695 21.228 83.6602C21.392 83.5462 21.5174 83.4391 21.6039 83.3389V81.1104H19.3002V80.0439H22.9164ZM25.5209 75.0469H26.7993L30.06 83.1611L33.3139 75.0469H34.5991L30.5522 85H29.5541L25.5209 75.0469ZM25.1039 75.0469H26.2319L26.4164 81.1172V85H25.1039V75.0469ZM33.8813 75.0469H35.0092V85H33.6967V81.1172L33.8813 75.0469ZM41.1342 75.9287L37.8393 85H36.4926L40.2866 75.0469H41.1547L41.1342 75.9287ZM43.8959 85L40.5942 75.9287L40.5737 75.0469H41.4418L45.2495 85H43.8959ZM43.725 81.3154V82.3955H38.1332V81.3154H43.725Z" fill="white"/>
<path d="M5.85297 54.5C5.85297 49.2533 10.0898 45 15.3162 45H24.7794V54.5C24.7794 59.7467 20.5425 64 15.3162 64C10.0898 64 5.85297 59.7467 5.85297 54.5Z" fill="#24CB71"/>
<path d="M24.7794 7V26H34.2427C39.469 26 43.7059 21.7467 43.7059 16.5C43.7059 11.2533 39.469 7 34.2427 7H24.7794Z" fill="#FF7237"/>
<path d="M34.1638 44.9998C39.3902 44.9998 43.6271 40.7465 43.6271 35.4998C43.6271 30.2531 39.3902 25.9998 34.1638 25.9998C28.9374 25.9998 24.7006 30.2531 24.7006 35.4998C24.7006 40.7465 28.9374 44.9998 34.1638 44.9998Z" fill="#00B6FF"/>
<path d="M5.85297 16.5C5.85297 21.7467 10.0898 26 15.3162 26H24.7794V7H15.3162C10.0898 7 5.85297 11.2533 5.85297 16.5Z" fill="#FF3737"/>
<path d="M5.85297 35.4998C5.85297 40.7464 10.0898 44.9998 15.3162 44.9998H24.7794V25.9998H15.3162C10.0898 25.9998 5.85297 30.2531 5.85297 35.4998Z" fill="#874FFF"/>
<defs>
<filter id="filter0_f_344_14243" x="0" y="0" width="51.8529" height="71" filterUnits="userSpaceOnUse" color-interpolation-filters="sRGB">
<feFlood flood-opacity="0" result="BackgroundImageFix"/>
<feBlend mode="normal" in="SourceGraphic" in2="BackgroundImageFix" result="shape"/>
<feGaussianBlur stdDeviation="3.5" result="effect1_foregroundBlur_344_14243"/>
</filter>
</defs>
</svg>
