<svg width="543" height="135" viewBox="0 0 543 135" fill="none" xmlns="http://www.w3.org/2000/svg">
<path d="M2 47V23.5L16 2H111.5" stroke="white"/>
<path d="M12.5 1.5C8.5 7.66667 0.5 20.1 0.5 20.5V5L12.5 1.5Z" stroke="white"/>
<path d="M4 47C4 48.1046 3.10457 49 2 49C0.89543 49 0 48.1046 0 47C0 45.8954 0.89543 45 2 45C3.10457 45 4 45.8954 4 47Z" fill="white"/>
<circle cx="112" cy="2" r="2" fill="white"/>
<path d="M541 47V23.5L527 2H431.5" stroke="white"/>
<path d="M530.5 1.5C534.5 7.66667 542.5 20.1 542.5 20.5V5L530.5 1.5Z" stroke="white"/>
<path d="M539 47C539 48.1046 539.895 49 541 49C542.105 49 543 48.1046 543 47C543 45.8954 542.105 45 541 45C539.895 45 539 45.8954 539 47Z" fill="white"/>
<circle cx="2" cy="2" r="2" transform="matrix(-1 0 0 1 433 0)" fill="white"/>
<path d="M2 88V111.5L16 133H111.5" stroke="white"/>
<path d="M12.5 133.5C8.5 127.333 0.5 114.9 0.5 114.5V130L12.5 133.5Z" stroke="white"/>
<path d="M4 88C4 86.8954 3.10457 86 2 86C0.89543 86 0 86.8954 0 88C0 89.1046 0.89543 90 2 90C3.10457 90 4 89.1046 4 88Z" fill="white"/>
<circle cx="2" cy="2" r="2" transform="matrix(1 0 0 -1 110 135)" fill="white"/>
<path d="M541 88V111.5L527 133H431.5" stroke="white"/>
<path d="M530.5 133.5C534.5 127.333 542.5 114.9 542.5 114.5V130L530.5 133.5Z" stroke="white"/>
<path d="M539 88C539 86.8954 539.895 86 541 86C542.105 86 543 86.8954 543 88C543 89.1046 542.105 90 541 90C539.895 90 539 89.1046 539 88Z" fill="white"/>
<circle cx="431" cy="133" r="2" transform="rotate(180 431 133)" fill="white"/>
<g filter="url(#filter0_f_344_14240)">
<path d="M57.147 80.5C57.147 75.2533 61.3839 71 66.6103 71H76.0735V80.5C76.0735 85.7467 71.8366 90 66.6103 90C61.3839 90 57.147 85.7467 57.147 80.5Z" fill="#24CB71"/>
<path d="M76.0735 33V52H85.5367C90.7631 52 95 47.7467 95 42.5C95 37.2533 90.7631 33 85.5367 33H76.0735Z" fill="#FF7237"/>
<path d="M85.4579 70.9998C90.6843 70.9998 94.9211 66.7465 94.9211 61.4998C94.9211 56.2531 90.6843 51.9998 85.4579 51.9998C80.2315 51.9998 75.9947 56.2531 75.9947 61.4998C75.9947 66.7465 80.2315 70.9998 85.4579 70.9998Z" fill="#00B6FF"/>
<path d="M57.1471 42.5C57.1471 47.7467 61.3839 52 66.6103 52H76.0735V33H66.6103C61.3839 33 57.1471 37.2533 57.1471 42.5Z" fill="#FF3737"/>
<path d="M57.147 61.4998C57.147 66.7464 61.3839 70.9998 66.6103 70.9998H76.0735V51.9998H66.6103C61.3839 51.9998 57.147 56.2531 57.147 61.4998Z" fill="#874FFF"/>
</g>
<path d="M55.4746 101.047V111H54.1553V101.047H55.4746ZM59.6445 105.524V106.604H55.1875V105.524H59.6445ZM60.3213 101.047V102.127H55.1875V101.047H60.3213ZM63.3086 101.047V111H61.9893V101.047H63.3086ZM73.0635 106.044V109.688C72.9404 109.87 72.7445 110.075 72.4756 110.303C72.2067 110.526 71.8353 110.722 71.3613 110.891C70.8919 111.055 70.2858 111.137 69.543 111.137C68.9368 111.137 68.3786 111.032 67.8682 110.822C67.3623 110.608 66.9225 110.298 66.5488 109.893C66.1797 109.482 65.8926 108.986 65.6875 108.402C65.487 107.814 65.3867 107.149 65.3867 106.406V105.634C65.3867 104.891 65.4733 104.228 65.6465 103.645C65.8242 103.061 66.084 102.567 66.4258 102.161C66.7676 101.751 67.1868 101.441 67.6836 101.231C68.1803 101.017 68.75 100.91 69.3926 100.91C70.1536 100.91 70.7894 101.042 71.2998 101.307C71.8148 101.566 72.2158 101.926 72.5029 102.387C72.7946 102.847 72.9814 103.371 73.0635 103.959H71.7441C71.6849 103.599 71.5664 103.271 71.3887 102.975C71.2155 102.678 70.9671 102.441 70.6436 102.264C70.32 102.081 69.903 101.99 69.3926 101.99C68.9323 101.99 68.5335 102.075 68.1963 102.243C67.859 102.412 67.5811 102.653 67.3623 102.968C67.1436 103.282 66.9795 103.663 66.8701 104.109C66.7653 104.556 66.7129 105.06 66.7129 105.62V106.406C66.7129 106.98 66.779 107.493 66.9111 107.944C67.0479 108.396 67.2415 108.781 67.4922 109.1C67.7428 109.414 68.0413 109.653 68.3877 109.817C68.7386 109.981 69.126 110.063 69.5498 110.063C70.0192 110.063 70.3997 110.025 70.6914 109.947C70.9831 109.865 71.2109 109.77 71.375 109.66C71.5391 109.546 71.6644 109.439 71.751 109.339V107.11H69.4473V106.044H73.0635ZM75.668 101.047H76.9463L80.207 109.161L83.4609 101.047H84.7461L80.6992 111H79.7012L75.668 101.047ZM75.251 101.047H76.3789L76.5635 107.117V111H75.251V101.047ZM84.0283 101.047H85.1562V111H83.8438V107.117L84.0283 101.047ZM91.2812 101.929L87.9863 111H86.6396L90.4336 101.047H91.3018L91.2812 101.929ZM94.043 111L90.7412 101.929L90.7207 101.047H91.5889L95.3965 111H94.043ZM93.8721 107.315V108.396H88.2803V107.315H93.8721Z" fill="white"/>
<path d="M56 80.5C56 75.2533 60.2369 71 65.4632 71H74.9265V80.5C74.9265 85.7467 70.6896 90 65.4632 90C60.2369 90 56 85.7467 56 80.5Z" fill="#24CB71"/>
<path d="M74.9265 33V52H84.3897C89.6161 52 93.8529 47.7467 93.8529 42.5C93.8529 37.2533 89.6161 33 84.3897 33H74.9265Z" fill="#FF7237"/>
<path d="M84.3109 70.9998C89.5373 70.9998 93.7741 66.7465 93.7741 61.4998C93.7741 56.2531 89.5373 51.9998 84.3109 51.9998C79.0845 51.9998 74.8476 56.2531 74.8476 61.4998C74.8476 66.7465 79.0845 70.9998 84.3109 70.9998Z" fill="#00B6FF"/>
<path d="M56 42.5C56 47.7467 60.2369 52 65.4632 52H74.9265V33H65.4632C60.2369 33 56 37.2533 56 42.5Z" fill="#FF3737"/>
<path d="M56 61.4998C56 66.7464 60.2369 70.9998 65.4632 70.9998H74.9265V51.9998H65.4632C60.2369 51.9998 56 56.2531 56 61.4998Z" fill="#874FFF"/>
<g filter="url(#filter1_f_344_14240)">
<path d="M168.75 54.25C168.75 47.5994 168.75 44.2741 170.044 41.7339C171.183 39.4994 172.999 37.6828 175.234 36.5443C177.774 35.25 181.099 35.25 187.75 35.25H202.25C208.901 35.25 212.226 35.25 214.766 36.5443C217.001 37.6828 218.817 39.4994 219.956 41.7339C221.25 44.2741 221.25 47.5994 221.25 54.25V68.75C221.25 75.4006 221.25 78.7259 219.956 81.2661C218.817 83.5006 217.001 85.3172 214.766 86.4557C212.226 87.75 208.901 87.75 202.25 87.75H187.75C181.099 87.75 177.774 87.75 175.234 86.4557C172.999 85.3172 171.183 83.5006 170.044 81.2661C168.75 78.7259 168.75 75.4006 168.75 68.75V54.25Z" fill="#330000"/>
<path d="M194.191 68.243H186.055L184.4 73.5168C184.354 73.7127 184.174 73.8515 183.977 73.8419H179.857C179.622 73.8419 179.54 73.7094 179.61 73.4446L186.654 52.6384C186.724 52.4217 186.795 52.1749 186.865 51.8979C186.957 51.4159 187.005 50.9261 187.006 50.435C186.986 50.2899 187.113 50.1618 187.253 50.1821H192.852C193.016 50.1821 193.11 50.2423 193.134 50.3627L201.129 73.4806C201.199 73.7217 201.129 73.8421 200.918 73.8419H196.339C196.178 73.8601 196.025 73.75 195.987 73.589L194.191 68.243ZM187.323 63.6917H192.888C191.973 60.5676 190.942 57.4846 190.105 54.3361C189.203 57.4899 188.219 60.6309 187.323 63.6917Z" fill="#FF9A00"/>
<path d="M205.883 54.0109C205.524 54.0257 205.166 53.9626 204.832 53.8256C204.498 53.6887 204.196 53.481 203.946 53.2162C203.696 52.94 203.503 52.6158 203.376 52.2625C203.249 51.9091 203.191 51.5335 203.206 51.1573C203.193 50.7848 203.257 50.4137 203.394 50.0682C203.531 49.7228 203.737 49.4107 203.999 49.1525C204.258 48.897 204.565 48.6968 204.9 48.5635C205.236 48.4302 205.594 48.3664 205.953 48.3759C206.799 48.3759 207.462 48.6348 207.943 49.1525C208.186 49.4216 208.375 49.7372 208.499 50.0812C208.623 50.4252 208.679 50.7909 208.665 51.1573C208.68 51.535 208.62 51.9119 208.49 52.2656C208.36 52.6193 208.162 52.9426 207.908 53.2162C207.642 53.4849 207.325 53.6942 206.977 53.831C206.628 53.9678 206.256 54.029 205.883 54.0109ZM203.453 73.4805V56.2143C203.453 55.9976 203.546 55.8892 203.735 55.8892H208.067C208.254 55.8892 208.348 55.9976 208.348 56.2143V73.4805C208.348 73.7215 208.254 73.842 208.067 73.8418H203.77C203.559 73.8418 203.453 73.7214 203.453 73.4805Z" fill="#FF9A00"/>
</g>
<path d="M168.75 54.25C168.75 47.5994 168.75 44.2741 170.044 41.7339C171.183 39.4994 172.999 37.6828 175.234 36.5443C177.774 35.25 181.099 35.25 187.75 35.25H202.25C208.901 35.25 212.226 35.25 214.766 36.5443C217.001 37.6828 218.817 39.4994 219.956 41.7339C221.25 44.2741 221.25 47.5994 221.25 54.25V68.75C221.25 75.4006 221.25 78.7259 219.956 81.2661C218.817 83.5006 217.001 85.3172 214.766 86.4557C212.226 87.75 208.901 87.75 202.25 87.75H187.75C181.099 87.75 177.774 87.75 175.234 86.4557C172.999 85.3172 171.183 83.5006 170.044 81.2661C168.75 78.7259 168.75 75.4006 168.75 68.75V54.25Z" fill="#330000"/>
<path d="M194.191 68.243H186.055L184.4 73.5168C184.354 73.7127 184.174 73.8515 183.977 73.8419H179.857C179.622 73.8419 179.54 73.7094 179.61 73.4446L186.654 52.6384C186.724 52.4217 186.795 52.1749 186.865 51.8979C186.957 51.4159 187.005 50.9261 187.006 50.435C186.986 50.2899 187.113 50.1618 187.253 50.1821H192.852C193.016 50.1821 193.11 50.2423 193.134 50.3627L201.129 73.4806C201.199 73.7217 201.129 73.8421 200.918 73.8419H196.339C196.178 73.8601 196.025 73.75 195.987 73.589L194.191 68.243ZM187.323 63.6917H192.888C191.973 60.5676 190.942 57.4846 190.105 54.3361C189.203 57.4899 188.219 60.6309 187.323 63.6917Z" fill="#FF9A00"/>
<path d="M205.883 54.0109C205.524 54.0257 205.166 53.9626 204.832 53.8256C204.498 53.6887 204.196 53.481 203.946 53.2162C203.696 52.94 203.503 52.6158 203.376 52.2625C203.249 51.9091 203.191 51.5335 203.206 51.1573C203.193 50.7848 203.257 50.4137 203.394 50.0682C203.531 49.7228 203.737 49.4107 203.999 49.1525C204.258 48.897 204.565 48.6968 204.9 48.5635C205.236 48.4302 205.594 48.3664 205.953 48.3759C206.799 48.3759 207.462 48.6348 207.943 49.1525C208.186 49.4216 208.375 49.7372 208.499 50.0812C208.623 50.4252 208.679 50.7909 208.665 51.1573C208.68 51.535 208.62 51.9119 208.49 52.2656C208.36 52.6193 208.162 52.9426 207.908 53.2162C207.642 53.4849 207.325 53.6942 206.977 53.831C206.628 53.9678 206.256 54.029 205.883 54.0109ZM203.453 73.4805V56.2143C203.453 55.9976 203.546 55.8892 203.735 55.8892H208.067C208.254 55.8892 208.348 55.9976 208.348 56.2143V73.4805C208.348 73.7215 208.254 73.842 208.067 73.8418H203.77C203.559 73.8418 203.453 73.7214 203.453 73.4805Z" fill="#FF9A00"/>
<path d="M153.57 102.047V112H152.251V102.047H153.57ZM162.006 110.927V112H157.029V110.927H162.006ZM157.289 102.047V112H155.97V102.047H157.289ZM169.553 110.927V112H164.576V110.927H169.553ZM164.836 102.047V112H163.517V102.047H164.836ZM176.389 102.047H177.701V108.78C177.701 109.528 177.535 110.15 177.202 110.646C176.869 111.143 176.427 111.517 175.876 111.768C175.329 112.014 174.734 112.137 174.092 112.137C173.417 112.137 172.807 112.014 172.26 111.768C171.717 111.517 171.287 111.143 170.968 110.646C170.653 110.15 170.496 109.528 170.496 108.78V102.047H171.802V108.78C171.802 109.3 171.897 109.728 172.089 110.065C172.28 110.403 172.547 110.653 172.889 110.817C173.235 110.981 173.636 111.063 174.092 111.063C174.552 111.063 174.953 110.981 175.295 110.817C175.641 110.653 175.91 110.403 176.102 110.065C176.293 109.728 176.389 109.3 176.389 108.78V102.047ZM185.077 109.484C185.077 109.252 185.041 109.047 184.968 108.869C184.899 108.687 184.776 108.523 184.599 108.377C184.425 108.231 184.184 108.092 183.874 107.96C183.569 107.828 183.181 107.693 182.712 107.557C182.22 107.411 181.775 107.249 181.379 107.071C180.982 106.889 180.643 106.682 180.36 106.449C180.078 106.217 179.861 105.95 179.711 105.649C179.561 105.349 179.485 105.005 179.485 104.617C179.485 104.23 179.565 103.872 179.725 103.544C179.884 103.216 180.112 102.931 180.408 102.689C180.709 102.443 181.067 102.252 181.481 102.115C181.896 101.979 182.359 101.91 182.869 101.91C183.617 101.91 184.25 102.054 184.77 102.341C185.294 102.623 185.692 102.995 185.966 103.455C186.239 103.911 186.376 104.398 186.376 104.918H185.063C185.063 104.544 184.984 104.214 184.824 103.927C184.665 103.635 184.423 103.407 184.1 103.243C183.776 103.075 183.366 102.99 182.869 102.99C182.4 102.99 182.012 103.061 181.707 103.202C181.402 103.343 181.174 103.535 181.023 103.776C180.878 104.018 180.805 104.294 180.805 104.604C180.805 104.813 180.848 105.005 180.935 105.178C181.026 105.346 181.165 105.504 181.352 105.649C181.543 105.795 181.785 105.93 182.076 106.053C182.372 106.176 182.726 106.294 183.136 106.408C183.701 106.568 184.188 106.745 184.599 106.941C185.009 107.137 185.346 107.358 185.61 107.604C185.879 107.846 186.077 108.122 186.205 108.432C186.337 108.737 186.403 109.083 186.403 109.471C186.403 109.876 186.321 110.243 186.157 110.571C185.993 110.899 185.758 111.18 185.453 111.412C185.148 111.645 184.781 111.825 184.353 111.952C183.929 112.075 183.455 112.137 182.931 112.137C182.47 112.137 182.017 112.073 181.57 111.945C181.128 111.818 180.725 111.626 180.36 111.371C180 111.116 179.711 110.801 179.492 110.428C179.278 110.049 179.171 109.612 179.171 109.115H180.483C180.483 109.457 180.549 109.751 180.682 109.997C180.814 110.239 180.994 110.439 181.222 110.599C181.454 110.758 181.716 110.877 182.008 110.954C182.304 111.027 182.612 111.063 182.931 111.063C183.391 111.063 183.781 111 184.1 110.872C184.419 110.744 184.66 110.562 184.824 110.325C184.993 110.088 185.077 109.808 185.077 109.484ZM191.763 102.047V112H190.464V102.047H191.763ZM194.962 102.047V103.127H187.271V102.047H194.962ZM196.438 102.047H199.733C200.481 102.047 201.112 102.161 201.627 102.389C202.146 102.617 202.541 102.954 202.81 103.4C203.083 103.842 203.22 104.387 203.22 105.034C203.22 105.49 203.126 105.907 202.939 106.285C202.757 106.659 202.493 106.978 202.146 107.242C201.805 107.502 201.395 107.696 200.916 107.823L200.547 107.967H197.45L197.437 106.894H199.774C200.248 106.894 200.643 106.812 200.957 106.647C201.271 106.479 201.508 106.253 201.668 105.971C201.827 105.688 201.907 105.376 201.907 105.034C201.907 104.651 201.832 104.316 201.682 104.029C201.531 103.742 201.294 103.521 200.971 103.366C200.652 103.207 200.239 103.127 199.733 103.127H197.758V112H196.438V102.047ZM202.256 112L199.836 107.488L201.21 107.481L203.664 111.918V112H202.256ZM208.75 102.929L205.455 112H204.108L207.902 102.047H208.771L208.75 102.929ZM211.512 112L208.21 102.929L208.189 102.047H209.058L212.865 112H211.512ZM211.341 108.315V109.396H205.749V108.315H211.341ZM216.987 102.047V112H215.688V102.047H216.987ZM220.187 102.047V103.127H212.496V102.047H220.187ZM229.135 106.709V107.338C229.135 108.085 229.041 108.755 228.854 109.348C228.668 109.94 228.399 110.444 228.048 110.858C227.697 111.273 227.275 111.59 226.783 111.809C226.296 112.027 225.749 112.137 225.143 112.137C224.555 112.137 224.015 112.027 223.522 111.809C223.035 111.59 222.611 111.273 222.251 110.858C221.896 110.444 221.62 109.94 221.424 109.348C221.228 108.755 221.13 108.085 221.13 107.338V106.709C221.13 105.962 221.226 105.294 221.417 104.706C221.613 104.114 221.889 103.61 222.244 103.195C222.6 102.776 223.021 102.457 223.509 102.238C224.001 102.02 224.541 101.91 225.129 101.91C225.735 101.91 226.282 102.02 226.77 102.238C227.262 102.457 227.683 102.776 228.034 103.195C228.39 103.61 228.661 104.114 228.848 104.706C229.039 105.294 229.135 105.962 229.135 106.709ZM227.829 107.338V106.695C227.829 106.103 227.768 105.579 227.645 105.123C227.526 104.667 227.351 104.285 227.118 103.975C226.886 103.665 226.601 103.43 226.264 103.271C225.931 103.111 225.553 103.031 225.129 103.031C224.719 103.031 224.347 103.111 224.015 103.271C223.687 103.43 223.404 103.665 223.167 103.975C222.935 104.285 222.755 104.667 222.627 105.123C222.499 105.579 222.436 106.103 222.436 106.695V107.338C222.436 107.935 222.499 108.464 222.627 108.924C222.755 109.38 222.937 109.765 223.174 110.079C223.415 110.389 223.7 110.624 224.028 110.783C224.361 110.943 224.732 111.022 225.143 111.022C225.571 111.022 225.951 110.943 226.284 110.783C226.617 110.624 226.897 110.389 227.125 110.079C227.357 109.765 227.533 109.38 227.651 108.924C227.77 108.464 227.829 107.935 227.829 107.338ZM231.11 102.047H234.405C235.153 102.047 235.784 102.161 236.299 102.389C236.818 102.617 237.213 102.954 237.481 103.4C237.755 103.842 237.892 104.387 237.892 105.034C237.892 105.49 237.798 105.907 237.611 106.285C237.429 106.659 237.165 106.978 236.818 107.242C236.477 107.502 236.066 107.696 235.588 107.823L235.219 107.967H232.122L232.108 106.894H234.446C234.92 106.894 235.314 106.812 235.629 106.647C235.943 106.479 236.18 106.253 236.34 105.971C236.499 105.688 236.579 105.376 236.579 105.034C236.579 104.651 236.504 104.316 236.354 104.029C236.203 103.742 235.966 103.521 235.643 103.366C235.324 103.207 234.911 103.127 234.405 103.127H232.43V112H231.11V102.047ZM236.928 112L234.508 107.488L235.882 107.481L238.336 111.918V112H236.928Z" fill="white"/>
<path d="M288.826 107.097H286.167V106.023H288.826C289.341 106.023 289.758 105.941 290.077 105.777C290.396 105.613 290.629 105.385 290.774 105.094C290.925 104.802 291 104.469 291 104.096C291 103.754 290.925 103.433 290.774 103.132C290.629 102.831 290.396 102.59 290.077 102.407C289.758 102.22 289.341 102.127 288.826 102.127H286.475V111H285.155V101.047H288.826C289.578 101.047 290.214 101.177 290.733 101.437C291.253 101.696 291.647 102.056 291.916 102.517C292.185 102.972 292.319 103.494 292.319 104.082C292.319 104.72 292.185 105.265 291.916 105.716C291.647 106.167 291.253 106.511 290.733 106.748C290.214 106.98 289.578 107.097 288.826 107.097ZM300.488 105.326V106.399H295.102V105.326H300.488ZM295.307 101.047V111H293.987V101.047H295.307ZM301.637 101.047V111H300.324V101.047H301.637ZM311.645 105.709V106.338C311.645 107.085 311.551 107.755 311.364 108.348C311.177 108.94 310.909 109.444 310.558 109.858C310.207 110.273 309.785 110.59 309.293 110.809C308.805 111.027 308.258 111.137 307.652 111.137C307.064 111.137 306.524 111.027 306.032 110.809C305.545 110.59 305.121 110.273 304.761 109.858C304.405 109.444 304.13 108.94 303.934 108.348C303.738 107.755 303.64 107.085 303.64 106.338V105.709C303.64 104.962 303.735 104.294 303.927 103.706C304.123 103.114 304.398 102.61 304.754 102.195C305.109 101.776 305.531 101.457 306.019 101.238C306.511 101.02 307.051 100.91 307.639 100.91C308.245 100.91 308.792 101.02 309.279 101.238C309.771 101.457 310.193 101.776 310.544 102.195C310.899 102.61 311.171 103.114 311.357 103.706C311.549 104.294 311.645 104.962 311.645 105.709ZM310.339 106.338V105.695C310.339 105.103 310.277 104.579 310.154 104.123C310.036 103.667 309.86 103.285 309.628 102.975C309.396 102.665 309.111 102.43 308.773 102.271C308.441 102.111 308.062 102.031 307.639 102.031C307.229 102.031 306.857 102.111 306.524 102.271C306.196 102.43 305.914 102.665 305.677 102.975C305.444 103.285 305.264 103.667 305.137 104.123C305.009 104.579 304.945 105.103 304.945 105.695V106.338C304.945 106.935 305.009 107.464 305.137 107.924C305.264 108.38 305.447 108.765 305.684 109.079C305.925 109.389 306.21 109.624 306.538 109.783C306.871 109.943 307.242 110.022 307.652 110.022C308.081 110.022 308.461 109.943 308.794 109.783C309.127 109.624 309.407 109.389 309.635 109.079C309.867 108.765 310.043 108.38 310.161 107.924C310.28 107.464 310.339 106.935 310.339 106.338ZM317.106 101.047V111H315.808V101.047H317.106ZM320.306 101.047V102.127H312.615V101.047H320.306ZM329.254 105.709V106.338C329.254 107.085 329.16 107.755 328.974 108.348C328.787 108.94 328.518 109.444 328.167 109.858C327.816 110.273 327.395 110.59 326.902 110.809C326.415 111.027 325.868 111.137 325.262 111.137C324.674 111.137 324.134 111.027 323.642 110.809C323.154 110.59 322.73 110.273 322.37 109.858C322.015 109.444 321.739 108.94 321.543 108.348C321.347 107.755 321.249 107.085 321.249 106.338V105.709C321.249 104.962 321.345 104.294 321.536 103.706C321.732 103.114 322.008 102.61 322.363 102.195C322.719 101.776 323.14 101.457 323.628 101.238C324.12 101.02 324.66 100.91 325.248 100.91C325.854 100.91 326.401 101.02 326.889 101.238C327.381 101.457 327.802 101.776 328.153 102.195C328.509 102.61 328.78 103.114 328.967 103.706C329.158 104.294 329.254 104.962 329.254 105.709ZM327.948 106.338V105.695C327.948 105.103 327.887 104.579 327.764 104.123C327.645 103.667 327.47 103.285 327.237 102.975C327.005 102.665 326.72 102.43 326.383 102.271C326.05 102.111 325.672 102.031 325.248 102.031C324.838 102.031 324.466 102.111 324.134 102.271C323.806 102.43 323.523 102.665 323.286 102.975C323.054 103.285 322.874 103.667 322.746 104.123C322.618 104.579 322.555 105.103 322.555 105.695V106.338C322.555 106.935 322.618 107.464 322.746 107.924C322.874 108.38 323.056 108.765 323.293 109.079C323.535 109.389 323.819 109.624 324.147 109.783C324.48 109.943 324.852 110.022 325.262 110.022C325.69 110.022 326.071 109.943 326.403 109.783C326.736 109.624 327.016 109.389 327.244 109.079C327.477 108.765 327.652 108.38 327.771 107.924C327.889 107.464 327.948 106.935 327.948 106.338ZM336.534 108.484C336.534 108.252 336.498 108.047 336.425 107.869C336.356 107.687 336.233 107.523 336.056 107.377C335.882 107.231 335.641 107.092 335.331 106.96C335.026 106.828 334.638 106.693 334.169 106.557C333.677 106.411 333.232 106.249 332.836 106.071C332.439 105.889 332.1 105.682 331.817 105.449C331.535 105.217 331.318 104.95 331.168 104.649C331.018 104.349 330.942 104.005 330.942 103.617C330.942 103.23 331.022 102.872 331.182 102.544C331.341 102.216 331.569 101.931 331.865 101.689C332.166 101.443 332.524 101.252 332.938 101.115C333.353 100.979 333.816 100.91 334.326 100.91C335.074 100.91 335.707 101.054 336.227 101.341C336.751 101.623 337.149 101.995 337.423 102.455C337.696 102.911 337.833 103.398 337.833 103.918H336.521C336.521 103.544 336.441 103.214 336.281 102.927C336.122 102.635 335.88 102.407 335.557 102.243C335.233 102.075 334.823 101.99 334.326 101.99C333.857 101.99 333.469 102.061 333.164 102.202C332.859 102.343 332.631 102.535 332.48 102.776C332.335 103.018 332.262 103.294 332.262 103.604C332.262 103.813 332.305 104.005 332.392 104.178C332.483 104.346 332.622 104.504 332.809 104.649C333 104.795 333.242 104.93 333.533 105.053C333.829 105.176 334.183 105.294 334.593 105.408C335.158 105.568 335.646 105.745 336.056 105.941C336.466 106.137 336.803 106.358 337.067 106.604C337.336 106.846 337.535 107.122 337.662 107.432C337.794 107.737 337.86 108.083 337.86 108.471C337.86 108.876 337.778 109.243 337.614 109.571C337.45 109.899 337.215 110.18 336.91 110.412C336.605 110.645 336.238 110.825 335.81 110.952C335.386 111.075 334.912 111.137 334.388 111.137C333.927 111.137 333.474 111.073 333.027 110.945C332.585 110.818 332.182 110.626 331.817 110.371C331.457 110.116 331.168 109.801 330.949 109.428C330.735 109.049 330.628 108.612 330.628 108.115H331.94C331.94 108.457 332.007 108.751 332.139 108.997C332.271 109.239 332.451 109.439 332.679 109.599C332.911 109.758 333.173 109.877 333.465 109.954C333.761 110.027 334.069 110.063 334.388 110.063C334.848 110.063 335.238 110 335.557 109.872C335.876 109.744 336.117 109.562 336.281 109.325C336.45 109.088 336.534 108.808 336.534 108.484ZM346.043 105.326V106.399H340.656V105.326H346.043ZM340.861 101.047V111H339.542V101.047H340.861ZM347.191 101.047V111H345.879V101.047H347.191ZM357.199 105.709V106.338C357.199 107.085 357.106 107.755 356.919 108.348C356.732 108.94 356.463 109.444 356.112 109.858C355.761 110.273 355.34 110.59 354.848 110.809C354.36 111.027 353.813 111.137 353.207 111.137C352.619 111.137 352.079 111.027 351.587 110.809C351.099 110.59 350.675 110.273 350.315 109.858C349.96 109.444 349.684 108.94 349.488 108.348C349.292 107.755 349.194 107.085 349.194 106.338V105.709C349.194 104.962 349.29 104.294 349.481 103.706C349.677 103.114 349.953 102.61 350.309 102.195C350.664 101.776 351.086 101.457 351.573 101.238C352.065 101.02 352.605 100.91 353.193 100.91C353.799 100.91 354.346 101.02 354.834 101.238C355.326 101.457 355.748 101.776 356.099 102.195C356.454 102.61 356.725 103.114 356.912 103.706C357.104 104.294 357.199 104.962 357.199 105.709ZM355.894 106.338V105.695C355.894 105.103 355.832 104.579 355.709 104.123C355.59 103.667 355.415 103.285 355.183 102.975C354.95 102.665 354.665 102.43 354.328 102.271C353.995 102.111 353.617 102.031 353.193 102.031C352.783 102.031 352.412 102.111 352.079 102.271C351.751 102.43 351.468 102.665 351.231 102.975C350.999 103.285 350.819 103.667 350.691 104.123C350.564 104.579 350.5 105.103 350.5 105.695V106.338C350.5 106.935 350.564 107.464 350.691 107.924C350.819 108.38 351.001 108.765 351.238 109.079C351.48 109.389 351.765 109.624 352.093 109.783C352.425 109.943 352.797 110.022 353.207 110.022C353.635 110.022 354.016 109.943 354.349 109.783C354.681 109.624 354.962 109.389 355.189 109.079C355.422 108.765 355.597 108.38 355.716 107.924C355.834 107.464 355.894 106.935 355.894 106.338ZM362.846 107.097H360.187V106.023H362.846C363.361 106.023 363.778 105.941 364.097 105.777C364.416 105.613 364.648 105.385 364.794 105.094C364.944 104.802 365.02 104.469 365.02 104.096C365.02 103.754 364.944 103.433 364.794 103.132C364.648 102.831 364.416 102.59 364.097 102.407C363.778 102.22 363.361 102.127 362.846 102.127H360.494V111H359.175V101.047H362.846C363.598 101.047 364.233 101.177 364.753 101.437C365.272 101.696 365.667 102.056 365.936 102.517C366.204 102.972 366.339 103.494 366.339 104.082C366.339 104.72 366.204 105.265 365.936 105.716C365.667 106.167 365.272 106.511 364.753 106.748C364.233 106.98 363.598 107.097 362.846 107.097Z" fill="white"/>
<path d="M440.475 101.047V111H439.155V101.047H440.475ZM446.483 101.047L442.348 105.688L440.023 108.102L439.805 106.693L441.555 104.766L444.897 101.047H446.483ZM445.212 111L441.527 106.146L442.313 105.101L446.784 111H445.212ZM447.946 101.047H451.241C451.989 101.047 452.62 101.161 453.135 101.389C453.654 101.617 454.049 101.954 454.317 102.4C454.591 102.842 454.728 103.387 454.728 104.034C454.728 104.49 454.634 104.907 454.447 105.285C454.265 105.659 454.001 105.978 453.654 106.242C453.312 106.502 452.902 106.696 452.424 106.823L452.055 106.967H448.958L448.944 105.894H451.282C451.756 105.894 452.15 105.812 452.465 105.647C452.779 105.479 453.016 105.253 453.176 104.971C453.335 104.688 453.415 104.376 453.415 104.034C453.415 103.651 453.34 103.316 453.189 103.029C453.039 102.742 452.802 102.521 452.479 102.366C452.16 102.207 451.747 102.127 451.241 102.127H449.266V111H447.946V101.047ZM453.764 111L451.344 106.488L452.718 106.481L455.172 110.918V111H453.764ZM457.988 101.047V111H456.669V101.047H457.988ZM463.86 101.047V111H462.562V101.047H463.86ZM467.06 101.047V102.127H459.369V101.047H467.06ZM471.674 101.929L468.379 111H467.032L470.826 101.047H471.694L471.674 101.929ZM474.436 111L471.134 101.929L471.113 101.047H471.981L475.789 111H474.436ZM474.265 107.315V108.396H468.673V107.315H474.265Z" fill="white"/>
<g filter="url(#filter2_f_344_14240)">
<path d="M298.75 54.25C298.75 47.5994 298.75 44.2741 300.044 41.7339C301.183 39.4994 302.999 37.6828 305.234 36.5443C307.774 35.25 311.099 35.25 317.75 35.25H332.25C338.901 35.25 342.226 35.25 344.766 36.5443C347.001 37.6828 348.817 39.4994 349.956 41.7339C351.25 44.2741 351.25 47.5994 351.25 54.25V68.75C351.25 75.4006 351.25 78.7259 349.956 81.2661C348.817 83.5006 347.001 85.3172 344.766 86.4557C342.226 87.75 338.901 87.75 332.25 87.75H317.75C311.099 87.75 307.774 87.75 305.234 86.4557C302.999 85.3172 301.183 83.5006 300.044 81.2661C298.75 78.7259 298.75 75.4006 298.75 68.75V54.25Z" fill="#001E36"/>
<path d="M310 73.718V50.6314C310 50.4744 310.066 50.3846 310.219 50.3846C312.479 50.3846 314.739 50.25 317 50.25C320.669 50.25 324.642 51.5046 326.034 55.343C326.363 56.2853 326.538 57.25 326.538 58.2596C326.538 60.1891 326.1 61.7821 325.225 63.0385C322.781 66.5481 318.544 66.4936 314.747 66.4936V73.6955C314.777 73.9087 314.595 74.0096 314.419 74.0096H310.263C310.088 74.0096 310 73.9199 310 73.718ZM314.769 54.7147V62.2532C316.274 62.3635 317.85 62.3755 319.297 61.8942C320.894 61.4335 321.769 60.0509 321.769 58.3942C321.813 56.9825 321.044 55.628 319.734 55.1186C318.305 54.5243 316.312 54.4887 314.769 54.7147Z" fill="#31A8FF"/>
<path d="M340.181 60.7638C339.519 60.415 338.814 60.1598 338.086 60.0053C337.149 59.7849 333.456 59.0132 333.454 60.9444C333.487 62.0226 335.199 62.5508 335.955 62.8589C338.61 63.7703 341.614 65.3995 341.555 68.6745C341.636 72.7515 337.686 74.3814 334.3 74.3817C332.537 74.4 330.701 74.127 329.087 73.3703C328.933 73.2888 328.834 73.1144 328.841 72.9368V69.0357C328.823 68.8793 328.991 68.7426 329.123 68.8551C330.703 69.811 332.577 70.2751 334.405 70.3C335.213 70.3 336.812 70.2217 336.8 69.0357C336.8 67.8975 334.886 67.3742 334.124 67.0851C333.018 66.6903 331.969 66.1435 331.007 65.4596C329.662 64.5002 328.818 62.9619 328.841 61.2695C328.833 57.4307 332.469 55.7076 335.744 55.7068C337.275 55.6941 338.918 55.8075 340.343 56.4292C340.548 56.4895 340.591 56.7054 340.59 56.8988V60.5471C340.603 60.7735 340.351 60.8507 340.181 60.7638Z" fill="#31A8FF"/>
</g>
<path d="M298.75 54.25C298.75 47.5994 298.75 44.2741 300.044 41.7339C301.183 39.4994 302.999 37.6828 305.234 36.5443C307.774 35.25 311.099 35.25 317.75 35.25H332.25C338.901 35.25 342.226 35.25 344.766 36.5443C347.001 37.6828 348.817 39.4994 349.956 41.7339C351.25 44.2741 351.25 47.5994 351.25 54.25V68.75C351.25 75.4006 351.25 78.7259 349.956 81.2661C348.817 83.5006 347.001 85.3172 344.766 86.4557C342.226 87.75 338.901 87.75 332.25 87.75H317.75C311.099 87.75 307.774 87.75 305.234 86.4557C302.999 85.3172 301.183 83.5006 300.044 81.2661C298.75 78.7259 298.75 75.4006 298.75 68.75V54.25Z" fill="#001E36"/>
<path d="M310 73.718V50.6314C310 50.4744 310.066 50.3846 310.219 50.3846C312.479 50.3846 314.739 50.25 317 50.25C320.669 50.25 324.642 51.5046 326.034 55.343C326.363 56.2853 326.538 57.25 326.538 58.2596C326.538 60.1891 326.1 61.7821 325.225 63.0385C322.781 66.5481 318.544 66.4936 314.747 66.4936V73.6955C314.777 73.9087 314.595 74.0096 314.419 74.0096H310.263C310.088 74.0096 310 73.9199 310 73.718ZM314.769 54.7147V62.2532C316.274 62.3635 317.85 62.3755 319.297 61.8942C320.894 61.4335 321.769 60.0509 321.769 58.3942C321.813 56.9825 321.044 55.628 319.734 55.1186C318.305 54.5243 316.312 54.4887 314.769 54.7147Z" fill="#31A8FF"/>
<path d="M340.181 60.7638C339.519 60.415 338.814 60.1598 338.086 60.0053C337.149 59.7849 333.456 59.0132 333.454 60.9444C333.487 62.0226 335.199 62.5508 335.955 62.8589C338.61 63.7703 341.614 65.3995 341.555 68.6745C341.636 72.7515 337.686 74.3814 334.3 74.3817C332.537 74.4 330.701 74.127 329.087 73.3703C328.933 73.2888 328.834 73.1144 328.841 72.9368V69.0357C328.823 68.8793 328.991 68.7426 329.123 68.8551C330.703 69.811 332.577 70.2751 334.405 70.3C335.213 70.3 336.812 70.2217 336.8 69.0357C336.8 67.8975 334.886 67.3742 334.124 67.0851C333.018 66.6903 331.969 66.1435 331.007 65.4596C329.662 64.5002 328.818 62.9619 328.841 61.2695C328.833 57.4307 332.469 55.7076 335.744 55.7068C337.275 55.6941 338.918 55.8075 340.343 56.4292C340.548 56.4895 340.591 56.7054 340.59 56.8988V60.5471C340.603 60.7735 340.351 60.8507 340.181 60.7638Z" fill="#31A8FF"/>
<g filter="url(#filter3_f_344_14240)">
<path d="M430.924 37.844C431.189 38.0298 431.459 38.2047 431.733 38.3769C431.835 38.4414 431.937 38.5065 432.04 38.5711C432.091 38.6037 432.142 38.6362 432.196 38.6698C432.344 38.7633 432.491 38.8567 432.638 38.9507C433.191 39.3045 433.747 39.6547 434.305 40.0028C434.832 40.3314 435.357 40.6632 435.882 40.9956C436.484 41.3767 437.088 41.7558 437.693 42.1332C437.916 42.2729 438.14 42.4131 438.364 42.5532C438.42 42.5884 438.476 42.6241 438.534 42.6603C438.641 42.7275 438.748 42.7947 438.855 42.8619C439.149 43.0467 439.446 43.2226 439.752 43.3875C439.791 43.3512 439.83 43.315 439.87 43.2777C440.223 42.9501 440.583 42.6367 440.96 42.3375C440.993 42.3107 441.027 42.2839 441.061 42.2566C442.209 41.34 443.433 40.5246 444.727 39.8285C444.845 39.765 444.962 39.7004 445.08 39.6358C447.626 38.2509 450.482 37.413 453.35 37.035C453.414 37.0266 453.478 37.0176 453.544 37.0087C455.543 36.7525 457.653 36.7588 459.65 37.035C459.687 37.0402 459.724 37.0449 459.762 37.0502C464.295 37.6844 468.675 39.4909 472.415 42.6761C472.486 42.7354 472.558 42.7932 472.631 42.8499C473.07 43.1958 473.461 43.5859 473.854 43.9828C473.97 44.0999 474.086 44.2164 474.202 44.333C474.278 44.4081 474.353 44.4837 474.428 44.5593C474.462 44.5934 474.496 44.6275 474.532 44.6627C478.115 48.2831 480.309 53.3415 481.143 62.0024C481.142 62.2397 481.143 62.4775 481.143 62.7153C481.149 64.22 481.082 65.7084 480.817 67.1931C480.804 67.2723 480.79 67.3516 480.776 67.4309C480.079 71.4004 478.399 75.2056 475.872 78.3525C475.831 78.4039 475.79 78.4559 475.748 78.5089C475.633 78.6507 475.517 78.7903 475.4 78.93C475.378 78.9567 475.355 78.9835 475.332 79.0113C474.677 79.7952 473.984 80.5758 473.207 81.2415C473.094 81.3413 472.984 81.4437 472.874 81.5471C472.535 81.8626 472.182 82.1498 471.815 82.4312C471.731 82.4958 471.647 82.5614 471.564 82.627C467.509 85.8043 462.339 87.6644 457.182 87.75C457.133 87.751 457.084 87.7521 457.033 87.7531C453.314 87.8256 449.656 87.0664 446.262 85.545C446.214 85.5234 446.166 85.5019 446.116 85.4793C444.67 84.8268 443.288 84.0036 442.016 83.0554C441.907 82.974 441.797 82.8937 441.687 82.8134C441.195 82.4527 440.733 82.0663 440.277 81.66C440.231 81.6185 440.184 81.577 440.136 81.534C440.007 81.4195 439.879 81.3035 439.752 81.1875C439.726 81.1633 439.699 81.1386 439.672 81.114C439.204 80.6871 438.74 80.2593 438.328 79.7773C438.215 79.6476 438.098 79.5222 437.98 79.3956C437.706 79.0943 437.455 78.7772 437.207 78.4538C437.125 78.3493 437.042 78.2464 436.959 78.1435C434.205 74.7163 432.549 70.3914 432.022 66.0512C432.018 66.015 432.013 65.9793 432.009 65.942C431.911 65.1324 431.868 64.3318 431.867 63.517C431.866 63.4482 431.866 63.4482 431.866 63.3779C431.866 63.1348 431.865 62.8912 431.865 62.6481C431.865 62.4507 431.864 62.2539 431.863 62.057C431.853 60.493 431.903 58.949 432.176 57.405C432.183 57.3666 432.189 57.3283 432.196 57.2889C432.767 53.9914 434.005 50.875 435.815 48.06C435.593 47.7938 435.359 47.547 435.111 47.3055C434.966 47.1633 434.829 47.0178 434.698 46.8635C434.479 46.611 434.242 46.3779 434.004 46.1437C433.526 45.6738 433.526 45.6738 433.326 45.4397C433.086 45.1604 432.822 44.9058 432.56 44.6475C432 44.0957 432 44.0957 431.812 43.8731C431.506 43.5161 431.161 43.1927 430.827 42.8625C430.687 42.7239 430.548 42.5847 430.407 42.4456C430.376 42.4146 430.345 42.3837 430.312 42.3516C430.156 42.1962 430.006 42.0377 429.862 41.8702C429.659 41.635 429.438 41.4198 429.215 41.2035C429.127 41.1174 429.039 41.0313 428.952 40.9446C428.815 40.8108 428.679 40.6774 428.542 40.5446C427.194 39.2394 427.194 39.2394 427.152 38.4525C427.149 37.9422 427.32 37.5579 427.677 37.1925C428.767 36.3467 429.981 37.1783 430.924 37.844Z" fill="#B29DD0"/>
<path d="M430.924 37.8441C431.189 38.0299 431.459 38.2048 431.733 38.377C431.835 38.4415 431.937 38.5066 432.04 38.5712C432.091 38.6038 432.142 38.6363 432.196 38.6699C432.344 38.7634 432.491 38.8568 432.638 38.9508C433.191 39.3046 433.747 39.6548 434.305 40.0029C434.832 40.3315 435.357 40.6633 435.882 40.9957C436.378 41.3096 436.875 41.6225 437.374 41.9338C437.426 41.9669 437.479 41.9995 437.532 42.0331C437.809 42.2063 438.087 42.379 438.364 42.5518C438.42 42.5869 438.476 42.6216 438.534 42.6578C438.641 42.7245 438.748 42.7912 438.855 42.8573C439.119 43.0222 439.381 43.1907 439.639 43.3645C439.828 43.4905 440.02 43.6112 440.212 43.732C440.255 43.7587 440.297 43.786 440.341 43.8139C440.797 44.1005 441.255 44.3835 441.713 44.6665C441.851 44.7515 441.988 44.8366 442.125 44.9216C442.652 45.2492 443.182 45.5737 443.712 45.896C444.042 46.096 444.37 46.2982 444.697 46.5013C445.807 47.1901 446.926 47.8627 448.047 48.5326C448.113 48.5719 448.179 48.6108 448.244 48.6502C448.963 49.0801 449.683 49.5075 450.412 49.9201C451.018 50.2635 451.614 50.6168 452.195 51.0001C452.255 51.0394 452.255 51.0394 452.316 51.0799C453.204 51.6673 454.059 52.3073 454.872 52.9951C454.899 53.0176 454.926 53.0397 454.954 53.0628C455.852 53.8146 456.742 54.6173 457.497 55.5151C457.56 55.5865 457.56 55.5865 457.624 55.6589C458.608 56.7866 459.45 58.0634 459.935 59.4851C459.949 59.525 459.963 59.5649 459.977 59.6059C460.042 59.8059 460.087 59.9749 460.07 60.1876C460.001 60.1361 459.932 60.0847 459.863 60.0332C459.825 60.0049 459.786 59.976 459.747 59.9466C459.65 59.8726 459.65 59.8726 459.597 59.8201C458.883 59.724 458.39 59.9555 457.809 60.3493C456.991 60.9772 456.334 61.919 456.093 62.9239C456.062 63.2814 456.035 63.6851 456.185 64.0201C456.254 64.0563 456.325 64.0909 456.395 64.1251C456.463 64.1713 456.53 64.219 456.597 64.2684C456.655 64.3114 456.655 64.3114 456.715 64.3555C456.757 64.3865 456.798 64.418 456.841 64.45C456.885 64.4826 456.929 64.5151 456.974 64.5482C457.291 64.7834 457.606 65.0202 457.921 65.257C458.367 65.5924 458.818 65.9211 459.271 66.2466C459.428 66.3595 459.585 66.4723 459.742 66.5857C459.82 66.643 459.899 66.6997 459.979 66.7569C460.174 66.8976 460.369 67.0388 460.563 67.1811C461.424 67.8106 462.312 68.3975 463.22 68.9551C463.301 68.8737 463.299 68.7818 463.319 68.6695C463.54 67.5538 464.207 66.7002 465.136 66.0544C465.687 65.7001 465.687 65.7001 465.95 65.7001C465.95 65.6654 465.95 65.6308 465.95 65.5951C467.138 65.4255 468.121 65.6339 469.098 66.3369C470.224 67.2178 470.922 68.4894 471.305 69.8476C471.323 69.9106 471.341 69.9736 471.359 70.0387C471.818 72.0095 471.271 74.0833 470.255 75.7801C469.919 76.3166 469.536 76.7912 469.1 77.2501C469.041 77.3199 468.982 77.3897 468.923 77.4601C468.179 78.309 467.22 78.9238 466.265 79.5076C466.265 79.3233 466.3 79.2855 466.406 79.1401C466.928 78.3809 467.069 77.5409 466.915 76.6395C466.623 75.6089 465.957 74.7201 465.327 73.8738C464.274 72.4579 463.341 71.0267 463.22 69.2176C463.133 69.2695 463.047 69.3215 462.957 69.3751C462.952 69.3294 462.947 69.2842 462.941 69.237C462.824 69.0034 462.696 68.9603 462.467 68.8469C462.245 68.7325 462.035 68.5991 461.824 68.4652C461.781 68.4379 461.738 68.4101 461.693 68.3823C461.227 68.0846 460.766 67.7785 460.306 67.4714C460.165 67.3764 460.023 67.2819 459.881 67.1874C459.066 66.6435 458.259 66.087 457.455 65.5258C457.357 65.4575 457.259 65.3898 457.161 65.3231C457.025 65.2276 457.025 65.2276 456.909 65.1336C456.562 64.8622 456.243 64.8758 455.814 64.8832C453.011 64.8706 450.354 63.3197 448.152 61.7101C448.115 61.6828 448.078 61.656 448.039 61.6276C447.503 61.2355 446.984 60.8228 446.472 60.3976C446.441 60.3718 446.41 60.3456 446.378 60.3188C445.714 59.7649 445.087 59.1727 444.474 58.5632C444.443 58.5322 444.412 58.5013 444.38 58.4692C444.227 58.3165 444.082 58.1611 443.941 57.9973C443.745 57.7726 443.538 57.5605 443.327 57.3499C443.287 57.31 443.247 57.2701 443.206 57.2292C443.076 57.0985 442.945 56.9677 442.814 56.837C442.723 56.7457 442.631 56.6543 442.54 56.5624C442.348 56.3713 442.157 56.1802 441.966 55.9891C441.721 55.745 441.477 55.5004 441.233 55.2557C441.044 55.0667 440.855 54.8782 440.666 54.6892C440.576 54.5995 440.486 54.5092 440.396 54.4194C440.27 54.2929 440.144 54.1669 440.017 54.0409C439.981 54.0041 439.944 53.9674 439.906 53.9296C439.7 53.7238 439.488 53.5285 439.267 53.3379C439.161 53.245 439.06 53.1484 438.961 53.0481C438.924 53.0113 438.888 52.9751 438.85 52.9373C438.812 52.899 438.774 52.8607 438.735 52.8213C438.695 52.7803 438.655 52.7399 438.613 52.6984C438.442 52.5268 438.272 52.3546 438.101 52.1824C437.976 52.0564 437.85 51.9304 437.725 51.8038C437.687 51.7655 437.649 51.7272 437.61 51.6878C437.403 51.4799 437.191 51.2825 436.968 51.0909C436.672 50.8305 436.396 50.547 436.116 50.2687C436.037 50.1916 435.959 50.1144 435.879 50.0372C435.765 49.9259 435.651 49.813 435.538 49.7002C435.502 49.666 435.467 49.6319 435.431 49.5967C435.193 49.3584 435.193 49.3584 435.154 49.1804C435.19 49.0371 435.242 48.9373 435.323 48.814C435.351 48.7693 435.38 48.7252 435.409 48.6801C435.439 48.6344 435.469 48.5893 435.5 48.5425C435.53 48.4958 435.56 48.4496 435.591 48.4018C435.665 48.2874 435.74 48.1735 435.815 48.0601C435.593 47.7939 435.359 47.5471 435.111 47.3056C434.966 47.1634 434.829 47.0179 434.698 46.8636C434.479 46.6111 434.242 46.378 434.004 46.1438C433.526 45.6739 433.526 45.6739 433.326 45.4398C433.086 45.1605 432.822 44.9059 432.56 44.6476C432 44.0958 432 44.0958 431.812 43.8732C431.506 43.5162 431.161 43.1928 430.827 42.8626C430.687 42.724 430.548 42.5848 430.407 42.4457C430.376 42.4147 430.345 42.3838 430.312 42.3517C430.156 42.1963 430.006 42.0378 429.862 41.8703C429.659 41.6351 429.438 41.4199 429.215 41.2036C429.127 41.1175 429.039 41.0314 428.952 40.9447C428.815 40.8109 428.679 40.6775 428.542 40.5447C427.194 39.2395 427.194 39.2395 427.152 38.4526C427.149 37.9423 427.32 37.558 427.677 37.1926C428.767 36.3468 429.981 37.1784 430.924 37.8441Z" fill="#414141"/>
<path d="M481.07 62.8125C481.087 62.8125 481.105 62.8125 481.123 62.8125C481.22 67.727 479.802 72.5712 475.873 78.3525C475.832 78.4039 475.79 78.4559 475.748 78.509C475.633 78.6507 475.517 78.7903 475.4 78.93C475.377 78.9568 475.355 78.9835 475.332 79.0114C474.678 79.7952 473.984 80.5759 473.208 81.2421C473.094 81.3413 472.983 81.4437 472.873 81.5471C472.536 81.8626 472.181 82.1498 471.815 82.4312C471.731 82.4958 471.647 82.5614 471.564 82.6271C467.509 85.8043 462.339 87.6644 457.183 87.75C457.133 87.751 457.083 87.7521 457.032 87.7531C453.313 87.8256 449.657 87.0665 446.263 85.545C446.214 85.5235 446.166 85.5019 446.116 85.4794C444.67 84.8268 443.287 84.0036 442.016 83.0554C441.907 82.9741 441.797 82.8937 441.687 82.8134C441.195 82.4527 440.732 82.0663 440.278 81.66C440.231 81.6185 440.184 81.577 440.136 81.534C440.007 81.4195 439.88 81.3035 439.753 81.1875C439.726 81.1633 439.699 81.1387 439.672 81.114C439.204 80.6872 438.74 80.2593 438.328 79.7773C438.215 79.6477 438.098 79.5222 437.981 79.3962C437.706 79.0943 437.456 78.7772 437.207 78.4543C437.125 78.3493 437.042 78.2464 436.959 78.1435C434.205 74.7163 432.549 70.3914 432.022 66.0512C432.018 66.015 432.013 65.9793 432.009 65.942C431.916 65.1703 431.87 64.409 431.874 63.6325C431.874 63.558 431.875 63.4829 431.875 63.4078C431.875 63.2267 431.876 63.0461 431.878 62.865C431.895 62.865 431.912 62.865 431.93 62.865C431.933 62.907 431.937 62.949 431.941 62.9926C432.112 65.0653 432.455 67.0718 433.085 69.06C433.102 69.1125 433.118 69.1655 433.135 69.2196C434.185 72.5029 436.005 75.571 438.351 78.0926C438.458 78.2092 438.562 78.3278 438.666 78.448C438.869 78.6806 439.084 78.8995 439.303 79.1169C439.34 79.1547 439.378 79.192 439.417 79.2308C439.66 79.4739 439.911 79.7038 440.173 79.9275C440.232 79.9795 440.291 80.0309 440.35 80.0829C440.752 80.4315 441.163 80.7654 441.59 81.0825C441.625 81.1082 441.659 81.1339 441.695 81.1607C442.651 81.8689 443.644 82.5058 444.688 83.0775C444.735 83.1032 444.782 83.1295 444.831 83.1562C448.415 85.105 452.429 86.0794 456.5 86.0863C456.583 86.0868 456.583 86.0868 456.668 86.0868C457.741 86.0889 458.81 86.0243 459.873 85.8731C459.936 85.8642 459.999 85.8553 460.063 85.8463C464.718 85.1628 469.056 83.15 472.618 80.085C472.655 80.053 472.693 80.0204 472.731 79.9874C472.834 79.8981 472.936 79.8083 473.038 79.7175C473.104 79.6582 473.104 79.6582 473.171 79.5983C473.5 79.3017 473.817 78.9961 474.13 78.6838C474.186 78.6286 474.186 78.6286 474.242 78.5725C474.481 78.3326 474.707 78.0847 474.928 77.8275C474.979 77.7682 475.031 77.7088 475.083 77.6495C475.432 77.2479 475.765 76.8373 476.083 76.41C476.109 76.3743 476.135 76.3391 476.162 76.3024C476.578 75.7401 476.972 75.1663 477.343 74.5725C477.372 74.5247 477.372 74.5247 477.403 74.4759C479.58 70.9768 480.873 66.9332 481.07 62.8125Z" fill="black"/>
<path d="M469.244 66.4514C470.283 67.3444 470.937 68.5419 471.305 69.8476C471.323 69.9106 471.341 69.9736 471.36 70.0387C471.818 72.0096 471.271 74.0833 470.255 75.7801C469.919 76.3167 469.536 76.7913 469.1 77.2501C469.041 77.3199 468.981 77.3898 468.923 77.4601C468.179 78.309 467.219 78.9238 466.265 79.5076C466.265 79.3228 466.3 79.2855 466.406 79.1401C466.928 78.381 467.068 77.541 466.915 76.6395C466.624 75.609 465.957 74.7201 465.327 73.8738C464.55 72.8296 463.775 71.7481 463.43 70.4776C463.413 70.4172 463.397 70.3569 463.38 70.2949C463.224 69.6607 463.207 69.0108 463.377 68.3776C463.386 68.3367 463.395 68.2952 463.405 68.2532C463.641 67.3024 464.45 66.496 465.253 65.9794C465.735 65.7001 465.735 65.7001 465.95 65.7001C465.95 65.6655 465.95 65.6308 465.95 65.5951C467.207 65.4156 468.24 65.666 469.244 66.4514Z" fill="#282828"/>
<path d="M459.598 59.7674C459.806 59.8965 459.957 60.0609 460.123 60.2399C460.2 60.3029 460.278 60.3643 460.359 60.4236C460.581 60.5932 460.787 60.777 460.994 60.9649C461.105 61.0662 461.217 61.1655 461.33 61.2636C461.578 61.4794 461.821 61.6999 462.065 61.9199C462.153 61.9986 462.24 62.0774 462.328 62.1561C462.371 62.1955 462.415 62.2344 462.459 62.2748C462.545 62.352 462.631 62.4297 462.718 62.5068C463.008 62.7672 463.296 63.0297 463.583 63.2938C463.692 63.3936 463.801 63.4933 463.91 63.5925C464.179 63.8372 464.443 64.085 464.697 64.3443C464.796 64.4404 464.897 64.5307 465.002 64.6205C465.36 64.9302 465.688 65.2505 465.95 65.6474C465.794 65.7744 465.638 65.8542 465.454 65.9361C464.552 66.3803 463.796 67.2282 463.466 68.1737C463.382 68.4483 463.32 68.7244 463.273 69.0074C462.061 68.3989 460.965 67.5232 459.871 66.7289C459.754 66.6444 459.638 66.5604 459.521 66.4764C458.705 65.8889 457.894 65.2946 457.097 64.6809C456.835 64.4798 456.569 64.2892 456.293 64.1086C456.076 63.9296 456.046 63.7002 456.013 63.4345C455.967 62.5095 456.512 61.7057 457.078 61.0274C457.134 60.9565 457.134 60.9565 457.192 60.8846C457.768 60.2 458.666 59.5737 459.598 59.7674Z" fill="#BEBEBE"/>
<path d="M435.867 48.0076C435.916 48.0564 435.916 48.0564 435.966 48.1068C436.101 48.2417 436.237 48.3761 436.373 48.5105C436.464 48.6024 436.556 48.6937 436.649 48.7851C436.694 48.8308 436.74 48.8759 436.787 48.9226C437.021 49.1557 437.247 49.392 437.461 49.6424C437.605 49.8052 437.76 49.9558 437.915 50.1076C438.139 50.3286 438.354 50.5507 438.557 50.7906C438.702 50.9539 438.859 51.1056 439.015 51.2589C439.185 51.4279 439.344 51.6033 439.5 51.786C439.657 51.9619 439.827 52.1241 439.993 52.2895C440.133 52.4307 440.262 52.5787 440.391 52.7294C440.548 52.9053 440.718 53.0686 440.886 53.2339C441.028 53.3778 441.159 53.5279 441.29 53.6812C441.419 53.8267 441.558 53.9611 441.697 54.0976C441.83 54.233 441.953 54.3769 442.078 54.5212C442.192 54.6504 442.315 54.7706 442.438 54.8914C442.532 54.9869 442.619 55.0846 442.706 55.1859C442.895 55.4032 443.091 55.6138 443.29 55.8238C443.547 56.0968 443.802 56.3713 444.052 56.6512C444.177 56.7919 444.304 56.931 444.431 57.0701C444.609 57.2654 444.784 57.4618 444.957 57.6607C445.304 58.0566 445.66 58.4393 446.034 58.8105C446.109 58.885 446.183 58.9601 446.258 59.0352C446.531 59.3082 446.809 59.5696 447.102 59.8201C447.163 59.8736 447.224 59.9272 447.284 59.9812C447.732 60.376 448.194 60.7446 448.672 61.1021C448.778 61.1819 448.884 61.2628 448.989 61.3441C449.53 61.7599 450.096 62.1327 450.672 62.4976C450.735 62.5375 450.797 62.5774 450.859 62.6173C452.045 63.3638 453.379 64.0027 454.748 64.3188C454.794 64.3298 454.84 64.3408 454.887 64.3524C455.272 64.4427 455.635 64.5088 456.031 64.4721C456.588 64.4227 456.966 64.4495 457.406 64.8175C457.522 64.9189 457.637 65.0218 457.751 65.1262C457.934 65.289 458.133 65.4281 458.334 65.5688C458.413 65.625 458.491 65.6812 458.57 65.7373C458.629 65.7799 458.629 65.7799 458.689 65.8229C458.898 65.9736 459.105 66.1274 459.312 66.2807C459.733 66.5926 460.16 66.8965 460.59 67.1974C460.702 67.2766 460.814 67.3559 460.926 67.4357C461.694 67.9817 462.48 68.4978 463.272 69.0076C463.255 69.1068 463.255 69.1068 463.22 69.2176C463.086 69.3094 463.086 69.3094 462.957 69.3751C462.95 69.3068 462.95 69.3068 462.941 69.2375C462.824 69.0034 462.696 68.9603 462.467 68.8469C462.245 68.7325 462.035 68.5991 461.824 68.4652C461.781 68.4379 461.738 68.4101 461.693 68.3823C461.227 68.0846 460.766 67.7785 460.306 67.4714C460.165 67.3764 460.023 67.2819 459.882 67.1874C459.066 66.6435 458.259 66.087 457.455 65.5258C457.357 65.4575 457.259 65.3898 457.161 65.3231C457.025 65.2276 457.025 65.2276 456.909 65.1336C456.562 64.8622 456.243 64.8758 455.814 64.8832C453.011 64.8706 450.354 63.3197 448.152 61.7101C448.115 61.6828 448.078 61.656 448.04 61.6276C447.503 61.2355 446.983 60.8228 446.472 60.3976C446.441 60.3718 446.41 60.3456 446.378 60.3188C445.714 59.7649 445.087 59.1727 444.474 58.5632C444.443 58.5322 444.412 58.5013 444.38 58.4692C444.228 58.3165 444.081 58.1611 443.941 57.9973C443.745 57.7726 443.538 57.5605 443.327 57.3499C443.287 57.31 443.247 57.2701 443.206 57.2292C443.076 57.0985 442.945 56.9677 442.814 56.837C442.722 56.7457 442.631 56.6543 442.54 56.5624C442.349 56.3713 442.157 56.1802 441.966 55.9891C441.721 55.745 441.477 55.5004 441.233 55.2557C441.044 55.0667 440.856 54.8782 440.667 54.6898C440.576 54.5995 440.486 54.5092 440.396 54.4194C440.27 54.2929 440.144 54.1669 440.018 54.0409C439.962 53.9857 439.962 53.9857 439.906 53.9296C439.7 53.7238 439.487 53.5285 439.267 53.3379C439.161 53.245 439.06 53.1484 438.96 53.0481C438.924 53.0113 438.888 52.9751 438.85 52.9373C438.812 52.899 438.774 52.8607 438.735 52.8213C438.675 52.7604 438.675 52.7604 438.613 52.6984C438.442 52.5268 438.271 52.3546 438.101 52.1824C437.976 52.0564 437.85 51.9304 437.725 51.8038C437.687 51.7655 437.649 51.7272 437.61 51.6878C437.403 51.4799 437.19 51.2825 436.968 51.0909C436.672 50.8305 436.396 50.547 436.115 50.2687C436.037 50.1916 435.959 50.1144 435.88 50.0372C435.765 49.9259 435.651 49.813 435.538 49.7002C435.502 49.666 435.467 49.6319 435.43 49.5967C435.193 49.3584 435.193 49.3584 435.155 49.1804C435.19 49.0376 435.241 48.9389 435.321 48.8155C435.349 48.7714 435.377 48.7279 435.407 48.6827C435.436 48.6376 435.466 48.5924 435.497 48.5457C435.526 48.4995 435.556 48.4538 435.587 48.4066C435.802 48.0727 435.802 48.0727 435.867 48.0076Z" fill="#5F4B80"/>
<path d="M463.272 69.165C463.277 69.2186 463.281 69.2721 463.286 69.3273C463.453 71.086 464.32 72.4395 465.358 73.8276C465.594 74.1441 465.817 74.4675 466.035 74.7957C466.066 74.8413 466.096 74.887 466.127 74.9337C466.58 75.6183 466.58 75.6183 466.58 75.78C466.368 75.7092 466.324 75.5753 466.222 75.3894C465.934 74.8875 465.577 74.4455 465.215 73.995C464.175 72.693 463.053 71.285 462.931 69.5525C462.957 69.375 462.957 69.375 463.086 69.2438C463.22 69.165 463.22 69.165 463.272 69.165Z" fill="#5590D3"/>
<path d="M465.845 74.73C465.897 74.73 465.949 74.73 466.003 74.73C466.08 74.8371 466.147 74.9405 466.213 75.055C466.23 75.0854 466.249 75.1153 466.267 75.1468C466.319 75.235 466.371 75.3238 466.423 75.4125C466.453 75.4608 466.483 75.5096 466.514 75.5595C466.58 75.675 466.58 75.675 466.58 75.78C466.356 75.7054 466.295 75.539 466.183 75.3437C466.162 75.308 466.141 75.2723 466.12 75.2356C466.022 75.0697 465.927 74.9038 465.845 74.73Z" fill="#5390DA"/>
<path d="M467.315 78.7725C467.35 78.7898 467.384 78.8071 467.42 78.825C467.031 79.1331 466.647 79.4235 466.212 79.665C466.232 79.5369 466.246 79.4718 466.345 79.3857C466.395 79.3557 466.395 79.3557 466.447 79.3253C466.483 79.3027 466.52 79.2807 466.558 79.2576C466.597 79.235 466.635 79.2124 466.675 79.1893C466.751 79.1436 466.827 79.0985 466.902 79.0528C466.938 79.0318 466.973 79.0108 467.01 78.9888C467.117 78.9226 467.217 78.8512 467.315 78.7725Z" fill="#5997D1"/>
<path d="M440.382 42.8101C440.417 42.8274 440.452 42.8447 440.487 42.8626C440.26 43.0899 440.032 43.3177 439.805 43.5451C439.805 43.3351 439.805 43.3351 439.932 43.1996C439.985 43.1524 440.039 43.1056 440.094 43.0594C440.121 43.0353 440.149 43.0111 440.177 42.9865C440.245 42.9271 440.314 42.8683 440.382 42.8101Z" fill="#C56EFD"/>
<path d="M466.265 75.2024C466.58 75.6072 466.58 75.6072 466.58 75.7799C466.422 75.7274 466.422 75.7274 466.359 75.6339C466.341 75.5967 466.323 75.5594 466.304 75.5205C466.285 75.4833 466.267 75.446 466.248 75.4077C466.236 75.3746 466.225 75.3415 466.212 75.3074C466.23 75.2727 466.247 75.2381 466.265 75.2024Z" fill="#518CD4"/>
<path d="M433.873 51.6826C433.931 51.859 433.921 51.891 433.856 52.0564C433.842 52.0937 433.828 52.1304 433.814 52.1688C433.768 52.2601 433.768 52.2601 433.663 52.3126C433.697 52.0821 433.777 51.8937 433.873 51.6826Z" fill="#C08FFF"/>
<path d="M435.867 48.0076C435.919 48.0595 435.971 48.1115 436.025 48.1651C435.921 48.217 435.817 48.269 435.71 48.3226C435.809 48.0664 435.809 48.0664 435.867 48.0076Z" fill="#7F61BA"/>
<path d="M466.37 79.4026C466.405 79.4372 466.439 79.4719 466.475 79.5076C466.345 79.5858 466.345 79.5858 466.212 79.6651C466.232 79.5632 466.232 79.5632 466.265 79.4551C466.3 79.4378 466.334 79.4204 466.37 79.4026Z" fill="#5FA2D8"/>
</g>
<path d="M430.924 37.844C431.189 38.0298 431.459 38.2047 431.733 38.3769C431.835 38.4414 431.937 38.5065 432.04 38.5711C432.091 38.6037 432.142 38.6362 432.196 38.6698C432.344 38.7633 432.491 38.8567 432.638 38.9507C433.191 39.3045 433.747 39.6547 434.305 40.0028C434.832 40.3314 435.357 40.6632 435.882 40.9956C436.484 41.3767 437.088 41.7558 437.693 42.1332C437.916 42.2729 438.14 42.4131 438.364 42.5532C438.42 42.5884 438.476 42.6241 438.534 42.6603C438.641 42.7275 438.748 42.7947 438.855 42.8619C439.149 43.0467 439.446 43.2226 439.752 43.3875C439.791 43.3512 439.83 43.315 439.87 43.2777C440.223 42.9501 440.583 42.6367 440.96 42.3375C440.993 42.3107 441.027 42.2839 441.061 42.2566C442.209 41.34 443.433 40.5246 444.727 39.8285C444.845 39.765 444.962 39.7004 445.08 39.6358C447.626 38.2509 450.482 37.413 453.35 37.035C453.414 37.0266 453.478 37.0176 453.544 37.0087C455.543 36.7525 457.653 36.7588 459.65 37.035C459.687 37.0402 459.724 37.0449 459.762 37.0502C464.295 37.6844 468.675 39.4909 472.415 42.6761C472.486 42.7354 472.558 42.7932 472.631 42.8499C473.07 43.1958 473.461 43.5859 473.854 43.9828C473.97 44.0999 474.086 44.2164 474.202 44.333C474.278 44.4081 474.353 44.4837 474.428 44.5593C474.462 44.5934 474.496 44.6275 474.532 44.6627C478.115 48.2831 480.309 53.3415 481.143 62.0024C481.142 62.2397 481.143 62.4775 481.143 62.7153C481.149 64.22 481.082 65.7084 480.817 67.1931C480.804 67.2723 480.79 67.3516 480.776 67.4309C480.079 71.4004 478.399 75.2056 475.872 78.3525C475.831 78.4039 475.79 78.4559 475.748 78.5089C475.633 78.6507 475.517 78.7903 475.4 78.93C475.378 78.9567 475.355 78.9835 475.332 79.0113C474.677 79.7952 473.984 80.5758 473.207 81.2415C473.094 81.3413 472.984 81.4437 472.874 81.5471C472.535 81.8626 472.182 82.1498 471.815 82.4312C471.731 82.4958 471.647 82.5614 471.564 82.627C467.509 85.8043 462.339 87.6644 457.182 87.75C457.133 87.751 457.084 87.7521 457.033 87.7531C453.314 87.8256 449.656 87.0664 446.262 85.545C446.214 85.5234 446.166 85.5019 446.116 85.4793C444.67 84.8268 443.288 84.0036 442.016 83.0554C441.907 82.974 441.797 82.8937 441.687 82.8134C441.195 82.4527 440.733 82.0663 440.277 81.66C440.231 81.6185 440.184 81.577 440.136 81.534C440.007 81.4195 439.879 81.3035 439.752 81.1875C439.726 81.1633 439.699 81.1386 439.672 81.114C439.204 80.6871 438.74 80.2593 438.328 79.7773C438.215 79.6476 438.098 79.5222 437.98 79.3956C437.706 79.0943 437.455 78.7772 437.207 78.4538C437.125 78.3493 437.042 78.2464 436.959 78.1435C434.205 74.7163 432.549 70.3914 432.022 66.0512C432.018 66.015 432.013 65.9793 432.009 65.942C431.911 65.1324 431.868 64.3318 431.867 63.517C431.866 63.4482 431.866 63.4482 431.866 63.3779C431.866 63.1348 431.865 62.8912 431.865 62.6481C431.865 62.4507 431.864 62.2539 431.863 62.057C431.853 60.493 431.903 58.949 432.176 57.405C432.183 57.3666 432.189 57.3283 432.196 57.2889C432.767 53.9914 434.005 50.875 435.815 48.06C435.593 47.7938 435.359 47.547 435.111 47.3055C434.966 47.1633 434.829 47.0178 434.698 46.8635C434.479 46.611 434.242 46.3779 434.004 46.1437C433.526 45.6738 433.526 45.6738 433.326 45.4397C433.086 45.1604 432.822 44.9058 432.56 44.6475C432 44.0957 432 44.0957 431.812 43.8731C431.506 43.5161 431.161 43.1927 430.827 42.8625C430.687 42.7239 430.548 42.5847 430.407 42.4456C430.376 42.4146 430.345 42.3837 430.312 42.3516C430.156 42.1962 430.006 42.0377 429.862 41.8702C429.659 41.635 429.438 41.4198 429.215 41.2035C429.127 41.1174 429.039 41.0313 428.952 40.9446C428.815 40.8108 428.679 40.6774 428.542 40.5446C427.194 39.2394 427.194 39.2394 427.152 38.4525C427.149 37.9422 427.32 37.5579 427.677 37.1925C428.767 36.3467 429.981 37.1783 430.924 37.844Z" fill="#B29DD0"/>
<path d="M430.924 37.8441C431.189 38.0299 431.459 38.2048 431.733 38.377C431.835 38.4415 431.937 38.5066 432.04 38.5712C432.091 38.6038 432.142 38.6363 432.196 38.6699C432.344 38.7634 432.491 38.8568 432.638 38.9508C433.191 39.3046 433.747 39.6548 434.305 40.0029C434.832 40.3315 435.357 40.6633 435.882 40.9957C436.378 41.3096 436.875 41.6225 437.374 41.9338C437.426 41.9669 437.479 41.9995 437.532 42.0331C437.809 42.2063 438.087 42.379 438.364 42.5518C438.42 42.5869 438.476 42.6216 438.534 42.6578C438.641 42.7245 438.748 42.7912 438.855 42.8573C439.119 43.0222 439.381 43.1907 439.639 43.3645C439.828 43.4905 440.02 43.6112 440.212 43.732C440.255 43.7587 440.297 43.786 440.341 43.8139C440.797 44.1005 441.255 44.3835 441.713 44.6665C441.851 44.7515 441.988 44.8366 442.125 44.9216C442.652 45.2492 443.182 45.5737 443.712 45.896C444.042 46.096 444.37 46.2982 444.697 46.5013C445.807 47.1901 446.926 47.8627 448.047 48.5326C448.113 48.5719 448.179 48.6108 448.244 48.6502C448.963 49.0801 449.683 49.5075 450.412 49.9201C451.018 50.2635 451.614 50.6168 452.195 51.0001C452.255 51.0394 452.255 51.0394 452.316 51.0799C453.204 51.6673 454.059 52.3073 454.872 52.9951C454.899 53.0176 454.926 53.0397 454.954 53.0628C455.852 53.8146 456.742 54.6173 457.497 55.5151C457.56 55.5865 457.56 55.5865 457.624 55.6589C458.608 56.7866 459.45 58.0634 459.935 59.4851C459.949 59.525 459.963 59.5649 459.977 59.6059C460.042 59.8059 460.087 59.9749 460.07 60.1876C460.001 60.1361 459.932 60.0847 459.863 60.0332C459.825 60.0049 459.786 59.976 459.747 59.9466C459.65 59.8726 459.65 59.8726 459.597 59.8201C458.883 59.724 458.39 59.9555 457.809 60.3493C456.991 60.9772 456.334 61.919 456.093 62.9239C456.062 63.2814 456.035 63.6851 456.185 64.0201C456.254 64.0563 456.325 64.0909 456.395 64.1251C456.463 64.1713 456.53 64.219 456.597 64.2684C456.655 64.3114 456.655 64.3114 456.715 64.3555C456.757 64.3865 456.798 64.418 456.841 64.45C456.885 64.4826 456.929 64.5151 456.974 64.5482C457.291 64.7834 457.606 65.0202 457.921 65.257C458.367 65.5924 458.818 65.9211 459.271 66.2466C459.428 66.3595 459.585 66.4723 459.742 66.5857C459.82 66.643 459.899 66.6997 459.979 66.7569C460.174 66.8976 460.369 67.0388 460.563 67.1811C461.424 67.8106 462.312 68.3975 463.22 68.9551C463.301 68.8737 463.299 68.7818 463.319 68.6695C463.54 67.5538 464.207 66.7002 465.136 66.0544C465.687 65.7001 465.687 65.7001 465.95 65.7001C465.95 65.6654 465.95 65.6308 465.95 65.5951C467.138 65.4255 468.121 65.6339 469.098 66.3369C470.224 67.2178 470.922 68.4894 471.305 69.8476C471.323 69.9106 471.341 69.9736 471.359 70.0387C471.818 72.0095 471.271 74.0833 470.255 75.7801C469.919 76.3166 469.536 76.7912 469.1 77.2501C469.041 77.3199 468.982 77.3897 468.923 77.4601C468.179 78.309 467.22 78.9238 466.265 79.5076C466.265 79.3233 466.3 79.2855 466.406 79.1401C466.928 78.3809 467.069 77.5409 466.915 76.6395C466.623 75.6089 465.957 74.7201 465.327 73.8738C464.274 72.4579 463.341 71.0267 463.22 69.2176C463.133 69.2695 463.047 69.3215 462.957 69.3751C462.952 69.3294 462.947 69.2842 462.941 69.237C462.824 69.0034 462.696 68.9603 462.467 68.8469C462.245 68.7325 462.035 68.5991 461.824 68.4652C461.781 68.4379 461.738 68.4101 461.693 68.3823C461.227 68.0846 460.766 67.7785 460.306 67.4714C460.165 67.3764 460.023 67.2819 459.881 67.1874C459.066 66.6435 458.259 66.087 457.455 65.5258C457.357 65.4575 457.259 65.3898 457.161 65.3231C457.025 65.2276 457.025 65.2276 456.909 65.1336C456.562 64.8622 456.243 64.8758 455.814 64.8832C453.011 64.8706 450.354 63.3197 448.152 61.7101C448.115 61.6828 448.078 61.656 448.039 61.6276C447.503 61.2355 446.984 60.8228 446.472 60.3976C446.441 60.3718 446.41 60.3456 446.378 60.3188C445.714 59.7649 445.087 59.1727 444.474 58.5632C444.443 58.5322 444.412 58.5013 444.38 58.4692C444.227 58.3165 444.082 58.1611 443.941 57.9973C443.745 57.7726 443.538 57.5605 443.327 57.3499C443.287 57.31 443.247 57.2701 443.206 57.2292C443.076 57.0985 442.945 56.9677 442.814 56.837C442.723 56.7457 442.631 56.6543 442.54 56.5624C442.348 56.3713 442.157 56.1802 441.966 55.9891C441.721 55.745 441.477 55.5004 441.233 55.2557C441.044 55.0667 440.855 54.8782 440.666 54.6892C440.576 54.5995 440.486 54.5092 440.396 54.4194C440.27 54.2929 440.144 54.1669 440.017 54.0409C439.981 54.0041 439.944 53.9674 439.906 53.9296C439.7 53.7238 439.488 53.5285 439.267 53.3379C439.161 53.245 439.06 53.1484 438.961 53.0481C438.924 53.0113 438.888 52.9751 438.85 52.9373C438.812 52.899 438.774 52.8607 438.735 52.8213C438.695 52.7803 438.655 52.7399 438.613 52.6984C438.442 52.5268 438.272 52.3546 438.101 52.1824C437.976 52.0564 437.85 51.9304 437.725 51.8038C437.687 51.7655 437.649 51.7272 437.61 51.6878C437.403 51.4799 437.191 51.2825 436.968 51.0909C436.672 50.8305 436.396 50.547 436.116 50.2687C436.037 50.1916 435.959 50.1144 435.879 50.0372C435.765 49.9259 435.651 49.813 435.538 49.7002C435.502 49.666 435.467 49.6319 435.431 49.5967C435.193 49.3584 435.193 49.3584 435.154 49.1804C435.19 49.0371 435.242 48.9373 435.323 48.814C435.351 48.7693 435.38 48.7252 435.409 48.6801C435.439 48.6344 435.469 48.5893 435.5 48.5425C435.53 48.4958 435.56 48.4496 435.591 48.4018C435.665 48.2874 435.74 48.1735 435.815 48.0601C435.593 47.7939 435.359 47.5471 435.111 47.3056C434.966 47.1634 434.829 47.0179 434.698 46.8636C434.479 46.6111 434.242 46.378 434.004 46.1438C433.526 45.6739 433.526 45.6739 433.326 45.4398C433.086 45.1605 432.822 44.9059 432.56 44.6476C432 44.0958 432 44.0958 431.812 43.8732C431.506 43.5162 431.161 43.1928 430.827 42.8626C430.687 42.724 430.548 42.5848 430.407 42.4457C430.376 42.4147 430.345 42.3838 430.312 42.3517C430.156 42.1963 430.006 42.0378 429.862 41.8703C429.659 41.6351 429.438 41.4199 429.215 41.2036C429.127 41.1175 429.039 41.0314 428.952 40.9447C428.815 40.8109 428.679 40.6775 428.542 40.5447C427.194 39.2395 427.194 39.2395 427.152 38.4526C427.149 37.9423 427.32 37.558 427.677 37.1926C428.767 36.3468 429.981 37.1784 430.924 37.8441Z" fill="#414141"/>
<path d="M481.07 62.8125C481.087 62.8125 481.105 62.8125 481.123 62.8125C481.22 67.727 479.802 72.5712 475.873 78.3525C475.832 78.4039 475.79 78.4559 475.748 78.509C475.633 78.6507 475.517 78.7903 475.4 78.93C475.377 78.9568 475.355 78.9835 475.332 79.0114C474.678 79.7952 473.984 80.5759 473.208 81.2421C473.094 81.3413 472.983 81.4437 472.873 81.5471C472.536 81.8626 472.181 82.1498 471.815 82.4312C471.731 82.4958 471.647 82.5614 471.564 82.6271C467.509 85.8043 462.339 87.6644 457.183 87.75C457.133 87.751 457.083 87.7521 457.032 87.7531C453.313 87.8256 449.657 87.0665 446.263 85.545C446.214 85.5235 446.166 85.5019 446.116 85.4794C444.67 84.8268 443.287 84.0036 442.016 83.0554C441.907 82.9741 441.797 82.8937 441.687 82.8134C441.195 82.4527 440.732 82.0663 440.278 81.66C440.231 81.6185 440.184 81.577 440.136 81.534C440.007 81.4195 439.88 81.3035 439.753 81.1875C439.726 81.1633 439.699 81.1387 439.672 81.114C439.204 80.6872 438.74 80.2593 438.328 79.7773C438.215 79.6477 438.098 79.5222 437.981 79.3962C437.706 79.0943 437.456 78.7772 437.207 78.4543C437.125 78.3493 437.042 78.2464 436.959 78.1435C434.205 74.7163 432.549 70.3914 432.022 66.0512C432.018 66.015 432.013 65.9793 432.009 65.942C431.916 65.1703 431.87 64.409 431.874 63.6325C431.874 63.558 431.875 63.4829 431.875 63.4078C431.875 63.2267 431.876 63.0461 431.878 62.865C431.895 62.865 431.912 62.865 431.93 62.865C431.933 62.907 431.937 62.949 431.941 62.9926C432.112 65.0653 432.455 67.0718 433.085 69.06C433.102 69.1125 433.118 69.1655 433.135 69.2196C434.185 72.5029 436.005 75.571 438.351 78.0926C438.458 78.2092 438.562 78.3278 438.666 78.448C438.869 78.6806 439.084 78.8995 439.303 79.1169C439.34 79.1547 439.378 79.192 439.417 79.2308C439.66 79.4739 439.911 79.7038 440.173 79.9275C440.232 79.9795 440.291 80.0309 440.35 80.0829C440.752 80.4315 441.163 80.7654 441.59 81.0825C441.625 81.1082 441.659 81.1339 441.695 81.1607C442.651 81.8689 443.644 82.5058 444.688 83.0775C444.735 83.1032 444.782 83.1295 444.831 83.1562C448.415 85.105 452.429 86.0794 456.5 86.0863C456.583 86.0868 456.583 86.0868 456.668 86.0868C457.741 86.0889 458.81 86.0243 459.873 85.8731C459.936 85.8642 459.999 85.8553 460.063 85.8463C464.718 85.1628 469.056 83.15 472.618 80.085C472.655 80.053 472.693 80.0204 472.731 79.9874C472.834 79.8981 472.936 79.8083 473.038 79.7175C473.104 79.6582 473.104 79.6582 473.171 79.5983C473.5 79.3017 473.817 78.9961 474.13 78.6838C474.186 78.6286 474.186 78.6286 474.242 78.5725C474.481 78.3326 474.707 78.0847 474.928 77.8275C474.979 77.7682 475.031 77.7088 475.083 77.6495C475.432 77.2479 475.765 76.8373 476.083 76.41C476.109 76.3743 476.135 76.3391 476.162 76.3024C476.578 75.7401 476.972 75.1663 477.343 74.5725C477.372 74.5247 477.372 74.5247 477.403 74.4759C479.58 70.9768 480.873 66.9332 481.07 62.8125Z" fill="black"/>
<path d="M469.244 66.4514C470.283 67.3444 470.937 68.5419 471.305 69.8476C471.323 69.9106 471.341 69.9736 471.36 70.0387C471.818 72.0096 471.271 74.0833 470.255 75.7801C469.919 76.3167 469.536 76.7913 469.1 77.2501C469.041 77.3199 468.981 77.3898 468.923 77.4601C468.179 78.309 467.219 78.9238 466.265 79.5076C466.265 79.3228 466.3 79.2855 466.406 79.1401C466.928 78.381 467.068 77.541 466.915 76.6395C466.624 75.609 465.957 74.7201 465.327 73.8738C464.55 72.8296 463.775 71.7481 463.43 70.4776C463.413 70.4172 463.397 70.3569 463.38 70.2949C463.224 69.6607 463.207 69.0108 463.377 68.3776C463.386 68.3367 463.395 68.2952 463.405 68.2532C463.641 67.3024 464.45 66.496 465.253 65.9794C465.735 65.7001 465.735 65.7001 465.95 65.7001C465.95 65.6655 465.95 65.6308 465.95 65.5951C467.207 65.4156 468.24 65.666 469.244 66.4514Z" fill="#282828"/>
<path d="M459.598 59.7674C459.806 59.8965 459.957 60.0609 460.123 60.2399C460.2 60.3029 460.278 60.3643 460.359 60.4236C460.581 60.5932 460.787 60.777 460.994 60.9649C461.105 61.0662 461.217 61.1655 461.33 61.2636C461.578 61.4794 461.821 61.6999 462.065 61.9199C462.153 61.9986 462.24 62.0774 462.328 62.1561C462.371 62.1955 462.415 62.2344 462.459 62.2748C462.545 62.352 462.631 62.4297 462.718 62.5068C463.008 62.7672 463.296 63.0297 463.583 63.2938C463.692 63.3936 463.801 63.4933 463.91 63.5925C464.179 63.8372 464.443 64.085 464.697 64.3443C464.796 64.4404 464.897 64.5307 465.002 64.6205C465.36 64.9302 465.688 65.2505 465.95 65.6474C465.794 65.7744 465.638 65.8542 465.454 65.9361C464.552 66.3803 463.796 67.2282 463.466 68.1737C463.382 68.4483 463.32 68.7244 463.273 69.0074C462.061 68.3989 460.965 67.5232 459.871 66.7289C459.754 66.6444 459.638 66.5604 459.521 66.4764C458.705 65.8889 457.894 65.2946 457.097 64.6809C456.835 64.4798 456.569 64.2892 456.293 64.1086C456.076 63.9296 456.046 63.7002 456.013 63.4345C455.967 62.5095 456.512 61.7057 457.078 61.0274C457.134 60.9565 457.134 60.9565 457.192 60.8846C457.768 60.2 458.666 59.5737 459.598 59.7674Z" fill="#BEBEBE"/>
<path d="M435.867 48.0076C435.916 48.0564 435.916 48.0564 435.966 48.1068C436.101 48.2417 436.237 48.3761 436.373 48.5105C436.464 48.6024 436.556 48.6937 436.649 48.7851C436.694 48.8308 436.74 48.8759 436.787 48.9226C437.021 49.1557 437.247 49.392 437.461 49.6424C437.605 49.8052 437.76 49.9558 437.915 50.1076C438.139 50.3286 438.354 50.5507 438.557 50.7906C438.702 50.9539 438.859 51.1056 439.015 51.2589C439.185 51.4279 439.344 51.6033 439.5 51.786C439.657 51.9619 439.827 52.1241 439.993 52.2895C440.133 52.4307 440.262 52.5787 440.391 52.7294C440.548 52.9053 440.718 53.0686 440.886 53.2339C441.028 53.3778 441.159 53.5279 441.29 53.6812C441.419 53.8267 441.558 53.9611 441.697 54.0976C441.83 54.233 441.953 54.3769 442.078 54.5212C442.192 54.6504 442.315 54.7706 442.438 54.8914C442.532 54.9869 442.619 55.0846 442.706 55.1859C442.895 55.4032 443.091 55.6138 443.29 55.8238C443.547 56.0968 443.802 56.3713 444.052 56.6512C444.177 56.7919 444.304 56.931 444.431 57.0701C444.609 57.2654 444.784 57.4618 444.957 57.6607C445.304 58.0566 445.66 58.4393 446.034 58.8105C446.109 58.885 446.183 58.9601 446.258 59.0352C446.531 59.3082 446.809 59.5696 447.102 59.8201C447.163 59.8736 447.224 59.9272 447.284 59.9812C447.732 60.376 448.194 60.7446 448.672 61.1021C448.778 61.1819 448.884 61.2628 448.989 61.3441C449.53 61.7599 450.096 62.1327 450.672 62.4976C450.735 62.5375 450.797 62.5774 450.859 62.6173C452.045 63.3638 453.379 64.0027 454.748 64.3188C454.794 64.3298 454.84 64.3408 454.887 64.3524C455.272 64.4427 455.635 64.5088 456.031 64.4721C456.588 64.4227 456.966 64.4495 457.406 64.8175C457.522 64.9189 457.637 65.0218 457.751 65.1262C457.934 65.289 458.133 65.4281 458.334 65.5688C458.413 65.625 458.491 65.6812 458.57 65.7373C458.629 65.7799 458.629 65.7799 458.689 65.8229C458.898 65.9736 459.105 66.1274 459.312 66.2807C459.733 66.5926 460.16 66.8965 460.59 67.1974C460.702 67.2766 460.814 67.3559 460.926 67.4357C461.694 67.9817 462.48 68.4978 463.272 69.0076C463.255 69.1068 463.255 69.1068 463.22 69.2176C463.086 69.3094 463.086 69.3094 462.957 69.3751C462.95 69.3068 462.95 69.3068 462.941 69.2375C462.824 69.0034 462.696 68.9603 462.467 68.8469C462.245 68.7325 462.035 68.5991 461.824 68.4652C461.781 68.4379 461.738 68.4101 461.693 68.3823C461.227 68.0846 460.766 67.7785 460.306 67.4714C460.165 67.3764 460.023 67.2819 459.882 67.1874C459.066 66.6435 458.259 66.087 457.455 65.5258C457.357 65.4575 457.259 65.3898 457.161 65.3231C457.025 65.2276 457.025 65.2276 456.909 65.1336C456.562 64.8622 456.243 64.8758 455.814 64.8832C453.011 64.8706 450.354 63.3197 448.152 61.7101C448.115 61.6828 448.078 61.656 448.04 61.6276C447.503 61.2355 446.983 60.8228 446.472 60.3976C446.441 60.3718 446.41 60.3456 446.378 60.3188C445.714 59.7649 445.087 59.1727 444.474 58.5632C444.443 58.5322 444.412 58.5013 444.38 58.4692C444.228 58.3165 444.081 58.1611 443.941 57.9973C443.745 57.7726 443.538 57.5605 443.327 57.3499C443.287 57.31 443.247 57.2701 443.206 57.2292C443.076 57.0985 442.945 56.9677 442.814 56.837C442.722 56.7457 442.631 56.6543 442.54 56.5624C442.349 56.3713 442.157 56.1802 441.966 55.9891C441.721 55.745 441.477 55.5004 441.233 55.2557C441.044 55.0667 440.856 54.8782 440.667 54.6898C440.576 54.5995 440.486 54.5092 440.396 54.4194C440.27 54.2929 440.144 54.1669 440.018 54.0409C439.962 53.9857 439.962 53.9857 439.906 53.9296C439.7 53.7238 439.487 53.5285 439.267 53.3379C439.161 53.245 439.06 53.1484 438.96 53.0481C438.924 53.0113 438.888 52.9751 438.85 52.9373C438.812 52.899 438.774 52.8607 438.735 52.8213C438.675 52.7604 438.675 52.7604 438.613 52.6984C438.442 52.5268 438.271 52.3546 438.101 52.1824C437.976 52.0564 437.85 51.9304 437.725 51.8038C437.687 51.7655 437.649 51.7272 437.61 51.6878C437.403 51.4799 437.19 51.2825 436.968 51.0909C436.672 50.8305 436.396 50.547 436.115 50.2687C436.037 50.1916 435.959 50.1144 435.88 50.0372C435.765 49.9259 435.651 49.813 435.538 49.7002C435.502 49.666 435.467 49.6319 435.43 49.5967C435.193 49.3584 435.193 49.3584 435.155 49.1804C435.19 49.0376 435.241 48.9389 435.321 48.8155C435.349 48.7714 435.377 48.7279 435.407 48.6827C435.436 48.6376 435.466 48.5924 435.497 48.5457C435.526 48.4995 435.556 48.4538 435.587 48.4066C435.802 48.0727 435.802 48.0727 435.867 48.0076Z" fill="#5F4B80"/>
<path d="M463.272 69.165C463.277 69.2186 463.281 69.2721 463.286 69.3273C463.453 71.086 464.32 72.4395 465.358 73.8276C465.594 74.1441 465.817 74.4675 466.035 74.7957C466.066 74.8413 466.096 74.887 466.127 74.9337C466.58 75.6183 466.58 75.6183 466.58 75.78C466.368 75.7092 466.324 75.5753 466.222 75.3894C465.934 74.8875 465.577 74.4455 465.215 73.995C464.175 72.693 463.053 71.285 462.931 69.5525C462.957 69.375 462.957 69.375 463.086 69.2438C463.22 69.165 463.22 69.165 463.272 69.165Z" fill="#5590D3"/>
<path d="M465.845 74.73C465.897 74.73 465.949 74.73 466.003 74.73C466.08 74.8371 466.147 74.9405 466.213 75.055C466.23 75.0854 466.249 75.1153 466.267 75.1468C466.319 75.235 466.371 75.3238 466.423 75.4125C466.453 75.4608 466.483 75.5096 466.514 75.5595C466.58 75.675 466.58 75.675 466.58 75.78C466.356 75.7054 466.295 75.539 466.183 75.3437C466.162 75.308 466.141 75.2723 466.12 75.2356C466.022 75.0697 465.927 74.9038 465.845 74.73Z" fill="#5390DA"/>
<path d="M467.315 78.7725C467.35 78.7898 467.384 78.8071 467.42 78.825C467.031 79.1331 466.647 79.4235 466.212 79.665C466.232 79.5369 466.246 79.4718 466.345 79.3857C466.395 79.3557 466.395 79.3557 466.447 79.3253C466.483 79.3027 466.52 79.2807 466.558 79.2576C466.597 79.235 466.635 79.2124 466.675 79.1893C466.751 79.1436 466.827 79.0985 466.902 79.0528C466.938 79.0318 466.973 79.0108 467.01 78.9888C467.117 78.9226 467.217 78.8512 467.315 78.7725Z" fill="#5997D1"/>
<path d="M440.382 42.8101C440.417 42.8274 440.452 42.8447 440.487 42.8626C440.26 43.0899 440.032 43.3177 439.805 43.5451C439.805 43.3351 439.805 43.3351 439.932 43.1996C439.985 43.1524 440.039 43.1056 440.094 43.0594C440.121 43.0353 440.149 43.0111 440.177 42.9865C440.245 42.9271 440.314 42.8683 440.382 42.8101Z" fill="#C56EFD"/>
<path d="M466.265 75.2024C466.58 75.6072 466.58 75.6072 466.58 75.7799C466.422 75.7274 466.422 75.7274 466.359 75.6339C466.341 75.5967 466.323 75.5594 466.304 75.5205C466.285 75.4833 466.267 75.446 466.248 75.4077C466.236 75.3746 466.225 75.3415 466.212 75.3074C466.23 75.2727 466.247 75.2381 466.265 75.2024Z" fill="#518CD4"/>
<path d="M433.873 51.6826C433.931 51.859 433.921 51.891 433.856 52.0564C433.842 52.0937 433.828 52.1304 433.814 52.1688C433.768 52.2601 433.768 52.2601 433.663 52.3126C433.697 52.0821 433.777 51.8937 433.873 51.6826Z" fill="#C08FFF"/>
<path d="M435.867 48.0076C435.919 48.0595 435.971 48.1115 436.025 48.1651C435.921 48.217 435.817 48.269 435.71 48.3226C435.809 48.0664 435.809 48.0664 435.867 48.0076Z" fill="#7F61BA"/>
<path d="M466.37 79.4026C466.405 79.4372 466.439 79.4719 466.475 79.5076C466.345 79.5858 466.345 79.5858 466.212 79.6651C466.232 79.5632 466.232 79.5632 466.265 79.4551C466.3 79.4378 466.334 79.4204 466.37 79.4026Z" fill="#5FA2D8"/>
<defs>
<filter id="filter0_f_344_14240" x="50.147" y="26" width="51.8529" height="71" filterUnits="userSpaceOnUse" color-interpolation-filters="sRGB">
<feFlood flood-opacity="0" result="BackgroundImageFix"/>
<feBlend mode="normal" in="SourceGraphic" in2="BackgroundImageFix" result="shape"/>
<feGaussianBlur stdDeviation="3.5" result="effect1_foregroundBlur_344_14240"/>
</filter>
<filter id="filter1_f_344_14240" x="158" y="24.5" width="74" height="74" filterUnits="userSpaceOnUse" color-interpolation-filters="sRGB">
<feFlood flood-opacity="0" result="BackgroundImageFix"/>
<feBlend mode="normal" in="SourceGraphic" in2="BackgroundImageFix" result="shape"/>
<feGaussianBlur stdDeviation="3.5" result="effect1_foregroundBlur_344_14240"/>
</filter>
<filter id="filter2_f_344_14240" x="288" y="24.5" width="74" height="74" filterUnits="userSpaceOnUse" color-interpolation-filters="sRGB">
<feFlood flood-opacity="0" result="BackgroundImageFix"/>
<feBlend mode="normal" in="SourceGraphic" in2="BackgroundImageFix" result="shape"/>
<feGaussianBlur stdDeviation="3.5" result="effect1_foregroundBlur_344_14240"/>
</filter>
<filter id="filter3_f_344_14240" x="418" y="23" width="77" height="77" filterUnits="userSpaceOnUse" color-interpolation-filters="sRGB">
<feFlood flood-opacity="0" result="BackgroundImageFix"/>
<feBlend mode="normal" in="SourceGraphic" in2="BackgroundImageFix" result="shape"/>
<feGaussianBlur stdDeviation="3.5" result="effect1_foregroundBlur_344_14240"/>
</filter>
</defs>
</svg>
