<svg width="37" height="37" viewBox="0 0 37 37" fill="none" xmlns="http://www.w3.org/2000/svg">
<path d="M2.26552 13.7442C2.26552 9.72635 2.26552 7.7174 3.04745 6.18277C3.73526 4.83287 4.83276 3.73537 6.18267 3.04756C7.7173 2.26562 9.72625 2.26562 13.7441 2.26562H22.5041C26.522 2.26562 28.531 2.26562 30.0656 3.04756C31.4155 3.73537 32.513 4.83287 33.2008 6.18277C33.9828 7.7174 33.9828 9.72635 33.9828 13.7442V22.5042C33.9828 26.5221 33.9828 28.5311 33.2008 30.0657C32.513 31.4156 31.4155 32.5131 30.0656 33.2009C28.531 33.9829 26.522 33.9829 22.5041 33.9829H13.7441C9.72624 33.9829 7.7173 33.9829 6.18267 33.2009C4.83276 32.5131 3.73526 31.4156 3.04745 30.0657C2.26552 28.5311 2.26552 26.5221 2.26552 22.5042V13.7442Z" fill="#330000"/>
<path d="M17.6352 22.1978H12.7203L11.7203 25.3839C11.6925 25.5023 11.5835 25.5861 11.4649 25.5803H8.97551C8.83355 25.5803 8.7839 25.5003 8.82658 25.3403L13.0819 12.7705C13.1245 12.6396 13.1671 12.4905 13.2096 12.3231C13.2653 12.032 13.2938 11.736 13.2948 11.4393C13.2826 11.3517 13.3596 11.2743 13.4437 11.2866H16.8267C16.9258 11.2866 16.9825 11.3229 16.9969 11.3957L21.8268 25.3621C21.8694 25.5077 21.8268 25.5804 21.6991 25.5803H18.9331C18.8361 25.5914 18.7435 25.5248 18.7204 25.4276L17.6352 22.1978ZM13.4862 19.4482H16.848C16.2957 17.5608 15.6723 15.6982 15.1671 13.7962C14.6221 15.7015 14.0274 17.5991 13.4862 19.4482Z" fill="#FF9A00"/>
<path d="M24.6989 13.5997C24.4819 13.6086 24.2655 13.5705 24.0639 13.4878C23.8622 13.405 23.6799 13.2796 23.5287 13.1196C23.378 12.9527 23.2609 12.7569 23.1842 12.5434C23.1075 12.3299 23.0728 12.103 23.0819 11.8757C23.0741 11.6507 23.1128 11.4265 23.1953 11.2178C23.2777 11.0091 23.4022 10.8206 23.5606 10.6646C23.7174 10.5102 23.9025 10.3892 24.1052 10.3087C24.3079 10.2282 24.5242 10.1896 24.7415 10.1954C25.2522 10.1954 25.6529 10.3518 25.9436 10.6646C26.0904 10.8271 26.2045 11.0178 26.2793 11.2256C26.3542 11.4334 26.3883 11.6543 26.3798 11.8757C26.3887 12.1039 26.3528 12.3316 26.2742 12.5453C26.1956 12.759 26.076 12.9543 25.9223 13.1196C25.7618 13.2819 25.5702 13.4084 25.3597 13.491C25.1491 13.5736 24.9241 13.6106 24.6989 13.5997ZM23.2308 25.362V14.9308C23.2308 14.7999 23.2873 14.7344 23.401 14.7344H26.0181C26.1315 14.7344 26.1882 14.7999 26.1883 14.9308V25.362C26.1883 25.5076 26.1316 25.5804 26.0181 25.5803H23.4223C23.2947 25.5803 23.2308 25.5075 23.2308 25.362Z" fill="#FF9A00"/>
</svg>
