<svg width="324" height="84" viewBox="0 0 324 84" fill="none" xmlns="http://www.w3.org/2000/svg">
<g filter="url(#filter0_f_344_14244)">
<path d="M16.499 26C16.499 19.3494 16.499 16.0241 17.7933 13.4839C18.9318 11.2494 20.7485 9.43279 22.9829 8.2943C25.5231 7 28.8484 7 35.499 7H49.999C56.6496 7 59.975 7 62.5152 8.2943C64.7496 9.43279 66.5662 11.2494 67.7047 13.4839C68.999 16.0241 68.999 19.3494 68.999 26V40.5C68.999 47.1506 68.999 50.4759 67.7047 53.0161C66.5662 55.2506 64.7496 57.0672 62.5152 58.2057C59.975 59.5 56.6496 59.5 49.999 59.5H35.499C28.8484 59.5 25.5231 59.5 22.9829 58.2057C20.7485 57.0672 18.9318 55.2506 17.7933 53.0161C16.499 50.4759 16.499 47.1506 16.499 40.5V26Z" fill="#330000"/>
<path d="M41.9398 39.993H33.8043L32.149 45.2668C32.103 45.4627 31.9226 45.6015 31.7263 45.5919H27.6058C27.3708 45.5919 27.2886 45.4594 27.3592 45.1946L34.4029 24.3884C34.4734 24.1717 34.5439 23.9249 34.6143 23.6479C34.7064 23.1659 34.7536 22.6761 34.7552 22.185C34.735 22.0399 34.8625 21.9118 35.0017 21.9321H40.6014C40.7655 21.9321 40.8594 21.9923 40.8832 22.1127L48.8779 45.2306C48.9483 45.4717 48.8779 45.5921 48.6666 45.5919H44.0881C43.9275 45.6101 43.7742 45.5 43.7359 45.339L41.9398 39.993ZM35.0721 35.4417H40.6367C39.7224 32.3176 38.6907 29.2346 37.8545 26.0861C36.9522 29.2399 35.9678 32.3809 35.0721 35.4417Z" fill="#FF9A00"/>
<path d="M53.632 25.7609C53.2728 25.7757 52.9146 25.7126 52.5808 25.5756C52.247 25.4387 51.9451 25.231 51.695 24.9662C51.4455 24.69 51.2517 24.3658 51.1248 24.0125C50.9978 23.6591 50.9402 23.2835 50.9553 22.9073C50.9425 22.5348 51.0065 22.1637 51.143 21.8182C51.2796 21.4728 51.4856 21.1607 51.7477 20.9025C52.0073 20.647 52.3137 20.4468 52.6492 20.3135C52.9847 20.1802 53.3427 20.1164 53.7024 20.1259C54.5477 20.1259 55.211 20.3848 55.6923 20.9025C55.9352 21.1716 56.124 21.4872 56.2479 21.8312C56.3718 22.1752 56.4283 22.5409 56.4142 22.9073C56.4289 23.285 56.3695 23.6619 56.2394 24.0156C56.1094 24.3693 55.9113 24.6926 55.657 24.9662C55.3913 25.2349 55.0741 25.4442 54.7256 25.581C54.3771 25.7178 54.0047 25.779 53.632 25.7609ZM51.2018 45.2305V27.9643C51.2018 27.7476 51.2954 27.6392 51.4836 27.6392H55.8155C56.0032 27.6392 56.0971 27.7476 56.0973 27.9643V45.2305C56.0973 45.4715 56.0034 45.592 55.8155 45.5918H51.5188C51.3076 45.5918 51.2019 45.4714 51.2018 45.2305Z" fill="#FF9A00"/>
</g>
<path d="M16.499 26C16.499 19.3494 16.499 16.0241 17.7933 13.4839C18.9318 11.2494 20.7485 9.43279 22.9829 8.2943C25.5231 7 28.8484 7 35.499 7H49.999C56.6496 7 59.975 7 62.5152 8.2943C64.7496 9.43279 66.5662 11.2494 67.7047 13.4839C68.999 16.0241 68.999 19.3494 68.999 26V40.5C68.999 47.1506 68.999 50.4759 67.7047 53.0161C66.5662 55.2506 64.7496 57.0672 62.5152 58.2057C59.975 59.5 56.6496 59.5 49.999 59.5H35.499C28.8484 59.5 25.5231 59.5 22.9829 58.2057C20.7485 57.0672 18.9318 55.2506 17.7933 53.0161C16.499 50.4759 16.499 47.1506 16.499 40.5V26Z" fill="#330000"/>
<path d="M41.9398 39.993H33.8043L32.149 45.2668C32.103 45.4627 31.9226 45.6015 31.7263 45.5919H27.6058C27.3708 45.5919 27.2886 45.4594 27.3592 45.1946L34.4029 24.3884C34.4734 24.1717 34.5439 23.9249 34.6143 23.6479C34.7064 23.1659 34.7536 22.6761 34.7552 22.185C34.735 22.0399 34.8625 21.9118 35.0017 21.9321H40.6014C40.7655 21.9321 40.8594 21.9923 40.8832 22.1127L48.8779 45.2306C48.9483 45.4717 48.8779 45.5921 48.6666 45.5919H44.0881C43.9275 45.6101 43.7742 45.5 43.7359 45.339L41.9398 39.993ZM35.0721 35.4417H40.6367C39.7224 32.3176 38.6907 29.2346 37.8545 26.0861C36.9522 29.2399 35.9678 32.3809 35.0721 35.4417Z" fill="#FF9A00"/>
<path d="M53.632 25.7609C53.2728 25.7757 52.9146 25.7126 52.5808 25.5756C52.247 25.4387 51.9451 25.231 51.695 24.9662C51.4455 24.69 51.2517 24.3658 51.1248 24.0125C50.9978 23.6591 50.9402 23.2835 50.9553 22.9073C50.9425 22.5348 51.0065 22.1637 51.143 21.8182C51.2796 21.4728 51.4856 21.1607 51.7477 20.9025C52.0073 20.647 52.3137 20.4468 52.6492 20.3135C52.9847 20.1802 53.3427 20.1164 53.7024 20.1259C54.5477 20.1259 55.211 20.3848 55.6923 20.9025C55.9352 21.1716 56.124 21.4872 56.2479 21.8312C56.3718 22.1752 56.4283 22.5409 56.4142 22.9073C56.4289 23.285 56.3695 23.6619 56.2394 24.0156C56.1094 24.3693 55.9113 24.6926 55.657 24.9662C55.3913 25.2349 55.0741 25.4442 54.7256 25.581C54.3771 25.7178 54.0047 25.779 53.632 25.7609ZM51.2018 45.2305V27.9643C51.2018 27.7476 51.2954 27.6392 51.4836 27.6392H55.8155C56.0032 27.6392 56.0971 27.7476 56.0973 27.9643V45.2305C56.0973 45.4715 56.0034 45.592 55.8155 45.5918H51.5188C51.3076 45.5918 51.2019 45.4714 51.2018 45.2305Z" fill="#FF9A00"/>
<path d="M1.31934 73.7969V83.75H0V73.7969H1.31934ZM9.75488 82.6768V83.75H4.77832V82.6768H9.75488ZM5.03809 73.7969V83.75H3.71875V73.7969H5.03809ZM17.3018 82.6768V83.75H12.3252V82.6768H17.3018ZM12.585 73.7969V83.75H11.2656V73.7969H12.585ZM24.1377 73.7969H25.4502V80.5303C25.4502 81.2777 25.2839 81.8997 24.9512 82.3965C24.6185 82.8932 24.1764 83.2669 23.625 83.5176C23.0781 83.7637 22.4834 83.8867 21.8408 83.8867C21.1663 83.8867 20.5557 83.7637 20.0088 83.5176C19.4665 83.2669 19.0358 82.8932 18.7168 82.3965C18.4023 81.8997 18.2451 81.2777 18.2451 80.5303V73.7969H19.5508V80.5303C19.5508 81.0498 19.6465 81.4782 19.8379 81.8154C20.0293 82.1527 20.2959 82.4033 20.6377 82.5674C20.984 82.7314 21.3851 82.8135 21.8408 82.8135C22.3011 82.8135 22.7021 82.7314 23.0439 82.5674C23.3903 82.4033 23.6592 82.1527 23.8506 81.8154C24.042 81.4782 24.1377 81.0498 24.1377 80.5303V73.7969ZM32.8262 81.2344C32.8262 81.002 32.7897 80.7969 32.7168 80.6191C32.6484 80.4368 32.5254 80.2728 32.3477 80.127C32.1745 79.9811 31.9329 79.8421 31.623 79.71C31.3177 79.5778 30.9303 79.4434 30.4609 79.3066C29.9688 79.1608 29.5244 78.999 29.1279 78.8213C28.7314 78.639 28.3919 78.4316 28.1094 78.1992C27.8268 77.9668 27.6104 77.7002 27.46 77.3994C27.3096 77.0986 27.2344 76.7546 27.2344 76.3672C27.2344 75.9798 27.3141 75.6221 27.4736 75.2939C27.6331 74.9658 27.861 74.681 28.1572 74.4395C28.458 74.1934 28.8158 74.002 29.2305 73.8652C29.6452 73.7285 30.1077 73.6602 30.6182 73.6602C31.3656 73.6602 31.999 73.8037 32.5186 74.0908C33.0426 74.3734 33.4414 74.7448 33.7148 75.2051C33.9883 75.6608 34.125 76.1484 34.125 76.668H32.8125C32.8125 76.2943 32.7327 75.9639 32.5732 75.6768C32.4137 75.3851 32.1722 75.1572 31.8486 74.9932C31.5251 74.8245 31.1149 74.7402 30.6182 74.7402C30.1488 74.7402 29.7614 74.8109 29.4561 74.9521C29.1507 75.0934 28.9229 75.2848 28.7725 75.5264C28.6266 75.7679 28.5537 76.0436 28.5537 76.3535C28.5537 76.5632 28.597 76.7546 28.6836 76.9277C28.7747 77.0964 28.9137 77.2536 29.1006 77.3994C29.292 77.5452 29.5335 77.6797 29.8252 77.8027C30.1214 77.9258 30.4746 78.0443 30.8848 78.1582C31.4499 78.3177 31.9375 78.4954 32.3477 78.6914C32.7578 78.8874 33.0951 79.1084 33.3594 79.3545C33.6283 79.596 33.8265 79.8717 33.9541 80.1816C34.0863 80.487 34.1523 80.8333 34.1523 81.2207C34.1523 81.6263 34.0703 81.9932 33.9062 82.3213C33.7422 82.6494 33.5075 82.9297 33.2021 83.1621C32.8968 83.3945 32.5299 83.5745 32.1016 83.7021C31.6777 83.8252 31.2038 83.8867 30.6797 83.8867C30.2194 83.8867 29.766 83.8229 29.3193 83.6953C28.8773 83.5677 28.474 83.3763 28.1094 83.1211C27.7493 82.8659 27.46 82.5514 27.2412 82.1777C27.027 81.7995 26.9199 81.362 26.9199 80.8652H28.2324C28.2324 81.207 28.2985 81.501 28.4307 81.7471C28.5628 81.9886 28.7428 82.1891 28.9707 82.3486C29.2031 82.5081 29.4652 82.6266 29.7568 82.7041C30.0531 82.777 30.3607 82.8135 30.6797 82.8135C31.14 82.8135 31.5296 82.7497 31.8486 82.6221C32.1676 82.4945 32.4092 82.3122 32.5732 82.0752C32.7419 81.8382 32.8262 81.5579 32.8262 81.2344ZM39.5117 73.7969V83.75H38.2129V73.7969H39.5117ZM42.7109 73.7969V74.877H35.0205V73.7969H42.7109ZM44.1875 73.7969H47.4824C48.2298 73.7969 48.861 73.9108 49.376 74.1387C49.8955 74.3665 50.2897 74.7038 50.5586 75.1504C50.832 75.5924 50.9688 76.137 50.9688 76.7842C50.9688 77.2399 50.8753 77.6569 50.6885 78.0352C50.5062 78.4089 50.2419 78.7279 49.8955 78.9922C49.5537 79.252 49.1436 79.4456 48.665 79.5732L48.2959 79.7168H45.1992L45.1855 78.6436H47.5234C47.9974 78.6436 48.3916 78.5615 48.7061 78.3975C49.0205 78.2288 49.2575 78.0033 49.417 77.7207C49.5765 77.4382 49.6562 77.126 49.6562 76.7842C49.6562 76.4014 49.5811 76.0664 49.4307 75.7793C49.2803 75.4922 49.0433 75.2712 48.7197 75.1162C48.4007 74.9567 47.9883 74.877 47.4824 74.877H45.5068V83.75H44.1875V73.7969ZM50.0049 83.75L47.585 79.2383L48.959 79.2314L51.4131 83.668V83.75H50.0049ZM56.499 74.6787L53.2041 83.75H51.8574L55.6514 73.7969H56.5195L56.499 74.6787ZM59.2607 83.75L55.959 74.6787L55.9385 73.7969H56.8066L60.6143 83.75H59.2607ZM59.0898 80.0654V81.1455H53.498V80.0654H59.0898ZM64.7363 73.7969V83.75H63.4375V73.7969H64.7363ZM67.9355 73.7969V74.877H60.2451V73.7969H67.9355ZM76.8838 78.459V79.0879C76.8838 79.8353 76.7904 80.5052 76.6035 81.0977C76.4167 81.6901 76.1478 82.1937 75.7969 82.6084C75.446 83.0231 75.0244 83.3398 74.5322 83.5586C74.0446 83.7773 73.4977 83.8867 72.8916 83.8867C72.3037 83.8867 71.7637 83.7773 71.2715 83.5586C70.7839 83.3398 70.36 83.0231 70 82.6084C69.6445 82.1937 69.3688 81.6901 69.1729 81.0977C68.9769 80.5052 68.8789 79.8353 68.8789 79.0879V78.459C68.8789 77.7116 68.9746 77.0439 69.166 76.4561C69.362 75.8636 69.6377 75.36 69.9932 74.9453C70.3486 74.526 70.7702 74.207 71.2578 73.9883C71.75 73.7695 72.29 73.6602 72.8779 73.6602C73.484 73.6602 74.0309 73.7695 74.5186 73.9883C75.0107 74.207 75.4323 74.526 75.7832 74.9453C76.1387 75.36 76.4098 75.8636 76.5967 76.4561C76.7881 77.0439 76.8838 77.7116 76.8838 78.459ZM75.5781 79.0879V78.4453C75.5781 77.8529 75.5166 77.3288 75.3936 76.873C75.2751 76.4173 75.0996 76.0345 74.8672 75.7246C74.6348 75.4147 74.3499 75.18 74.0127 75.0205C73.68 74.861 73.3018 74.7812 72.8779 74.7812C72.4678 74.7812 72.0964 74.861 71.7637 75.0205C71.4355 75.18 71.153 75.4147 70.916 75.7246C70.6836 76.0345 70.5036 76.4173 70.376 76.873C70.2484 77.3288 70.1846 77.8529 70.1846 78.4453V79.0879C70.1846 79.6849 70.2484 80.2135 70.376 80.6738C70.5036 81.1296 70.6859 81.5146 70.9229 81.8291C71.1644 82.139 71.4492 82.3737 71.7773 82.5332C72.11 82.6927 72.4814 82.7725 72.8916 82.7725C73.32 82.7725 73.7005 82.6927 74.0332 82.5332C74.3659 82.3737 74.6462 82.139 74.874 81.8291C75.1064 81.5146 75.2819 81.1296 75.4004 80.6738C75.5189 80.2135 75.5781 79.6849 75.5781 79.0879ZM78.8594 73.7969H82.1543C82.9017 73.7969 83.5329 73.9108 84.0479 74.1387C84.5674 74.3665 84.9616 74.7038 85.2305 75.1504C85.5039 75.5924 85.6406 76.137 85.6406 76.7842C85.6406 77.2399 85.5472 77.6569 85.3604 78.0352C85.1781 78.4089 84.9137 78.7279 84.5674 78.9922C84.2256 79.252 83.8154 79.4456 83.3369 79.5732L82.9678 79.7168H79.8711L79.8574 78.6436H82.1953C82.6693 78.6436 83.0635 78.5615 83.3779 78.3975C83.6924 78.2288 83.9294 78.0033 84.0889 77.7207C84.2484 77.4382 84.3281 77.126 84.3281 76.7842C84.3281 76.4014 84.2529 76.0664 84.1025 75.7793C83.9521 75.4922 83.7152 75.2712 83.3916 75.1162C83.0726 74.9567 82.6602 74.877 82.1543 74.877H80.1787V83.75H78.8594V73.7969ZM84.6768 83.75L82.2568 79.2383L83.6309 79.2314L86.085 83.668V83.75H84.6768Z" fill="white"/>
<path d="M136.575 78.8467H133.916V77.7734H136.575C137.09 77.7734 137.507 77.6914 137.826 77.5273C138.145 77.3633 138.378 77.1354 138.523 76.8438C138.674 76.5521 138.749 76.2194 138.749 75.8457C138.749 75.5039 138.674 75.1826 138.523 74.8818C138.378 74.5811 138.145 74.3395 137.826 74.1572C137.507 73.9704 137.09 73.877 136.575 73.877H134.224V82.75H132.904V72.7969H136.575C137.327 72.7969 137.963 72.9268 138.482 73.1865C139.002 73.4463 139.396 73.8063 139.665 74.2666C139.934 74.7223 140.068 75.2441 140.068 75.832C140.068 76.4701 139.934 77.0146 139.665 77.4658C139.396 77.917 139.002 78.2611 138.482 78.498C137.963 78.7305 137.327 78.8467 136.575 78.8467ZM148.237 77.0762V78.1494H142.851V77.0762H148.237ZM143.056 72.7969V82.75H141.736V72.7969H143.056ZM149.386 72.7969V82.75H148.073V72.7969H149.386ZM159.394 77.459V78.0879C159.394 78.8353 159.3 79.5052 159.113 80.0977C158.926 80.6901 158.658 81.1937 158.307 81.6084C157.956 82.0231 157.534 82.3398 157.042 82.5586C156.554 82.7773 156.007 82.8867 155.401 82.8867C154.813 82.8867 154.273 82.7773 153.781 82.5586C153.294 82.3398 152.87 82.0231 152.51 81.6084C152.154 81.1937 151.879 80.6901 151.683 80.0977C151.487 79.5052 151.389 78.8353 151.389 78.0879V77.459C151.389 76.7116 151.484 76.0439 151.676 75.4561C151.872 74.8636 152.147 74.36 152.503 73.9453C152.858 73.526 153.28 73.207 153.768 72.9883C154.26 72.7695 154.8 72.6602 155.388 72.6602C155.994 72.6602 156.541 72.7695 157.028 72.9883C157.521 73.207 157.942 73.526 158.293 73.9453C158.648 74.36 158.92 74.8636 159.106 75.4561C159.298 76.0439 159.394 76.7116 159.394 77.459ZM158.088 78.0879V77.4453C158.088 76.8529 158.026 76.3288 157.903 75.873C157.785 75.4173 157.609 75.0345 157.377 74.7246C157.145 74.4147 156.86 74.18 156.522 74.0205C156.19 73.861 155.812 73.7812 155.388 73.7812C154.978 73.7812 154.606 73.861 154.273 74.0205C153.945 74.18 153.663 74.4147 153.426 74.7246C153.193 75.0345 153.013 75.4173 152.886 75.873C152.758 76.3288 152.694 76.8529 152.694 77.4453V78.0879C152.694 78.6849 152.758 79.2135 152.886 79.6738C153.013 80.1296 153.196 80.5146 153.433 80.8291C153.674 81.139 153.959 81.3737 154.287 81.5332C154.62 81.6927 154.991 81.7725 155.401 81.7725C155.83 81.7725 156.21 81.6927 156.543 81.5332C156.876 81.3737 157.156 81.139 157.384 80.8291C157.616 80.5146 157.792 80.1296 157.91 79.6738C158.029 79.2135 158.088 78.6849 158.088 78.0879ZM164.855 72.7969V82.75H163.557V72.7969H164.855ZM168.055 72.7969V73.877H160.364V72.7969H168.055ZM177.003 77.459V78.0879C177.003 78.8353 176.91 79.5052 176.723 80.0977C176.536 80.6901 176.267 81.1937 175.916 81.6084C175.565 82.0231 175.144 82.3398 174.651 82.5586C174.164 82.7773 173.617 82.8867 173.011 82.8867C172.423 82.8867 171.883 82.7773 171.391 82.5586C170.903 82.3398 170.479 82.0231 170.119 81.6084C169.764 81.1937 169.488 80.6901 169.292 80.0977C169.096 79.5052 168.998 78.8353 168.998 78.0879V77.459C168.998 76.7116 169.094 76.0439 169.285 75.4561C169.481 74.8636 169.757 74.36 170.112 73.9453C170.468 73.526 170.889 73.207 171.377 72.9883C171.869 72.7695 172.409 72.6602 172.997 72.6602C173.603 72.6602 174.15 72.7695 174.638 72.9883C175.13 73.207 175.551 73.526 175.902 73.9453C176.258 74.36 176.529 74.8636 176.716 75.4561C176.907 76.0439 177.003 76.7116 177.003 77.459ZM175.697 78.0879V77.4453C175.697 76.8529 175.636 76.3288 175.513 75.873C175.394 75.4173 175.219 75.0345 174.986 74.7246C174.754 74.4147 174.469 74.18 174.132 74.0205C173.799 73.861 173.421 73.7812 172.997 73.7812C172.587 73.7812 172.215 73.861 171.883 74.0205C171.555 74.18 171.272 74.4147 171.035 74.7246C170.803 75.0345 170.623 75.4173 170.495 75.873C170.368 76.3288 170.304 76.8529 170.304 77.4453V78.0879C170.304 78.6849 170.368 79.2135 170.495 79.6738C170.623 80.1296 170.805 80.5146 171.042 80.8291C171.284 81.139 171.568 81.3737 171.896 81.5332C172.229 81.6927 172.601 81.7725 173.011 81.7725C173.439 81.7725 173.82 81.6927 174.152 81.5332C174.485 81.3737 174.765 81.139 174.993 80.8291C175.226 80.5146 175.401 80.1296 175.52 79.6738C175.638 79.2135 175.697 78.6849 175.697 78.0879ZM184.283 80.2344C184.283 80.002 184.247 79.7969 184.174 79.6191C184.105 79.4368 183.982 79.2728 183.805 79.127C183.632 78.9811 183.39 78.8421 183.08 78.71C182.775 78.5778 182.387 78.4434 181.918 78.3066C181.426 78.1608 180.981 77.999 180.585 77.8213C180.188 77.639 179.849 77.4316 179.566 77.1992C179.284 76.9668 179.067 76.7002 178.917 76.3994C178.767 76.0986 178.691 75.7546 178.691 75.3672C178.691 74.9798 178.771 74.6221 178.931 74.2939C179.09 73.9658 179.318 73.681 179.614 73.4395C179.915 73.1934 180.273 73.002 180.688 72.8652C181.102 72.7285 181.565 72.6602 182.075 72.6602C182.823 72.6602 183.456 72.8037 183.976 73.0908C184.5 73.3734 184.898 73.7448 185.172 74.2051C185.445 74.6608 185.582 75.1484 185.582 75.668H184.27C184.27 75.2943 184.19 74.9639 184.03 74.6768C183.871 74.3851 183.629 74.1572 183.306 73.9932C182.982 73.8245 182.572 73.7402 182.075 73.7402C181.606 73.7402 181.218 73.8109 180.913 73.9521C180.608 74.0934 180.38 74.2848 180.229 74.5264C180.084 74.7679 180.011 75.0436 180.011 75.3535C180.011 75.5632 180.054 75.7546 180.141 75.9277C180.232 76.0964 180.371 76.2536 180.558 76.3994C180.749 76.5452 180.991 76.6797 181.282 76.8027C181.578 76.9258 181.932 77.0443 182.342 77.1582C182.907 77.3177 183.395 77.4954 183.805 77.6914C184.215 77.8874 184.552 78.1084 184.816 78.3545C185.085 78.596 185.284 78.8717 185.411 79.1816C185.543 79.487 185.609 79.8333 185.609 80.2207C185.609 80.6263 185.527 80.9932 185.363 81.3213C185.199 81.6494 184.965 81.9297 184.659 82.1621C184.354 82.3945 183.987 82.5745 183.559 82.7021C183.135 82.8252 182.661 82.8867 182.137 82.8867C181.676 82.8867 181.223 82.8229 180.776 82.6953C180.334 82.5677 179.931 82.3763 179.566 82.1211C179.206 81.8659 178.917 81.5514 178.698 81.1777C178.484 80.7995 178.377 80.362 178.377 79.8652H179.689C179.689 80.207 179.756 80.501 179.888 80.7471C180.02 80.9886 180.2 81.1891 180.428 81.3486C180.66 81.5081 180.922 81.6266 181.214 81.7041C181.51 81.777 181.818 81.8135 182.137 81.8135C182.597 81.8135 182.987 81.7497 183.306 81.6221C183.625 81.4945 183.866 81.3122 184.03 81.0752C184.199 80.8382 184.283 80.5579 184.283 80.2344ZM193.792 77.0762V78.1494H188.405V77.0762H193.792ZM188.61 72.7969V82.75H187.291V72.7969H188.61ZM194.94 72.7969V82.75H193.628V72.7969H194.94ZM204.948 77.459V78.0879C204.948 78.8353 204.855 79.5052 204.668 80.0977C204.481 80.6901 204.212 81.1937 203.861 81.6084C203.51 82.0231 203.089 82.3398 202.597 82.5586C202.109 82.7773 201.562 82.8867 200.956 82.8867C200.368 82.8867 199.828 82.7773 199.336 82.5586C198.848 82.3398 198.424 82.0231 198.064 81.6084C197.709 81.1937 197.433 80.6901 197.237 80.0977C197.041 79.5052 196.943 78.8353 196.943 78.0879V77.459C196.943 76.7116 197.039 76.0439 197.23 75.4561C197.426 74.8636 197.702 74.36 198.058 73.9453C198.413 73.526 198.835 73.207 199.322 72.9883C199.814 72.7695 200.354 72.6602 200.942 72.6602C201.549 72.6602 202.095 72.7695 202.583 72.9883C203.075 73.207 203.497 73.526 203.848 73.9453C204.203 74.36 204.474 74.8636 204.661 75.4561C204.853 76.0439 204.948 76.7116 204.948 77.459ZM203.643 78.0879V77.4453C203.643 76.8529 203.581 76.3288 203.458 75.873C203.34 75.4173 203.164 75.0345 202.932 74.7246C202.699 74.4147 202.414 74.18 202.077 74.0205C201.744 73.861 201.366 73.7812 200.942 73.7812C200.532 73.7812 200.161 73.861 199.828 74.0205C199.5 74.18 199.217 74.4147 198.98 74.7246C198.748 75.0345 198.568 75.4173 198.44 75.873C198.313 76.3288 198.249 76.8529 198.249 77.4453V78.0879C198.249 78.6849 198.313 79.2135 198.44 79.6738C198.568 80.1296 198.75 80.5146 198.987 80.8291C199.229 81.139 199.514 81.3737 199.842 81.5332C200.174 81.6927 200.546 81.7725 200.956 81.7725C201.384 81.7725 201.765 81.6927 202.098 81.5332C202.43 81.3737 202.711 81.139 202.938 80.8291C203.171 80.5146 203.346 80.1296 203.465 79.6738C203.583 79.2135 203.643 78.6849 203.643 78.0879ZM210.595 78.8467H207.936V77.7734H210.595C211.11 77.7734 211.527 77.6914 211.846 77.5273C212.165 77.3633 212.397 77.1354 212.543 76.8438C212.693 76.5521 212.769 76.2194 212.769 75.8457C212.769 75.5039 212.693 75.1826 212.543 74.8818C212.397 74.5811 212.165 74.3395 211.846 74.1572C211.527 73.9704 211.11 73.877 210.595 73.877H208.243V82.75H206.924V72.7969H210.595C211.347 72.7969 211.982 72.9268 212.502 73.1865C213.021 73.4463 213.416 73.8063 213.685 74.2666C213.953 74.7223 214.088 75.2441 214.088 75.832C214.088 76.4701 213.953 77.0146 213.685 77.4658C213.416 77.917 213.021 78.2611 212.502 78.498C211.982 78.7305 211.347 78.8467 210.595 78.8467Z" fill="white"/>
<path d="M288.224 72.7969V82.75H286.904V72.7969H288.224ZM294.232 72.7969L290.097 77.4385L287.772 79.8516L287.554 78.4434L289.304 76.5156L292.646 72.7969H294.232ZM292.961 82.75L289.276 77.8965L290.062 76.8506L294.533 82.75H292.961ZM295.695 72.7969H298.99C299.738 72.7969 300.369 72.9108 300.884 73.1387C301.403 73.3665 301.798 73.7038 302.066 74.1504C302.34 74.5924 302.477 75.137 302.477 75.7842C302.477 76.2399 302.383 76.6569 302.196 77.0352C302.014 77.4089 301.75 77.7279 301.403 77.9922C301.062 78.252 300.651 78.4456 300.173 78.5732L299.804 78.7168H296.707L296.693 77.6436H299.031C299.505 77.6436 299.899 77.5615 300.214 77.3975C300.528 77.2288 300.765 77.0033 300.925 76.7207C301.084 76.4382 301.164 76.126 301.164 75.7842C301.164 75.4014 301.089 75.0664 300.938 74.7793C300.788 74.4922 300.551 74.2712 300.228 74.1162C299.909 73.9567 299.496 73.877 298.99 73.877H297.015V82.75H295.695V72.7969ZM301.513 82.75L299.093 78.2383L300.467 78.2314L302.921 82.668V82.75H301.513ZM305.737 72.7969V82.75H304.418V72.7969H305.737ZM311.609 72.7969V82.75H310.311V72.7969H311.609ZM314.809 72.7969V73.877H307.118V72.7969H314.809ZM319.423 73.6787L316.128 82.75H314.781L318.575 72.7969H319.443L319.423 73.6787ZM322.185 82.75L318.883 73.6787L318.862 72.7969H319.73L323.538 82.75H322.185ZM322.014 79.0654V80.1455H316.422V79.0654H322.014Z" fill="white"/>
<defs>
<filter id="filter0_f_344_14244" x="5.74902" y="-3.75" width="74" height="74" filterUnits="userSpaceOnUse" color-interpolation-filters="sRGB">
<feFlood flood-opacity="0" result="BackgroundImageFix"/>
<feBlend mode="normal" in="SourceGraphic" in2="BackgroundImageFix" result="shape"/>
<feGaussianBlur stdDeviation="3.5" result="effect1_foregroundBlur_344_14244"/>
</filter>
</defs>
</svg>
