<svg width="43" height="43" viewBox="0 0 43 43" fill="none" xmlns="http://www.w3.org/2000/svg">
<g clip-path="url(#clip0_596_20924)" filter="url(#filter0_f_596_20924)">
<path d="M4.22897 4.229H38.6648V38.6649H4.22897V4.229Z" fill="#F7DF1E"/>
<path d="M13.2834 33.0061L15.9187 31.4112C16.4271 32.3126 16.8896 33.0753 17.9989 33.0753C19.0622 33.0753 19.7326 32.6593 19.7326 31.0414V20.0383H22.9687V31.0872C22.9687 34.4389 21.004 35.9645 18.1376 35.9645C15.5489 35.9645 14.0461 34.6238 13.2834 33.0058" fill="black"/>
<path d="M24.7265 32.6595L27.3614 31.1339C28.0551 32.2667 28.9566 33.0988 30.5515 33.0988C31.8923 33.0988 32.7474 32.4283 32.7474 31.5037C32.7474 30.3942 31.869 30.0012 30.3896 29.3542L29.5808 29.0072C27.246 28.0134 25.6972 26.7652 25.6972 24.13C25.6972 21.7028 27.5464 19.8535 30.436 19.8535C32.4933 19.8535 33.9726 20.5702 35.0358 22.4425L32.5162 24.0605C31.9614 23.0667 31.3606 22.6738 30.436 22.6738C29.4883 22.6738 28.8872 23.2747 28.8872 24.0605C28.8872 25.0314 29.4883 25.4245 30.875 26.0255L31.684 26.3722C34.4348 27.5512 35.9836 28.7531 35.9836 31.4575C35.9836 34.3702 33.6952 35.965 30.6209 35.965C27.6159 35.965 25.6741 34.5319 24.7266 32.6595" fill="black"/>
</g>
<g clip-path="url(#clip1_596_20924)">
<path d="M4.22897 4.229H38.6648V38.6649H4.22897V4.229Z" fill="#F7DF1E"/>
<path d="M13.2834 33.0061L15.9187 31.4112C16.4271 32.3126 16.8896 33.0753 17.9989 33.0753C19.0622 33.0753 19.7326 32.6593 19.7326 31.0414V20.0383H22.9687V31.0872C22.9687 34.4389 21.004 35.9645 18.1376 35.9645C15.5489 35.9645 14.0461 34.6238 13.2834 33.0058" fill="black"/>
<path d="M24.7265 32.6595L27.3614 31.1339C28.0551 32.2667 28.9566 33.0988 30.5515 33.0988C31.8923 33.0988 32.7474 32.4283 32.7474 31.5037C32.7474 30.3942 31.869 30.0012 30.3896 29.3542L29.5808 29.0072C27.246 28.0134 25.6972 26.7652 25.6972 24.13C25.6972 21.7028 27.5464 19.8535 30.436 19.8535C32.4933 19.8535 33.9726 20.5702 35.0358 22.4425L32.5162 24.0605C31.9614 23.0667 31.3606 22.6738 30.436 22.6738C29.4883 22.6738 28.8872 23.2747 28.8872 24.0605C28.8872 25.0314 29.4883 25.4245 30.875 26.0255L31.684 26.3722C34.4348 27.5512 35.9836 28.7531 35.9836 31.4575C35.9836 34.3702 33.6952 35.965 30.6209 35.965C27.6159 35.965 25.6741 34.5319 24.7266 32.6595" fill="black"/>
</g>
<defs>
<filter id="filter0_f_596_20924" x="4.76837e-07" y="3.86238e-05" width="42.8938" height="42.8937" filterUnits="userSpaceOnUse" color-interpolation-filters="sRGB">
<feFlood flood-opacity="0" result="BackgroundImageFix"/>
<feBlend mode="normal" in="SourceGraphic" in2="BackgroundImageFix" result="shape"/>
<feGaussianBlur stdDeviation="2.11448" result="effect1_foregroundBlur_596_20924"/>
</filter>
<clipPath id="clip0_596_20924">
<rect width="34.4359" height="34.4359" fill="white" transform="translate(4.22897 4.229)"/>
</clipPath>
<clipPath id="clip1_596_20924">
<rect width="34.4359" height="34.4359" fill="white" transform="translate(4.22897 4.229)"/>
</clipPath>
</defs>
</svg>
