<svg width="462" height="89" viewBox="0 0 462 89" fill="none" xmlns="http://www.w3.org/2000/svg">
<g clip-path="url(#clip0_344_14254)" filter="url(#filter0_f_344_14254)">
<path d="M14 7H71V64H14V7Z" fill="#F7DF1E"/>
<path d="M28.9874 54.6333L33.3494 51.9935C34.1909 53.4855 34.9565 54.7479 36.7927 54.7479C38.5528 54.7479 39.6625 54.0594 39.6625 51.3813V33.1685H45.019V51.457C45.019 57.005 41.767 59.5303 37.0223 59.5303C32.7373 59.5303 30.2499 57.311 28.9873 54.6328" fill="black"/>
<path d="M47.9286 54.0594L52.2901 51.5341C53.4382 53.4092 54.9304 54.7865 57.5704 54.7865C59.7898 54.7865 61.2051 53.6768 61.2051 52.1463C61.2051 50.3097 59.7513 49.6592 57.3025 48.5882L55.9637 48.0139C52.099 46.3689 49.5353 44.3028 49.5353 39.9409C49.5353 35.9234 52.5962 32.8623 57.3792 32.8623C60.7845 32.8623 63.2333 34.0485 64.9931 37.1478L60.8225 39.826C59.9042 38.1809 58.9097 37.5305 57.3793 37.5305C55.8105 37.5305 54.8156 38.5253 54.8156 39.826C54.8156 41.433 55.8105 42.0836 58.106 43.0785L59.445 43.6524C63.9982 45.6039 66.5619 47.5933 66.5619 52.0698C66.5619 56.8911 62.774 59.5309 57.6853 59.5309C52.7112 59.5309 49.4972 57.1588 47.9287 54.0594" fill="black"/>
</g>
<g clip-path="url(#clip1_344_14254)">
<path d="M14 7H71V64H14V7Z" fill="#F7DF1E"/>
<path d="M28.9874 54.6333L33.3494 51.9935C34.1909 53.4855 34.9565 54.7479 36.7927 54.7479C38.5528 54.7479 39.6625 54.0594 39.6625 51.3813V33.1685H45.019V51.457C45.019 57.005 41.767 59.5303 37.0223 59.5303C32.7373 59.5303 30.2499 57.311 28.9873 54.6328" fill="black"/>
<path d="M47.9286 54.0594L52.2901 51.5341C53.4382 53.4092 54.9304 54.7865 57.5704 54.7865C59.7898 54.7865 61.2051 53.6768 61.2051 52.1463C61.2051 50.3097 59.7513 49.6592 57.3025 48.5882L55.9637 48.0139C52.099 46.3689 49.5353 44.3028 49.5353 39.9409C49.5353 35.9234 52.5962 32.8623 57.3792 32.8623C60.7845 32.8623 63.2333 34.0485 64.9931 37.1478L60.8225 39.826C59.9042 38.1809 58.9097 37.5305 57.3793 37.5305C55.8105 37.5305 54.8156 38.5253 54.8156 39.826C54.8156 41.433 55.8105 42.0836 58.106 43.0785L59.445 43.6524C63.9982 45.6039 66.5619 47.5933 66.5619 52.0698C66.5619 56.8911 62.774 59.5309 57.6853 59.5309C52.7112 59.5309 49.4972 57.1588 47.9287 54.0594" fill="black"/>
</g>
<path d="M5.33203 82.5947V75.5469H6.64453V82.5947C6.64453 83.251 6.51009 83.8047 6.24121 84.2559C5.97233 84.707 5.60091 85.0511 5.12695 85.2881C4.65755 85.5205 4.11751 85.6367 3.50684 85.6367C2.89616 85.6367 2.35384 85.5319 1.87988 85.3223C1.40592 85.1126 1.03451 84.7936 0.765625 84.3652C0.496745 83.9368 0.362305 83.3968 0.362305 82.7451H1.68164C1.68164 83.1644 1.75911 83.5085 1.91406 83.7773C2.06901 84.0462 2.2832 84.2445 2.55664 84.3721C2.83464 84.4997 3.15137 84.5635 3.50684 84.5635C3.85319 84.5635 4.16309 84.4906 4.43652 84.3447C4.71452 84.1943 4.93327 83.9733 5.09277 83.6816C5.25228 83.3854 5.33203 83.0231 5.33203 82.5947ZM12.4141 76.4287L9.11914 85.5H7.77246L11.5664 75.5469H12.4346L12.4141 76.4287ZM15.1758 85.5L11.874 76.4287L11.8535 75.5469H12.7217L16.5293 85.5H15.1758ZM15.0049 81.8154V82.8955H9.41309V81.8154H15.0049ZM20.4736 83.9893L23.4062 75.5469H24.835L21.1504 85.5H20.1318L20.4736 83.9893ZM17.7324 75.5469L20.6377 83.9893L21 85.5H19.9814L16.3037 75.5469H17.7324ZM29.3398 76.4287L26.0449 85.5H24.6982L28.4922 75.5469H29.3604L29.3398 76.4287ZM32.1016 85.5L28.7998 76.4287L28.7793 75.5469H29.6475L33.4551 85.5H32.1016ZM31.9307 81.8154V82.8955H26.3389V81.8154H31.9307ZM40.0928 82.9844C40.0928 82.752 40.0563 82.5469 39.9834 82.3691C39.915 82.1868 39.792 82.0228 39.6143 81.877C39.4411 81.7311 39.1995 81.5921 38.8896 81.46C38.5843 81.3278 38.1969 81.1934 37.7275 81.0566C37.2354 80.9108 36.791 80.749 36.3945 80.5713C35.998 80.389 35.6585 80.1816 35.376 79.9492C35.0934 79.7168 34.877 79.4502 34.7266 79.1494C34.5762 78.8486 34.501 78.5046 34.501 78.1172C34.501 77.7298 34.5807 77.3721 34.7402 77.0439C34.8997 76.7158 35.1276 76.431 35.4238 76.1895C35.7246 75.9434 36.0824 75.752 36.4971 75.6152C36.9118 75.4785 37.3743 75.4102 37.8848 75.4102C38.6322 75.4102 39.2656 75.5537 39.7852 75.8408C40.3092 76.1234 40.708 76.4948 40.9814 76.9551C41.2549 77.4108 41.3916 77.8984 41.3916 78.418H40.0791C40.0791 78.0443 39.9993 77.7139 39.8398 77.4268C39.6803 77.1351 39.4388 76.9072 39.1152 76.7432C38.7917 76.5745 38.3815 76.4902 37.8848 76.4902C37.4154 76.4902 37.028 76.5609 36.7227 76.7021C36.4173 76.8434 36.1895 77.0348 36.0391 77.2764C35.8932 77.5179 35.8203 77.7936 35.8203 78.1035C35.8203 78.3132 35.8636 78.5046 35.9502 78.6777C36.0413 78.8464 36.1803 79.0036 36.3672 79.1494C36.5586 79.2952 36.8001 79.4297 37.0918 79.5527C37.388 79.6758 37.7412 79.7943 38.1514 79.9082C38.7165 80.0677 39.2041 80.2454 39.6143 80.4414C40.0244 80.6374 40.3617 80.8584 40.626 81.1045C40.8949 81.346 41.0931 81.6217 41.2207 81.9316C41.3529 82.237 41.4189 82.5833 41.4189 82.9707C41.4189 83.3763 41.3369 83.7432 41.1729 84.0713C41.0088 84.3994 40.7741 84.6797 40.4688 84.9121C40.1634 85.1445 39.7965 85.3245 39.3682 85.4521C38.9443 85.5752 38.4704 85.6367 37.9463 85.6367C37.486 85.6367 37.0326 85.5729 36.5859 85.4453C36.1439 85.3177 35.7406 85.1263 35.376 84.8711C35.016 84.6159 34.7266 84.3014 34.5078 83.9277C34.2936 83.5495 34.1865 83.112 34.1865 82.6152H35.499C35.499 82.957 35.5651 83.251 35.6973 83.4971C35.8294 83.7386 36.0094 83.9391 36.2373 84.0986C36.4697 84.2581 36.7318 84.3766 37.0234 84.4541C37.3197 84.527 37.6273 84.5635 37.9463 84.5635C38.4066 84.5635 38.7962 84.4997 39.1152 84.3721C39.4342 84.2445 39.6758 84.0622 39.8398 83.8252C40.0085 83.5882 40.0928 83.3079 40.0928 82.9844ZM49.1094 82.335H50.4219C50.3535 82.9639 50.1735 83.5267 49.8818 84.0234C49.5902 84.5202 49.1777 84.9144 48.6445 85.2061C48.1113 85.4932 47.446 85.6367 46.6484 85.6367C46.0651 85.6367 45.5342 85.5273 45.0557 85.3086C44.5817 85.0898 44.1738 84.7799 43.832 84.3789C43.4902 83.9733 43.2259 83.488 43.0391 82.9229C42.8568 82.3532 42.7656 81.7197 42.7656 81.0225V80.0312C42.7656 79.334 42.8568 78.7028 43.0391 78.1377C43.2259 77.568 43.4925 77.0804 43.8389 76.6748C44.1898 76.2692 44.6113 75.957 45.1035 75.7383C45.5957 75.5195 46.1494 75.4102 46.7646 75.4102C47.5166 75.4102 48.1523 75.5514 48.6719 75.834C49.1914 76.1165 49.5947 76.5085 49.8818 77.0098C50.1735 77.5065 50.3535 78.083 50.4219 78.7393H49.1094C49.0456 78.2744 48.9271 77.8757 48.7539 77.543C48.5807 77.2057 48.3346 76.946 48.0156 76.7637C47.6966 76.5814 47.2796 76.4902 46.7646 76.4902C46.3226 76.4902 45.9329 76.5745 45.5957 76.7432C45.263 76.9118 44.9827 77.151 44.7549 77.4609C44.5316 77.7708 44.363 78.1423 44.249 78.5752C44.1351 79.0081 44.0781 79.4889 44.0781 80.0176V81.0225C44.0781 81.5101 44.1283 81.9681 44.2285 82.3965C44.3333 82.8249 44.4906 83.2008 44.7002 83.5244C44.9098 83.848 45.1764 84.1032 45.5 84.29C45.8236 84.4723 46.2064 84.5635 46.6484 84.5635C47.209 84.5635 47.6556 84.4746 47.9883 84.2969C48.321 84.1191 48.5716 83.8639 48.7402 83.5312C48.9134 83.1986 49.0365 82.7998 49.1094 82.335ZM52.2197 75.5469H55.5146C56.262 75.5469 56.8932 75.6608 57.4082 75.8887C57.9277 76.1165 58.3219 76.4538 58.5908 76.9004C58.8643 77.3424 59.001 77.887 59.001 78.5342C59.001 78.9899 58.9076 79.4069 58.7207 79.7852C58.5384 80.1589 58.2741 80.4779 57.9277 80.7422C57.5859 81.002 57.1758 81.1956 56.6973 81.3232L56.3281 81.4668H53.2314L53.2178 80.3936H55.5557C56.0296 80.3936 56.4238 80.3115 56.7383 80.1475C57.0527 79.9788 57.2897 79.7533 57.4492 79.4707C57.6087 79.1882 57.6885 78.876 57.6885 78.5342C57.6885 78.1514 57.6133 77.8164 57.4629 77.5293C57.3125 77.2422 57.0755 77.0212 56.752 76.8662C56.4329 76.7067 56.0205 76.627 55.5146 76.627H53.5391V85.5H52.2197V75.5469ZM58.0371 85.5L55.6172 80.9883L56.9912 80.9814L59.4453 85.418V85.5H58.0371ZM62.2617 75.5469V85.5H60.9424V75.5469H62.2617ZM68.332 81.5967H65.6729V80.5234H68.332C68.847 80.5234 69.264 80.4414 69.583 80.2773C69.902 80.1133 70.1344 79.8854 70.2803 79.5938C70.4307 79.3021 70.5059 78.9694 70.5059 78.5957C70.5059 78.2539 70.4307 77.9326 70.2803 77.6318C70.1344 77.3311 69.902 77.0895 69.583 76.9072C69.264 76.7204 68.847 76.627 68.332 76.627H65.9805V85.5H64.6611V75.5469H68.332C69.084 75.5469 69.7197 75.6768 70.2393 75.9365C70.7588 76.1963 71.153 76.5563 71.4219 77.0166C71.6908 77.4723 71.8252 77.9941 71.8252 78.582C71.8252 79.2201 71.6908 79.7646 71.4219 80.2158C71.153 80.667 70.7588 81.0111 70.2393 81.248C69.7197 81.4805 69.084 81.5967 68.332 81.5967ZM77.1709 75.5469V85.5H75.8721V75.5469H77.1709ZM80.3701 75.5469V76.627H72.6797V75.5469H80.3701Z" fill="white"/>
<path d="M284.84 76.4287L281.545 85.5H280.198L283.992 75.5469H284.86L284.84 76.4287ZM287.602 85.5L284.3 76.4287L284.279 75.5469H285.147L288.955 85.5H287.602ZM287.431 81.8154V82.8955H281.839V81.8154H287.431ZM295.593 82.9844C295.593 82.752 295.556 82.5469 295.483 82.3691C295.415 82.1868 295.292 82.0228 295.114 81.877C294.941 81.7311 294.7 81.5921 294.39 81.46C294.084 81.3278 293.697 81.1934 293.228 81.0566C292.735 80.9108 292.291 80.749 291.895 80.5713C291.498 80.389 291.159 80.1816 290.876 79.9492C290.593 79.7168 290.377 79.4502 290.227 79.1494C290.076 78.8486 290.001 78.5046 290.001 78.1172C290.001 77.7298 290.081 77.3721 290.24 77.0439C290.4 76.7158 290.628 76.431 290.924 76.1895C291.225 75.9434 291.582 75.752 291.997 75.6152C292.412 75.4785 292.874 75.4102 293.385 75.4102C294.132 75.4102 294.766 75.5537 295.285 75.8408C295.809 76.1234 296.208 76.4948 296.481 76.9551C296.755 77.4108 296.892 77.8984 296.892 78.418H295.579C295.579 78.0443 295.499 77.7139 295.34 77.4268C295.18 77.1351 294.939 76.9072 294.615 76.7432C294.292 76.5745 293.882 76.4902 293.385 76.4902C292.915 76.4902 292.528 76.5609 292.223 76.7021C291.917 76.8434 291.689 77.0348 291.539 77.2764C291.393 77.5179 291.32 77.7936 291.32 78.1035C291.32 78.3132 291.364 78.5046 291.45 78.6777C291.541 78.8464 291.68 79.0036 291.867 79.1494C292.059 79.2952 292.3 79.4297 292.592 79.5527C292.888 79.6758 293.241 79.7943 293.651 79.9082C294.216 80.0677 294.704 80.2454 295.114 80.4414C295.524 80.6374 295.862 80.8584 296.126 81.1045C296.395 81.346 296.593 81.6217 296.721 81.9316C296.853 82.237 296.919 82.5833 296.919 82.9707C296.919 83.3763 296.837 83.7432 296.673 84.0713C296.509 84.3994 296.274 84.6797 295.969 84.9121C295.663 85.1445 295.297 85.3245 294.868 85.4521C294.444 85.5752 293.97 85.6367 293.446 85.6367C292.986 85.6367 292.533 85.5729 292.086 85.4453C291.644 85.3177 291.241 85.1263 290.876 84.8711C290.516 84.6159 290.227 84.3014 290.008 83.9277C289.794 83.5495 289.687 83.112 289.687 82.6152H290.999C290.999 82.957 291.065 83.251 291.197 83.4971C291.329 83.7386 291.509 83.9391 291.737 84.0986C291.97 84.2581 292.232 84.3766 292.523 84.4541C292.82 84.527 293.127 84.5635 293.446 84.5635C293.907 84.5635 294.296 84.4997 294.615 84.3721C294.934 84.2445 295.176 84.0622 295.34 83.8252C295.508 83.5882 295.593 83.3079 295.593 82.9844ZM302.278 75.5469V85.5H300.979V75.5469H302.278ZM305.478 75.5469V76.627H297.787V75.5469H305.478ZM306.954 75.5469H310.249C310.996 75.5469 311.628 75.6608 312.143 75.8887C312.662 76.1165 313.056 76.4538 313.325 76.9004C313.599 77.3424 313.735 77.887 313.735 78.5342C313.735 78.9899 313.642 79.4069 313.455 79.7852C313.273 80.1589 313.008 80.4779 312.662 80.7422C312.32 81.002 311.91 81.1956 311.432 81.3232L311.062 81.4668H307.966L307.952 80.3936H310.29C310.764 80.3936 311.158 80.3115 311.473 80.1475C311.787 79.9788 312.024 79.7533 312.184 79.4707C312.343 79.1882 312.423 78.876 312.423 78.5342C312.423 78.1514 312.348 77.8164 312.197 77.5293C312.047 77.2422 311.81 77.0212 311.486 76.8662C311.167 76.7067 310.755 76.627 310.249 76.627H308.273V85.5H306.954V75.5469ZM312.771 85.5L310.352 80.9883L311.726 80.9814L314.18 85.418V85.5H312.771ZM323.244 80.209V80.8379C323.244 81.5853 323.151 82.2552 322.964 82.8477C322.777 83.4401 322.508 83.9437 322.157 84.3584C321.806 84.7731 321.385 85.0898 320.893 85.3086C320.405 85.5273 319.858 85.6367 319.252 85.6367C318.664 85.6367 318.124 85.5273 317.632 85.3086C317.144 85.0898 316.72 84.7731 316.36 84.3584C316.005 83.9437 315.729 83.4401 315.533 82.8477C315.337 82.2552 315.239 81.5853 315.239 80.8379V80.209C315.239 79.4616 315.335 78.7939 315.526 78.2061C315.722 77.6136 315.998 77.11 316.354 76.6953C316.709 76.276 317.131 75.957 317.618 75.7383C318.11 75.5195 318.65 75.4102 319.238 75.4102C319.844 75.4102 320.391 75.5195 320.879 75.7383C321.371 75.957 321.793 76.276 322.144 76.6953C322.499 77.11 322.77 77.6136 322.957 78.2061C323.148 78.7939 323.244 79.4616 323.244 80.209ZM321.938 80.8379V80.1953C321.938 79.6029 321.877 79.0788 321.754 78.623C321.635 78.1673 321.46 77.7845 321.228 77.4746C320.995 77.1647 320.71 76.93 320.373 76.7705C320.04 76.611 319.662 76.5312 319.238 76.5312C318.828 76.5312 318.457 76.611 318.124 76.7705C317.796 76.93 317.513 77.1647 317.276 77.4746C317.044 77.7845 316.864 78.1673 316.736 78.623C316.609 79.0788 316.545 79.6029 316.545 80.1953V80.8379C316.545 81.4349 316.609 81.9635 316.736 82.4238C316.864 82.8796 317.046 83.2646 317.283 83.5791C317.525 83.889 317.81 84.1237 318.138 84.2832C318.47 84.4427 318.842 84.5225 319.252 84.5225C319.68 84.5225 320.061 84.4427 320.394 84.2832C320.726 84.1237 321.007 83.889 321.234 83.5791C321.467 83.2646 321.642 82.8796 321.761 82.4238C321.879 81.9635 321.938 81.4349 321.938 80.8379Z" fill="white"/>
<defs>
<filter id="filter0_f_344_14254" x="7" y="0" width="71" height="71" filterUnits="userSpaceOnUse" color-interpolation-filters="sRGB">
<feFlood flood-opacity="0" result="BackgroundImageFix"/>
<feBlend mode="normal" in="SourceGraphic" in2="BackgroundImageFix" result="shape"/>
<feGaussianBlur stdDeviation="3.5" result="effect1_foregroundBlur_344_14254"/>
</filter>
<clipPath id="clip0_344_14254">
<rect width="57" height="57" fill="white" transform="translate(14 7)"/>
</clipPath>
<clipPath id="clip1_344_14254">
<rect width="57" height="57" fill="white" transform="translate(14 7)"/>
</clipPath>
</defs>
</svg>
