<svg width="68" height="65" viewBox="0 0 68 65" fill="none" xmlns="http://www.w3.org/2000/svg">
<g filter="url(#filter0_f_344_14246)">
<path d="M10.7722 8.02197C11.0368 8.20782 11.3072 8.38264 11.5807 8.55484C11.6831 8.61942 11.7849 8.68452 11.8873 8.74909C11.9387 8.78164 11.9902 8.81419 12.0437 8.84779C12.1913 8.94124 12.3383 9.03469 12.4853 9.12867C13.0391 9.48252 13.5951 9.83269 14.1527 10.1808C14.6798 10.5094 15.2048 10.8412 15.7292 11.1735C16.3319 11.5547 16.9357 11.9337 17.5405 12.3112C17.7641 12.4509 17.9878 12.591 18.2114 12.7312C18.2676 12.7664 18.3238 12.8021 18.3815 12.8383C18.4886 12.9055 18.5952 12.9727 18.7023 13.0399C18.9968 13.2247 19.294 13.4006 19.6001 13.5654C19.6389 13.5292 19.6778 13.493 19.7177 13.4557C20.0705 13.1281 20.4306 12.8147 20.8076 12.5154C20.8412 12.4887 20.8748 12.4619 20.9089 12.4346C22.0571 11.5179 23.2808 10.7026 24.5744 10.0065C24.6926 9.94294 24.8102 9.87837 24.9272 9.81379C27.474 8.42884 30.33 7.59094 33.1976 7.21294C33.2616 7.20454 33.3257 7.19562 33.3913 7.18669C35.391 6.93049 37.5005 6.93679 39.4976 7.21294C39.5343 7.21819 39.5716 7.22292 39.6094 7.22817C44.1422 7.86237 48.5228 9.66889 52.2629 12.8541C52.3338 12.9134 52.4057 12.9711 52.4787 13.0278C52.9181 13.3738 53.3082 13.7639 53.7014 14.1608C53.8175 14.2779 53.9335 14.3944 54.05 14.511C54.1256 14.586 54.2007 14.6616 54.2758 14.7372C54.3099 14.7714 54.344 14.8055 54.3792 14.8407C57.9628 18.4611 60.1563 23.5194 60.9905 32.1804C60.99 32.4177 60.9905 32.6555 60.9911 32.8933C60.9963 34.398 60.9302 35.8863 60.665 37.371C60.6514 37.4503 60.6377 37.5296 60.6236 37.6089C59.9263 41.5784 58.2469 45.3836 55.7201 48.5304C55.6791 48.5819 55.6376 48.6339 55.5956 48.6869C55.4812 48.8286 55.3646 48.9683 55.2476 49.1079C55.2255 49.1347 55.2029 49.1615 55.1798 49.1893C54.5252 49.9731 53.8316 50.7538 53.0552 51.4195C52.9418 51.5193 52.8315 51.6216 52.7213 51.7251C52.3832 52.0406 52.0293 52.3278 51.6623 52.6092C51.5783 52.6737 51.4949 52.7394 51.4114 52.805C47.3568 55.9823 42.1866 57.8424 37.0301 57.9279C36.9807 57.929 36.9314 57.93 36.8804 57.9311C33.1613 58.0035 29.5042 57.2444 26.1101 55.7229C26.0618 55.7014 26.0135 55.6799 25.9636 55.6573C24.5172 55.0047 23.1354 54.1815 21.8639 53.2334C21.7547 53.152 21.6449 53.0717 21.5347 52.9914C21.0428 52.6307 20.5802 52.2443 20.1251 51.8379C20.0783 51.7965 20.0316 51.755 19.9833 51.7119C19.8547 51.5975 19.7271 51.4815 19.6001 51.3654C19.5733 51.3413 19.547 51.3166 19.5192 51.2919C19.0514 50.8651 18.5879 50.4372 18.1757 49.9553C18.0623 49.8256 17.9453 49.7001 17.8282 49.5736C17.5536 49.2723 17.3032 48.9552 17.0543 48.6318C16.973 48.5273 16.89 48.4244 16.8065 48.3215C14.0524 44.8943 12.3965 40.5693 11.8694 36.2292C11.8652 36.1929 11.861 36.1572 11.8563 36.12C11.7592 35.3104 11.7161 34.5098 11.7146 33.695C11.714 33.6262 11.714 33.6262 11.714 33.5559C11.7135 33.3128 11.713 33.0692 11.7125 32.8261C11.7125 32.6287 11.7114 32.4318 11.7104 32.235C11.7009 30.671 11.7508 29.127 12.0238 27.5829C12.0306 27.5446 12.0369 27.5063 12.0437 27.4669C12.6149 24.1694 13.8529 21.053 15.6626 18.2379C15.4405 17.9718 15.2069 17.725 14.9585 17.4835C14.8142 17.3412 14.6771 17.1958 14.5454 17.0415C14.3264 16.7889 14.0897 16.5558 13.8513 16.3217C13.3736 15.8518 13.3736 15.8518 13.1741 15.6177C12.9341 15.3384 12.6695 15.0837 12.4076 14.8254C11.8479 14.2737 11.8479 14.2737 11.6594 14.0511C11.3539 13.6941 11.009 13.3707 10.6751 13.0404C10.5349 12.9018 10.3952 12.7627 10.2551 12.6236C10.2236 12.5926 10.1926 12.5616 10.16 12.5296C10.0036 12.3742 9.85343 12.2157 9.70958 12.0482C9.50641 11.813 9.28591 11.5977 9.06278 11.3814C8.97458 11.2953 8.88691 11.2092 8.79923 11.1226C8.66273 10.9887 8.52623 10.8554 8.38921 10.7226C7.04153 9.41742 7.04153 9.41742 7.00006 8.63044C6.99638 8.12014 7.16806 7.73584 7.52506 7.37044C8.61443 6.52467 9.82876 7.35627 10.7722 8.02197Z" fill="#B29DD0"/>
<path d="M10.7722 8.02207C11.0368 8.20792 11.3072 8.38274 11.5807 8.55494C11.6831 8.61952 11.7849 8.68462 11.8873 8.74919C11.9387 8.78174 11.9902 8.81429 12.0437 8.84789C12.1913 8.94134 12.3383 9.03479 12.4853 9.12877C13.0391 9.48262 13.5951 9.83279 14.1527 10.1809C14.6798 10.5095 15.2048 10.8413 15.7292 11.1736C16.2259 11.4876 16.7231 11.8005 17.2213 12.1118C17.2738 12.1449 17.3263 12.1774 17.3798 12.211C17.657 12.3843 17.9342 12.557 18.2114 12.7297C18.2676 12.7649 18.3238 12.7996 18.3815 12.8358C18.4886 12.9025 18.5952 12.9691 18.7023 13.0353C18.9669 13.2001 19.2284 13.3687 19.4872 13.5424C19.6757 13.6684 19.8678 13.7892 20.0594 13.9099C20.1025 13.9367 20.145 13.964 20.1891 13.9918C20.6448 14.2785 21.1026 14.5615 21.5609 14.8444C21.6985 14.9295 21.8355 15.0145 21.9725 15.0996C22.5002 15.4272 23.0294 15.7516 23.5601 16.074C23.8893 16.274 24.2174 16.4761 24.545 16.6793C25.6544 17.3681 26.7742 18.0406 27.8951 18.7105C27.9607 18.7499 28.0263 18.7888 28.0919 18.8281C28.8112 19.2581 29.531 19.6855 30.2597 20.0981C30.8655 20.4415 31.4614 20.7948 32.0426 21.178C32.1024 21.2174 32.1024 21.2174 32.1638 21.2578C33.0516 21.8453 33.9068 22.4853 34.7201 23.173C34.7468 23.1956 34.7736 23.2177 34.8014 23.2408C35.6997 23.9926 36.5896 24.7953 37.3451 25.693C37.4075 25.7644 37.4075 25.7644 37.4716 25.8369C38.4554 26.9646 39.2981 28.2414 39.7832 29.6631C39.7968 29.703 39.8105 29.7429 39.8246 29.7838C39.8897 29.9839 39.9349 30.1529 39.9176 30.3655C39.8488 30.3141 39.78 30.2626 39.7107 30.2112C39.6724 30.1828 39.6341 30.154 39.5947 30.1246C39.4976 30.0505 39.4976 30.0505 39.4451 29.998C38.7311 29.902 38.2376 30.1335 37.6569 30.5272C36.839 31.1551 36.1822 32.097 35.9407 33.1018C35.9097 33.4594 35.8824 33.8631 36.0326 34.198C36.1019 34.2343 36.1722 34.2689 36.2426 34.303C36.3108 34.3492 36.378 34.397 36.4447 34.4464C36.503 34.4894 36.503 34.4894 36.5623 34.5335C36.6043 34.5645 36.6458 34.596 36.6888 34.628C36.7329 34.6606 36.7765 34.6931 36.8222 34.7262C37.1382 34.9614 37.4537 35.1982 37.7682 35.4349C38.2145 35.7704 38.6654 36.0991 39.1185 36.4246C39.276 36.5374 39.4325 36.6503 39.5894 36.7637C39.6682 36.8209 39.7469 36.8776 39.8262 36.9349C40.0215 37.0756 40.2168 37.2168 40.4111 37.3591C41.2715 37.9885 42.1593 38.5755 43.0676 39.133C43.1489 39.0517 43.1463 38.9598 43.1663 38.8474C43.3873 37.7318 44.0546 36.8782 44.9838 36.2324C45.5351 35.878 45.5351 35.878 45.7976 35.878C45.7976 35.8434 45.7976 35.8087 45.7976 35.773C46.9856 35.6035 47.969 35.8119 48.9455 36.5149C50.0721 37.3958 50.7698 38.6674 51.1526 40.0255C51.1704 40.0885 51.1888 40.1515 51.2072 40.2166C51.6655 42.1875 51.119 44.2612 50.1026 45.958C49.7666 46.4946 49.3833 46.9692 48.9476 47.428C48.8882 47.4979 48.8294 47.5677 48.7706 47.638C48.0267 48.487 47.0675 49.1017 46.1126 49.6855C46.1126 49.5013 46.1477 49.4635 46.2538 49.318C46.7756 48.5589 46.9163 47.7189 46.763 46.8175C46.4711 45.7869 45.8044 44.8981 45.1744 44.0518C44.1212 42.6358 43.1888 41.2047 43.0676 39.3955C42.9809 39.4475 42.8943 39.4995 42.8051 39.553C42.7998 39.5074 42.7946 39.4622 42.7888 39.415C42.6717 39.1813 42.5441 39.1383 42.3147 39.0249C42.0926 38.9104 41.8826 38.7771 41.6721 38.6432C41.6285 38.6159 41.5855 38.5881 41.5409 38.5603C41.0747 38.2626 40.6137 37.9565 40.1538 37.6494C40.0126 37.5544 39.8708 37.4599 39.7291 37.3654C38.9132 36.8215 38.1063 36.265 37.3025 35.7037C37.2049 35.6355 37.1067 35.5678 37.0085 35.5011C36.8726 35.4055 36.8726 35.4055 36.7571 35.3116C36.41 35.0401 36.0908 35.0538 35.6619 35.0611C32.8589 35.0485 30.2014 33.4977 28.0001 31.888C27.9628 31.8607 27.9255 31.834 27.8872 31.8056C27.3506 31.4134 26.8314 31.0008 26.3201 30.5755C26.2891 30.5498 26.2576 30.5236 26.2256 30.4968C25.562 29.9429 24.9346 29.3507 24.3219 28.7412C24.2909 28.7102 24.2594 28.6792 24.2274 28.6472C24.0752 28.4944 23.9292 28.339 23.7885 28.1752C23.5927 27.9505 23.3858 27.7384 23.1743 27.5279C23.1344 27.488 23.095 27.4481 23.0535 27.4072C22.9233 27.2764 22.7926 27.1457 22.6619 27.015C22.5705 26.9236 22.4786 26.8323 22.3873 26.7404C22.1962 26.5493 22.0051 26.3582 21.8135 26.1671C21.5688 25.923 21.3247 25.6783 21.0806 25.4337C20.8916 25.2447 20.7031 25.0562 20.5141 24.8672C20.4238 24.7774 20.334 24.6871 20.2437 24.5974C20.1177 24.4708 19.9917 24.3448 19.8652 24.2188C19.8284 24.1821 19.7917 24.1453 19.7539 24.1075C19.5476 23.9017 19.3355 23.7064 19.115 23.5159C19.0084 23.4229 18.9076 23.3263 18.8084 23.2261C18.7716 23.1893 18.7354 23.1531 18.6976 23.1153C18.6598 23.077 18.622 23.0386 18.5831 22.9993C18.5427 22.9583 18.5023 22.9179 18.4608 22.8764C18.2897 22.7047 18.1196 22.5325 17.9489 22.3603C17.8235 22.2343 17.698 22.1083 17.5725 21.9818C17.5347 21.9435 17.4969 21.9052 17.4575 21.8658C17.2507 21.6579 17.0386 21.4605 16.816 21.2689C16.5199 21.0085 16.2432 20.725 15.9634 20.4467C15.8846 20.3695 15.8064 20.2924 15.7271 20.2152C15.6127 20.1039 15.4988 19.991 15.3854 19.8781C15.3502 19.844 15.3145 19.8099 15.2783 19.7747C15.041 19.5364 15.041 19.5364 15.0021 19.3584C15.0378 19.2151 15.0898 19.1153 15.1706 18.9919C15.199 18.9473 15.2273 18.9032 15.2567 18.8581C15.2867 18.8124 15.3166 18.7672 15.3476 18.7205C15.3775 18.6738 15.4079 18.6276 15.4389 18.5798C15.5129 18.4654 15.5875 18.3514 15.6626 18.238C15.4405 17.9719 15.2069 17.7251 14.9585 17.4836C14.8142 17.3413 14.6771 17.1959 14.5454 17.0416C14.3264 16.789 14.0897 16.5559 13.8513 16.3218C13.3736 15.8519 13.3736 15.8519 13.1741 15.6178C12.9341 15.3385 12.6695 15.0838 12.4076 14.8255C11.8479 14.2738 11.8479 14.2738 11.6594 14.0512C11.3539 13.6942 11.009 13.3708 10.6751 13.0405C10.5349 12.9019 10.3952 12.7628 10.2551 12.6237C10.2236 12.5927 10.1926 12.5617 10.16 12.5297C10.0036 12.3743 9.85343 12.2158 9.70958 12.0483C9.50641 11.8131 9.28591 11.5978 9.06278 11.3815C8.97458 11.2954 8.88691 11.2093 8.79923 11.1227C8.66273 10.9888 8.52623 10.8555 8.38921 10.7227C7.04153 9.41752 7.04153 9.41752 7.00006 8.63054C6.99638 8.12024 7.16806 7.73594 7.52506 7.37054C8.61443 6.52477 9.82876 7.35637 10.7722 8.02207Z" fill="#414141"/>
<path d="M60.9177 32.9905C60.935 32.9905 60.9523 32.9905 60.9702 32.9905C61.0673 37.905 59.6493 42.7492 55.7202 48.5305C55.6792 48.5819 55.6378 48.6339 55.5952 48.6869C55.4808 48.8287 55.3648 48.9683 55.2477 49.108C55.2251 49.1348 55.2031 49.1615 55.18 49.1894C54.5253 49.9732 53.8318 50.7539 53.0553 51.4201C52.9419 51.5193 52.8311 51.6217 52.7209 51.7251C52.3833 52.0406 52.0289 52.3278 51.6625 52.6092C51.5785 52.6738 51.4945 52.7394 51.4115 52.805C47.3569 55.9823 42.1862 57.8424 37.0302 57.928C36.9808 57.929 36.931 57.9301 36.88 57.9311C33.1609 58.0036 29.5043 57.2444 26.1102 55.723C26.0619 55.7015 26.0136 55.6799 25.9637 55.6574C24.5173 55.0048 23.135 54.1816 21.864 53.2334C21.7548 53.1521 21.6451 53.0717 21.5348 52.9914C21.0429 52.6307 20.5798 52.2443 20.1252 51.838C20.0785 51.7965 20.0317 51.755 19.9834 51.712C19.8548 51.5975 19.7272 51.4815 19.6002 51.3655C19.5734 51.3413 19.5466 51.3167 19.5193 51.292C19.0516 50.8652 18.588 50.4373 18.1753 49.9553C18.0625 49.8257 17.9454 49.7002 17.8283 49.5742C17.5537 49.2723 17.3033 48.9552 17.0545 48.6323C16.9731 48.5273 16.8901 48.4244 16.8067 48.3215C14.0525 44.8943 12.3967 40.5694 11.8696 36.2292C11.8654 36.193 11.8606 36.1573 11.8564 36.12C11.7635 35.3483 11.7173 34.587 11.722 33.8105C11.722 33.736 11.7226 33.6609 11.7226 33.5858C11.7231 33.4047 11.7241 33.2241 11.7252 33.043C11.7425 33.043 11.7598 33.043 11.7777 33.043C11.7808 33.085 11.7845 33.127 11.7882 33.1706C11.9593 35.2433 12.3027 37.2498 12.9327 39.238C12.9495 39.2905 12.9658 39.3435 12.9831 39.3976C14.0326 42.6809 15.8527 45.749 18.1984 48.2706C18.3061 48.3872 18.41 48.5058 18.5134 48.626C18.7166 48.8586 18.9319 49.0775 19.1508 49.2949C19.1881 49.3327 19.2253 49.37 19.2642 49.4088C19.5073 49.6519 19.7587 49.8818 20.0202 50.1055C20.0795 50.1575 20.1388 50.2089 20.1982 50.2609C20.5998 50.6095 21.0103 50.9434 21.4377 51.2605C21.4723 51.2862 21.507 51.3119 21.5427 51.3387C22.4987 52.0469 23.4915 52.6838 24.5352 53.2555C24.5824 53.2812 24.6297 53.3075 24.6785 53.3342C28.2627 55.283 32.2763 56.2574 36.3477 56.2643C36.4312 56.2648 36.4312 56.2648 36.5157 56.2648C37.5888 56.2669 38.6577 56.2023 39.7208 56.0511C39.7833 56.0422 39.8463 56.0333 39.9109 56.0243C44.566 55.3408 48.9041 53.3279 52.4652 50.263C52.503 50.231 52.5403 50.1984 52.5791 50.1653C52.682 50.0761 52.7839 49.9863 52.8852 49.8955C52.9513 49.8362 52.9513 49.8362 53.0191 49.7763C53.3477 49.4797 53.6648 49.1741 53.9777 48.8618C54.0334 48.8066 54.0334 48.8066 54.0901 48.7505C54.3289 48.5105 54.5547 48.2627 54.7752 48.0055C54.8272 47.9462 54.8786 47.8868 54.9306 47.8275C55.2792 47.4259 55.6131 47.0153 55.9302 46.588C55.9564 46.5523 55.9827 46.5171 56.01 46.4804C56.4258 45.9181 56.8195 45.3443 57.1902 44.7505C57.2201 44.7027 57.2201 44.7027 57.2506 44.6539C59.4272 41.1548 60.7203 37.1112 60.9177 32.9905Z" fill="black"/>
<path d="M49.0921 36.6294C50.131 37.5224 50.7847 38.7199 51.1527 40.0256C51.1705 40.0886 51.1884 40.1516 51.2073 40.2167C51.6656 42.1875 51.1186 44.2613 50.1027 45.9581C49.7667 46.4946 49.3834 46.9692 48.9477 47.4281C48.8884 47.4979 48.829 47.5677 48.7708 47.6381C48.0268 48.487 47.0671 49.1018 46.1127 49.6856C46.1127 49.5008 46.1473 49.4635 46.2539 49.3181C46.7758 48.5589 46.9159 47.7189 46.7626 46.8175C46.4713 45.7869 45.8045 44.8981 45.1745 44.0518C44.3975 43.0076 43.6226 41.9261 43.2777 40.6556C43.2609 40.5952 43.2446 40.5348 43.2273 40.4729C43.0714 39.8387 43.0546 39.1887 43.2252 38.5556C43.2341 38.5146 43.243 38.4732 43.2525 38.4312C43.4882 37.4804 44.2972 36.674 45.1005 36.1574C45.5824 35.8781 45.5824 35.8781 45.7977 35.8781C45.7977 35.8434 45.7977 35.8088 45.7977 35.7731C47.0551 35.5935 48.0877 35.844 49.0921 36.6294Z" fill="#282828"/>
<path d="M39.4452 29.9454C39.6536 30.0745 39.8043 30.2388 39.9702 30.4179C40.0474 30.4809 40.1261 30.5423 40.2064 30.6016C40.429 30.7712 40.6348 30.9549 40.8417 31.1429C40.9525 31.2442 41.0643 31.3434 41.1777 31.4416C41.4255 31.6574 41.6691 31.8779 41.9127 32.0979C42.0004 32.1766 42.0875 32.2554 42.1752 32.3341C42.2188 32.3735 42.2623 32.4123 42.307 32.4528C42.3931 32.5299 42.4792 32.6076 42.5653 32.6848C42.8556 32.9452 43.1438 33.2077 43.4305 33.4718C43.5397 33.5715 43.6489 33.6713 43.7581 33.7705C44.0269 34.0152 44.2904 34.263 44.545 34.5223C44.6432 34.6184 44.7451 34.7087 44.8495 34.7985C45.2081 35.1082 45.5357 35.4285 45.7977 35.8254C45.6412 35.9524 45.4858 36.0322 45.3021 36.1141C44.4001 36.5583 43.6436 37.4061 43.3139 38.3517C43.2294 38.6262 43.168 38.9024 43.1202 39.1854C41.9085 38.5769 40.8128 37.7012 39.7187 36.9069C39.6022 36.8223 39.4856 36.7383 39.3685 36.6543C38.5527 36.0669 37.7421 35.4726 36.9451 34.8588C36.6826 34.6578 36.417 34.4672 36.1403 34.2866C35.924 34.1076 35.8941 33.8781 35.861 33.6125C35.8143 32.6874 36.3598 31.8837 36.9252 31.2054C36.9819 31.1345 36.9819 31.1345 37.0396 31.0626C37.6156 30.378 38.5138 29.7516 39.4452 29.9454Z" fill="#BEBEBE"/>
<path d="M15.7152 18.1855C15.764 18.2344 15.764 18.2344 15.8139 18.2848C15.9488 18.4197 16.0848 18.5541 16.2202 18.6885C16.3121 18.7804 16.404 18.8717 16.4964 18.9631C16.5421 19.0087 16.5877 19.0539 16.635 19.1006C16.8691 19.3337 17.0944 19.57 17.3091 19.8204C17.4524 19.9831 17.6078 20.1338 17.7627 20.2855C17.9863 20.5066 18.2016 20.7286 18.4048 20.9686C18.5502 21.1318 18.7072 21.2836 18.8626 21.4369C19.0332 21.6059 19.1917 21.7813 19.3477 21.964C19.5046 22.1398 19.6742 22.3021 19.8412 22.4674C19.9808 22.6087 20.1094 22.7567 20.2386 22.9074C20.3956 23.0833 20.5657 23.2465 20.7337 23.4119C20.8754 23.5558 21.0067 23.7059 21.1379 23.8592C21.2665 24.0046 21.4057 24.139 21.5443 24.2755C21.6776 24.411 21.801 24.5548 21.9254 24.6992C22.0399 24.8284 22.1627 24.9486 22.2861 25.0693C22.3795 25.1649 22.4667 25.2625 22.5538 25.3639C22.7428 25.5812 22.9392 25.7917 23.1376 26.0017C23.3944 26.2747 23.6495 26.5493 23.8994 26.8291C24.0249 26.9698 24.1519 27.109 24.279 27.2481C24.4564 27.4434 24.6318 27.6397 24.805 27.8387C25.1515 28.2346 25.508 28.6173 25.8813 28.9885C25.9564 29.063 26.0309 29.1381 26.106 29.2132C26.379 29.4862 26.6567 29.7476 26.9502 29.998C27.0111 30.0516 27.0715 30.1051 27.1318 30.1592C27.5797 30.554 28.0422 30.9226 28.5199 31.2801C28.626 31.3599 28.7315 31.4407 28.8365 31.5221C29.3778 31.9379 29.9437 32.3107 30.5202 32.6755C30.5827 32.7154 30.6451 32.7553 30.7071 32.7952C31.8925 33.5418 33.2271 34.1807 34.5952 34.4968C34.6414 34.5078 34.6876 34.5188 34.7349 34.5304C35.1197 34.6207 35.4825 34.6868 35.8783 34.6501C36.4359 34.6007 36.8139 34.6275 37.2533 34.9955C37.3699 35.0968 37.4843 35.1997 37.5982 35.3042C37.782 35.467 37.9809 35.6061 38.182 35.7468C38.2608 35.803 38.339 35.8591 38.4177 35.9153C38.4765 35.9578 38.4766 35.9578 38.5369 36.0009C38.7459 36.1516 38.9527 36.3054 39.1596 36.4587C39.5812 36.7705 40.008 37.0745 40.4374 37.3753C40.5498 37.4546 40.6621 37.5339 40.7739 37.6137C41.542 38.1597 42.328 38.6758 43.1202 39.1855C43.1023 39.2848 43.1023 39.2848 43.0677 39.3955C42.9333 39.4874 42.9333 39.4874 42.8052 39.553C42.7973 39.4848 42.7973 39.4848 42.7889 39.4155C42.6718 39.1813 42.5437 39.1383 42.3148 39.0249C42.0922 38.9104 41.8827 38.7771 41.6717 38.6432C41.6286 38.6159 41.5856 38.5881 41.541 38.5603C41.0742 38.2626 40.6138 37.9565 40.1539 37.6494C40.0127 37.5544 39.8709 37.4599 39.7292 37.3654C38.9133 36.8215 38.1064 36.265 37.3027 35.7037C37.205 35.6355 37.1068 35.5678 37.0086 35.5011C36.8727 35.4055 36.8727 35.4055 36.7572 35.3116C36.4101 35.0401 36.0904 35.0538 35.662 35.0611C32.8585 35.0485 30.2015 33.4977 28.0002 31.888C27.9629 31.8607 27.9256 31.834 27.8873 31.8056C27.3508 31.4134 26.831 31.0008 26.3202 30.5755C26.2887 30.5498 26.2577 30.5236 26.2257 30.4968C25.5621 29.9429 24.9347 29.3507 24.322 28.7412C24.2905 28.7102 24.2596 28.6792 24.2275 28.6472C24.0753 28.4944 23.9288 28.339 23.7886 28.1752C23.5928 27.9505 23.3854 27.7384 23.1744 27.5279C23.1345 27.488 23.0946 27.4481 23.0536 27.4072C22.9234 27.2764 22.7927 27.1457 22.662 27.015C22.5701 26.9236 22.4788 26.8323 22.3874 26.7404C22.1963 26.5493 22.0047 26.3582 21.8136 26.1671C21.5689 25.923 21.3248 25.6783 21.0807 25.4337C20.8917 25.2447 20.7032 25.0562 20.5142 24.8677C20.4239 24.7774 20.3341 24.6871 20.2438 24.5974C20.1178 24.4708 19.9918 24.3448 19.8653 24.2188C19.8102 24.1637 19.8102 24.1637 19.754 24.1075C19.5477 23.9017 19.3351 23.7064 19.1146 23.5159C19.0085 23.4229 18.9077 23.3263 18.808 23.2261C18.7717 23.1893 18.7355 23.1531 18.6977 23.1153C18.6599 23.077 18.6221 23.0386 18.5827 22.9993C18.5224 22.9384 18.5224 22.9384 18.4609 22.8764C18.2898 22.7047 18.1192 22.5325 17.9485 22.3603C17.8236 22.2343 17.6981 22.1083 17.5726 21.9818C17.5343 21.9435 17.4965 21.9052 17.4577 21.8658C17.2508 21.6579 17.0382 21.4605 16.8161 21.2689C16.5195 21.0085 16.2433 20.725 15.963 20.4467C15.8848 20.3695 15.8065 20.2924 15.7273 20.2152C15.6128 20.1039 15.4989 19.991 15.3855 19.8781C15.3498 19.844 15.3146 19.8099 15.2779 19.7747C15.0411 19.5364 15.0411 19.5364 15.0022 19.3584C15.0374 19.2156 15.0889 19.1169 15.1687 18.9935C15.197 18.9494 15.2248 18.9058 15.2542 18.8607C15.2836 18.8155 15.3136 18.7704 15.3445 18.7237C15.3739 18.6775 15.4039 18.6318 15.4343 18.5845C15.6501 18.2506 15.6501 18.2506 15.7152 18.1855Z" fill="#5F4B80"/>
<path d="M43.1202 39.343C43.1249 39.3966 43.1291 39.4501 43.1338 39.5052C43.3003 41.264 44.1681 42.6174 45.206 44.0055C45.4412 44.3221 45.6643 44.6455 45.8827 44.9736C45.9137 45.0193 45.9442 45.065 45.9751 45.1117C46.4277 45.7963 46.4277 45.7963 46.4277 45.958C46.2156 45.8871 46.172 45.7533 46.0702 45.5674C45.7819 45.0655 45.4244 44.6235 45.0627 44.173C44.0232 42.871 42.9002 41.463 42.7789 39.7305C42.8052 39.553 42.8052 39.553 42.9333 39.4218C43.0677 39.343 43.0677 39.343 43.1202 39.343Z" fill="#5590D3"/>
<path d="M45.6927 44.908C45.7447 44.908 45.7966 44.908 45.8502 44.908C45.9279 45.0151 45.9946 45.1185 46.0602 45.2329C46.078 45.2634 46.0964 45.2933 46.1148 45.3248C46.1668 45.413 46.2187 45.5017 46.2702 45.5905C46.3006 45.6388 46.3306 45.6876 46.3621 45.7375C46.4277 45.853 46.4277 45.853 46.4277 45.958C46.2035 45.8834 46.1426 45.717 46.0308 45.5217C46.0098 45.486 45.9888 45.4503 45.9673 45.4135C45.8701 45.2476 45.7751 45.0817 45.6927 44.908Z" fill="#5390DA"/>
<path d="M47.1627 48.9504C47.1973 48.9678 47.232 48.9851 47.2677 49.0029C46.8792 49.3111 46.4949 49.6014 46.0602 49.8429C46.0796 49.7148 46.0933 49.6497 46.1925 49.5636C46.2429 49.5337 46.2429 49.5337 46.2943 49.5033C46.3311 49.4807 46.3678 49.4586 46.4056 49.4355C46.4445 49.413 46.4828 49.3904 46.5227 49.3673C46.5988 49.3216 46.6744 49.2765 46.75 49.2308C46.7857 49.2098 46.8209 49.1888 46.8577 49.1667C46.9642 49.1006 47.0645 49.0292 47.1627 48.9504Z" fill="#5997D1"/>
<path d="M20.2302 12.988C20.2648 13.0054 20.2995 13.0227 20.3352 13.0405C20.1079 13.2679 19.88 13.4957 19.6527 13.723C19.6527 13.513 19.6527 13.513 19.7792 13.3776C19.8328 13.3303 19.8868 13.2836 19.9414 13.2374C19.9687 13.2133 19.9966 13.1891 20.0249 13.1644C20.0926 13.1051 20.1614 13.0463 20.2302 12.988Z" fill="#C56EFD"/>
<path d="M46.1127 45.3804C46.4277 45.7851 46.4277 45.7851 46.4277 45.9579C46.2702 45.9054 46.2702 45.9054 46.2072 45.8119C46.1888 45.7746 46.171 45.7374 46.1521 45.6985C46.1332 45.6612 46.1148 45.624 46.0954 45.5856C46.0838 45.5526 46.0723 45.5195 46.0602 45.4854C46.0775 45.4507 46.0948 45.4161 46.1127 45.3804Z" fill="#518CD4"/>
<path d="M13.7202 21.8606C13.779 22.037 13.7685 22.069 13.7039 22.2344C13.6897 22.2717 13.6761 22.3084 13.6619 22.3467C13.6152 22.4381 13.6152 22.4381 13.5102 22.4906C13.5448 22.2601 13.6252 22.0716 13.7202 21.8606Z" fill="#C08FFF"/>
<path d="M15.7152 18.1855C15.7672 18.2375 15.8191 18.2895 15.8727 18.343C15.7687 18.395 15.6648 18.447 15.5577 18.5005C15.6564 18.2443 15.6564 18.2443 15.7152 18.1855Z" fill="#7F61BA"/>
<path d="M46.2177 49.5806C46.2523 49.6152 46.287 49.6499 46.3227 49.6856C46.1925 49.7638 46.1925 49.7638 46.0602 49.8431C46.0801 49.7412 46.0801 49.7412 46.1127 49.6331C46.1473 49.6157 46.182 49.5984 46.2177 49.5806Z" fill="#5FA2D8"/>
</g>
<path d="M10.7722 8.02197C11.0368 8.20782 11.3072 8.38264 11.5807 8.55484C11.6831 8.61942 11.7849 8.68452 11.8873 8.74909C11.9387 8.78164 11.9902 8.81419 12.0437 8.84779C12.1913 8.94124 12.3383 9.03469 12.4853 9.12867C13.0391 9.48252 13.5951 9.83269 14.1527 10.1808C14.6798 10.5094 15.2048 10.8412 15.7292 11.1735C16.3319 11.5547 16.9357 11.9337 17.5405 12.3112C17.7641 12.4509 17.9878 12.591 18.2114 12.7312C18.2676 12.7664 18.3238 12.8021 18.3815 12.8383C18.4886 12.9055 18.5952 12.9727 18.7023 13.0399C18.9968 13.2247 19.294 13.4006 19.6001 13.5654C19.6389 13.5292 19.6778 13.493 19.7177 13.4557C20.0705 13.1281 20.4306 12.8147 20.8076 12.5154C20.8412 12.4887 20.8748 12.4619 20.9089 12.4346C22.0571 11.5179 23.2808 10.7026 24.5744 10.0065C24.6926 9.94294 24.8102 9.87837 24.9272 9.81379C27.474 8.42884 30.33 7.59094 33.1976 7.21294C33.2616 7.20454 33.3257 7.19562 33.3913 7.18669C35.391 6.93049 37.5005 6.93679 39.4976 7.21294C39.5343 7.21819 39.5716 7.22292 39.6094 7.22817C44.1422 7.86237 48.5228 9.66889 52.2629 12.8541C52.3338 12.9134 52.4057 12.9711 52.4787 13.0278C52.9181 13.3738 53.3082 13.7639 53.7014 14.1608C53.8175 14.2779 53.9335 14.3944 54.05 14.511C54.1256 14.586 54.2007 14.6616 54.2758 14.7372C54.3099 14.7714 54.344 14.8055 54.3792 14.8407C57.9628 18.4611 60.1563 23.5194 60.9905 32.1804C60.99 32.4177 60.9905 32.6555 60.9911 32.8933C60.9963 34.398 60.9302 35.8863 60.665 37.371C60.6514 37.4503 60.6377 37.5296 60.6236 37.6089C59.9263 41.5784 58.2469 45.3836 55.7201 48.5304C55.6791 48.5819 55.6376 48.6339 55.5956 48.6869C55.4812 48.8286 55.3646 48.9683 55.2476 49.1079C55.2255 49.1347 55.2029 49.1615 55.1798 49.1893C54.5252 49.9731 53.8316 50.7538 53.0552 51.4195C52.9418 51.5193 52.8315 51.6216 52.7213 51.7251C52.3832 52.0406 52.0293 52.3278 51.6623 52.6092C51.5783 52.6737 51.4949 52.7394 51.4114 52.805C47.3568 55.9823 42.1866 57.8424 37.0301 57.9279C36.9807 57.929 36.9314 57.93 36.8804 57.9311C33.1613 58.0035 29.5042 57.2444 26.1101 55.7229C26.0618 55.7014 26.0135 55.6799 25.9636 55.6573C24.5172 55.0047 23.1354 54.1815 21.8639 53.2334C21.7547 53.152 21.6449 53.0717 21.5347 52.9914C21.0428 52.6307 20.5802 52.2443 20.1251 51.8379C20.0783 51.7965 20.0316 51.755 19.9833 51.7119C19.8547 51.5975 19.7271 51.4815 19.6001 51.3654C19.5733 51.3413 19.547 51.3166 19.5192 51.2919C19.0514 50.8651 18.5879 50.4372 18.1757 49.9553C18.0623 49.8256 17.9453 49.7001 17.8282 49.5736C17.5536 49.2723 17.3032 48.9552 17.0543 48.6318C16.973 48.5273 16.89 48.4244 16.8065 48.3215C14.0524 44.8943 12.3965 40.5693 11.8694 36.2292C11.8652 36.1929 11.861 36.1572 11.8563 36.12C11.7592 35.3104 11.7161 34.5098 11.7146 33.695C11.714 33.6262 11.714 33.6262 11.714 33.5559C11.7135 33.3128 11.713 33.0692 11.7125 32.8261C11.7125 32.6287 11.7114 32.4318 11.7104 32.235C11.7009 30.671 11.7508 29.127 12.0238 27.5829C12.0306 27.5446 12.0369 27.5063 12.0437 27.4669C12.6149 24.1694 13.8529 21.053 15.6626 18.2379C15.4405 17.9718 15.2069 17.725 14.9585 17.4835C14.8142 17.3412 14.6771 17.1958 14.5454 17.0415C14.3264 16.7889 14.0897 16.5558 13.8513 16.3217C13.3736 15.8518 13.3736 15.8518 13.1741 15.6177C12.9341 15.3384 12.6695 15.0837 12.4076 14.8254C11.8479 14.2737 11.8479 14.2737 11.6594 14.0511C11.3539 13.6941 11.009 13.3707 10.6751 13.0404C10.5349 12.9018 10.3952 12.7627 10.2551 12.6236C10.2236 12.5926 10.1926 12.5616 10.16 12.5296C10.0036 12.3742 9.85343 12.2157 9.70958 12.0482C9.50641 11.813 9.28591 11.5977 9.06278 11.3814C8.97458 11.2953 8.88691 11.2092 8.79923 11.1226C8.66273 10.9887 8.52623 10.8554 8.38921 10.7226C7.04153 9.41742 7.04153 9.41742 7.00006 8.63044C6.99638 8.12014 7.16806 7.73584 7.52506 7.37044C8.61443 6.52467 9.82876 7.35627 10.7722 8.02197Z" fill="#B29DD0"/>
<path d="M10.7722 8.02207C11.0368 8.20792 11.3072 8.38274 11.5807 8.55494C11.6831 8.61952 11.7849 8.68462 11.8873 8.74919C11.9387 8.78174 11.9902 8.81429 12.0437 8.84789C12.1913 8.94134 12.3383 9.03479 12.4853 9.12877C13.0391 9.48262 13.5951 9.83279 14.1527 10.1809C14.6798 10.5095 15.2048 10.8413 15.7292 11.1736C16.2259 11.4876 16.7231 11.8005 17.2213 12.1118C17.2738 12.1449 17.3263 12.1774 17.3798 12.211C17.657 12.3843 17.9342 12.557 18.2114 12.7297C18.2676 12.7649 18.3238 12.7996 18.3815 12.8358C18.4886 12.9025 18.5952 12.9691 18.7023 13.0353C18.9669 13.2001 19.2284 13.3687 19.4872 13.5424C19.6757 13.6684 19.8678 13.7892 20.0594 13.9099C20.1025 13.9367 20.145 13.964 20.1891 13.9918C20.6448 14.2785 21.1026 14.5615 21.5609 14.8444C21.6985 14.9295 21.8355 15.0145 21.9725 15.0996C22.5002 15.4272 23.0294 15.7516 23.5601 16.074C23.8893 16.274 24.2174 16.4761 24.545 16.6793C25.6544 17.3681 26.7742 18.0406 27.8951 18.7105C27.9607 18.7499 28.0263 18.7888 28.0919 18.8281C28.8112 19.2581 29.531 19.6855 30.2597 20.0981C30.8655 20.4415 31.4614 20.7948 32.0426 21.178C32.1024 21.2174 32.1024 21.2174 32.1638 21.2578C33.0516 21.8453 33.9068 22.4853 34.7201 23.173C34.7468 23.1956 34.7736 23.2177 34.8014 23.2408C35.6997 23.9926 36.5896 24.7953 37.3451 25.693C37.4075 25.7644 37.4075 25.7644 37.4716 25.8369C38.4554 26.9646 39.2981 28.2414 39.7832 29.6631C39.7968 29.703 39.8105 29.7429 39.8246 29.7838C39.8897 29.9839 39.9349 30.1529 39.9176 30.3655C39.8488 30.3141 39.78 30.2626 39.7107 30.2112C39.6724 30.1828 39.6341 30.154 39.5947 30.1246C39.4976 30.0505 39.4976 30.0505 39.4451 29.998C38.7311 29.902 38.2376 30.1335 37.6569 30.5272C36.839 31.1551 36.1822 32.097 35.9407 33.1018C35.9097 33.4594 35.8824 33.8631 36.0326 34.198C36.1019 34.2343 36.1722 34.2689 36.2426 34.303C36.3108 34.3492 36.378 34.397 36.4447 34.4464C36.503 34.4894 36.503 34.4894 36.5623 34.5335C36.6043 34.5645 36.6458 34.596 36.6888 34.628C36.7329 34.6606 36.7765 34.6931 36.8222 34.7262C37.1382 34.9614 37.4537 35.1982 37.7682 35.4349C38.2145 35.7704 38.6654 36.0991 39.1185 36.4246C39.276 36.5374 39.4325 36.6503 39.5894 36.7637C39.6682 36.8209 39.7469 36.8776 39.8262 36.9349C40.0215 37.0756 40.2168 37.2168 40.4111 37.3591C41.2715 37.9885 42.1593 38.5755 43.0676 39.133C43.1489 39.0517 43.1463 38.9598 43.1663 38.8474C43.3873 37.7318 44.0546 36.8782 44.9838 36.2324C45.5351 35.878 45.5351 35.878 45.7976 35.878C45.7976 35.8434 45.7976 35.8087 45.7976 35.773C46.9856 35.6035 47.969 35.8119 48.9455 36.5149C50.0721 37.3958 50.7698 38.6674 51.1526 40.0255C51.1704 40.0885 51.1888 40.1515 51.2072 40.2166C51.6655 42.1875 51.119 44.2612 50.1026 45.958C49.7666 46.4946 49.3833 46.9692 48.9476 47.428C48.8882 47.4979 48.8294 47.5677 48.7706 47.638C48.0267 48.487 47.0675 49.1017 46.1126 49.6855C46.1126 49.5013 46.1477 49.4635 46.2538 49.318C46.7756 48.5589 46.9163 47.7189 46.763 46.8175C46.4711 45.7869 45.8044 44.8981 45.1744 44.0518C44.1212 42.6358 43.1888 41.2047 43.0676 39.3955C42.9809 39.4475 42.8943 39.4995 42.8051 39.553C42.7998 39.5074 42.7946 39.4622 42.7888 39.415C42.6717 39.1813 42.5441 39.1383 42.3147 39.0249C42.0926 38.9104 41.8826 38.7771 41.6721 38.6432C41.6285 38.6159 41.5855 38.5881 41.5409 38.5603C41.0747 38.2626 40.6137 37.9565 40.1538 37.6494C40.0126 37.5544 39.8708 37.4599 39.7291 37.3654C38.9132 36.8215 38.1063 36.265 37.3025 35.7037C37.2049 35.6355 37.1067 35.5678 37.0085 35.5011C36.8726 35.4055 36.8726 35.4055 36.7571 35.3116C36.41 35.0401 36.0908 35.0538 35.6619 35.0611C32.8589 35.0485 30.2014 33.4977 28.0001 31.888C27.9628 31.8607 27.9255 31.834 27.8872 31.8056C27.3506 31.4134 26.8314 31.0008 26.3201 30.5755C26.2891 30.5498 26.2576 30.5236 26.2256 30.4968C25.562 29.9429 24.9346 29.3507 24.3219 28.7412C24.2909 28.7102 24.2594 28.6792 24.2274 28.6472C24.0752 28.4944 23.9292 28.339 23.7885 28.1752C23.5927 27.9505 23.3858 27.7384 23.1743 27.5279C23.1344 27.488 23.095 27.4481 23.0535 27.4072C22.9233 27.2764 22.7926 27.1457 22.6619 27.015C22.5705 26.9236 22.4786 26.8323 22.3873 26.7404C22.1962 26.5493 22.0051 26.3582 21.8135 26.1671C21.5688 25.923 21.3247 25.6783 21.0806 25.4337C20.8916 25.2447 20.7031 25.0562 20.5141 24.8672C20.4238 24.7774 20.334 24.6871 20.2437 24.5974C20.1177 24.4708 19.9917 24.3448 19.8652 24.2188C19.8284 24.1821 19.7917 24.1453 19.7539 24.1075C19.5476 23.9017 19.3355 23.7064 19.115 23.5159C19.0084 23.4229 18.9076 23.3263 18.8084 23.2261C18.7716 23.1893 18.7354 23.1531 18.6976 23.1153C18.6598 23.077 18.622 23.0386 18.5831 22.9993C18.5427 22.9583 18.5023 22.9179 18.4608 22.8764C18.2897 22.7047 18.1196 22.5325 17.9489 22.3603C17.8235 22.2343 17.698 22.1083 17.5725 21.9818C17.5347 21.9435 17.4969 21.9052 17.4575 21.8658C17.2507 21.6579 17.0386 21.4605 16.816 21.2689C16.5199 21.0085 16.2432 20.725 15.9634 20.4467C15.8846 20.3695 15.8064 20.2924 15.7271 20.2152C15.6127 20.1039 15.4988 19.991 15.3854 19.8781C15.3502 19.844 15.3145 19.8099 15.2783 19.7747C15.041 19.5364 15.041 19.5364 15.0021 19.3584C15.0378 19.2151 15.0898 19.1153 15.1706 18.9919C15.199 18.9473 15.2273 18.9032 15.2567 18.8581C15.2867 18.8124 15.3166 18.7672 15.3476 18.7205C15.3775 18.6738 15.4079 18.6276 15.4389 18.5798C15.5129 18.4654 15.5875 18.3514 15.6626 18.238C15.4405 17.9719 15.2069 17.7251 14.9585 17.4836C14.8142 17.3413 14.6771 17.1959 14.5454 17.0416C14.3264 16.789 14.0897 16.5559 13.8513 16.3218C13.3736 15.8519 13.3736 15.8519 13.1741 15.6178C12.9341 15.3385 12.6695 15.0838 12.4076 14.8255C11.8479 14.2738 11.8479 14.2738 11.6594 14.0512C11.3539 13.6942 11.009 13.3708 10.6751 13.0405C10.5349 12.9019 10.3952 12.7628 10.2551 12.6237C10.2236 12.5927 10.1926 12.5617 10.16 12.5297C10.0036 12.3743 9.85343 12.2158 9.70958 12.0483C9.50641 11.8131 9.28591 11.5978 9.06278 11.3815C8.97458 11.2954 8.88691 11.2093 8.79923 11.1227C8.66273 10.9888 8.52623 10.8555 8.38921 10.7227C7.04153 9.41752 7.04153 9.41752 7.00006 8.63054C6.99638 8.12024 7.16806 7.73594 7.52506 7.37054C8.61443 6.52477 9.82876 7.35637 10.7722 8.02207Z" fill="#414141"/>
<path d="M60.9177 32.9905C60.935 32.9905 60.9523 32.9905 60.9702 32.9905C61.0673 37.905 59.6493 42.7492 55.7202 48.5305C55.6792 48.5819 55.6378 48.6339 55.5952 48.6869C55.4808 48.8287 55.3648 48.9683 55.2477 49.108C55.2251 49.1348 55.2031 49.1615 55.18 49.1894C54.5253 49.9732 53.8318 50.7539 53.0553 51.4201C52.9419 51.5193 52.8311 51.6217 52.7209 51.7251C52.3833 52.0406 52.0289 52.3278 51.6625 52.6092C51.5785 52.6738 51.4945 52.7394 51.4115 52.805C47.3569 55.9823 42.1862 57.8424 37.0302 57.928C36.9808 57.929 36.931 57.9301 36.88 57.9311C33.1609 58.0036 29.5043 57.2444 26.1102 55.723C26.0619 55.7015 26.0136 55.6799 25.9637 55.6574C24.5173 55.0048 23.135 54.1816 21.864 53.2334C21.7548 53.1521 21.6451 53.0717 21.5348 52.9914C21.0429 52.6307 20.5798 52.2443 20.1252 51.838C20.0785 51.7965 20.0317 51.755 19.9834 51.712C19.8548 51.5975 19.7272 51.4815 19.6002 51.3655C19.5734 51.3413 19.5466 51.3167 19.5193 51.292C19.0516 50.8652 18.588 50.4373 18.1753 49.9553C18.0625 49.8257 17.9454 49.7002 17.8283 49.5742C17.5537 49.2723 17.3033 48.9552 17.0545 48.6323C16.9731 48.5273 16.8901 48.4244 16.8067 48.3215C14.0525 44.8943 12.3967 40.5694 11.8696 36.2292C11.8654 36.193 11.8606 36.1573 11.8564 36.12C11.7635 35.3483 11.7173 34.587 11.722 33.8105C11.722 33.736 11.7226 33.6609 11.7226 33.5858C11.7231 33.4047 11.7241 33.2241 11.7252 33.043C11.7425 33.043 11.7598 33.043 11.7777 33.043C11.7808 33.085 11.7845 33.127 11.7882 33.1706C11.9593 35.2433 12.3027 37.2498 12.9327 39.238C12.9495 39.2905 12.9658 39.3435 12.9831 39.3976C14.0326 42.6809 15.8527 45.749 18.1984 48.2706C18.3061 48.3872 18.41 48.5058 18.5134 48.626C18.7166 48.8586 18.9319 49.0775 19.1508 49.2949C19.1881 49.3327 19.2253 49.37 19.2642 49.4088C19.5073 49.6519 19.7587 49.8818 20.0202 50.1055C20.0795 50.1575 20.1388 50.2089 20.1982 50.2609C20.5998 50.6095 21.0103 50.9434 21.4377 51.2605C21.4723 51.2862 21.507 51.3119 21.5427 51.3387C22.4987 52.0469 23.4915 52.6838 24.5352 53.2555C24.5824 53.2812 24.6297 53.3075 24.6785 53.3342C28.2627 55.283 32.2763 56.2574 36.3477 56.2643C36.4312 56.2648 36.4312 56.2648 36.5157 56.2648C37.5888 56.2669 38.6577 56.2023 39.7208 56.0511C39.7833 56.0422 39.8463 56.0333 39.9109 56.0243C44.566 55.3408 48.9041 53.3279 52.4652 50.263C52.503 50.231 52.5403 50.1984 52.5791 50.1653C52.682 50.0761 52.7839 49.9863 52.8852 49.8955C52.9513 49.8362 52.9513 49.8362 53.0191 49.7763C53.3477 49.4797 53.6648 49.1741 53.9777 48.8618C54.0334 48.8066 54.0334 48.8066 54.0901 48.7505C54.3289 48.5105 54.5547 48.2627 54.7752 48.0055C54.8272 47.9462 54.8786 47.8868 54.9306 47.8275C55.2792 47.4259 55.6131 47.0153 55.9302 46.588C55.9564 46.5523 55.9827 46.5171 56.01 46.4804C56.4258 45.9181 56.8195 45.3443 57.1902 44.7505C57.2201 44.7027 57.2201 44.7027 57.2506 44.6539C59.4272 41.1548 60.7203 37.1112 60.9177 32.9905Z" fill="black"/>
<path d="M49.0921 36.6294C50.131 37.5224 50.7847 38.7199 51.1527 40.0256C51.1705 40.0886 51.1884 40.1516 51.2073 40.2167C51.6656 42.1875 51.1186 44.2613 50.1027 45.9581C49.7667 46.4946 49.3834 46.9692 48.9477 47.4281C48.8884 47.4979 48.829 47.5677 48.7708 47.6381C48.0268 48.487 47.0671 49.1018 46.1127 49.6856C46.1127 49.5008 46.1473 49.4635 46.2539 49.3181C46.7758 48.5589 46.9159 47.7189 46.7626 46.8175C46.4713 45.7869 45.8045 44.8981 45.1745 44.0518C44.3975 43.0076 43.6226 41.9261 43.2777 40.6556C43.2609 40.5952 43.2446 40.5348 43.2273 40.4729C43.0714 39.8387 43.0546 39.1887 43.2252 38.5556C43.2341 38.5146 43.243 38.4732 43.2525 38.4312C43.4882 37.4804 44.2972 36.674 45.1005 36.1574C45.5824 35.8781 45.5824 35.8781 45.7977 35.8781C45.7977 35.8434 45.7977 35.8088 45.7977 35.7731C47.0551 35.5935 48.0877 35.844 49.0921 36.6294Z" fill="#282828"/>
<path d="M39.4452 29.9454C39.6536 30.0745 39.8043 30.2388 39.9702 30.4179C40.0474 30.4809 40.1261 30.5423 40.2064 30.6016C40.429 30.7712 40.6348 30.9549 40.8417 31.1429C40.9525 31.2442 41.0643 31.3434 41.1777 31.4416C41.4255 31.6574 41.6691 31.8779 41.9127 32.0979C42.0004 32.1766 42.0875 32.2554 42.1752 32.3341C42.2188 32.3735 42.2623 32.4123 42.307 32.4528C42.3931 32.5299 42.4792 32.6076 42.5653 32.6848C42.8556 32.9452 43.1438 33.2077 43.4305 33.4718C43.5397 33.5715 43.6489 33.6713 43.7581 33.7705C44.0269 34.0152 44.2904 34.263 44.545 34.5223C44.6432 34.6184 44.7451 34.7087 44.8495 34.7985C45.2081 35.1082 45.5357 35.4285 45.7977 35.8254C45.6412 35.9524 45.4858 36.0322 45.3021 36.1141C44.4001 36.5583 43.6436 37.4061 43.3139 38.3517C43.2294 38.6262 43.168 38.9024 43.1202 39.1854C41.9085 38.5769 40.8128 37.7012 39.7187 36.9069C39.6022 36.8223 39.4856 36.7383 39.3685 36.6543C38.5527 36.0669 37.7421 35.4726 36.9451 34.8588C36.6826 34.6578 36.417 34.4672 36.1403 34.2866C35.924 34.1076 35.8941 33.8781 35.861 33.6125C35.8143 32.6874 36.3598 31.8837 36.9252 31.2054C36.9819 31.1345 36.9819 31.1345 37.0396 31.0626C37.6156 30.378 38.5138 29.7516 39.4452 29.9454Z" fill="#BEBEBE"/>
<path d="M15.7152 18.1855C15.764 18.2344 15.764 18.2344 15.8139 18.2848C15.9488 18.4197 16.0848 18.5541 16.2202 18.6885C16.3121 18.7804 16.404 18.8717 16.4964 18.9631C16.5421 19.0087 16.5877 19.0539 16.635 19.1006C16.8691 19.3337 17.0944 19.57 17.3091 19.8204C17.4524 19.9831 17.6078 20.1338 17.7627 20.2855C17.9863 20.5066 18.2016 20.7286 18.4048 20.9686C18.5502 21.1318 18.7072 21.2836 18.8626 21.4369C19.0332 21.6059 19.1917 21.7813 19.3477 21.964C19.5046 22.1398 19.6742 22.3021 19.8412 22.4674C19.9808 22.6087 20.1094 22.7567 20.2386 22.9074C20.3956 23.0833 20.5657 23.2465 20.7337 23.4119C20.8754 23.5558 21.0067 23.7059 21.1379 23.8592C21.2665 24.0046 21.4057 24.139 21.5443 24.2755C21.6776 24.411 21.801 24.5548 21.9254 24.6992C22.0399 24.8284 22.1627 24.9486 22.2861 25.0693C22.3795 25.1649 22.4667 25.2625 22.5538 25.3639C22.7428 25.5812 22.9392 25.7917 23.1376 26.0017C23.3944 26.2747 23.6495 26.5493 23.8994 26.8291C24.0249 26.9698 24.1519 27.109 24.279 27.2481C24.4564 27.4434 24.6318 27.6397 24.805 27.8387C25.1515 28.2346 25.508 28.6173 25.8813 28.9885C25.9564 29.063 26.0309 29.1381 26.106 29.2132C26.379 29.4862 26.6567 29.7476 26.9502 29.998C27.0111 30.0516 27.0715 30.1051 27.1318 30.1592C27.5797 30.554 28.0422 30.9226 28.5199 31.2801C28.626 31.3599 28.7315 31.4407 28.8365 31.5221C29.3778 31.9379 29.9437 32.3107 30.5202 32.6755C30.5827 32.7154 30.6451 32.7553 30.7071 32.7952C31.8925 33.5418 33.2271 34.1807 34.5952 34.4968C34.6414 34.5078 34.6876 34.5188 34.7349 34.5304C35.1197 34.6207 35.4825 34.6868 35.8783 34.6501C36.4359 34.6007 36.8139 34.6275 37.2533 34.9955C37.3699 35.0968 37.4843 35.1997 37.5982 35.3042C37.782 35.467 37.9809 35.6061 38.182 35.7468C38.2608 35.803 38.339 35.8591 38.4177 35.9153C38.4765 35.9578 38.4766 35.9578 38.5369 36.0009C38.7459 36.1516 38.9527 36.3054 39.1596 36.4587C39.5812 36.7705 40.008 37.0745 40.4374 37.3753C40.5498 37.4546 40.6621 37.5339 40.7739 37.6137C41.542 38.1597 42.328 38.6758 43.1202 39.1855C43.1023 39.2848 43.1023 39.2848 43.0677 39.3955C42.9333 39.4874 42.9333 39.4874 42.8052 39.553C42.7973 39.4848 42.7973 39.4848 42.7889 39.4155C42.6718 39.1813 42.5437 39.1383 42.3148 39.0249C42.0922 38.9104 41.8827 38.7771 41.6717 38.6432C41.6286 38.6159 41.5856 38.5881 41.541 38.5603C41.0742 38.2626 40.6138 37.9565 40.1539 37.6494C40.0127 37.5544 39.8709 37.4599 39.7292 37.3654C38.9133 36.8215 38.1064 36.265 37.3027 35.7037C37.205 35.6355 37.1068 35.5678 37.0086 35.5011C36.8727 35.4055 36.8727 35.4055 36.7572 35.3116C36.4101 35.0401 36.0904 35.0538 35.662 35.0611C32.8585 35.0485 30.2015 33.4977 28.0002 31.888C27.9629 31.8607 27.9256 31.834 27.8873 31.8056C27.3508 31.4134 26.831 31.0008 26.3202 30.5755C26.2887 30.5498 26.2577 30.5236 26.2257 30.4968C25.5621 29.9429 24.9347 29.3507 24.322 28.7412C24.2905 28.7102 24.2596 28.6792 24.2275 28.6472C24.0753 28.4944 23.9288 28.339 23.7886 28.1752C23.5928 27.9505 23.3854 27.7384 23.1744 27.5279C23.1345 27.488 23.0946 27.4481 23.0536 27.4072C22.9234 27.2764 22.7927 27.1457 22.662 27.015C22.5701 26.9236 22.4788 26.8323 22.3874 26.7404C22.1963 26.5493 22.0047 26.3582 21.8136 26.1671C21.5689 25.923 21.3248 25.6783 21.0807 25.4337C20.8917 25.2447 20.7032 25.0562 20.5142 24.8677C20.4239 24.7774 20.3341 24.6871 20.2438 24.5974C20.1178 24.4708 19.9918 24.3448 19.8653 24.2188C19.8102 24.1637 19.8102 24.1637 19.754 24.1075C19.5477 23.9017 19.3351 23.7064 19.1146 23.5159C19.0085 23.4229 18.9077 23.3263 18.808 23.2261C18.7717 23.1893 18.7355 23.1531 18.6977 23.1153C18.6599 23.077 18.6221 23.0386 18.5827 22.9993C18.5224 22.9384 18.5224 22.9384 18.4609 22.8764C18.2898 22.7047 18.1192 22.5325 17.9485 22.3603C17.8236 22.2343 17.6981 22.1083 17.5726 21.9818C17.5343 21.9435 17.4965 21.9052 17.4577 21.8658C17.2508 21.6579 17.0382 21.4605 16.8161 21.2689C16.5195 21.0085 16.2433 20.725 15.963 20.4467C15.8848 20.3695 15.8065 20.2924 15.7273 20.2152C15.6128 20.1039 15.4989 19.991 15.3855 19.8781C15.3498 19.844 15.3146 19.8099 15.2779 19.7747C15.0411 19.5364 15.0411 19.5364 15.0022 19.3584C15.0374 19.2156 15.0889 19.1169 15.1687 18.9935C15.197 18.9494 15.2248 18.9058 15.2542 18.8607C15.2836 18.8155 15.3136 18.7704 15.3445 18.7237C15.3739 18.6775 15.4039 18.6318 15.4343 18.5845C15.6501 18.2506 15.6501 18.2506 15.7152 18.1855Z" fill="#5F4B80"/>
<path d="M43.1202 39.343C43.1249 39.3966 43.1291 39.4501 43.1338 39.5052C43.3003 41.264 44.1681 42.6174 45.206 44.0055C45.4412 44.3221 45.6643 44.6455 45.8827 44.9736C45.9137 45.0193 45.9442 45.065 45.9751 45.1117C46.4277 45.7963 46.4277 45.7963 46.4277 45.958C46.2156 45.8871 46.172 45.7533 46.0702 45.5674C45.7819 45.0655 45.4244 44.6235 45.0627 44.173C44.0232 42.871 42.9002 41.463 42.7789 39.7305C42.8052 39.553 42.8052 39.553 42.9333 39.4218C43.0677 39.343 43.0677 39.343 43.1202 39.343Z" fill="#5590D3"/>
<path d="M45.6927 44.908C45.7447 44.908 45.7966 44.908 45.8502 44.908C45.9279 45.0151 45.9946 45.1185 46.0602 45.2329C46.078 45.2634 46.0964 45.2933 46.1148 45.3248C46.1668 45.413 46.2187 45.5017 46.2702 45.5905C46.3006 45.6388 46.3306 45.6876 46.3621 45.7375C46.4277 45.853 46.4277 45.853 46.4277 45.958C46.2035 45.8834 46.1426 45.717 46.0308 45.5217C46.0098 45.486 45.9888 45.4503 45.9673 45.4135C45.8701 45.2476 45.7751 45.0817 45.6927 44.908Z" fill="#5390DA"/>
<path d="M47.1627 48.9504C47.1973 48.9678 47.232 48.9851 47.2677 49.0029C46.8792 49.3111 46.4949 49.6014 46.0602 49.8429C46.0796 49.7148 46.0933 49.6497 46.1925 49.5636C46.2429 49.5337 46.2429 49.5337 46.2943 49.5033C46.3311 49.4807 46.3678 49.4586 46.4056 49.4355C46.4445 49.413 46.4828 49.3904 46.5227 49.3673C46.5988 49.3216 46.6744 49.2765 46.75 49.2308C46.7857 49.2098 46.8209 49.1888 46.8577 49.1667C46.9642 49.1006 47.0645 49.0292 47.1627 48.9504Z" fill="#5997D1"/>
<path d="M20.2302 12.988C20.2648 13.0054 20.2995 13.0227 20.3352 13.0405C20.1079 13.2679 19.88 13.4957 19.6527 13.723C19.6527 13.513 19.6527 13.513 19.7792 13.3776C19.8328 13.3303 19.8868 13.2836 19.9414 13.2374C19.9687 13.2133 19.9966 13.1891 20.0249 13.1644C20.0926 13.1051 20.1614 13.0463 20.2302 12.988Z" fill="#C56EFD"/>
<path d="M46.1127 45.3804C46.4277 45.7851 46.4277 45.7851 46.4277 45.9579C46.2702 45.9054 46.2702 45.9054 46.2072 45.8119C46.1888 45.7746 46.171 45.7374 46.1521 45.6985C46.1332 45.6612 46.1148 45.624 46.0954 45.5856C46.0838 45.5526 46.0723 45.5195 46.0602 45.4854C46.0775 45.4507 46.0948 45.4161 46.1127 45.3804Z" fill="#518CD4"/>
<path d="M13.7202 21.8606C13.779 22.037 13.7685 22.069 13.7039 22.2344C13.6897 22.2717 13.6761 22.3084 13.6619 22.3467C13.6152 22.4381 13.6152 22.4381 13.5102 22.4906C13.5448 22.2601 13.6252 22.0716 13.7202 21.8606Z" fill="#C08FFF"/>
<path d="M15.7152 18.1855C15.7672 18.2375 15.8191 18.2895 15.8727 18.343C15.7687 18.395 15.6648 18.447 15.5577 18.5005C15.6564 18.2443 15.6564 18.2443 15.7152 18.1855Z" fill="#7F61BA"/>
<path d="M46.2177 49.5806C46.2523 49.6152 46.287 49.6499 46.3227 49.6856C46.1925 49.7638 46.1925 49.7638 46.0602 49.8431C46.0801 49.7412 46.0801 49.7412 46.1127 49.6331C46.1473 49.6157 46.182 49.5984 46.2177 49.5806Z" fill="#5FA2D8"/>
<defs>
<filter id="filter0_f_344_14246" x="-2.15231" y="-6.82202" width="77" height="77" filterUnits="userSpaceOnUse" color-interpolation-filters="sRGB">
<feFlood flood-opacity="0" result="BackgroundImageFix"/>
<feBlend mode="normal" in="SourceGraphic" in2="BackgroundImageFix" result="shape"/>
<feGaussianBlur stdDeviation="3.5" result="effect1_foregroundBlur_344_14246"/>
</filter>
</defs>
</svg>
