<svg width="74" height="74" viewBox="0 0 74 74" fill="none" xmlns="http://www.w3.org/2000/svg">
<path fill-rule="evenodd" clip-rule="evenodd" d="M8.22383 74H65.7762C70.3145 74 74 70.3145 74 65.7762V8.22383C74 3.68555 70.3145 0 65.7762 0H8.22383C3.68555 0 0 3.68555 0 8.22383V65.7762C0 70.3145 3.68555 74 8.22383 74Z" fill="white"/>
<path fill-rule="evenodd" clip-rule="evenodd" d="M63.7238 63.724H52.7395V45.0217C52.7395 39.8908 50.7883 37.0291 46.727 37.0291C42.3188 37.0291 40.0063 40.0064 40.0063 45.0217V63.724H29.4266V28.0971H40.0063V32.8955C40.0063 32.8955 43.1859 27.0131 50.7449 27.0131C58.3039 27.0131 63.7094 31.6236 63.7094 41.1771V63.724H63.7238ZM16.809 23.4287C13.2102 23.4287 10.2762 20.4803 10.2762 16.8525C10.2762 13.2248 13.1957 10.2764 16.809 10.2764C20.4223 10.2764 23.3274 13.2248 23.3274 16.8525C23.3274 20.4803 20.4078 23.4287 16.809 23.4287ZM11.3457 63.724H22.3879V28.0971H11.3457V63.724Z" fill="#010101"/>
</svg>
