<svg width="43" height="43" viewBox="0 0 43 43" fill="none" xmlns="http://www.w3.org/2000/svg">
<g filter="url(#filter0_f_596_20941)">
<path d="M4.22896 12.838C4.22896 8.08337 8.08332 4.229 12.8379 4.229H30.0559C34.8105 4.229 38.6648 8.08337 38.6648 12.838V30.0559C38.6648 34.8105 34.8105 38.6649 30.0559 38.6649H12.8379C8.08332 38.6649 4.22896 34.8105 4.22896 30.0559V12.838Z" fill="#FFDD33"/>
<path d="M27.1228 10.7932H23.9968L26.6017 15.3702L20.8707 10.7932H17.7448L20.6103 16.3874L14.6188 10.7932H11.4928L14.6188 17.914L11.4928 32.1542H14.6188L20.6103 16.8968L17.7448 32.1542H20.8707L26.6017 15.8795L23.9968 32.1542H27.1228L32.8538 14.3529L27.1228 10.7932Z" fill="black"/>
</g>
<path d="M4.22896 12.838C4.22896 8.08337 8.08332 4.229 12.8379 4.229H30.0559C34.8105 4.229 38.6648 8.08337 38.6648 12.838V30.0559C38.6648 34.8105 34.8105 38.6649 30.0559 38.6649H12.8379C8.08332 38.6649 4.22896 34.8105 4.22896 30.0559V12.838Z" fill="#FFDD33"/>
<path d="M27.1228 10.7932H23.9968L26.6017 15.3702L20.8707 10.7932H17.7448L20.6103 16.3874L14.6188 10.7932H11.4928L14.6188 17.914L11.4928 32.1542H14.6188L20.6103 16.8968L17.7448 32.1542H20.8707L26.6017 15.8795L23.9968 32.1542H27.1228L32.8538 14.3529L27.1228 10.7932Z" fill="black"/>
<defs>
<filter id="filter0_f_596_20941" x="-7.15256e-06" y="3.86238e-05" width="42.8938" height="42.8937" filterUnits="userSpaceOnUse" color-interpolation-filters="sRGB">
<feFlood flood-opacity="0" result="BackgroundImageFix"/>
<feBlend mode="normal" in="SourceGraphic" in2="BackgroundImageFix" result="shape"/>
<feGaussianBlur stdDeviation="2.11448" result="effect1_foregroundBlur_596_20941"/>
</filter>
</defs>
</svg>
