<svg width="43" height="45" viewBox="0 0 43 45" fill="none" xmlns="http://www.w3.org/2000/svg">
<path d="M6.39365 5.78964L26.3015 4.31125C28.7469 4.10022 29.3753 4.24251 30.9127 5.36638L37.2677 9.86787C38.3158 10.642 38.6648 10.8531 38.6648 11.696V36.3836C38.6648 37.9308 38.106 38.846 36.15 38.9859L13.0316 40.3931C11.5637 40.4631 10.8645 40.2521 10.0958 39.2669L5.41624 33.1483C4.57675 32.022 4.22897 31.1791 4.22897 30.1939V8.2496C4.22897 6.98465 4.78783 5.92952 6.39365 5.78964Z" fill="white"/>
<path d="M26.3015 4.31125L6.39365 5.78964C4.78783 5.92952 4.22897 6.98465 4.22897 8.2496V30.1939C4.22897 31.1791 4.57675 32.022 5.41624 33.1483L10.0958 39.2669C10.8645 40.2521 11.5637 40.4631 13.0316 40.3931L36.15 38.9859C38.1048 38.846 38.6648 37.9308 38.6648 36.3836V11.696C38.6648 10.8965 38.3506 10.6662 37.426 9.98364C37.3728 9.9451 37.3196 9.90651 37.2665 9.86787L30.9127 5.36638C29.3753 4.24251 28.7469 4.10022 26.3015 4.31125ZM13.5545 11.292C11.6668 11.4198 11.2387 11.4488 10.1666 10.5721L7.44061 8.39189C7.16358 8.10972 7.3027 7.75761 8.00067 7.68767L27.1386 6.28163C28.7457 6.14054 29.5827 6.70368 30.2112 7.19567L33.4936 9.58691C33.6339 9.65805 33.9829 10.0789 33.5631 10.0789L13.7991 11.2751L13.5545 11.292ZM11.3538 36.1726V15.2147C11.3538 14.2994 11.6333 13.8774 12.4704 13.8062L35.1702 12.4701C35.9401 12.4002 36.2879 12.8922 36.2879 13.8062V34.6243C36.2879 35.5395 36.1476 36.3137 34.8907 36.3836L13.1683 37.6498C11.9115 37.7197 11.3538 37.2989 11.3538 36.1726ZM32.7968 16.3385C32.9359 16.9716 32.7968 17.6047 32.1672 17.6771L31.1202 17.8857V33.3593C30.2112 33.8513 29.3741 34.1323 28.6749 34.1323C27.5572 34.1323 27.2778 33.7802 26.4407 32.7263L19.594 21.8952V32.3741L21.7599 32.8673C21.7599 32.8673 21.7599 34.1335 20.0126 34.1335L15.1951 34.4145C15.0548 34.1323 15.1951 33.4293 15.6832 33.2894L16.9412 32.9385V19.0831L15.1951 18.9408C15.0548 18.3077 15.4038 17.3937 16.3824 17.3225L21.5512 16.9728L28.6749 27.9438V18.2378L26.8592 18.028C26.7189 17.2526 27.2777 16.6895 27.9757 16.6207L32.7968 16.3385Z" fill="black"/>
<g filter="url(#filter0_f_596_20950)">
<path d="M6.39365 5.78964L26.3015 4.31125C28.7469 4.10022 29.3753 4.24251 30.9127 5.36638L37.2677 9.86787C38.3158 10.642 38.6648 10.8531 38.6648 11.696V36.3836C38.6648 37.9308 38.106 38.846 36.15 38.9859L13.0316 40.3931C11.5637 40.4631 10.8645 40.2521 10.0958 39.2669L5.41624 33.1483C4.57675 32.022 4.22897 31.1791 4.22897 30.1939V8.2496C4.22897 6.98465 4.78783 5.92952 6.39365 5.78964Z" fill="white"/>
</g>
<path d="M26.3015 4.31125L6.39365 5.78964C4.78783 5.92952 4.22897 6.98465 4.22897 8.2496V30.1939C4.22897 31.1791 4.57675 32.022 5.41624 33.1483L10.0958 39.2669C10.8645 40.2521 11.5637 40.4631 13.0316 40.3931L36.15 38.9859C38.1048 38.846 38.6648 37.9308 38.6648 36.3836V11.696C38.6648 10.8965 38.3506 10.6662 37.426 9.98364C37.3728 9.9451 37.3196 9.90651 37.2665 9.86787L30.9127 5.36638C29.3753 4.24251 28.7469 4.10022 26.3015 4.31125ZM13.5545 11.292C11.6668 11.4198 11.2387 11.4488 10.1666 10.5721L7.44061 8.39189C7.16358 8.10972 7.3027 7.75761 8.00067 7.68767L27.1386 6.28163C28.7457 6.14054 29.5827 6.70368 30.2112 7.19567L33.4936 9.58691C33.6339 9.65805 33.9829 10.0789 33.5631 10.0789L13.7991 11.2751L13.5545 11.292ZM11.3538 36.1726V15.2147C11.3538 14.2994 11.6333 13.8774 12.4704 13.8062L35.1702 12.4701C35.9401 12.4002 36.2879 12.8922 36.2879 13.8062V34.6243C36.2879 35.5395 36.1476 36.3137 34.8907 36.3836L13.1683 37.6498C11.9115 37.7197 11.3538 37.2989 11.3538 36.1726ZM32.7968 16.3385C32.9359 16.9716 32.7968 17.6047 32.1672 17.6771L31.1202 17.8857V33.3593C30.2112 33.8513 29.3741 34.1323 28.6749 34.1323C27.5572 34.1323 27.2778 33.7802 26.4407 32.7263L19.594 21.8952V32.3741L21.7599 32.8673C21.7599 32.8673 21.7599 34.1335 20.0126 34.1335L15.1951 34.4145C15.0548 34.1323 15.1951 33.4293 15.6832 33.2894L16.9412 32.9385V19.0831L15.1951 18.9408C15.0548 18.3077 15.4038 17.3937 16.3824 17.3225L21.5512 16.9728L28.6749 27.9438V18.2378L26.8592 18.028C26.7189 17.2526 27.2777 16.6895 27.9757 16.6207L32.7968 16.3385Z" fill="black"/>
<defs>
<filter id="filter0_f_596_20950" x="4.76837e-07" y="3.86238e-05" width="42.8938" height="44.6342" filterUnits="userSpaceOnUse" color-interpolation-filters="sRGB">
<feFlood flood-opacity="0" result="BackgroundImageFix"/>
<feBlend mode="normal" in="SourceGraphic" in2="BackgroundImageFix" result="shape"/>
<feGaussianBlur stdDeviation="2.11448" result="effect1_foregroundBlur_596_20950"/>
</filter>
</defs>
</svg>
