<svg width="67" height="67" viewBox="0 0 67 67" fill="none" xmlns="http://www.w3.org/2000/svg">
<g filter="url(#filter0_f_344_14245)">
<path d="M7 26C7 19.3494 7 16.0241 8.2943 13.4839C9.43279 11.2494 11.2494 9.43279 13.4839 8.2943C16.0241 7 19.3494 7 26 7H40.5C47.1506 7 50.4759 7 53.0161 8.2943C55.2506 9.43279 57.0672 11.2494 58.2057 13.4839C59.5 16.0241 59.5 19.3494 59.5 26V40.5C59.5 47.1506 59.5 50.4759 58.2057 53.0161C57.0672 55.2506 55.2506 57.0672 53.0161 58.2057C50.4759 59.5 47.1506 59.5 40.5 59.5H26C19.3494 59.5 16.0241 59.5 13.4839 58.2057C11.2494 57.0672 9.43279 55.2506 8.2943 53.0161C7 50.4759 7 47.1506 7 40.5V26Z" fill="#001E36"/>
<path d="M18.25 45.468V22.3814C18.25 22.2244 18.3156 22.1346 18.4688 22.1346C20.7293 22.1346 22.9888 22 25.25 22C28.919 22 32.8918 23.2546 34.2844 27.093C34.6125 28.0353 34.7875 29 34.7875 30.0096C34.7875 31.9391 34.35 33.5321 33.475 34.7885C31.0308 38.2981 26.7944 38.2436 22.9969 38.2436V45.4455C23.0266 45.6587 22.8449 45.7596 22.6687 45.7596H18.5125C18.3375 45.7596 18.25 45.6699 18.25 45.468ZM23.0188 26.4647V34.0032C24.5245 34.1135 26.1001 34.1255 27.5469 33.6442C29.1441 33.1835 30.0188 31.8009 30.0188 30.1442C30.0632 28.7325 29.2939 27.378 27.9844 26.8686C26.5551 26.2743 24.5616 26.2387 23.0188 26.4647Z" fill="#31A8FF"/>
<path d="M48.4312 32.5138C47.7694 32.165 47.0644 31.9098 46.3357 31.7553C45.3993 31.5349 41.7058 30.7632 41.7045 32.6944C41.7372 33.7726 43.4487 34.3008 44.2049 34.6089C46.8596 35.5203 49.8638 37.1495 49.8047 40.4245C49.8859 44.5015 45.9357 46.1314 42.5497 46.1317C40.7869 46.15 38.9505 45.877 37.3373 45.1203C37.1833 45.0388 37.0841 44.8644 37.0907 44.6868V40.7857C37.0734 40.6293 37.2412 40.4926 37.3725 40.6051C38.9532 41.561 40.8268 42.0251 42.6553 42.05C43.4625 42.05 45.0624 41.9717 45.0502 40.7857C45.0502 39.6475 43.1364 39.1242 42.3735 38.8351C41.2677 38.4403 40.2192 37.8935 39.2567 37.2096C37.9116 36.2502 37.0678 34.7119 37.0907 33.0195C37.0829 29.1807 40.719 27.4576 43.9937 27.4568C45.5245 27.4441 47.1684 27.5575 48.5935 28.1792C48.7984 28.2395 48.8409 28.4554 48.84 28.6488V32.2971C48.853 32.5235 48.6015 32.6007 48.4312 32.5138Z" fill="#31A8FF"/>
</g>
<path d="M7 26C7 19.3494 7 16.0241 8.2943 13.4839C9.43279 11.2494 11.2494 9.43279 13.4839 8.2943C16.0241 7 19.3494 7 26 7H40.5C47.1506 7 50.4759 7 53.0161 8.2943C55.2506 9.43279 57.0672 11.2494 58.2057 13.4839C59.5 16.0241 59.5 19.3494 59.5 26V40.5C59.5 47.1506 59.5 50.4759 58.2057 53.0161C57.0672 55.2506 55.2506 57.0672 53.0161 58.2057C50.4759 59.5 47.1506 59.5 40.5 59.5H26C19.3494 59.5 16.0241 59.5 13.4839 58.2057C11.2494 57.0672 9.43279 55.2506 8.2943 53.0161C7 50.4759 7 47.1506 7 40.5V26Z" fill="#001E36"/>
<path d="M18.25 45.468V22.3814C18.25 22.2244 18.3156 22.1346 18.4688 22.1346C20.7293 22.1346 22.9888 22 25.25 22C28.919 22 32.8918 23.2546 34.2844 27.093C34.6125 28.0353 34.7875 29 34.7875 30.0096C34.7875 31.9391 34.35 33.5321 33.475 34.7885C31.0308 38.2981 26.7944 38.2436 22.9969 38.2436V45.4455C23.0266 45.6587 22.8449 45.7596 22.6687 45.7596H18.5125C18.3375 45.7596 18.25 45.6699 18.25 45.468ZM23.0188 26.4647V34.0032C24.5245 34.1135 26.1001 34.1255 27.5469 33.6442C29.1441 33.1835 30.0188 31.8009 30.0188 30.1442C30.0632 28.7325 29.2939 27.378 27.9844 26.8686C26.5551 26.2743 24.5616 26.2387 23.0188 26.4647Z" fill="#31A8FF"/>
<path d="M48.4312 32.5138C47.7694 32.165 47.0644 31.9098 46.3357 31.7553C45.3993 31.5349 41.7058 30.7632 41.7045 32.6944C41.7372 33.7726 43.4487 34.3008 44.2049 34.6089C46.8596 35.5203 49.8638 37.1495 49.8047 40.4245C49.8859 44.5015 45.9357 46.1314 42.5497 46.1317C40.7869 46.15 38.9505 45.877 37.3373 45.1203C37.1833 45.0388 37.0841 44.8644 37.0907 44.6868V40.7857C37.0734 40.6293 37.2412 40.4926 37.3725 40.6051C38.9532 41.561 40.8268 42.0251 42.6553 42.05C43.4625 42.05 45.0624 41.9717 45.0502 40.7857C45.0502 39.6475 43.1364 39.1242 42.3735 38.8351C41.2677 38.4403 40.2192 37.8935 39.2567 37.2096C37.9116 36.2502 37.0678 34.7119 37.0907 33.0195C37.0829 29.1807 40.719 27.4576 43.9937 27.4568C45.5245 27.4441 47.1684 27.5575 48.5935 28.1792C48.7984 28.2395 48.8409 28.4554 48.84 28.6488V32.2971C48.853 32.5235 48.6015 32.6007 48.4312 32.5138Z" fill="#31A8FF"/>
<defs>
<filter id="filter0_f_344_14245" x="-3.75" y="-3.75" width="74" height="74" filterUnits="userSpaceOnUse" color-interpolation-filters="sRGB">
<feFlood flood-opacity="0" result="BackgroundImageFix"/>
<feBlend mode="normal" in="SourceGraphic" in2="BackgroundImageFix" result="shape"/>
<feGaussianBlur stdDeviation="3.5" result="effect1_foregroundBlur_344_14245"/>
</filter>
</defs>
</svg>
