<svg width="51" height="34" viewBox="0 0 51 34" fill="none" xmlns="http://www.w3.org/2000/svg">
<g filter="url(#filter0_f_596_20925)">
<path d="M25.0717 4.229C19.5135 4.229 16.0409 7.00695 14.6503 12.5651C16.734 9.78686 19.1664 8.74504 21.9447 9.43969C23.531 9.83506 24.6646 10.9853 25.9201 12.26C27.9633 14.3335 30.3283 16.734 35.4931 16.734C41.0509 16.734 44.5239 13.9557 45.9145 8.39625C43.8305 11.1762 41.3984 12.218 38.6198 11.5233C37.0338 11.1276 35.9015 9.9777 34.6444 8.70303C32.6025 6.6295 30.2381 4.229 25.0717 4.229ZM14.6503 16.734C9.09249 16.734 5.61956 19.5123 4.22896 25.0718C6.31258 22.2919 8.74467 21.25 11.5233 21.9447C13.1096 22.3404 14.2433 23.4903 15.4987 24.765C17.5419 26.8385 19.9069 29.239 25.0717 29.239C30.6296 29.239 34.1025 26.4611 35.4931 20.9029C33.4091 23.6812 30.9771 24.723 28.1985 24.0283C26.6125 23.633 25.4801 22.4827 24.223 21.208C22.1811 19.1345 19.8167 16.734 14.6503 16.734Z" fill="#38BDF8"/>
</g>
<path d="M25.0717 4.229C19.5135 4.229 16.0409 7.00695 14.6503 12.5651C16.734 9.78686 19.1664 8.74504 21.9447 9.43969C23.531 9.83506 24.6646 10.9853 25.9201 12.26C27.9633 14.3335 30.3283 16.734 35.4931 16.734C41.0509 16.734 44.5239 13.9557 45.9145 8.39625C43.8305 11.1762 41.3984 12.218 38.6198 11.5233C37.0338 11.1276 35.9015 9.9777 34.6444 8.70303C32.6025 6.6295 30.2381 4.229 25.0717 4.229ZM14.6503 16.734C9.09249 16.734 5.61956 19.5123 4.22896 25.0718C6.31258 22.2919 8.74467 21.25 11.5233 21.9447C13.1096 22.3404 14.2433 23.4903 15.4987 24.765C17.5419 26.8385 19.9069 29.239 25.0717 29.239C30.6296 29.239 34.1025 26.4611 35.4931 20.9029C33.4091 23.6812 30.9771 24.723 28.1985 24.0283C26.6125 23.633 25.4801 22.4827 24.223 21.208C22.1811 19.1345 19.8167 16.734 14.6503 16.734Z" fill="#38BDF8"/>
<defs>
<filter id="filter0_f_596_20925" x="-7.15256e-06" y="3.86238e-05" width="50.1434" height="33.4679" filterUnits="userSpaceOnUse" color-interpolation-filters="sRGB">
<feFlood flood-opacity="0" result="BackgroundImageFix"/>
<feBlend mode="normal" in="SourceGraphic" in2="BackgroundImageFix" result="shape"/>
<feGaussianBlur stdDeviation="2.11448" result="effect1_foregroundBlur_596_20925"/>
</filter>
</defs>
</svg>
