<svg width="88" height="79" viewBox="0 0 88 79" fill="none" xmlns="http://www.w3.org/2000/svg">
<g filter="url(#filter0_f_344_14255)">
<path d="M44.1582 7C34.958 7 29.21 11.5982 26.9082 20.7984C30.3571 16.1996 34.3834 14.4752 38.9821 15.625C41.6079 16.2794 43.4844 18.1834 45.5625 20.2933C48.9445 23.7255 52.8592 27.6989 61.4082 27.6989C70.6078 27.6989 76.3564 23.1002 78.6582 13.8978C75.2087 18.4993 71.183 20.2237 66.5837 19.0739C63.9585 18.419 62.0842 16.5155 60.0034 14.4056C56.6235 10.9734 52.7099 7 44.1582 7ZM26.9082 27.6989C17.7086 27.6989 11.96 32.2977 9.6582 41.5C13.1071 36.8986 17.1328 35.1741 21.7321 36.3239C24.3579 36.9789 26.2344 38.8823 28.3125 40.9922C31.6945 44.4244 35.6092 48.3978 44.1582 48.3978C53.3578 48.3978 59.1064 43.7996 61.4082 34.5995C57.9587 39.1982 53.933 40.9227 49.3337 39.7728C46.7085 39.1184 44.8342 37.2145 42.7534 35.1046C39.3735 31.6724 35.4599 27.6989 26.9082 27.6989Z" fill="#38BDF8"/>
</g>
<path d="M44.1582 7C34.958 7 29.21 11.5982 26.9082 20.7984C30.3571 16.1996 34.3834 14.4752 38.9821 15.625C41.6079 16.2794 43.4844 18.1834 45.5625 20.2933C48.9445 23.7255 52.8592 27.6989 61.4082 27.6989C70.6078 27.6989 76.3564 23.1002 78.6582 13.8978C75.2087 18.4993 71.183 20.2237 66.5837 19.0739C63.9585 18.419 62.0842 16.5155 60.0034 14.4056C56.6235 10.9734 52.7099 7 44.1582 7ZM26.9082 27.6989C17.7086 27.6989 11.96 32.2977 9.6582 41.5C13.1071 36.8986 17.1328 35.1741 21.7321 36.3239C24.3579 36.9789 26.2344 38.8823 28.3125 40.9922C31.6945 44.4244 35.6092 48.3978 44.1582 48.3978C53.3578 48.3978 59.1064 43.7996 61.4082 34.5995C57.9587 39.1982 53.933 40.9227 49.3337 39.7728C46.7085 39.1184 44.8342 37.2145 42.7534 35.1046C39.3735 31.6724 35.4599 27.6989 26.9082 27.6989Z" fill="#38BDF8"/>
<path d="M4.49121 68.1543V78.1074H3.19238V68.1543H4.49121ZM7.69043 68.1543V69.2344H0V68.1543H7.69043ZM12.3047 69.0361L9.00977 78.1074H7.66309L11.457 68.1543H12.3252L12.3047 69.0361ZM15.0664 78.1074L11.7646 69.0361L11.7441 68.1543H12.6123L16.4199 78.1074H15.0664ZM14.8955 74.4229V75.5029H9.30371V74.4229H14.8955ZM19.168 68.1543V78.1074H17.8486V68.1543H19.168ZM27.6035 77.0342V78.1074H22.627V77.0342H27.6035ZM22.8867 68.1543V78.1074H21.5674V68.1543H22.8867ZM30.748 75.0996L32.7236 68.1543H33.6807L33.127 70.8545L31.001 78.1074H30.0508L30.748 75.0996ZM28.7041 68.1543L30.2764 74.9629L30.748 78.1074H29.8047L27.3916 68.1543H28.7041ZM36.2373 74.9561L37.7754 68.1543H39.0947L36.6885 78.1074H35.7451L36.2373 74.9561ZM33.8242 68.1543L35.7451 75.0996L36.4424 78.1074H35.4922L33.4414 70.8545L32.8809 68.1543H33.8242ZM41.9727 68.1543V78.1074H40.6533V68.1543H41.9727ZM52.0283 68.1543V78.1074H50.7021L45.6914 70.4307V78.1074H44.3721V68.1543H45.6914L50.7227 75.8516V68.1543H52.0283ZM57.0596 78.1074H54.9814L54.9951 77.0342H57.0596C57.7705 77.0342 58.363 76.8861 58.8369 76.5898C59.3109 76.2891 59.6663 75.8698 59.9033 75.332C60.1449 74.7897 60.2656 74.1562 60.2656 73.4316V72.8232C60.2656 72.2536 60.1973 71.7477 60.0605 71.3057C59.9238 70.859 59.7233 70.4831 59.459 70.1777C59.1947 69.8678 58.8711 69.6331 58.4883 69.4736C58.11 69.3141 57.6748 69.2344 57.1826 69.2344H54.9404V68.1543H57.1826C57.8343 68.1543 58.429 68.2637 58.9668 68.4824C59.5046 68.6966 59.9671 69.0088 60.3545 69.4189C60.7464 69.8245 61.0472 70.3167 61.2568 70.8955C61.4665 71.4697 61.5713 72.1169 61.5713 72.8369V73.4316C61.5713 74.1517 61.4665 74.8011 61.2568 75.3799C61.0472 75.9541 60.7441 76.444 60.3477 76.8496C59.9557 77.2552 59.4818 77.5674 58.9258 77.7861C58.3743 78.0003 57.7523 78.1074 57.0596 78.1074ZM55.6855 68.1543V78.1074H54.3662V68.1543H55.6855ZM69.5625 74.9424H70.875C70.8066 75.5713 70.6266 76.1341 70.335 76.6309C70.0433 77.1276 69.6309 77.5218 69.0977 77.8135C68.5645 78.1006 67.8991 78.2441 67.1016 78.2441C66.5182 78.2441 65.9873 78.1348 65.5088 77.916C65.0348 77.6973 64.627 77.3874 64.2852 76.9863C63.9434 76.5807 63.679 76.0954 63.4922 75.5303C63.3099 74.9606 63.2188 74.3271 63.2188 73.6299V72.6387C63.2188 71.9414 63.3099 71.3102 63.4922 70.7451C63.679 70.1755 63.9456 69.6878 64.292 69.2822C64.6429 68.8766 65.0645 68.5645 65.5566 68.3457C66.0488 68.127 66.6025 68.0176 67.2178 68.0176C67.9697 68.0176 68.6055 68.1589 69.125 68.4414C69.6445 68.724 70.0479 69.1159 70.335 69.6172C70.6266 70.1139 70.8066 70.6904 70.875 71.3467H69.5625C69.4987 70.8818 69.3802 70.4831 69.207 70.1504C69.0339 69.8132 68.7878 69.5534 68.4688 69.3711C68.1497 69.1888 67.7327 69.0977 67.2178 69.0977C66.7757 69.0977 66.3861 69.182 66.0488 69.3506C65.7161 69.5192 65.4359 69.7585 65.208 70.0684C64.9847 70.3783 64.8161 70.7497 64.7021 71.1826C64.5882 71.6156 64.5312 72.0964 64.5312 72.625V73.6299C64.5312 74.1175 64.5814 74.5755 64.6816 75.0039C64.7865 75.4323 64.9437 75.8083 65.1533 76.1318C65.363 76.4554 65.6296 76.7106 65.9531 76.8975C66.2767 77.0798 66.6595 77.1709 67.1016 77.1709C67.6621 77.1709 68.1087 77.082 68.4414 76.9043C68.7741 76.7266 69.0247 76.4714 69.1934 76.1387C69.3665 75.806 69.4896 75.4072 69.5625 74.9424ZM77.9775 75.5918C77.9775 75.3594 77.9411 75.1543 77.8682 74.9766C77.7998 74.7943 77.6768 74.6302 77.499 74.4844C77.3258 74.3385 77.0843 74.1995 76.7744 74.0674C76.4691 73.9352 76.0817 73.8008 75.6123 73.6641C75.1201 73.5182 74.6758 73.3564 74.2793 73.1787C73.8828 72.9964 73.5433 72.7891 73.2607 72.5566C72.9782 72.3242 72.7617 72.0576 72.6113 71.7568C72.4609 71.4561 72.3857 71.112 72.3857 70.7246C72.3857 70.3372 72.4655 69.9795 72.625 69.6514C72.7845 69.3232 73.0124 69.0384 73.3086 68.7969C73.6094 68.5508 73.9671 68.3594 74.3818 68.2227C74.7965 68.0859 75.2591 68.0176 75.7695 68.0176C76.5169 68.0176 77.1504 68.1611 77.6699 68.4482C78.194 68.7308 78.5928 69.1022 78.8662 69.5625C79.1396 70.0182 79.2764 70.5059 79.2764 71.0254H77.9639C77.9639 70.6517 77.8841 70.3213 77.7246 70.0342C77.5651 69.7425 77.3236 69.5146 77 69.3506C76.6764 69.182 76.2663 69.0977 75.7695 69.0977C75.3001 69.0977 74.9128 69.1683 74.6074 69.3096C74.3021 69.4508 74.0742 69.6423 73.9238 69.8838C73.778 70.1253 73.7051 70.401 73.7051 70.7109C73.7051 70.9206 73.7484 71.112 73.835 71.2852C73.9261 71.4538 74.0651 71.611 74.252 71.7568C74.4434 71.9027 74.6849 72.0371 74.9766 72.1602C75.2728 72.2832 75.626 72.4017 76.0361 72.5156C76.6012 72.6751 77.0889 72.8529 77.499 73.0488C77.9092 73.2448 78.2464 73.4658 78.5107 73.7119C78.7796 73.9535 78.9779 74.2292 79.1055 74.5391C79.2376 74.8444 79.3037 75.1908 79.3037 75.5781C79.3037 75.9837 79.2217 76.3506 79.0576 76.6787C78.8936 77.0068 78.6589 77.2871 78.3535 77.5195C78.0482 77.752 77.6813 77.932 77.2529 78.0596C76.8291 78.1826 76.3551 78.2441 75.8311 78.2441C75.3708 78.2441 74.9173 78.1803 74.4707 78.0527C74.0286 77.9251 73.6253 77.7337 73.2607 77.4785C72.9007 77.2233 72.6113 76.9089 72.3926 76.5352C72.1784 76.1569 72.0713 75.7194 72.0713 75.2227H73.3838C73.3838 75.5645 73.4499 75.8584 73.582 76.1045C73.7142 76.346 73.8942 76.5465 74.1221 76.7061C74.3545 76.8656 74.6165 76.984 74.9082 77.0615C75.2044 77.1344 75.512 77.1709 75.8311 77.1709C76.2913 77.1709 76.681 77.1071 77 76.9795C77.319 76.8519 77.5605 76.6696 77.7246 76.4326C77.8932 76.1956 77.9775 75.9154 77.9775 75.5918ZM86.29 75.5918C86.29 75.3594 86.2536 75.1543 86.1807 74.9766C86.1123 74.7943 85.9893 74.6302 85.8115 74.4844C85.6383 74.3385 85.3968 74.1995 85.0869 74.0674C84.7816 73.9352 84.3942 73.8008 83.9248 73.6641C83.4326 73.5182 82.9883 73.3564 82.5918 73.1787C82.1953 72.9964 81.8558 72.7891 81.5732 72.5566C81.2907 72.3242 81.0742 72.0576 80.9238 71.7568C80.7734 71.4561 80.6982 71.112 80.6982 70.7246C80.6982 70.3372 80.778 69.9795 80.9375 69.6514C81.097 69.3232 81.3249 69.0384 81.6211 68.7969C81.9219 68.5508 82.2796 68.3594 82.6943 68.2227C83.109 68.0859 83.5716 68.0176 84.082 68.0176C84.8294 68.0176 85.4629 68.1611 85.9824 68.4482C86.5065 68.7308 86.9053 69.1022 87.1787 69.5625C87.4521 70.0182 87.5889 70.5059 87.5889 71.0254H86.2764C86.2764 70.6517 86.1966 70.3213 86.0371 70.0342C85.8776 69.7425 85.6361 69.5146 85.3125 69.3506C84.9889 69.182 84.5788 69.0977 84.082 69.0977C83.6126 69.0977 83.2253 69.1683 82.9199 69.3096C82.6146 69.4508 82.3867 69.6423 82.2363 69.8838C82.0905 70.1253 82.0176 70.401 82.0176 70.7109C82.0176 70.9206 82.0609 71.112 82.1475 71.2852C82.2386 71.4538 82.3776 71.611 82.5645 71.7568C82.7559 71.9027 82.9974 72.0371 83.2891 72.1602C83.5853 72.2832 83.9385 72.4017 84.3486 72.5156C84.9137 72.6751 85.4014 72.8529 85.8115 73.0488C86.2217 73.2448 86.5589 73.4658 86.8232 73.7119C87.0921 73.9535 87.2904 74.2292 87.418 74.5391C87.5501 74.8444 87.6162 75.1908 87.6162 75.5781C87.6162 75.9837 87.5342 76.3506 87.3701 76.6787C87.2061 77.0068 86.9714 77.2871 86.666 77.5195C86.3607 77.752 85.9938 77.932 85.5654 78.0596C85.1416 78.1826 84.6676 78.2441 84.1436 78.2441C83.6833 78.2441 83.2298 78.1803 82.7832 78.0527C82.3411 77.9251 81.9378 77.7337 81.5732 77.4785C81.2132 77.2233 80.9238 76.9089 80.7051 76.5352C80.4909 76.1569 80.3838 75.7194 80.3838 75.2227H81.6963C81.6963 75.5645 81.7624 75.8584 81.8945 76.1045C82.0267 76.346 82.2067 76.5465 82.4346 76.7061C82.667 76.8656 82.929 76.984 83.2207 77.0615C83.5169 77.1344 83.8245 77.1709 84.1436 77.1709C84.6038 77.1709 84.9935 77.1071 85.3125 76.9795C85.6315 76.8519 85.873 76.6696 86.0371 76.4326C86.2057 76.1956 86.29 75.9154 86.29 75.5918Z" fill="white"/>
<defs>
<filter id="filter0_f_344_14255" x="2.6582" y="0" width="83" height="55.3979" filterUnits="userSpaceOnUse" color-interpolation-filters="sRGB">
<feFlood flood-opacity="0" result="BackgroundImageFix"/>
<feBlend mode="normal" in="SourceGraphic" in2="BackgroundImageFix" result="shape"/>
<feGaussianBlur stdDeviation="3.5" result="effect1_foregroundBlur_344_14255"/>
</filter>
</defs>
</svg>
