<svg width="81" height="83" viewBox="0 0 81 83" fill="none" xmlns="http://www.w3.org/2000/svg">
<g filter="url(#filter0_f_344_14257)">
<path d="M15.6354 32.5C15.6354 42.1758 21.257 50.5396 29.4142 54.502L17.7515 22.5499C16.3942 25.5905 15.6354 28.9544 15.6354 32.5ZM56.5881 31.2665C56.5881 28.2437 55.5015 26.1516 54.5726 24.5236C53.3319 22.5099 52.1706 20.8061 52.1706 18.7897C52.1706 16.5445 53.8734 14.4515 56.2772 14.4515C56.3841 14.4515 56.4856 14.4648 56.5925 14.4702C52.2427 10.4855 46.4492 8.05412 40.0821 8.05412C31.5401 8.05412 24.0286 12.4342 19.6539 19.072C20.2292 19.0899 20.7689 19.1014 21.2303 19.1014C23.7855 19.1014 27.7443 18.7888 27.7443 18.7888C29.0615 18.7122 29.2192 20.6493 27.901 20.8061C27.901 20.8061 26.5767 20.9602 25.1018 21.0385L34.0063 47.5195L39.3563 31.4731L35.5488 21.0377C34.2316 20.9593 32.9847 20.8052 32.9847 20.8052C31.6657 20.7259 31.8198 18.7113 33.1397 18.7879C33.1397 18.7879 37.176 19.1005 39.578 19.1005C42.135 19.1005 46.0938 18.7879 46.0938 18.7879C47.412 18.7113 47.5678 20.6485 46.2506 20.8052C46.2506 20.8052 44.9244 20.9593 43.4531 21.0377L52.2881 47.3182L54.7276 39.1708C55.9646 35.9921 56.5881 33.3603 56.5881 31.2665ZM40.5123 34.6357L33.1762 55.9528C35.3671 56.5985 37.6837 56.9485 40.0821 56.9485C42.9294 56.9485 45.6601 56.456 48.2011 55.5636C48.136 55.4594 48.0755 55.349 48.0274 55.2252L40.5123 34.6357ZM61.5373 20.7705C61.6406 21.5498 61.702 22.3843 61.702 23.2847C61.702 25.766 61.238 28.5545 59.8415 32.0413L52.3745 53.6319C59.6447 49.3934 64.5316 41.5185 64.5316 32.4991C64.5316 28.2482 63.4441 24.2537 61.5373 20.7705ZM11.583 32.5C11.583 48.216 24.3688 61 40.0821 61C55.7963 61 68.583 48.216 68.583 32.5C68.583 16.7849 55.7963 4 40.0821 4C24.3688 4 11.583 16.7849 11.583 32.5ZM12.8904 32.5C12.8904 17.5072 25.0893 5.31011 40.0821 5.31011C55.0776 5.31011 67.2765 17.5072 67.2765 32.5C67.2765 47.4937 55.0776 59.6935 40.0821 59.6935C25.0893 59.6935 12.8904 47.4937 12.8904 32.5Z" fill="white"/>
</g>
<path d="M15.6354 32.5C15.6354 42.1758 21.257 50.5396 29.4142 54.502L17.7515 22.5499C16.3942 25.5905 15.6354 28.9544 15.6354 32.5ZM56.5881 31.2665C56.5881 28.2437 55.5015 26.1516 54.5726 24.5236C53.3319 22.5099 52.1706 20.8061 52.1706 18.7897C52.1706 16.5445 53.8734 14.4515 56.2772 14.4515C56.3841 14.4515 56.4856 14.4648 56.5925 14.4702C52.2427 10.4855 46.4492 8.05412 40.0821 8.05412C31.5401 8.05412 24.0286 12.4342 19.6539 19.072C20.2292 19.0899 20.7689 19.1014 21.2303 19.1014C23.7855 19.1014 27.7443 18.7888 27.7443 18.7888C29.0615 18.7122 29.2192 20.6493 27.901 20.8061C27.901 20.8061 26.5767 20.9602 25.1018 21.0385L34.0063 47.5195L39.3563 31.4731L35.5488 21.0377C34.2316 20.9593 32.9847 20.8052 32.9847 20.8052C31.6657 20.7259 31.8198 18.7113 33.1397 18.7879C33.1397 18.7879 37.176 19.1005 39.578 19.1005C42.135 19.1005 46.0938 18.7879 46.0938 18.7879C47.412 18.7113 47.5678 20.6485 46.2506 20.8052C46.2506 20.8052 44.9244 20.9593 43.4531 21.0377L52.2881 47.3182L54.7276 39.1708C55.9646 35.9921 56.5881 33.3603 56.5881 31.2665ZM40.5123 34.6357L33.1762 55.9528C35.3671 56.5985 37.6837 56.9485 40.0821 56.9485C42.9294 56.9485 45.6601 56.456 48.2011 55.5636C48.136 55.4594 48.0755 55.349 48.0274 55.2252L40.5123 34.6357ZM61.5373 20.7705C61.6406 21.5498 61.702 22.3843 61.702 23.2847C61.702 25.766 61.238 28.5545 59.8415 32.0413L52.3745 53.6319C59.6447 49.3934 64.5316 41.5185 64.5316 32.4991C64.5316 28.2482 63.4441 24.2537 61.5373 20.7705ZM11.583 32.5C11.583 48.216 24.3688 61 40.0821 61C55.7963 61 68.583 48.216 68.583 32.5C68.583 16.7849 55.7963 4 40.0821 4C24.3688 4 11.583 16.7849 11.583 32.5ZM12.8904 32.5C12.8904 17.5072 25.0893 5.31011 40.0821 5.31011C55.0776 5.31011 67.2765 17.5072 67.2765 32.5C67.2765 47.4937 55.0776 59.6935 40.0821 59.6935C25.0893 59.6935 12.8904 47.4937 12.8904 32.5Z" fill="white"/>
<path d="M3.35645 79.4922L5.33203 72.5469H6.28906L5.73535 75.2471L3.60938 82.5H2.65918L3.35645 79.4922ZM1.3125 72.5469L2.88477 79.3555L3.35645 82.5H2.41309L0 72.5469H1.3125ZM8.8457 79.3486L10.3838 72.5469H11.7031L9.29688 82.5H8.35352L8.8457 79.3486ZM6.43262 72.5469L8.35352 79.4922L9.05078 82.5H8.10059L6.0498 75.2471L5.48926 72.5469H6.43262ZM20.8291 77.209V77.8379C20.8291 78.5853 20.7357 79.2552 20.5488 79.8477C20.362 80.4401 20.0931 80.9437 19.7422 81.3584C19.3913 81.7731 18.9697 82.0898 18.4775 82.3086C17.9899 82.5273 17.443 82.6367 16.8369 82.6367C16.249 82.6367 15.709 82.5273 15.2168 82.3086C14.7292 82.0898 14.3053 81.7731 13.9453 81.3584C13.5898 80.9437 13.3141 80.4401 13.1182 79.8477C12.9222 79.2552 12.8242 78.5853 12.8242 77.8379V77.209C12.8242 76.4616 12.9199 75.7939 13.1113 75.2061C13.3073 74.6136 13.583 74.11 13.9385 73.6953C14.2939 73.276 14.7155 72.957 15.2031 72.7383C15.6953 72.5195 16.2354 72.4102 16.8232 72.4102C17.4294 72.4102 17.9762 72.5195 18.4639 72.7383C18.9561 72.957 19.3776 73.276 19.7285 73.6953C20.084 74.11 20.3551 74.6136 20.542 75.2061C20.7334 75.7939 20.8291 76.4616 20.8291 77.209ZM19.5234 77.8379V77.1953C19.5234 76.6029 19.4619 76.0788 19.3389 75.623C19.2204 75.1673 19.0449 74.7845 18.8125 74.4746C18.5801 74.1647 18.2952 73.93 17.958 73.7705C17.6253 73.611 17.2471 73.5312 16.8232 73.5312C16.4131 73.5312 16.0417 73.611 15.709 73.7705C15.3809 73.93 15.0983 74.1647 14.8613 74.4746C14.6289 74.7845 14.4489 75.1673 14.3213 75.623C14.1937 76.0788 14.1299 76.6029 14.1299 77.1953V77.8379C14.1299 78.4349 14.1937 78.9635 14.3213 79.4238C14.4489 79.8796 14.6312 80.2646 14.8682 80.5791C15.1097 80.889 15.3945 81.1237 15.7227 81.2832C16.0553 81.4427 16.4268 81.5225 16.8369 81.5225C17.2653 81.5225 17.6458 81.4427 17.9785 81.2832C18.3112 81.1237 18.5915 80.889 18.8193 80.5791C19.0518 80.2646 19.2272 79.8796 19.3457 79.4238C19.4642 78.9635 19.5234 78.4349 19.5234 77.8379ZM22.8047 72.5469H26.0996C26.847 72.5469 27.4782 72.6608 27.9932 72.8887C28.5127 73.1165 28.9069 73.4538 29.1758 73.9004C29.4492 74.3424 29.5859 74.887 29.5859 75.5342C29.5859 75.9899 29.4925 76.4069 29.3057 76.7852C29.1234 77.1589 28.859 77.4779 28.5127 77.7422C28.1709 78.002 27.7607 78.1956 27.2822 78.3232L26.9131 78.4668H23.8164L23.8027 77.3936H26.1406C26.6146 77.3936 27.0088 77.3115 27.3232 77.1475C27.6377 76.9788 27.8747 76.7533 28.0342 76.4707C28.1937 76.1882 28.2734 75.876 28.2734 75.5342C28.2734 75.1514 28.1982 74.8164 28.0479 74.5293C27.8975 74.2422 27.6605 74.0212 27.3369 73.8662C27.0179 73.7067 26.6055 73.627 26.0996 73.627H24.124V82.5H22.8047V72.5469ZM28.6221 82.5L26.2021 77.9883L27.5762 77.9814L30.0303 82.418V82.5H28.6221ZM34.125 82.5H32.0469L32.0605 81.4268H34.125C34.8359 81.4268 35.4284 81.2786 35.9023 80.9824C36.3763 80.6816 36.7318 80.2624 36.9688 79.7246C37.2103 79.1823 37.3311 78.5488 37.3311 77.8242V77.2158C37.3311 76.6462 37.2627 76.1403 37.126 75.6982C36.9893 75.2516 36.7887 74.8757 36.5244 74.5703C36.2601 74.2604 35.9365 74.0257 35.5537 73.8662C35.1755 73.7067 34.7402 73.627 34.248 73.627H32.0059V72.5469H34.248C34.8997 72.5469 35.4945 72.6562 36.0322 72.875C36.57 73.0892 37.0326 73.4014 37.4199 73.8115C37.8118 74.2171 38.1126 74.7093 38.3223 75.2881C38.5319 75.8623 38.6367 76.5094 38.6367 77.2295V77.8242C38.6367 78.5443 38.5319 79.1937 38.3223 79.7725C38.1126 80.3467 37.8096 80.8366 37.4131 81.2422C37.0212 81.6478 36.5472 81.96 35.9912 82.1787C35.4398 82.3929 34.8177 82.5 34.125 82.5ZM32.751 72.5469V82.5H31.4316V72.5469H32.751ZM44.29 78.5967H41.6309V77.5234H44.29C44.805 77.5234 45.222 77.4414 45.541 77.2773C45.86 77.1133 46.0924 76.8854 46.2383 76.5938C46.3887 76.3021 46.4639 75.9694 46.4639 75.5957C46.4639 75.2539 46.3887 74.9326 46.2383 74.6318C46.0924 74.3311 45.86 74.0895 45.541 73.9072C45.222 73.7204 44.805 73.627 44.29 73.627H41.9385V82.5H40.6191V72.5469H44.29C45.042 72.5469 45.6777 72.6768 46.1973 72.9365C46.7168 73.1963 47.111 73.5563 47.3799 74.0166C47.6488 74.4723 47.7832 74.9941 47.7832 75.582C47.7832 76.2201 47.6488 76.7646 47.3799 77.2158C47.111 77.667 46.7168 78.0111 46.1973 78.248C45.6777 78.4805 45.042 78.5967 44.29 78.5967ZM49.4512 72.5469H52.7461C53.4935 72.5469 54.1247 72.6608 54.6396 72.8887C55.1592 73.1165 55.5534 73.4538 55.8223 73.9004C56.0957 74.3424 56.2324 74.887 56.2324 75.5342C56.2324 75.9899 56.139 76.4069 55.9521 76.7852C55.7699 77.1589 55.5055 77.4779 55.1592 77.7422C54.8174 78.002 54.4072 78.1956 53.9287 78.3232L53.5596 78.4668H50.4629L50.4492 77.3936H52.7871C53.2611 77.3936 53.6553 77.3115 53.9697 77.1475C54.2842 76.9788 54.5212 76.7533 54.6807 76.4707C54.8402 76.1882 54.9199 75.876 54.9199 75.5342C54.9199 75.1514 54.8447 74.8164 54.6943 74.5293C54.5439 74.2422 54.307 74.0212 53.9834 73.8662C53.6644 73.7067 53.252 73.627 52.7461 73.627H50.7705V82.5H49.4512V72.5469ZM55.2686 82.5L52.8486 77.9883L54.2227 77.9814L56.6768 82.418V82.5H55.2686ZM64.4014 81.4268V82.5H59.1309V81.4268H64.4014ZM59.3975 72.5469V82.5H58.0781V72.5469H59.3975ZM63.7041 76.8262V77.8994H59.1309V76.8262H63.7041ZM64.333 72.5469V73.627H59.1309V72.5469H64.333ZM71.3398 79.9844C71.3398 79.752 71.3034 79.5469 71.2305 79.3691C71.1621 79.1868 71.0391 79.0228 70.8613 78.877C70.6882 78.7311 70.4466 78.5921 70.1367 78.46C69.8314 78.3278 69.444 78.1934 68.9746 78.0566C68.4824 77.9108 68.0381 77.749 67.6416 77.5713C67.2451 77.389 66.9056 77.1816 66.623 76.9492C66.3405 76.7168 66.124 76.4502 65.9736 76.1494C65.8232 75.8486 65.748 75.5046 65.748 75.1172C65.748 74.7298 65.8278 74.3721 65.9873 74.0439C66.1468 73.7158 66.3747 73.431 66.6709 73.1895C66.9717 72.9434 67.3294 72.752 67.7441 72.6152C68.1589 72.4785 68.6214 72.4102 69.1318 72.4102C69.8792 72.4102 70.5127 72.5537 71.0322 72.8408C71.5563 73.1234 71.9551 73.4948 72.2285 73.9551C72.502 74.4108 72.6387 74.8984 72.6387 75.418H71.3262C71.3262 75.0443 71.2464 74.7139 71.0869 74.4268C70.9274 74.1351 70.6859 73.9072 70.3623 73.7432C70.0387 73.5745 69.6286 73.4902 69.1318 73.4902C68.6624 73.4902 68.2751 73.5609 67.9697 73.7021C67.6644 73.8434 67.4365 74.0348 67.2861 74.2764C67.1403 74.5179 67.0674 74.7936 67.0674 75.1035C67.0674 75.3132 67.1107 75.5046 67.1973 75.6777C67.2884 75.8464 67.4274 76.0036 67.6143 76.1494C67.8057 76.2952 68.0472 76.4297 68.3389 76.5527C68.6351 76.6758 68.9883 76.7943 69.3984 76.9082C69.9635 77.0677 70.4512 77.2454 70.8613 77.4414C71.2715 77.6374 71.6087 77.8584 71.873 78.1045C72.1419 78.346 72.3402 78.6217 72.4678 78.9316C72.5999 79.237 72.666 79.5833 72.666 79.9707C72.666 80.3763 72.584 80.7432 72.4199 81.0713C72.2559 81.3994 72.0212 81.6797 71.7158 81.9121C71.4105 82.1445 71.0436 82.3245 70.6152 82.4521C70.1914 82.5752 69.7174 82.6367 69.1934 82.6367C68.7331 82.6367 68.2796 82.5729 67.833 82.4453C67.391 82.3177 66.9876 82.1263 66.623 81.8711C66.263 81.6159 65.9736 81.3014 65.7549 80.9277C65.5407 80.5495 65.4336 80.112 65.4336 79.6152H66.7461C66.7461 79.957 66.8122 80.251 66.9443 80.4971C67.0765 80.7386 67.2565 80.9391 67.4844 81.0986C67.7168 81.2581 67.9788 81.3766 68.2705 81.4541C68.5667 81.527 68.8743 81.5635 69.1934 81.5635C69.6536 81.5635 70.0433 81.4997 70.3623 81.3721C70.6813 81.2445 70.9229 81.0622 71.0869 80.8252C71.2555 80.5882 71.3398 80.3079 71.3398 79.9844ZM79.6523 79.9844C79.6523 79.752 79.6159 79.5469 79.543 79.3691C79.4746 79.1868 79.3516 79.0228 79.1738 78.877C79.0007 78.7311 78.7591 78.5921 78.4492 78.46C78.1439 78.3278 77.7565 78.1934 77.2871 78.0566C76.7949 77.9108 76.3506 77.749 75.9541 77.5713C75.5576 77.389 75.2181 77.1816 74.9355 76.9492C74.653 76.7168 74.4365 76.4502 74.2861 76.1494C74.1357 75.8486 74.0605 75.5046 74.0605 75.1172C74.0605 74.7298 74.1403 74.3721 74.2998 74.0439C74.4593 73.7158 74.6872 73.431 74.9834 73.1895C75.2842 72.9434 75.6419 72.752 76.0566 72.6152C76.4714 72.4785 76.9339 72.4102 77.4443 72.4102C78.1917 72.4102 78.8252 72.5537 79.3447 72.8408C79.8688 73.1234 80.2676 73.4948 80.541 73.9551C80.8145 74.4108 80.9512 74.8984 80.9512 75.418H79.6387C79.6387 75.0443 79.5589 74.7139 79.3994 74.4268C79.2399 74.1351 78.9984 73.9072 78.6748 73.7432C78.3512 73.5745 77.9411 73.4902 77.4443 73.4902C76.9749 73.4902 76.5876 73.5609 76.2822 73.7021C75.9769 73.8434 75.749 74.0348 75.5986 74.2764C75.4528 74.5179 75.3799 74.7936 75.3799 75.1035C75.3799 75.3132 75.4232 75.5046 75.5098 75.6777C75.6009 75.8464 75.7399 76.0036 75.9268 76.1494C76.1182 76.2952 76.3597 76.4297 76.6514 76.5527C76.9476 76.6758 77.3008 76.7943 77.7109 76.9082C78.276 77.0677 78.7637 77.2454 79.1738 77.4414C79.584 77.6374 79.9212 77.8584 80.1855 78.1045C80.4544 78.346 80.6527 78.6217 80.7803 78.9316C80.9124 79.237 80.9785 79.5833 80.9785 79.9707C80.9785 80.3763 80.8965 80.7432 80.7324 81.0713C80.5684 81.3994 80.3337 81.6797 80.0283 81.9121C79.723 82.1445 79.3561 82.3245 78.9277 82.4521C78.5039 82.5752 78.0299 82.6367 77.5059 82.6367C77.0456 82.6367 76.5921 82.5729 76.1455 82.4453C75.7035 82.3177 75.3001 82.1263 74.9355 81.8711C74.5755 81.6159 74.2861 81.3014 74.0674 80.9277C73.8532 80.5495 73.7461 80.112 73.7461 79.6152H75.0586C75.0586 79.957 75.1247 80.251 75.2568 80.4971C75.389 80.7386 75.569 80.9391 75.7969 81.0986C76.0293 81.2581 76.2913 81.3766 76.583 81.4541C76.8792 81.527 77.1868 81.5635 77.5059 81.5635C77.9661 81.5635 78.3558 81.4997 78.6748 81.3721C78.9938 81.2445 79.2354 81.0622 79.3994 80.8252C79.568 80.5882 79.6523 80.3079 79.6523 79.9844Z" fill="white"/>
<defs>
<filter id="filter0_f_344_14257" x="7.58301" y="0" width="65" height="65" filterUnits="userSpaceOnUse" color-interpolation-filters="sRGB">
<feFlood flood-opacity="0" result="BackgroundImageFix"/>
<feBlend mode="normal" in="SourceGraphic" in2="BackgroundImageFix" result="shape"/>
<feGaussianBlur stdDeviation="2" result="effect1_foregroundBlur_344_14257"/>
</filter>
</defs>
</svg>
