<svg width="40" height="40" viewBox="0 0 40 40" fill="none" xmlns="http://www.w3.org/2000/svg">
<g filter="url(#filter0_f_596_20929)">
<path d="M4.86474 19.6344C4.86474 25.4799 8.26098 30.5328 13.1891 32.9267L6.14317 13.6232C5.32317 15.4602 4.86474 17.4924 4.86474 19.6344ZM29.6058 18.8892C29.6058 17.063 28.9494 15.7991 28.3882 14.8156C27.6387 13.599 26.9371 12.5697 26.9371 11.3515C26.9371 9.99508 27.9658 8.73064 29.418 8.73064C29.4826 8.73064 29.544 8.73871 29.6085 8.74194C26.9806 6.33466 23.4806 4.86575 19.634 4.86575C14.4734 4.86575 9.93542 7.51194 7.29247 11.5221C7.64006 11.5329 7.96612 11.5399 8.24483 11.5399C9.78853 11.5399 12.1802 11.351 12.1802 11.351C12.976 11.3047 13.0712 12.475 12.2749 12.5697C12.2749 12.5697 11.4748 12.6628 10.5838 12.7101L15.9633 28.7083L19.1954 19.0141L16.8952 12.7096C16.0994 12.6622 15.3462 12.5692 15.3462 12.5692C14.5493 12.5213 14.6424 11.3042 15.4398 11.3505C15.4398 11.3505 17.8783 11.5393 19.3294 11.5393C20.8742 11.5393 23.2659 11.3505 23.2659 11.3505C24.0622 11.3042 24.1564 12.4745 23.3606 12.5692C23.3606 12.5692 22.5594 12.6622 21.6705 12.7096L27.0081 28.5867L28.4818 23.6645C29.2292 21.7442 29.6058 20.1542 29.6058 18.8892ZM19.8938 20.9247L15.4618 33.8032C16.7855 34.1933 18.185 34.4047 19.634 34.4047C21.3541 34.4047 23.0038 34.1072 24.5389 33.568C24.4996 33.5051 24.463 33.4384 24.434 33.3636L19.8938 20.9247ZM32.5958 12.5482C32.6582 13.019 32.6954 13.5231 32.6954 14.0671C32.6954 15.5662 32.415 17.2508 31.5714 19.3573L27.0603 32.401C31.4525 29.8404 34.4048 25.0828 34.4048 19.6339C34.4048 17.0657 33.7478 14.6525 32.5958 12.5482ZM2.41656 19.6344C2.41656 29.129 10.141 36.8524 19.634 36.8524C29.1275 36.8524 36.8524 29.129 36.8524 19.6344C36.8524 10.1404 29.1275 2.4165 19.634 2.4165C10.141 2.4165 2.41656 10.1404 2.41656 19.6344ZM3.20644 19.6344C3.20644 10.5767 10.5763 3.20799 19.634 3.20799C28.6933 3.20799 36.0631 10.5767 36.0631 19.6344C36.0631 28.6927 28.6933 36.063 19.634 36.063C10.5763 36.063 3.20644 28.6927 3.20644 19.6344Z" fill="white"/>
</g>
<path d="M4.86474 19.6344C4.86474 25.4799 8.26098 30.5328 13.1891 32.9267L6.14317 13.6232C5.32317 15.4602 4.86474 17.4924 4.86474 19.6344ZM29.6058 18.8892C29.6058 17.063 28.9494 15.7991 28.3882 14.8156C27.6387 13.599 26.9371 12.5697 26.9371 11.3515C26.9371 9.99508 27.9658 8.73064 29.418 8.73064C29.4826 8.73064 29.544 8.73871 29.6085 8.74194C26.9806 6.33466 23.4806 4.86575 19.634 4.86575C14.4734 4.86575 9.93542 7.51194 7.29247 11.5221C7.64006 11.5329 7.96612 11.5399 8.24483 11.5399C9.78853 11.5399 12.1802 11.351 12.1802 11.351C12.976 11.3047 13.0712 12.475 12.2749 12.5697C12.2749 12.5697 11.4748 12.6628 10.5838 12.7101L15.9633 28.7083L19.1954 19.0141L16.8952 12.7096C16.0994 12.6622 15.3462 12.5692 15.3462 12.5692C14.5493 12.5213 14.6424 11.3042 15.4398 11.3505C15.4398 11.3505 17.8783 11.5393 19.3294 11.5393C20.8742 11.5393 23.2659 11.3505 23.2659 11.3505C24.0622 11.3042 24.1564 12.4745 23.3606 12.5692C23.3606 12.5692 22.5594 12.6622 21.6705 12.7096L27.0081 28.5867L28.4818 23.6645C29.2292 21.7442 29.6058 20.1542 29.6058 18.8892ZM19.8938 20.9247L15.4618 33.8032C16.7855 34.1933 18.185 34.4047 19.634 34.4047C21.3541 34.4047 23.0038 34.1072 24.5389 33.568C24.4996 33.5051 24.463 33.4384 24.434 33.3636L19.8938 20.9247ZM32.5958 12.5482C32.6582 13.019 32.6954 13.5231 32.6954 14.0671C32.6954 15.5662 32.415 17.2508 31.5714 19.3573L27.0603 32.401C31.4525 29.8404 34.4048 25.0828 34.4048 19.6339C34.4048 17.0657 33.7478 14.6525 32.5958 12.5482ZM2.41656 19.6344C2.41656 29.129 10.141 36.8524 19.634 36.8524C29.1275 36.8524 36.8524 29.129 36.8524 19.6344C36.8524 10.1404 29.1275 2.4165 19.634 2.4165C10.141 2.4165 2.41656 10.1404 2.41656 19.6344ZM3.20644 19.6344C3.20644 10.5767 10.5763 3.20799 19.634 3.20799C28.6933 3.20799 36.0631 10.5767 36.0631 19.6344C36.0631 28.6927 28.6933 36.063 19.634 36.063C10.5763 36.063 3.20644 28.6927 3.20644 19.6344Z" fill="white"/>
<defs>
<filter id="filter0_f_596_20929" x="1.3113e-05" y="-4.79221e-05" width="39.269" height="39.2689" filterUnits="userSpaceOnUse" color-interpolation-filters="sRGB">
<feFlood flood-opacity="0" result="BackgroundImageFix"/>
<feBlend mode="normal" in="SourceGraphic" in2="BackgroundImageFix" result="shape"/>
<feGaussianBlur stdDeviation="1.20828" result="effect1_foregroundBlur_596_20929"/>
</filter>
</defs>
</svg>
