<svg width="74" height="73" viewBox="0 0 74 73" fill="none" xmlns="http://www.w3.org/2000/svg">
<path d="M30.8058 42.529C30.8058 45.6739 28.4933 46.6679 25.6522 46.6679H18.2027V38.048H25.8009C28.8732 38.0643 30.8058 39.319 30.8058 42.529ZM29.5339 29.1185C29.5339 26.2344 27.271 25.55 24.7603 25.55H18.2192V32.85H25.2723C27.7665 32.85 29.5339 31.7746 29.5339 29.1185ZM51.3871 32.8989C48.3643 32.8989 46.3491 34.7565 46.1509 37.7384H56.425C56.1442 34.7239 54.5585 32.8989 51.3871 32.8989ZM74 7.82143V65.1786C74 69.4967 70.4487 73 66.0714 73H7.92857C3.55134 73 0 69.4967 0 65.1786V7.82143C0 3.50335 3.55134 0 7.92857 0H66.0714C70.4487 0 74 3.50335 74 7.82143ZM44.879 24.9308H57.7299V21.8511H44.879V24.9308ZM37.7763 42.9038C37.7763 38.9768 35.8933 35.5875 31.9951 34.4958C34.8362 33.1596 36.3228 31.6116 36.3228 28.4667C36.3228 22.2422 31.6152 20.7268 26.1808 20.7268H11.2321V52.0125H26.6103C32.375 51.9799 37.7763 49.2587 37.7763 42.9038ZM62.7679 40.4922C62.7679 33.7951 58.7871 28.206 51.6018 28.206C44.5982 28.206 39.8576 33.3877 39.8576 40.1989C39.8576 47.2545 44.367 52.094 51.6018 52.094C57.0857 52.094 60.6371 49.6661 62.3549 44.4681H56.7884C56.1772 46.4071 53.7161 47.4174 51.8 47.4174C48.1 47.4174 46.1674 45.2828 46.1674 41.6654H62.7183C62.7348 41.2906 62.7679 40.8833 62.7679 40.4922Z" fill="white"/>
</svg>
