<svg width="50" height="50" viewBox="0 0 50 50" fill="none" xmlns="http://www.w3.org/2000/svg">
<path fill-rule="evenodd" clip-rule="evenodd" d="M5.55664 50H44.4434C47.5098 50 50 47.5098 50 44.4434V5.55664C50 2.49023 47.5098 0 44.4434 0H5.55664C2.49023 0 0 2.49023 0 5.55664V44.4434C0 47.5098 2.49023 50 5.55664 50Z" fill="white"/>
<path fill-rule="evenodd" clip-rule="evenodd" d="M43.0566 43.0566H35.6348V30.4199C35.6348 26.9531 34.3164 25.0195 31.5723 25.0195C28.5937 25.0195 27.0312 27.0312 27.0312 30.4199V43.0566H19.8828V18.9844H27.0312V22.2266C27.0312 22.2266 29.1797 18.252 34.2871 18.252C39.3945 18.252 43.0469 21.3672 43.0469 27.8223V43.0566H43.0566ZM11.3574 15.8301C8.92578 15.8301 6.94336 13.8379 6.94336 11.3867C6.94336 8.93555 8.91602 6.94336 11.3574 6.94336C13.7988 6.94336 15.7617 8.93555 15.7617 11.3867C15.7617 13.8379 13.7891 15.8301 11.3574 15.8301ZM7.66602 43.0566H15.127V18.9844H7.66602V43.0566Z" fill="#010101"/>
</svg>
