<svg width="1762" height="1253" viewBox="0 0 1762 1253" fill="none" xmlns="http://www.w3.org/2000/svg">
<path d="M21.5 312.632V1223.71L42.4805 1251.6H1757.5V832.738V553.798L1735.98 520.384V44.346L1703.7 21.1011H1088.81V31.755L1061.38 44.346H633.7L607.877 21.1011H42.4805V74.8551V285.513L21.5 312.632Z" stroke="white" stroke-width="1.07637"/>
<line x1="103.635" y1="21.1011" x2="103.635" y2="430.605" stroke="white" stroke-opacity="0.05" stroke-width="1.31416"/>
<line x1="167.59" y1="21.1011" x2="167.59" y2="430.605" stroke="white" stroke-opacity="0.05" stroke-width="1.31416"/>
<line x1="231.546" y1="21.1011" x2="231.546" y2="430.605" stroke="white" stroke-opacity="0.05" stroke-width="1.31416"/>
<line x1="295.501" y1="21.1011" x2="295.501" y2="430.605" stroke="white" stroke-opacity="0.05" stroke-width="1.31416"/>
<line x1="359.457" y1="21.1011" x2="359.457" y2="430.605" stroke="white" stroke-opacity="0.05" stroke-width="1.31416"/>
<line x1="423.412" y1="21.1011" x2="423.412" y2="430.605" stroke="white" stroke-opacity="0.05" stroke-width="1.31416"/>
<line x1="487.369" y1="21.1011" x2="487.368" y2="430.605" stroke="white" stroke-opacity="0.05" stroke-width="1.31416"/>
<line x1="551.324" y1="21.1011" x2="551.324" y2="430.605" stroke="white" stroke-opacity="0.05" stroke-width="1.31416"/>
<line x1="615.499" y1="80.2589" x2="49.5356" y2="80.2589" stroke="white" stroke-opacity="0.05" stroke-width="1.31416"/>
<line x1="615.499" y1="138.759" x2="49.5356" y2="138.759" stroke="white" stroke-opacity="0.05" stroke-width="1.31416"/>
<line x1="615.499" y1="197.26" x2="49.5356" y2="197.26" stroke="white" stroke-opacity="0.05" stroke-width="1.31416"/>
<line x1="615.499" y1="255.76" x2="49.5356" y2="255.76" stroke="white" stroke-opacity="0.05" stroke-width="1.31416"/>
<line x1="615.499" y1="314.261" x2="21.5002" y2="314.261" stroke="white" stroke-opacity="0.05" stroke-width="1.31416"/>
<line x1="615.499" y1="372.762" x2="21.5002" y2="372.762" stroke="white" stroke-opacity="0.05" stroke-width="1.31416"/>
<line x1="615.657" y1="431.337" x2="25.8052" y2="431.336" stroke="white" stroke-opacity="0.05" stroke-width="1.31416"/>
<line x1="616.156" y1="21.1011" x2="616.156" y2="430.605" stroke="white" stroke-opacity="0.05" stroke-width="1.31416"/>
<line x1="679.846" y1="42.687" x2="679.846" y2="430.605" stroke="white" stroke-opacity="0.05" stroke-width="1.31416"/>
<line x1="744.428" y1="42.687" x2="744.428" y2="430.605" stroke="white" stroke-opacity="0.05" stroke-width="1.31416"/>
<line x1="807.933" y1="42.687" x2="807.933" y2="430.605" stroke="white" stroke-opacity="0.05" stroke-width="1.31416"/>
<line x1="872.516" y1="42.687" x2="872.516" y2="426.667" stroke="white" stroke-opacity="0.05" stroke-width="1.31416"/>
<line x1="936.022" y1="42.687" x2="936.022" y2="430.605" stroke="white" stroke-opacity="0.05" stroke-width="1.31416"/>
<line x1="999.528" y1="42.687" x2="999.528" y2="430.605" stroke="white" stroke-opacity="0.05" stroke-width="1.31416"/>
<line x1="1064.11" y1="42.687" x2="1064.11" y2="430.605" stroke="white" stroke-opacity="0.05" stroke-width="1.31416"/>
<line x1="1128.02" y1="80.2589" x2="615.498" y2="80.2589" stroke="white" stroke-opacity="0.05" stroke-width="1.31416"/>
<line x1="1128.02" y1="138.759" x2="615.498" y2="138.759" stroke="white" stroke-opacity="0.05" stroke-width="1.31416"/>
<line x1="1128.02" y1="197.26" x2="615.498" y2="197.26" stroke="white" stroke-opacity="0.05" stroke-width="1.31416"/>
<line x1="1128.02" y1="255.76" x2="615.498" y2="255.76" stroke="white" stroke-opacity="0.05" stroke-width="1.31416"/>
<line x1="1128.02" y1="314.261" x2="615.498" y2="314.261" stroke="white" stroke-opacity="0.05" stroke-width="1.31416"/>
<line x1="1128.02" y1="372.762" x2="615.498" y2="372.762" stroke="white" stroke-opacity="0.05" stroke-width="1.31416"/>
<line x1="1128.02" y1="431.262" x2="615.498" y2="431.262" stroke="white" stroke-opacity="0.05" stroke-width="1.31416"/>
<line x1="1129.55" y1="21.1011" x2="1129.55" y2="430.605" stroke="white" stroke-opacity="0.05" stroke-width="1.31416"/>
<line x1="1193.51" y1="21.1011" x2="1193.51" y2="430.605" stroke="white" stroke-opacity="0.05" stroke-width="1.31416"/>
<line x1="1257.46" y1="21.1011" x2="1257.46" y2="430.605" stroke="white" stroke-opacity="0.05" stroke-width="1.31416"/>
<line x1="1321.42" y1="21.1011" x2="1321.42" y2="430.605" stroke="white" stroke-opacity="0.05" stroke-width="1.31416"/>
<line x1="1385.38" y1="21.1011" x2="1385.38" y2="426.598" stroke="white" stroke-opacity="0.05" stroke-width="1.31416"/>
<line x1="1449.33" y1="21.1011" x2="1449.33" y2="430.605" stroke="white" stroke-opacity="0.05" stroke-width="1.31416"/>
<line x1="1513.29" y1="21.1011" x2="1513.29" y2="430.605" stroke="white" stroke-opacity="0.05" stroke-width="1.31416"/>
<line x1="1577.24" y1="21.1011" x2="1577.24" y2="430.605" stroke="white" stroke-opacity="0.05" stroke-width="1.31416"/>
<line x1="1641.42" y1="80.2589" x2="1128.9" y2="80.2589" stroke="white" stroke-opacity="0.05" stroke-width="1.31416"/>
<line x1="1641.42" y1="138.759" x2="1128.9" y2="138.759" stroke="white" stroke-opacity="0.05" stroke-width="1.31416"/>
<line x1="1641.42" y1="197.26" x2="1128.9" y2="197.26" stroke="white" stroke-opacity="0.05" stroke-width="1.31416"/>
<line x1="1641.42" y1="255.76" x2="1128.9" y2="255.76" stroke="white" stroke-opacity="0.05" stroke-width="1.31416"/>
<line x1="1641.42" y1="314.261" x2="1128.9" y2="314.261" stroke="white" stroke-opacity="0.05" stroke-width="1.31416"/>
<line x1="1641.42" y1="372.762" x2="1128.9" y2="372.762" stroke="white" stroke-opacity="0.05" stroke-width="1.31416"/>
<line x1="1641.42" y1="431.262" x2="1128.9" y2="431.262" stroke="white" stroke-opacity="0.05" stroke-width="1.31416"/>
<line x1="1641.2" y1="21.1011" x2="1641.2" y2="430.605" stroke="white" stroke-opacity="0.05" stroke-width="1.31416"/>
<line x1="1705.15" y1="21.1011" x2="1705.15" y2="430.605" stroke="white" stroke-opacity="0.05" stroke-width="1.31416"/>
<line x1="1739.57" y1="80.0157" x2="1640.54" y2="80.0157" stroke="white" stroke-opacity="0.05" stroke-width="1.31416"/>
<line x1="1739.57" y1="139.09" x2="1640.54" y2="139.09" stroke="white" stroke-opacity="0.05" stroke-width="1.31416"/>
<line x1="1739.57" y1="197.179" x2="1640.54" y2="197.179" stroke="white" stroke-opacity="0.05" stroke-width="1.31416"/>
<line x1="1739.57" y1="256.253" x2="1640.54" y2="256.253" stroke="white" stroke-opacity="0.05" stroke-width="1.31416"/>
<line x1="1739.57" y1="314.342" x2="1640.54" y2="314.342" stroke="white" stroke-opacity="0.05" stroke-width="1.31416"/>
<line x1="1739.57" y1="373.416" x2="1640.54" y2="373.416" stroke="white" stroke-opacity="0.05" stroke-width="1.31416"/>
<line x1="1739.57" y1="431.505" x2="1640.54" y2="431.505" stroke="white" stroke-opacity="0.05" stroke-width="1.31416"/>
<line x1="103.635" y1="430.605" x2="103.635" y2="840.109" stroke="white" stroke-opacity="0.05" stroke-width="1.31416"/>
<line x1="167.59" y1="430.605" x2="167.59" y2="840.109" stroke="white" stroke-opacity="0.05" stroke-width="1.31416"/>
<line x1="231.546" y1="430.605" x2="231.546" y2="840.109" stroke="white" stroke-opacity="0.05" stroke-width="1.31416"/>
<line x1="295.501" y1="430.605" x2="295.501" y2="840.109" stroke="white" stroke-opacity="0.05" stroke-width="1.31416"/>
<line x1="359.457" y1="430.605" x2="359.457" y2="840.109" stroke="white" stroke-opacity="0.05" stroke-width="1.31416"/>
<line x1="423.413" y1="430.605" x2="423.413" y2="840.109" stroke="white" stroke-opacity="0.05" stroke-width="1.31416"/>
<line x1="487.368" y1="430.605" x2="487.368" y2="840.109" stroke="white" stroke-opacity="0.05" stroke-width="1.31416"/>
<line x1="551.324" y1="430.605" x2="551.324" y2="840.109" stroke="white" stroke-opacity="0.05" stroke-width="1.31416"/>
<line x1="615.499" y1="489.395" x2="25.647" y2="489.395" stroke="white" stroke-opacity="0.05" stroke-width="1.31416"/>
<line x1="615.499" y1="548.469" x2="25.647" y2="548.469" stroke="white" stroke-opacity="0.05" stroke-width="1.31416"/>
<line x1="615.499" y1="606.558" x2="25.647" y2="606.558" stroke="white" stroke-opacity="0.05" stroke-width="1.31416"/>
<line x1="615.499" y1="665.632" x2="25.647" y2="665.632" stroke="white" stroke-opacity="0.05" stroke-width="1.31416"/>
<line x1="615.499" y1="723.765" x2="21.5002" y2="723.765" stroke="white" stroke-opacity="0.05" stroke-width="1.31416"/>
<line x1="615.499" y1="782.265" x2="21.5002" y2="782.265" stroke="white" stroke-opacity="0.05" stroke-width="1.31416"/>
<line x1="615.499" y1="840.766" x2="49.5356" y2="840.766" stroke="white" stroke-opacity="0.05" stroke-width="1.31416"/>
<line x1="616.156" y1="430.605" x2="616.156" y2="840.109" stroke="white" stroke-opacity="0.05" stroke-width="1.31416"/>
<line x1="680.111" y1="430.605" x2="680.111" y2="840.109" stroke="white" stroke-opacity="0.05" stroke-width="1.31416"/>
<line x1="744.067" y1="430.605" x2="744.067" y2="840.109" stroke="white" stroke-opacity="0.05" stroke-width="1.31416"/>
<line x1="808.022" y1="430.605" x2="808.022" y2="840.109" stroke="white" stroke-opacity="0.05" stroke-width="1.31416"/>
<line y1="-0.657078" x2="409.932" y2="-0.657078" transform="matrix(0.000394922 1 -1 0.000408097 871.321 430.605)" stroke="white" stroke-opacity="0.05" stroke-width="1.31416"/>
<line x1="935.933" y1="430.605" x2="935.933" y2="840.109" stroke="white" stroke-opacity="0.05" stroke-width="1.31416"/>
<line x1="999.89" y1="430.605" x2="999.889" y2="840.109" stroke="white" stroke-opacity="0.05" stroke-width="1.31416"/>
<line x1="1063.85" y1="430.605" x2="1063.85" y2="840.109" stroke="white" stroke-opacity="0.05" stroke-width="1.31416"/>
<line x1="1128.02" y1="489.763" x2="615.498" y2="489.763" stroke="white" stroke-opacity="0.05" stroke-width="1.31416"/>
<line x1="1128.02" y1="548.263" x2="615.498" y2="548.263" stroke="white" stroke-opacity="0.05" stroke-width="1.31416"/>
<line x1="1128.02" y1="606.764" x2="615.498" y2="606.764" stroke="white" stroke-opacity="0.05" stroke-width="1.31416"/>
<line x1="1128.02" y1="665.264" x2="615.498" y2="665.264" stroke="white" stroke-opacity="0.05" stroke-width="1.31416"/>
<line x1="1128.02" y1="723.765" x2="615.498" y2="723.765" stroke="white" stroke-opacity="0.05" stroke-width="1.31416"/>
<line x1="1128.02" y1="782.265" x2="615.498" y2="782.265" stroke="white" stroke-opacity="0.05" stroke-width="1.31416"/>
<line x1="1128.02" y1="840.766" x2="615.498" y2="840.766" stroke="white" stroke-opacity="0.05" stroke-width="1.31416"/>
<line x1="1129.55" y1="430.605" x2="1129.55" y2="840.109" stroke="white" stroke-opacity="0.05" stroke-width="1.31416"/>
<line x1="1193.51" y1="430.605" x2="1193.51" y2="840.109" stroke="white" stroke-opacity="0.05" stroke-width="1.31416"/>
<line x1="1257.46" y1="430.605" x2="1257.46" y2="840.109" stroke="white" stroke-opacity="0.05" stroke-width="1.31416"/>
<line x1="1321.42" y1="430.605" x2="1321.42" y2="840.109" stroke="white" stroke-opacity="0.05" stroke-width="1.31416"/>
<line x1="1385.38" y1="430.605" x2="1385.38" y2="836.102" stroke="white" stroke-opacity="0.05" stroke-width="1.31416"/>
<line x1="1449.33" y1="430.605" x2="1449.33" y2="840.109" stroke="white" stroke-opacity="0.05" stroke-width="1.31416"/>
<line x1="1513.29" y1="430.605" x2="1513.29" y2="840.109" stroke="white" stroke-opacity="0.05" stroke-width="1.31416"/>
<line x1="1577.24" y1="430.605" x2="1577.24" y2="840.109" stroke="white" stroke-opacity="0.05" stroke-width="1.31416"/>
<line x1="1641.42" y1="489.763" x2="1128.9" y2="489.763" stroke="white" stroke-opacity="0.05" stroke-width="1.31416"/>
<line x1="1641.42" y1="548.263" x2="1128.9" y2="548.263" stroke="white" stroke-opacity="0.05" stroke-width="1.31416"/>
<line x1="1641.42" y1="606.764" x2="1128.9" y2="606.764" stroke="white" stroke-opacity="0.05" stroke-width="1.31416"/>
<line x1="1641.42" y1="665.264" x2="1128.9" y2="665.264" stroke="white" stroke-opacity="0.05" stroke-width="1.31416"/>
<line x1="1641.42" y1="723.765" x2="1128.9" y2="723.765" stroke="white" stroke-opacity="0.05" stroke-width="1.31416"/>
<line x1="1641.42" y1="782.265" x2="1128.9" y2="782.265" stroke="white" stroke-opacity="0.05" stroke-width="1.31416"/>
<line x1="1641.42" y1="840.766" x2="1128.9" y2="840.766" stroke="white" stroke-opacity="0.05" stroke-width="1.31416"/>
<line x1="1641.2" y1="430.605" x2="1641.2" y2="840.109" stroke="white" stroke-opacity="0.05" stroke-width="1.31416"/>
<line x1="1705.15" y1="430.605" x2="1705.15" y2="840.109" stroke="white" stroke-opacity="0.05" stroke-width="1.31416"/>
<line x1="1739.39" y1="489.426" x2="1640.36" y2="489.426" stroke="white" stroke-opacity="0.05" stroke-width="1.31416"/>
<line x1="1750.15" y1="548.5" x2="1640.36" y2="548.5" stroke="white" stroke-opacity="0.05" stroke-width="1.31416"/>
<line x1="1761.09" y1="606.396" x2="1640.54" y2="606.396" stroke="white" stroke-opacity="0.05" stroke-width="1.31416"/>
<line x1="1761.09" y1="665.47" x2="1640.54" y2="665.47" stroke="white" stroke-opacity="0.05" stroke-width="1.31416"/>
<line x1="1761.09" y1="723.559" x2="1640.54" y2="723.559" stroke="white" stroke-opacity="0.05" stroke-width="1.31416"/>
<line x1="1761.09" y1="781.648" x2="1640.54" y2="781.648" stroke="white" stroke-opacity="0.05" stroke-width="1.31416"/>
<line x1="1761.09" y1="840.722" x2="1640.54" y2="840.722" stroke="white" stroke-opacity="0.05" stroke-width="1.31416"/>
<line x1="103.635" y1="840.537" x2="103.635" y2="1250.04" stroke="white" stroke-opacity="0.05" stroke-width="1.31416"/>
<line x1="167.59" y1="840.537" x2="167.59" y2="1250.04" stroke="white" stroke-opacity="0.05" stroke-width="1.31416"/>
<line x1="231.546" y1="840.537" x2="231.546" y2="1250.04" stroke="white" stroke-opacity="0.05" stroke-width="1.31416"/>
<line x1="295.501" y1="840.537" x2="295.501" y2="1250.04" stroke="white" stroke-opacity="0.05" stroke-width="1.31416"/>
<line x1="359.457" y1="840.537" x2="359.457" y2="1250.04" stroke="white" stroke-opacity="0.05" stroke-width="1.31416"/>
<line x1="423.413" y1="840.537" x2="423.413" y2="1250.04" stroke="white" stroke-opacity="0.05" stroke-width="1.31416"/>
<line x1="487.368" y1="840.537" x2="487.368" y2="1250.04" stroke="white" stroke-opacity="0.05" stroke-width="1.31416"/>
<line x1="551.324" y1="840.537" x2="551.324" y2="1250.04" stroke="white" stroke-opacity="0.05" stroke-width="1.31416"/>
<line x1="615.499" y1="899.327" x2="25.647" y2="899.327" stroke="white" stroke-opacity="0.05" stroke-width="1.31416"/>
<line x1="615.499" y1="958.401" x2="25.647" y2="958.401" stroke="white" stroke-opacity="0.05" stroke-width="1.31416"/>
<line x1="615.499" y1="1016.49" x2="25.647" y2="1016.49" stroke="white" stroke-opacity="0.05" stroke-width="1.31416"/>
<line x1="615.499" y1="1075.56" x2="25.647" y2="1075.56" stroke="white" stroke-opacity="0.05" stroke-width="1.31416"/>
<line x1="615.499" y1="1133.7" x2="21.5002" y2="1133.7" stroke="white" stroke-opacity="0.05" stroke-width="1.31416"/>
<line x1="615.499" y1="1192.2" x2="21.5002" y2="1192.2" stroke="white" stroke-opacity="0.05" stroke-width="1.31416"/>
<line x1="615.499" y1="1250.7" x2="49.5356" y2="1250.7" stroke="white" stroke-opacity="0.05" stroke-width="1.31416"/>
<line x1="616.156" y1="840.537" x2="616.156" y2="1250.04" stroke="white" stroke-opacity="0.05" stroke-width="1.31416"/>
<line x1="680.111" y1="840.537" x2="680.111" y2="1250.04" stroke="white" stroke-opacity="0.05" stroke-width="1.31416"/>
<line x1="744.067" y1="840.537" x2="744.067" y2="1250.04" stroke="white" stroke-opacity="0.05" stroke-width="1.31416"/>
<line x1="808.022" y1="840.537" x2="808.022" y2="1250.04" stroke="white" stroke-opacity="0.05" stroke-width="1.31416"/>
<line x1="871.978" y1="840.537" x2="871.978" y2="1246.03" stroke="white" stroke-opacity="0.05" stroke-width="1.31416"/>
<line x1="935.933" y1="840.537" x2="935.933" y2="1250.04" stroke="white" stroke-opacity="0.05" stroke-width="1.31416"/>
<line x1="999.89" y1="840.537" x2="999.889" y2="1250.04" stroke="white" stroke-opacity="0.05" stroke-width="1.31416"/>
<line x1="1063.85" y1="840.537" x2="1063.85" y2="1250.04" stroke="white" stroke-opacity="0.05" stroke-width="1.31416"/>
<line x1="1128.02" y1="899.695" x2="615.498" y2="899.695" stroke="white" stroke-opacity="0.05" stroke-width="1.31416"/>
<line x1="1128.02" y1="958.196" x2="615.498" y2="958.195" stroke="white" stroke-opacity="0.05" stroke-width="1.31416"/>
<line x1="1128.02" y1="1016.7" x2="615.498" y2="1016.7" stroke="white" stroke-opacity="0.05" stroke-width="1.31416"/>
<line x1="1128.02" y1="1075.2" x2="615.498" y2="1075.2" stroke="white" stroke-opacity="0.05" stroke-width="1.31416"/>
<line x1="1128.02" y1="1133.7" x2="615.498" y2="1133.7" stroke="white" stroke-opacity="0.05" stroke-width="1.31416"/>
<line x1="1128.02" y1="1192.2" x2="615.498" y2="1192.2" stroke="white" stroke-opacity="0.05" stroke-width="1.31416"/>
<line x1="1128.02" y1="1250.7" x2="615.498" y2="1250.7" stroke="white" stroke-opacity="0.05" stroke-width="1.31416"/>
<line x1="1129.55" y1="840.537" x2="1129.55" y2="1250.04" stroke="white" stroke-opacity="0.05" stroke-width="1.31416"/>
<line x1="1193.51" y1="840.537" x2="1193.51" y2="1250.04" stroke="white" stroke-opacity="0.05" stroke-width="1.31416"/>
<line x1="1257.46" y1="840.537" x2="1257.46" y2="1250.04" stroke="white" stroke-opacity="0.05" stroke-width="1.31416"/>
<line x1="1321.42" y1="840.537" x2="1321.42" y2="1250.04" stroke="white" stroke-opacity="0.05" stroke-width="1.31416"/>
<line x1="1385.38" y1="840.537" x2="1385.38" y2="1246.03" stroke="white" stroke-opacity="0.05" stroke-width="1.31416"/>
<line x1="1449.33" y1="840.537" x2="1449.33" y2="1250.04" stroke="white" stroke-opacity="0.05" stroke-width="1.31416"/>
<line x1="1513.29" y1="840.537" x2="1513.29" y2="1250.04" stroke="white" stroke-opacity="0.05" stroke-width="1.31416"/>
<line x1="1577.24" y1="840.537" x2="1577.24" y2="1250.04" stroke="white" stroke-opacity="0.05" stroke-width="1.31416"/>
<line x1="1641.42" y1="899.695" x2="1128.9" y2="899.695" stroke="white" stroke-opacity="0.05" stroke-width="1.31416"/>
<line x1="1641.42" y1="958.196" x2="1128.9" y2="958.195" stroke="white" stroke-opacity="0.05" stroke-width="1.31416"/>
<line x1="1641.42" y1="1016.7" x2="1128.9" y2="1016.7" stroke="white" stroke-opacity="0.05" stroke-width="1.31416"/>
<line x1="1641.42" y1="1075.2" x2="1128.9" y2="1075.2" stroke="white" stroke-opacity="0.05" stroke-width="1.31416"/>
<line x1="1641.42" y1="1133.7" x2="1128.9" y2="1133.7" stroke="white" stroke-opacity="0.05" stroke-width="1.31416"/>
<line x1="1641.42" y1="1192.2" x2="1128.9" y2="1192.2" stroke="white" stroke-opacity="0.05" stroke-width="1.31416"/>
<line x1="1641.42" y1="1250.7" x2="1128.9" y2="1250.7" stroke="white" stroke-opacity="0.05" stroke-width="1.31416"/>
<line x1="1641.2" y1="840.537" x2="1641.2" y2="1250.04" stroke="white" stroke-opacity="0.05" stroke-width="1.31416"/>
<line x1="1705.15" y1="840.537" x2="1705.15" y2="1250.04" stroke="white" stroke-opacity="0.05" stroke-width="1.31416"/>
<line x1="1739.39" y1="899.358" x2="1640.36" y2="899.358" stroke="white" stroke-opacity="0.05" stroke-width="1.31416"/>
<line x1="1750.15" y1="958.432" x2="1640.36" y2="958.432" stroke="white" stroke-opacity="0.05" stroke-width="1.31416"/>
<line x1="1761.09" y1="1016.33" x2="1640.54" y2="1016.33" stroke="white" stroke-opacity="0.05" stroke-width="1.31416"/>
<line x1="1761.09" y1="1075.4" x2="1640.54" y2="1075.4" stroke="white" stroke-opacity="0.05" stroke-width="1.31416"/>
<line x1="1761.09" y1="1133.49" x2="1640.54" y2="1133.49" stroke="white" stroke-opacity="0.05" stroke-width="1.31416"/>
<line x1="1761.09" y1="1191.58" x2="1640.54" y2="1191.58" stroke="white" stroke-opacity="0.05" stroke-width="1.31416"/>
<line x1="1761.09" y1="1250.65" x2="1640.54" y2="1250.65" stroke="white" stroke-opacity="0.05" stroke-width="1.31416"/>
<path d="M14 784.6L8.5 777.851V623.532L14 615.884V584.39L8.5 578.991V480.011L0.5 467.413V374.732L8.5 368.433V342.788L14 336.49V584.39V615.884V784.6Z" fill="white" stroke="white"/>
<path d="M1090.5 12.2996L1097.5 5.10107H1158.5L1166 12.2996H1274L1296 5.10107H1613.5L1623.5 8.70035H1635.5L1645.5 5.10107H1671.5H1687.5L1698 12.2996H1274H1166H1090.5Z" fill="white" stroke="white"/>
</svg>
