<svg width="33" height="77" viewBox="0 0 33 77" fill="none" xmlns="http://www.w3.org/2000/svg">
<path d="M33 38.5L20.25 45.8612V31.1388L33 38.5Z" fill="#962EB9"/>
<path d="M6.89746 9.06445C6.5293 9.06445 6.1971 8.96712 5.90088 8.77246C5.60889 8.5778 5.39095 8.31966 5.24707 7.99805L5.19629 8.02344L3.07617 9.03271C3.05924 9.03695 3.04232 9.03483 3.02539 9.02637C3.00846 9.0179 3 9.00309 3 8.98193V7.69336C3 7.6722 3.01058 7.65527 3.03174 7.64258L5.08203 6.66504V1.26953H3.05078C3.03809 1.26953 3.02539 1.26318 3.0127 1.25049C3.00423 1.24202 3 1.22933 3 1.2124V0.0507812C3 0.0380859 3.00423 0.0253906 3.0127 0.0126953C3.02539 0.00423177 3.03809 0 3.05078 0H9.29053C9.30745 0 9.32015 0.00423177 9.32861 0.0126953C9.34131 0.0253906 9.34766 0.0380859 9.34766 0.0507812V7.25537C9.34766 7.75472 9.16992 8.18001 8.81445 8.53125C8.46322 8.88672 8.03581 9.06445 7.53223 9.06445H6.89746ZM6.17383 1.26953V7.25537C6.17383 7.40348 6.22673 7.53044 6.33252 7.63623C6.43831 7.74202 6.56738 7.79492 6.71973 7.79492H7.71631C7.86442 7.79492 7.99137 7.74202 8.09717 7.63623C8.20296 7.53044 8.25586 7.40348 8.25586 7.25537V1.26953H6.17383ZM9.34766 18.2241C9.34766 18.7277 9.16992 19.1551 8.81445 19.5063C8.46322 19.8618 8.03581 20.0396 7.53223 20.0396H4.81543C4.31185 20.0396 3.88232 19.8618 3.52686 19.5063C3.17562 19.1551 3 18.7277 3 18.2241V12.7842C3 12.2848 3.17562 11.8574 3.52686 11.502C3.88232 11.1465 4.31185 10.9688 4.81543 10.9688H7.53223C8.03581 10.9688 8.46322 11.1465 8.81445 11.502C9.16992 11.8574 9.34766 12.2848 9.34766 12.7842V18.2241ZM7.71631 18.77C7.86442 18.77 7.99137 18.7171 8.09717 18.6113C8.20719 18.5055 8.26221 18.3765 8.26221 18.2241V12.7842C8.26221 12.6361 8.20719 12.507 8.09717 12.397C7.99137 12.2912 7.86442 12.2383 7.71631 12.2383H4.63135C4.48324 12.2383 4.35417 12.2912 4.24414 12.397C4.13835 12.507 4.08545 12.6361 4.08545 12.7842V18.2241C4.08545 18.3765 4.13835 18.5055 4.24414 18.6113C4.35417 18.7171 4.48324 18.77 4.63135 18.77H7.71631ZM9.29053 21.9502C9.30745 21.9502 9.32015 21.9544 9.32861 21.9629C9.34131 21.9756 9.34766 21.9883 9.34766 22.001V30.9639C9.34766 30.9766 9.34131 30.9871 9.32861 30.9956C9.32015 31.0083 9.30745 31.0146 9.29053 31.0146H8.31299C8.30029 31.0146 8.2876 31.0083 8.2749 30.9956C8.26644 30.9871 8.26221 30.9766 8.26221 30.9639V27.1172H3.05713C3.0402 27.1172 3.02539 27.1108 3.0127 27.0981C3.00423 27.0897 3 27.0791 3 27.0664V25.9048C3 25.8879 3.00423 25.873 3.0127 25.8604C3.02539 25.8519 3.0402 25.8477 3.05713 25.8477H8.26221V22.001C8.26221 21.9883 8.26644 21.9756 8.2749 21.9629C8.2876 21.9544 8.30029 21.9502 8.31299 21.9502H9.29053ZM8.86523 35.2295C9.18685 35.568 9.34766 35.9531 9.34766 36.3848V38.9175C9.34766 38.9344 9.34131 38.9471 9.32861 38.9556C9.32015 38.9683 9.30745 38.9746 9.29053 38.9746H3.05078C3.03809 38.9746 3.02539 38.9683 3.0127 38.9556C3.00423 38.9471 3 38.9344 3 38.9175V37.7559C3 37.7432 3.00423 37.7305 3.0127 37.7178C3.02539 37.7093 3.03809 37.7051 3.05078 37.7051H8.25586V36.645C8.25586 36.5011 8.20296 36.3742 8.09717 36.2642L3.0127 31.1479C3.00423 31.1353 3 31.1226 3 31.1099V29.4912C3 29.4658 3.01058 29.4489 3.03174 29.4404C3.0529 29.432 3.07194 29.4362 3.08887 29.4531L8.86523 35.2295ZM9.29053 40.8789C9.30745 40.8789 9.32015 40.8831 9.32861 40.8916C9.34131 40.9043 9.34766 40.917 9.34766 40.9297V49.8926C9.34766 49.9053 9.34131 49.9159 9.32861 49.9243C9.32015 49.937 9.30745 49.9434 9.29053 49.9434H8.31299C8.30029 49.9434 8.2876 49.937 8.2749 49.9243C8.26644 49.9159 8.26221 49.9053 8.26221 49.8926V46.0459H3.05713C3.0402 46.0459 3.02539 46.0396 3.0127 46.0269C3.00423 46.0184 3 46.0078 3 45.9951V44.8335C3 44.8166 3.00423 44.8018 3.0127 44.7891C3.02539 44.7806 3.0402 44.7764 3.05713 44.7764H8.26221V40.9297C8.26221 40.917 8.26644 40.9043 8.2749 40.8916C8.2876 40.8831 8.30029 40.8789 8.31299 40.8789H9.29053ZM9.29053 53.1172H3.05078C3.03809 53.1172 3.02539 53.1108 3.0127 53.0981C3.00423 53.0897 3 53.077 3 53.0601V51.8984C3 51.8857 3.00423 51.873 3.0127 51.8604C3.02539 51.8519 3.03809 51.8477 3.05078 51.8477H9.29053C9.30745 51.8477 9.32015 51.8519 9.32861 51.8604C9.34131 51.873 9.34766 51.8857 9.34766 51.8984V53.0601C9.34766 53.077 9.34131 53.0897 9.32861 53.0981C9.32015 53.1108 9.30745 53.1172 9.29053 53.1172ZM9.34766 62.2769C9.34766 62.7804 9.16992 63.2078 8.81445 63.5591C8.46322 63.9146 8.03581 64.0923 7.53223 64.0923H4.81543C4.31185 64.0923 3.88232 63.9146 3.52686 63.5591C3.17562 63.2078 3 62.7804 3 62.2769V56.8369C3 56.3376 3.17562 55.9102 3.52686 55.5547C3.88232 55.1992 4.31185 55.0215 4.81543 55.0215H7.53223C8.03581 55.0215 8.46322 55.1992 8.81445 55.5547C9.16992 55.9102 9.34766 56.3376 9.34766 56.8369V62.2769ZM7.71631 62.8228C7.86442 62.8228 7.99137 62.7699 8.09717 62.6641C8.20719 62.5583 8.26221 62.4292 8.26221 62.2769V56.8369C8.26221 56.6888 8.20719 56.5597 8.09717 56.4497C7.99137 56.3439 7.86442 56.291 7.71631 56.291H4.63135C4.48324 56.291 4.35417 56.3439 4.24414 56.4497C4.13835 56.5597 4.08545 56.6888 4.08545 56.8369V62.2769C4.08545 62.4292 4.13835 62.5583 4.24414 62.6641C4.35417 62.7699 4.48324 62.8228 4.63135 62.8228H7.71631ZM9.29053 73.7979C9.30745 73.7979 9.32015 73.8021 9.32861 73.8105C9.34131 73.8232 9.34766 73.8381 9.34766 73.855V75.0166C9.34766 75.0293 9.34131 75.0399 9.32861 75.0483C9.32015 75.061 9.30745 75.0674 9.29053 75.0674H3.05078C3.03809 75.0674 3.02539 75.061 3.0127 75.0483C3.00423 75.0399 3 75.0293 3 75.0166V72.6553V72.6426C3.0127 72.1559 3.21794 71.7729 3.61572 71.4937L8.01465 68.542C8.17546 68.4193 8.25586 68.2669 8.25586 68.085V67.2725H3.05078C3.03809 67.2725 3.02539 67.2661 3.0127 67.2534C3.00423 67.245 3 67.2323 3 67.2153V66.0537C3 66.041 3.00423 66.0283 3.0127 66.0156C3.02539 66.0072 3.03809 66.0029 3.05078 66.0029H9.29053C9.30745 66.0029 9.32015 66.0072 9.32861 66.0156C9.34131 66.0283 9.34766 66.041 9.34766 66.0537V68.415V68.4277C9.33073 68.9144 9.12337 69.2974 8.72559 69.5767L4.33301 72.5283C4.16797 72.6468 4.08545 72.7992 4.08545 72.9854V73.7979H9.29053Z" fill="white"/>
</svg>
