<svg width="150" height="138" viewBox="0 0 150 138" fill="none" xmlns="http://www.w3.org/2000/svg">
<path d="M78.2521 71.5628L78.1312 71.3695C76.5898 68.8269 74.6797 65.7467 72.4554 62.2015C70.3398 58.8254 68.0308 55.1835 65.6009 51.3726C63.171 47.5616 60.6988 43.7204 58.281 39.988C55.7604 36.1046 53.3729 32.4506 51.1666 29.1168L51.0397 28.9235L51.2331 28.8027C59.1554 23.7358 67.643 19.611 76.5233 16.5123C84.4837 13.7007 92.7871 11.974 101.209 11.3786C109.339 10.8713 116.75 11.6806 123.229 13.7945C130.18 16.0412 135.79 19.6951 139.918 24.6657C141.891 28.4156 142.928 32.5866 142.94 36.8233C142.958 41.167 142.137 45.4733 140.523 49.5063C138.816 53.8175 136.424 57.825 133.438 61.3741C130.228 65.2083 126.446 68.5265 122.226 71.2125L122.038 71.3333L121.918 71.1581C119.967 68.4555 117.279 66.3713 114.175 65.1548C110.766 63.822 107.123 63.1894 103.464 63.2946C99.2752 63.3839 95.1233 64.0963 91.145 65.4085C86.6708 66.8661 82.4042 68.8962 78.4515 71.448L78.2521 71.5628ZM51.6562 29.0624C53.8262 32.3419 56.1715 35.9355 58.6437 39.7404C61.1159 43.5453 63.5276 47.3079 65.9636 51.131C68.3995 54.954 70.7085 58.5838 72.8241 61.9659C74.9397 65.3481 76.8558 68.4283 78.385 70.9347C82.3213 68.4259 86.5628 66.4307 91.006 64.9978C95.0267 63.6689 99.2236 62.9482 103.458 62.8598C107.175 62.7503 110.877 63.3955 114.338 64.7562C117.451 65.9769 120.158 68.0491 122.147 70.7354C126.258 68.0852 129.943 64.827 133.076 61.0721C136.042 57.5516 138.418 53.5744 140.112 49.295C141.708 45.3125 142.519 41.059 142.499 36.7689C142.487 32.6191 141.473 28.5335 139.543 24.8589C135.5 20.0273 129.957 16.4035 123.09 14.187C116.665 12.1094 109.309 11.3062 101.233 11.8074C92.8541 12.3976 84.5931 14.1163 76.6744 16.9169C67.8997 19.9874 59.5105 24.0631 51.6743 29.0624H51.6562Z" fill="#962EB9"/>
<path d="M61.0434 43.8593L60.7955 43.4788C68.0893 38.8072 75.9213 35.0333 84.1213 32.2392C91.4792 29.7025 99.155 28.2024 106.927 27.782C114.435 27.4317 121.277 28.3135 127.273 30.4032C133.674 32.6318 138.848 36.1529 142.662 40.8698L142.312 41.1536C138.552 36.5032 133.445 33.0304 127.122 30.832C121.186 28.7604 114.392 27.8847 106.945 28.229C99.2155 28.6491 91.5822 30.1453 84.2664 32.6741C76.1009 35.4499 68.3029 39.2058 61.0434 43.8593Z" fill="#962EB9"/>
<path d="M111.098 64.0132L110.735 63.7414C113.482 60.0165 115.683 55.9185 117.269 51.5717C118.888 47.208 119.954 42.6591 120.443 38.031C120.939 33.5376 120.833 28.9981 120.128 24.5326C119.49 20.3045 118.126 16.2182 116.097 12.4535L116.496 12.2361C118.551 16.0453 119.931 20.1809 120.576 24.4601C121.289 28.9736 121.394 33.562 120.89 38.1035C120.399 42.7689 119.325 47.3544 117.693 51.7529C116.087 56.1313 113.867 60.2594 111.098 64.0132Z" fill="#962EB9"/>
<path d="M95.5212 64.0977L95.08 64.0192C95.7148 60.1013 95.9175 56.1256 95.6844 52.1636C95.4571 47.7471 94.8852 43.3551 93.9739 39.0275C93.0665 34.6039 91.8321 30.2535 90.2807 26.0123C88.82 21.9592 86.9846 18.0508 84.7983 14.3378L85.1851 14.1023C87.388 17.84 89.2376 21.7747 90.7098 25.8553C92.2727 30.1267 93.5192 34.5071 94.4393 38.9611C95.353 43.3029 95.9289 47.7088 96.162 52.1394C96.3893 56.1369 96.1744 60.1473 95.5212 64.0977Z" fill="#962EB9"/>
<path d="M33.0028 119.571C32.3379 119.571 31.673 119.571 31.0081 119.523C26.5486 119.357 22.1594 118.359 18.0668 116.582C14.1154 114.875 10.625 112.256 7.88182 108.942L7.84555 108.887C5.33708 102.848 4.64801 96.0108 5.79646 88.558C6.86634 81.6125 9.4957 74.3892 13.5999 67.0874C17.8799 59.6032 23.1205 52.71 29.1887 46.5831C35.8281 39.829 43.2251 33.8627 51.2331 28.8027L51.4265 28.6819L51.5474 28.8691C53.7476 32.2029 56.1412 35.8569 58.6618 39.7403C61.0796 43.4788 63.5457 47.3079 65.9817 51.1309C68.4176 54.9539 70.7266 58.5837 72.8422 61.9659C75.0605 65.505 76.9706 68.6094 78.518 71.1339L78.6328 71.3211L78.4515 71.4419C74.4524 73.985 70.796 77.0296 67.5714 80.5013C64.6489 83.6133 62.1879 87.1278 60.2636 90.9376C58.5461 94.2801 57.4892 97.9219 57.1506 101.664C56.8429 105.044 57.4856 108.443 59.0063 111.478L59.103 111.659L58.9277 111.768C54.6621 114.508 50.0052 116.585 45.116 117.928C41.1701 119.016 37.096 119.568 33.0028 119.571ZM8.25054 108.7C10.949 111.945 14.3738 114.511 18.2482 116.189C22.2971 117.936 26.6368 118.913 31.0444 119.07C35.7521 119.277 40.4628 118.737 45.0012 117.469C49.7739 116.161 54.325 114.15 58.5046 111.502C57.0082 108.438 56.381 105.023 56.6913 101.628C57.0311 97.8344 58.1025 94.1428 59.8465 90.7564C61.7893 86.9068 64.2747 83.3557 67.2268 80.2114C70.4309 76.7751 74.0536 73.7538 78.0103 71.2185C76.487 68.7181 74.6193 65.6983 72.4493 62.2437C70.2793 58.7891 68.0247 55.2257 65.5948 51.4148C63.1649 47.6038 60.6927 43.7627 58.2749 40.0302C55.8571 36.2978 53.4393 32.6257 51.2875 29.3462C43.3838 34.3611 36.0825 40.2662 29.5272 46.9455C23.4855 53.0412 18.2672 59.8998 14.0049 67.3471C9.8886 74.5644 7.30759 81.7333 6.26189 88.6305C5.11343 95.9867 5.78437 102.733 8.25054 108.682V108.7Z" fill="#962EB9"/>
<path d="M22.0139 117.953C19.5538 112.324 18.768 105.952 19.6747 99.0247C20.5149 92.5442 22.8058 85.8101 26.4748 79.0156C30.2974 72.051 35.0428 65.6335 40.5827 59.9367C46.6371 53.6591 53.4232 48.1297 60.7955 43.4668L61.0433 43.8473C53.7012 48.4932 46.9418 54.0002 40.9091 60.2507C35.3986 65.9195 30.6776 72.3044 26.8737 79.233C23.247 85.9792 20.9622 92.659 20.122 99.0851C19.2274 105.928 20.0071 112.215 22.431 117.765L22.0139 117.953Z" fill="#962EB9"/>
<path d="M64.4645 83.9317C60.6716 82.7759 57.0092 81.2295 53.5361 79.3175C49.6271 77.2071 45.8757 74.8172 42.3114 72.1666C38.6259 69.4502 35.1282 66.4881 31.8423 63.3006C28.6931 60.2758 25.8075 56.9885 23.2168 53.4742L23.5795 53.2085C26.1575 56.6999 29.0268 59.9669 32.1566 62.9744C35.4292 66.1467 38.9105 69.0966 42.5774 71.8043C46.1268 74.438 49.8597 76.8156 53.7476 78.9189C57.193 80.8178 60.8273 82.3521 64.5915 83.4969L64.4645 83.9317Z" fill="#962EB9"/>
<path d="M47.8361 99.23C46.4378 99.23 45.0274 99.1736 43.6049 99.0609C38.8745 98.6916 34.2063 97.7506 29.7025 96.2585C25.2932 94.8218 21.0862 92.8266 17.1844 90.3216C13.4865 87.9781 10.204 85.0371 7.47083 81.6186L7.82745 81.3408C10.5427 84.7203 13.7982 87.6283 17.4624 89.9472C21.3334 92.4281 25.5056 94.4049 29.8778 95.8297C34.3382 97.309 38.9618 98.2419 43.6472 98.6079C48.2506 98.9943 52.8855 98.7341 57.4166 97.8348L57.5073 98.2757C54.3243 98.9206 51.0839 99.2403 47.8361 99.23Z" fill="#962EB9"/>
<path d="M46.8267 130.11C45.5573 130.11 44.3061 130.08 43.067 130.008C34.4656 129.543 27.0248 127.459 20.9501 123.829C15.062 120.417 10.4581 115.167 7.8456 108.887L7.24115 107.462L8.22036 108.67C10.9186 111.929 14.3508 114.504 18.2361 116.183C22.2884 117.934 26.6324 118.913 31.0444 119.07C35.7521 119.277 40.4629 118.737 45.0012 117.469C49.8462 116.139 54.4605 114.08 58.686 111.363L58.8975 111.231L59.0124 111.454C60.5631 114.418 62.9818 116.839 65.9454 118.394C69.267 120.119 72.938 121.067 76.6805 121.166C79.7936 121.291 82.9102 121.029 85.9588 120.387C91.3437 117.917 96.547 115.069 101.529 111.865L101.717 111.744L101.838 111.931L102.896 113.508L103.718 112.988L103.911 112.867L104.032 113.061C105.936 116.189 107.375 118.617 108.305 120.266C109.665 122.682 109.593 122.778 109.514 122.929L109.436 123.044H109.272C109.133 123.044 108.952 123.002 107.018 120.29C105.954 118.792 104.534 116.727 102.787 114.13C98.7851 116.589 94.4793 118.516 89.9784 119.861C88.6849 120.264 87.3994 120.586 86.122 120.827C81.3243 123.021 76.3777 124.874 71.319 126.372C63.3762 128.783 55.1278 130.042 46.8267 130.11ZM8.87317 110.089C11.5325 115.678 15.8229 120.331 21.1798 123.437C27.1941 127.06 34.5623 129.09 43.0911 129.561C51.8617 130.038 61.3093 128.806 71.1679 125.901C75.6189 124.597 79.9835 123.016 84.2361 121.166C81.7398 121.575 79.2081 121.729 76.6805 121.625C72.8664 121.531 69.1234 120.572 65.7339 118.822C62.7643 117.262 60.3259 114.855 58.7283 111.907C54.5219 114.587 49.9377 116.623 45.1281 117.947C40.5419 119.223 35.7828 119.769 31.0263 119.565C26.5668 119.399 22.1776 118.402 18.085 116.624C14.5963 115.104 11.46 112.879 8.87317 110.089ZM103.168 113.858C104.902 116.437 106.317 118.496 107.399 119.988C107.906 120.701 108.287 121.196 108.571 121.588C108.408 121.292 108.209 120.924 107.967 120.465C107.054 118.853 105.658 116.497 103.82 113.471L103.168 113.858ZM101.602 112.342C97.2533 115.128 92.7376 117.645 88.0804 119.879C88.6849 119.728 89.2531 119.565 89.8454 119.39C94.3059 118.061 98.5733 116.154 102.539 113.719L101.602 112.342Z" fill="#962EB9"/>
<path d="M58.8492 137.829C57.5315 137.829 56.2258 137.791 54.9323 137.714C47.0201 137.225 40.1354 135.256 34.4656 131.868C28.9537 128.673 24.603 123.808 22.0441 117.977L22.4612 117.79C24.9747 123.532 29.2507 128.327 34.6711 131.481C40.2804 134.833 47.0986 136.778 54.9384 137.261C62.9836 137.756 71.6152 136.687 80.5973 134.09C90.3421 131.215 99.6182 126.943 108.136 121.407L108.384 121.788C99.8276 127.345 90.5111 131.635 80.7243 134.525C73.6241 136.648 66.26 137.76 58.8492 137.829Z" fill="#962EB9"/>
<path d="M43.9494 135.056C41.5537 135.065 39.1749 134.656 36.9197 133.849C33.1434 132.448 29.8293 130.029 27.3452 126.861L27.6957 126.571C30.1337 129.675 33.3851 132.044 37.0889 133.414C40.577 134.654 44.3333 134.939 47.969 134.241C51.9251 133.483 55.6761 131.899 58.9761 129.591C62.812 126.927 66.1765 123.643 68.9314 119.873L69.2941 120.139C66.5124 123.953 63.1106 127.275 59.23 129.965C55.8775 132.31 52.0667 133.919 48.0476 134.688C46.6953 134.933 45.3238 135.056 43.9494 135.056Z" fill="#962EB9"/>
<path d="M73.5494 136.868C71.999 136.842 70.4759 136.455 69.1007 135.739C66.435 134.435 63.7815 132.043 61.2065 128.63L61.5692 128.359C64.0958 131.711 66.701 134.06 69.3001 135.334C71.7179 136.542 74.0451 136.73 76.1848 135.938C78.3246 135.147 80.1259 133.468 81.6249 130.901C83.1239 128.335 84.3389 124.862 85.0703 120.688L85.5176 120.767C84.7741 124.995 83.5954 128.455 82.0117 131.131C80.4281 133.806 78.5241 135.552 76.3178 136.367C75.4318 136.696 74.4946 136.865 73.5494 136.868Z" fill="#962EB9"/>
<path d="M109.412 123.02H109.248C109.109 123.02 108.928 122.977 106.994 120.266C105.67 118.405 103.814 115.682 101.463 112.167L101.336 111.979L101.529 111.853C107.741 107.881 113.587 103.366 118.998 98.3602C120.441 96.2527 121.67 94.007 122.667 91.6563C124.221 88.1724 125 84.3935 124.952 80.5797C124.902 77.2166 123.85 73.9447 121.93 71.1822L121.791 70.9889L121.99 70.8561C126.17 68.1934 129.917 64.9059 133.1 61.1082C136.061 57.575 138.429 53.5854 140.112 49.2948C141.708 45.3124 142.519 41.0589 142.499 36.7688C142.487 32.619 141.473 28.5334 139.543 24.8588L138.528 22.9382L139.918 24.6052C144.21 29.7448 146.64 35.9776 147.172 43.1224C147.704 50.2672 146.241 57.9737 142.94 66.0727C139.477 74.359 134.273 82.5124 127.418 90.3638C124.872 93.2674 122.178 96.0391 119.349 98.6682C118.234 100.283 117.023 101.83 115.722 103.301C112.329 107.135 108.424 110.484 104.117 113.254C105.966 116.273 107.362 118.647 108.275 120.266C109.635 122.681 109.563 122.778 109.484 122.929L109.412 123.02ZM101.965 112.106C104.256 115.531 106.069 118.182 107.362 120C107.87 120.713 108.251 121.208 108.535 121.6C108.372 121.304 108.172 120.936 107.931 120.477C107 118.828 105.561 116.412 103.663 113.284L103.548 113.097L103.736 112.976C108.081 110.21 112.017 106.847 115.426 102.986C116.254 102.044 117.034 101.084 117.765 100.118C112.824 104.525 107.541 108.534 101.965 112.106ZM122.419 71.1097C124.312 73.9059 125.35 77.1922 125.405 80.5677C125.455 84.447 124.665 88.2913 123.09 91.8375C122.321 93.6398 121.418 95.382 120.388 97.0496C122.734 94.7948 124.964 92.4636 127.08 90.0558C133.898 82.2769 139.078 74.1537 142.475 65.8976C145.775 57.9012 147.19 50.2551 146.706 43.1889C146.372 37.2084 144.347 31.4453 140.867 26.568C142.233 29.8051 142.946 33.2799 142.965 36.793C142.982 41.1366 142.161 45.443 140.547 49.476C138.836 53.7994 136.435 57.8174 133.438 61.374C130.278 65.1523 126.563 68.4307 122.419 71.0976V71.1097Z" fill="#962EB9"/>
<path d="M108.378 121.77L108.13 121.389C116.736 115.912 124.513 109.233 131.226 101.555C137.392 94.4406 142.07 86.9818 145.129 79.384C148.102 71.9976 149.36 64.8891 148.888 58.312C148.531 52.0457 146.233 46.0453 142.312 41.1415L142.662 40.8577C146.637 45.8413 148.96 51.9372 149.311 58.2999C149.795 64.9434 148.52 72.1184 145.515 79.5712C142.439 87.2173 137.736 94.7184 131.54 101.869C124.806 109.57 117.007 116.271 108.378 121.77Z" fill="#962EB9"/>
<path d="M127.466 101.084C124.417 101.016 121.391 100.522 118.478 99.6164L118.599 99.1816C122.54 100.329 125.992 100.794 128.875 100.583C131.758 100.371 133.789 99.5198 135.185 98.0582C136.582 96.5967 137.21 94.4949 136.999 91.91C136.751 89.1378 135.548 85.9006 133.438 82.301L133.825 82.0715C135.977 85.7315 137.192 89.0291 137.452 91.8677C137.694 94.5915 137.047 96.7778 135.53 98.3662C134.013 99.9546 131.837 100.812 128.923 101.036C128.428 101.066 127.956 101.084 127.466 101.084Z" fill="#962EB9"/>
<path d="M125.037 84.3908L124.946 83.9499C129.395 83.0861 133.665 81.4727 137.573 79.1787C140.904 77.2388 143.767 74.589 145.957 71.4179C147.953 68.4968 149.103 65.0818 149.281 61.5492C149.409 57.6894 148.475 53.8686 146.579 50.5029L146.978 50.2915C148.911 53.7236 149.864 57.6195 149.734 61.5553C149.554 65.1668 148.376 68.6579 146.331 71.6413C144.108 74.8703 141.198 77.568 137.809 79.5411C133.859 81.874 129.54 83.5142 125.037 84.3908Z" fill="#962EB9"/>
<path d="M51.2936 29.304L51.1666 29.1167C48.9483 25.7527 47.0503 22.9201 45.521 20.6614L45.0375 20.9694L44.838 21.0902L44.7171 20.8909C43.2423 18.4388 42.2993 16.79 41.9004 15.9928C41.7009 15.6002 41.5619 15.3163 41.7855 15.1714C42.0092 15.0264 42.1603 15.1714 42.6862 15.872C43.212 16.5726 44.2759 18.0462 45.648 20.0453C49.6936 17.5441 53.9956 15.4829 58.4805 13.8971C62.705 12.3823 67.1152 11.4458 71.591 11.1128C75.4 10.7906 79.2352 11.2237 82.8761 12.3872C83.9207 12.7453 84.932 13.1939 85.8984 13.7279C90.9177 12.4867 96.0373 11.6924 101.197 11.3544C103.506 11.2095 105.755 11.1732 107.943 11.2457C111.751 10.5954 115.637 10.5343 119.464 11.0645C123.771 11.6345 127.899 13.1483 131.553 15.4975C135.075 17.7839 137.954 20.9314 139.918 24.6414L140.934 26.562L139.543 24.8951C135.469 20.0151 129.927 16.4397 123.06 14.1869C118.166 12.6497 113.078 11.8119 107.949 11.6987C107.066 11.8436 106.178 12.0188 105.283 12.2301C100.133 13.4454 95.2279 15.5264 90.7763 18.3844L90.595 18.4992L90.4741 18.3301C89.2353 16.6343 87.6433 15.2269 85.8077 14.2051C82.7855 14.9479 79.7148 15.8539 76.6382 16.9168C67.8027 20.0121 59.3596 24.1288 51.4809 29.1832L51.2936 29.304ZM45.9079 20.4439C47.4009 22.6363 49.2566 25.4084 51.4265 28.6819C59.2935 23.6701 67.7153 19.5863 76.5233 16.5122C79.4529 15.5016 82.3623 14.6339 85.2516 13.9091C84.4382 13.4928 83.5959 13.1355 82.7311 12.8401C79.1468 11.694 75.3708 11.2691 71.6213 11.5899C67.1867 11.9207 62.8172 12.8492 58.6316 14.35C54.1847 15.9215 49.9191 17.9644 45.9079 20.4439ZM110.433 11.3846C114.781 11.6675 119.078 12.4787 123.229 13.8004C129.358 15.7814 134.448 18.8555 138.395 22.9503C136.556 20.1425 134.151 17.7483 131.335 15.9203C127.73 13.6047 123.658 12.1136 119.409 11.5537C116.435 11.13 113.42 11.0753 110.433 11.3906V11.3846ZM42.934 16.9893C43.4176 17.8409 44.1006 19.0126 44.9891 20.4862L45.2672 20.3111C44.294 18.8978 43.5143 17.7865 42.934 16.9893ZM86.4545 14.0782C88.1206 15.0584 89.5802 16.3527 90.7521 17.8892C95.1963 15.0581 100.086 12.9959 105.217 11.7892L105.767 11.6624C104.28 11.6624 102.744 11.7107 101.233 11.8074C96.2593 12.1426 91.3231 12.9023 86.4787 14.0782H86.4545Z" fill="#962EB9"/>
<path d="M44.4753 18.7892L44.2335 18.4087C51.7928 13.5793 59.8781 9.62605 68.333 6.62552C75.8755 3.92012 83.7433 2.22438 91.7313 1.58249C99.4139 1.02685 106.389 1.70932 112.464 3.61178C118.962 5.64107 124.178 8.99302 127.968 13.577L127.618 13.8669C123.882 9.35539 118.738 6.01552 112.325 4.04059C106.28 2.15625 99.3897 1.48586 91.7736 2.03546C83.8237 2.6781 75.9942 4.37187 68.4901 7.07244C60.0665 10.0557 52.0098 13.9865 44.4753 18.7892Z" fill="#962EB9"/>
<path d="M42.0213 15.6245L41.7795 15.2379C48.063 11.2297 54.7785 7.94155 61.7989 5.43575C68.0156 3.17567 74.5062 1.75391 81.099 1.20807C87.3914 0.74302 93.0732 1.3047 97.9814 2.86894C103.21 4.5419 107.356 7.28989 110.306 11.0405L109.949 11.3183C107.054 7.64019 102.98 4.94655 97.8605 3.30379C93.0248 1.75162 87.3853 1.20202 81.1534 1.65499C74.6009 2.19793 68.1495 3.60739 61.9682 5.84644C54.9704 8.34135 48.2786 11.6217 42.0213 15.6245Z" fill="#962EB9"/>
<path d="M116.097 12.4536C114.35 9.14839 111.843 6.3044 108.783 4.15527C106.052 2.27311 102.839 1.21065 99.5227 1.09321C95.9766 1.01718 92.4728 1.87316 89.3619 3.57547C85.5542 5.65674 82.2118 8.49285 79.5395 11.9101L79.189 11.6262C81.9009 8.15936 85.2926 5.28217 89.1564 3.17082C92.3364 1.43331 95.9173 0.560686 99.5408 0.640246C102.933 0.756037 106.221 1.83723 109.019 3.75666C112.141 5.94427 114.697 8.84248 116.478 12.212L116.097 12.4536Z" fill="#962EB9"/>
<path d="M84.7741 14.3379C83.0533 11.3226 80.8895 8.58231 78.3548 6.20864C76.2211 4.31826 74.1237 3.2553 72.1894 3.05599C71.2149 2.95479 70.2303 3.0878 69.3176 3.44395C68.405 3.8001 67.5907 4.36906 66.9428 5.1034C65.3289 6.77636 64.0898 9.37941 63.2556 12.828L62.8144 12.7253C63.6667 9.19218 64.9481 6.5227 66.6164 4.78935C67.3112 4.00529 68.1829 3.39798 69.1595 3.01776C70.136 2.63755 71.1892 2.49537 72.2317 2.60303C74.2869 2.81441 76.4629 3.91361 78.6571 5.87043C81.225 8.27385 83.4173 11.0487 85.161 14.1023L84.7741 14.3379Z" fill="#962EB9"/>
<path d="M8.85503 110.137L7.88186 108.929C5.20388 105.678 3.42052 101.786 2.70776 97.6355C2.00188 93.3768 2.28311 89.013 3.52981 84.8799C4.89492 80.3054 7.12532 76.0348 10.1002 72.2995C10.7167 71.4943 11.3635 70.7212 12.0405 69.9804C12.5361 69.014 13.056 68.0417 13.6 67.0753C15.6349 63.4722 17.9129 60.0116 20.4182 56.7175C20.2656 55.1465 20.3021 53.5629 20.527 52.0006C21.149 48.124 22.4963 44.3991 24.4982 41.0207C26.7978 37.0643 29.6084 33.4274 32.8578 30.2039C36.4081 26.619 40.3472 23.4406 44.6023 20.7278C43.1939 18.3784 42.2812 16.796 41.9004 16.0169C41.7009 15.6244 41.5619 15.3405 41.7855 15.1956C42.0092 15.0506 42.1603 15.1956 42.6862 15.8962C43.2906 16.7115 44.3968 18.2395 45.8958 20.4319C47.3948 22.6242 49.323 25.5051 51.5474 28.8872L51.6743 29.0805L51.4809 29.2013C43.5027 34.2299 36.132 40.1617 29.5152 46.8791C26.4362 50.0234 23.5555 53.3556 20.8897 56.8564C21.0734 58.5521 21.5499 60.2032 22.298 61.7364L22.3887 61.9176L22.2134 62.0323C18.5908 64.3175 15.2947 67.0826 12.4152 70.2521C9.40374 76.0143 7.32679 82.2176 6.26193 88.6305C5.12556 95.9988 5.80859 102.757 8.2808 108.712L8.85503 110.137ZM11.2366 71.6412C10.9706 71.9613 10.7107 72.2875 10.4568 72.6136C7.51872 76.3038 5.31695 80.5233 3.97106 85.043C2.73844 89.1084 2.45923 93.4027 3.15505 97.5932C3.76461 101.142 5.17204 104.506 7.27136 107.432C5.24041 101.767 4.73871 95.431 5.7965 88.5822C6.7673 82.6989 8.60034 76.9906 11.2366 71.6412ZM20.4968 57.4C18.1143 60.5643 15.9417 63.8811 13.9929 67.329L13.201 68.7724C15.7906 66.1198 18.6767 63.7731 21.8024 61.7786C21.1465 60.3856 20.7063 58.901 20.4968 57.3758V57.4ZM42.934 16.9893C43.4357 17.8832 44.1429 19.1152 45.11 20.6855L45.2188 20.8727L45.0375 20.9935C40.7262 23.7083 36.7374 26.9035 33.1479 30.5179C29.9389 33.7224 27.1631 37.3325 24.8911 41.2562C22.9194 44.5845 21.5927 48.2541 20.9803 52.0731C20.7824 53.4367 20.7297 54.8174 20.8232 56.1921C23.4209 52.8281 26.2142 49.6196 29.1888 46.5831C35.774 39.8826 43.1053 33.9574 51.0397 28.9235C48.8757 25.644 47.0201 22.8839 45.521 20.6916C44.433 19.0971 43.5687 17.8892 42.934 16.9893Z" fill="#962EB9"/>
<path d="M2.34508 93.5647C0.01794 88.0023 -0.574422 81.6608 0.580079 74.7213C1.64996 68.2469 4.20679 61.4826 8.1599 54.6277C12.3037 47.5712 17.3377 41.0758 23.1382 35.3011C29.5139 28.8926 36.5901 23.2201 44.2335 18.3904L44.4753 18.7709C36.8603 23.5786 29.8122 29.2291 23.4646 35.6152C17.6908 41.3633 12.6792 47.8281 8.55279 54.8512C4.62386 61.6638 2.09121 68.3737 1.02737 74.7817C-0.108995 81.6306 0.471278 87.8875 2.76215 93.3715L2.34508 93.5647Z" fill="#962EB9"/>
<path d="M7.28342 76.5876C5.31895 72.1727 4.78703 67.0995 5.68767 61.4887C6.52785 56.2464 8.60717 50.7443 11.8531 45.1396C15.2844 39.3355 19.4468 33.9952 24.2383 29.2496C29.5418 23.9423 35.4211 19.2427 41.7674 15.2378L42.0091 15.6243C35.6903 19.6083 29.8371 24.2858 24.5586 29.5697C19.793 34.2933 15.6549 39.6094 12.246 45.3873C9.02424 50.9497 6.9691 56.3974 6.13496 61.5853C5.24642 67.0874 5.77229 72.07 7.69444 76.4004L7.28342 76.5876Z" fill="#962EB9"/>
<path d="M23.2167 53.4742C21.0938 50.6762 19.3707 47.5967 18.097 44.3243C17.1118 41.5763 16.8881 39.245 17.414 37.3848C17.683 36.4495 18.1886 35.5991 18.882 34.9158C19.5755 34.2324 20.4334 33.7391 21.3732 33.4833C23.525 32.8008 26.372 32.8793 29.8355 33.6524L29.7388 34.0933C26.3478 33.3142 23.5794 33.2538 21.5062 33.9181C20.6413 34.1508 19.8521 34.6045 19.2162 35.2347C18.5802 35.8648 18.1195 36.6495 17.8794 37.5117C17.3777 39.2752 17.6014 41.5159 18.5504 44.1552C19.8079 47.3949 21.5107 50.4439 23.6096 53.2145L23.2167 53.4742Z" fill="#962EB9"/>
<path d="M7.47081 81.6185C5.05675 78.6681 3.36941 75.1928 2.54453 71.4721C1.84761 68.214 2.12939 64.8229 3.3545 61.7242C4.70469 58.4659 6.92536 55.6412 9.77377 53.5588C13.2705 51.0012 17.2588 49.1938 21.488 48.25L21.5968 48.6909C17.426 49.6177 13.4929 51.3987 10.0458 53.9211C7.2639 55.9536 5.09537 58.7116 3.77761 61.8934C2.58491 64.9093 2.30946 68.2098 2.98578 71.3815C3.79858 75.0325 5.45453 78.443 7.82139 81.3407L7.47081 81.6185Z" fill="#962EB9"/>
<path d="M46.8267 130.11C45.5573 130.11 44.3061 130.08 43.067 130.008C34.4656 129.543 27.0248 127.459 20.9501 123.829C15.0712 120.423 10.4722 115.185 7.85768 108.917C5.19313 105.67 3.41854 101.787 2.70776 97.6476C2.00188 93.3889 2.28311 89.0252 3.52981 84.8921C4.89492 80.3175 7.12532 76.0469 10.1002 72.3117C13.419 68.1032 17.4366 64.4955 21.9777 61.6458L22.1892 61.513L22.3041 61.7364C23.7543 64.6362 26.1539 66.9529 29.1041 68.3014C32.1808 69.7932 35.8982 70.5421 40.1898 70.5119C44.9206 70.4246 49.6097 69.6098 54.0922 68.0961C59.3676 66.3579 64.4006 63.957 69.0705 60.9513L69.2639 60.8245L69.3848 61.0238C71.1981 64.0435 73.5011 67.782 76.1848 72.0762C78.8686 76.3703 81.6793 80.8335 84.7136 85.5927C87.748 90.3519 90.7582 95.0446 93.7079 99.5622C96.6576 104.08 99.4381 108.32 101.838 111.913L101.965 112.1L101.771 112.227C92.3333 118.351 82.0718 123.104 71.2948 126.342C63.3612 128.761 55.1212 130.03 46.8267 130.11ZM21.9777 62.1652C17.5683 64.9643 13.6648 68.4888 10.4326 72.5895C7.49454 76.2797 5.29278 80.4992 3.94688 85.0189C2.71427 89.0843 2.43505 93.3786 3.13087 97.5691C3.82908 101.644 5.57918 105.466 8.20826 108.658L8.23849 108.712C10.813 114.902 15.3513 120.075 21.1556 123.437C27.1699 127.06 34.5382 129.09 43.067 129.561C51.8376 130.038 61.2851 128.806 71.1437 125.901C81.8069 122.7 91.9635 118.01 101.312 111.967C98.9364 108.416 96.2466 104.321 93.3029 99.7977C90.3592 95.2741 87.343 90.5874 84.3087 85.8282C81.2743 81.0691 78.4032 76.5213 75.7738 72.3117C73.1445 68.1021 70.9019 64.4603 69.1249 61.4405C64.4779 64.4093 59.4762 66.7833 54.2372 68.5068C49.7092 70.0297 44.9729 70.8446 40.1958 70.9226C36.3092 71.0444 32.4464 70.2737 28.9047 68.6698C25.9405 67.3249 23.5049 65.0379 21.9777 62.1652Z" fill="#962EB9"/>
<path d="M37.772 112.608C36.962 112.608 36.152 112.608 35.3542 112.565C27.2666 112.263 20.2792 110.457 14.5913 107.196C9.08613 104.164 4.76996 99.3596 2.34509 93.5648L2.76216 93.3896C5.14871 99.0905 9.39413 103.818 14.8089 106.804C20.4363 110.029 27.3512 111.81 35.3602 112.112C43.5928 112.42 52.4783 111.14 61.7687 108.313C71.8896 105.174 81.5318 100.663 90.4257 94.9056L90.6675 95.2861C81.7398 101.066 72.0611 105.596 61.9017 108.748C54.0926 111.215 45.9615 112.516 37.772 112.608Z" fill="#962EB9"/>
<path d="M35.1003 91.0764H34.2903C27.732 90.9798 22.0502 89.6752 17.402 87.2111C12.9141 84.9311 9.34308 81.184 7.28345 76.5936L7.69447 76.4063C9.71447 80.9021 13.2152 84.5705 17.6135 86.8004C22.2013 89.2162 27.8106 90.5208 34.2964 90.6174C41.5191 90.6296 48.6969 89.4815 55.5549 87.2171C63.6738 84.6191 71.4149 80.9639 78.5785 76.3459L78.8263 76.7264C71.6279 81.3737 63.8482 85.0532 55.6879 87.6701C49.0382 89.8433 42.0961 90.9919 35.1003 91.0764Z" fill="#962EB9"/>
<path d="M27.3451 126.855C24.5026 123.244 22.4849 119.055 21.4336 114.582C20.2412 109.66 19.8655 104.576 20.3214 99.5319C20.7644 94.15 21.986 88.8607 23.9481 83.8291C25.9228 78.7001 28.6817 73.9081 32.1264 69.624L32.483 69.9079C29.0741 74.1519 26.3457 78.8992 24.3954 83.98C22.4377 88.9733 21.2161 94.2241 20.7687 99.5681C20.3165 104.562 20.6902 109.596 21.8749 114.468C22.9094 118.87 24.8963 122.993 27.6957 126.547L27.3451 126.855Z" fill="#962EB9"/>
<path d="M61.2065 128.618C58.3391 124.708 55.9867 120.445 54.207 115.935C52.1626 110.888 50.5923 105.661 49.5164 100.323C48.4153 94.9848 47.8082 89.5565 47.7031 84.107C47.5621 79.2358 48.0332 74.3661 49.1054 69.6121L49.5467 69.7208C48.4808 74.4389 48.0137 79.2723 48.1564 84.107C48.4046 94.9488 50.593 105.659 54.618 115.73C56.3847 120.209 58.7188 124.443 61.5632 128.329L61.2065 128.618Z" fill="#962EB9"/>
<path d="M101.584 112.342L101.463 112.155C99.0452 108.531 96.3251 104.406 93.3271 99.7978C90.3955 95.2862 87.3672 90.5875 84.3328 85.8283C81.2985 81.0691 78.4273 76.5213 75.798 72.3118C73.1142 68.0116 70.8233 64.2912 68.9979 61.2533L68.8831 61.0661L69.0704 60.9453C73.7841 57.9627 78.1054 54.4018 81.9332 50.3459C85.25 46.8773 88.0345 42.9371 90.196 38.6533C91.9902 35.1979 93.0091 31.3933 93.182 27.5043C93.3309 24.2428 92.3911 21.0242 90.5103 18.3544L90.3713 18.1551L90.5708 18.0282C95.064 15.1405 100.017 13.0388 105.217 11.8135C109.883 10.6901 114.719 10.4443 119.476 11.0888C123.783 11.6588 127.911 13.1726 131.565 15.5218C135.087 17.8082 137.967 20.9557 139.93 24.6657C144.192 29.7691 146.622 36.002 147.129 43.1468C147.637 50.2915 146.198 57.998 142.898 66.0971C139.477 74.3592 134.273 82.5126 127.418 90.364C119.934 98.8145 111.299 106.172 101.765 112.221L101.584 112.342ZM69.4996 61.205C71.3129 64.2248 73.5555 67.8485 76.1848 72.0762C78.8142 76.3039 81.6793 80.8336 84.7136 85.5928C87.748 90.3519 90.7581 95.0446 93.7079 99.5622C96.6576 104.08 99.3413 108.175 101.717 111.726C111.147 105.715 119.691 98.4195 127.104 90.0499C133.922 82.271 139.102 74.1478 142.499 65.8917C145.799 57.8953 147.214 50.2493 146.73 43.183C146.247 36.1167 143.799 29.9684 139.574 24.9194C137.644 21.2597 134.807 18.1553 131.335 15.9023C127.73 13.5867 123.658 12.0956 119.409 11.5357C114.709 10.9011 109.931 11.1448 105.319 12.2544C100.247 13.4522 95.4126 15.4939 91.0181 18.294C92.8608 21.009 93.7786 24.2451 93.6353 27.5224C93.4654 31.4778 92.434 35.3485 90.6131 38.8647C88.4368 43.1904 85.6275 47.1678 82.2777 50.666C78.4702 54.6928 74.1782 58.2327 69.4996 61.205Z" fill="#962EB9"/>
<path d="M90.6735 95.2861L90.4318 94.9056C99.4093 89.2093 107.573 82.324 114.7 74.4375C121.223 67.1901 126.221 59.5742 129.558 51.8979C132.798 44.4391 134.273 37.3305 133.94 30.7595C133.608 24.1885 131.486 18.5173 127.618 13.8487L127.968 13.5588C131.897 18.312 134.061 24.0918 134.394 30.7414C134.726 37.3909 133.239 44.5538 129.975 52.0791C126.62 59.7977 121.597 67.4135 115.063 74.7395C107.9 82.6586 99.6956 89.5704 90.6735 95.2861Z" fill="#962EB9"/>
<path d="M78.8263 76.7085L78.5785 76.3281C85.8149 71.7493 92.4229 66.2471 98.2352 59.9609C103.241 54.6319 107.394 48.5632 110.548 41.969C113.31 35.9899 114.664 30.2885 114.574 25.016C114.483 19.7435 112.929 15.1232 109.95 11.3364L110.306 11.0586C113.392 15.0533 115.054 19.9637 115.027 25.01C115.124 30.3489 113.752 36.1167 110.959 42.1623C107.786 48.8016 103.609 54.9128 98.5737 60.281C92.7319 66.5891 86.0938 72.1113 78.8263 76.7085Z" fill="#962EB9"/>
<path d="M133.402 82.301C130.909 78.1977 127.949 74.3958 124.583 70.9708C120.821 67.0881 116.739 63.5283 112.379 60.3291C108.057 57.1121 103.466 54.2711 98.6583 51.8375C94.4395 49.6517 89.9755 47.9751 85.3604 46.8427L85.4632 46.4019C90.1119 47.5422 94.6084 49.2311 98.8578 51.4328C103.687 53.8797 108.3 56.7326 112.645 59.9607C117.023 63.1781 121.123 66.7559 124.904 70.6567C128.303 74.1031 131.289 77.9339 133.801 82.0715L133.402 82.301Z" fill="#962EB9"/>
<path d="M146.579 50.5029C144.374 46.5661 141.373 43.1311 137.766 40.4169C133.781 37.3779 129.345 34.9795 124.62 33.3083C119.598 31.4973 114.346 30.3994 109.019 30.047C103.667 29.6538 98.2872 30.0857 93.0672 31.3273L92.9584 30.8865C98.224 29.6348 103.651 29.1989 109.049 29.594C114.416 29.9555 119.706 31.0654 124.765 32.8916C129.544 34.5797 134.031 37.0025 138.063 40.0726C141.722 42.8233 144.765 46.3082 146.996 50.3036L146.579 50.5029Z" fill="#962EB9"/>
<path d="M60.5903 137.998C59.9858 137.998 59.3814 137.998 58.8494 137.998C56.9938 137.931 54.5397 137.762 52.7324 137.581C51.0158 137.4 48.7853 137.025 47.8968 136.874C45.6724 136.482 42.8496 135.745 41.3627 135.334C40.3351 135.057 39.0718 134.616 37.9536 134.223L36.8897 133.861C34.5337 132.978 32.2327 131.956 29.999 130.799C27.4372 129.466 24.9801 127.942 22.6489 126.239C20.2327 124.459 17.9554 122.499 15.8367 120.374C9.78813 114.268 5.27261 106.817 2.65966 98.632C2.23655 97.2429 1.77112 95.6545 1.48703 94.4043C1.09838 92.8335 0.795703 91.2428 0.580349 89.6391L0.519903 89.0351C0.169508 86.3639 -0.00414529 83.6724 7.51046e-05 80.9783C0.0907428 78.6712 0.332523 75.4522 0.604526 72.9699C0.749595 71.7137 1.08204 70.1072 1.348 68.8207V68.6939C1.68045 67.1176 2.26677 64.9494 3.16136 62.0504C3.54216 60.7942 4.18288 59.1514 4.64831 57.9435C5.93498 54.7627 7.43334 51.6716 9.13333 48.6909C9.93121 47.3018 11.0374 45.4778 11.8957 44.1552C12.2644 43.5875 13.57 41.6065 14.7124 40.1087C16.4653 37.8137 18.8348 34.963 20.3338 33.2236C21.041 32.3841 21.9779 31.4178 22.8362 30.5722L23.6039 29.775C24.6496 28.6879 25.9673 27.4196 26.9646 26.5499C29.0137 24.738 31.8426 22.3766 34.0005 20.6492C34.0005 20.6492 37.2584 18.0885 41.7858 15.2136C46.1922 12.4173 49.9519 10.5209 49.9821 10.5088C52.4362 9.30091 55.7788 7.76687 58.2933 6.67371C59.5023 6.14827 61.1403 5.56243 62.5729 5.04907C64.4285 4.39076 65.9094 3.90155 66.9793 3.61165C69.6147 2.89295 73.0601 2.04137 75.5504 1.49177C78.5264 0.906162 81.5334 0.490772 84.5567 0.247623C86.0981 0.114753 88.0867 0.0181187 89.5072 0C91.3206 0 93.4422 1.79993e-07 94.9473 0.108712C95.9386 0.169108 97.8184 0.295938 99.2389 0.489204C101.197 0.754944 103.561 1.15355 105.283 1.50385C106.432 1.73939 108.118 2.1078 109.424 2.54869C111.515 3.207 114.205 4.16729 116.121 4.92224C118.724 6.04589 121.248 7.3433 123.677 8.80567C128.616 11.8308 133.045 15.6181 136.799 20.0272C136.908 20.154 137.023 20.2808 137.126 20.4077C138.377 22.0323 140.686 25.1125 142.233 27.6551C143.324 29.5487 144.319 31.4959 145.213 33.4893L145.461 34.0208C147.055 37.7476 148.24 41.6354 148.997 45.6168C149.269 47.1085 149.565 48.8117 149.662 50.1223V50.4726C149.924 53.1355 150.019 55.8122 149.946 58.487C149.759 61.6397 149.342 65.2936 148.949 67.8C148.598 69.932 147.867 72.6317 147.275 74.8301L147.184 75.1683C146.055 78.8953 144.641 82.5298 142.953 86.0395C142.723 86.4804 142.481 86.9696 142.227 87.4709C141.55 88.8056 140.789 90.3155 140.082 91.463L139.344 92.6709C138.74 93.7158 137.984 94.9056 137.374 95.8296C136.63 96.9348 135.204 99.0306 133.995 100.565C131.456 103.778 128.029 107.546 127.038 108.621C126.046 109.696 124.735 110.898 122.921 112.614C121.664 113.761 119.953 115.241 118.69 116.298C117.796 117.022 116.695 117.862 115.626 118.665L114.229 119.728C112.779 120.845 110.82 122.144 109.478 122.977C107.52 124.185 103.784 126.468 100.768 127.978C97.4497 129.676 94.0347 131.178 90.5408 132.478C87.0795 133.76 83.5453 134.837 79.9569 135.703C76.3519 136.571 72.6929 137.196 69.0042 137.575C66.7919 137.786 63.5339 137.998 60.5903 137.998ZM90.5408 0.434848H89.5132C88.1049 0.434848 86.1283 0.5496 84.593 0.676431C81.5899 0.922099 78.6032 1.33748 75.6471 1.92058C73.1628 2.46414 69.7235 3.30968 67.0942 4.02838C66.0424 4.31828 64.5676 4.80145 62.724 5.45976C61.2975 5.96708 59.7017 6.55292 58.4928 7.07232C55.9843 8.15944 52.6478 9.69952 50.1997 10.8954C50.1635 10.8954 46.4945 12.7555 42.0457 15.576C37.5969 18.3965 34.3329 20.9512 34.3027 20.9754C32.1448 22.7027 29.328 25.0642 27.279 26.8639C26.3058 27.7155 24.97 29.0019 23.9484 30.0649L23.1868 30.8682C22.3527 31.7258 21.3735 32.68 20.7086 33.5135C19.2156 35.2468 16.8522 38.0854 15.0993 40.3805C13.9689 41.8602 12.6815 43.829 12.3067 44.3968C11.4544 45.7134 10.3483 47.5253 9.56249 48.9083C7.8782 51.8858 6.39598 54.9729 5.12582 58.1488C4.66039 59.3567 4.02572 60.9874 3.65096 62.2255C2.77451 65.0883 2.19423 67.2384 1.86783 68.8086V68.9294C1.60187 70.2098 1.26338 71.8043 1.1304 73.0424C0.852352 75.5126 0.610571 78.7135 0.525948 81.0146C0.52329 83.6863 0.694915 86.3554 1.03973 89.0049L1.10622 89.6089C1.3186 91.1942 1.61724 92.7668 2.00081 94.3197C2.2849 95.5276 2.74428 97.116 3.16136 98.4991C3.89314 100.754 4.76525 102.96 5.77258 105.106C8.39618 110.633 11.9311 115.68 16.2296 120.036C18.3372 122.137 20.5959 124.081 22.9874 125.852C25.2999 127.539 27.7368 129.05 30.277 130.37C32.4903 131.514 34.7713 132.523 37.1073 133.39C37.4398 133.498 37.8025 133.625 38.1712 133.758C39.2834 134.145 40.5406 134.579 41.5561 134.857C42.765 135.183 45.757 135.981 48.0479 136.385C48.9183 136.536 51.1427 136.911 52.8412 137.086C54.6545 137.267 57.0724 137.436 58.928 137.503C62.2776 137.568 65.6281 137.435 68.9619 137.104C72.626 136.727 76.2608 136.105 79.842 135.244C83.3961 134.383 86.896 133.312 90.3232 132.037C93.8026 130.745 97.2034 129.25 100.508 127.561C103.53 126.058 107.224 123.793 109.176 122.579C110.512 121.745 112.452 120.465 113.891 119.36C114.32 119.028 114.797 118.665 115.293 118.297C116.357 117.487 117.457 116.654 118.346 115.935C119.633 114.884 121.338 113.411 122.577 112.269C124.42 110.584 125.762 109.28 126.675 108.277C127.588 107.275 131.081 103.445 133.608 100.245C134.817 98.7226 136.225 96.6208 136.963 95.5397C137.567 94.6277 138.292 93.444 138.927 92.3991C139.187 91.9703 139.435 91.5596 139.671 91.1912C140.366 90.0618 141.121 88.558 141.792 87.2293C142.046 86.728 142.294 86.2388 142.524 85.7979C144.194 82.3127 145.594 78.7045 146.712 75.0052L146.809 74.667C147.414 72.4988 148.127 69.7931 148.471 67.6853C148.888 65.1909 149.275 61.5551 149.463 58.4206C149.535 55.7659 149.44 53.1093 149.179 50.4665V50.1162C149.076 48.8298 148.786 47.1387 148.514 45.659C147.769 41.718 146.595 37.8701 145.014 34.1839L144.766 33.6524C143.879 31.6731 142.893 29.74 141.81 27.8605C140.275 25.3601 137.978 22.298 136.745 20.6915L136.419 20.3171C134.159 17.7397 131.394 15.6533 128.295 14.1869H128.265L128.156 14.1326L128.023 14.0722C124.447 12.4227 120.591 11.4636 116.659 11.2457C112.335 10.9997 108.001 11.4628 103.827 12.6166C99.2991 13.8526 94.9819 15.758 91.0183 18.2697C92.8611 20.9846 93.7789 24.2208 93.6356 27.4981C93.4657 31.4535 92.4343 35.3242 90.6133 38.8404C88.4371 43.1661 85.6278 47.1435 82.278 50.6417C78.4244 54.7268 74.0725 58.3122 69.3246 61.3136C64.8654 64.1816 60.0783 66.5053 55.0656 68.2349C50.7395 69.7564 46.2198 70.6592 41.6407 70.9165C37.8677 71.1629 34.0839 70.641 30.5188 69.3824C27.4964 68.3321 24.8695 66.38 22.9934 63.7898C22.8906 63.6388 22.7879 63.4938 22.6912 63.3428L22.4071 62.8838C22.3164 62.7268 22.2257 62.5698 22.1411 62.4128L21.8873 61.9236C20.444 58.8326 19.9699 55.3777 20.5272 52.0126C21.1493 48.136 22.4965 44.4111 24.4985 41.0327C26.7971 37.0721 29.6078 33.4311 32.858 30.2038C36.4604 26.5655 40.4631 23.3461 44.7899 20.607C49.0533 17.8863 53.6118 15.6576 58.378 13.9635C62.5722 12.4471 66.9513 11.5005 71.3978 11.149C75.1884 10.821 79.0066 11.2312 82.6406 12.3569C85.8269 13.3198 88.6385 15.2411 90.6919 17.859L90.7524 17.9375C94.7632 15.3956 99.1311 13.4659 103.712 12.212C107.932 11.0512 112.313 10.5841 116.683 10.8289C120.668 11.0419 124.576 12.0028 128.204 13.6615C129.67 14.3397 131.072 15.1482 132.393 16.0773C131.607 15.3405 130.858 14.6882 130.096 14.0299C127.994 12.2432 125.753 10.6274 123.393 9.19824C120.987 7.74473 118.485 6.45732 115.904 5.34501C114 4.59006 111.322 3.64185 109.255 2.9775C107.967 2.57285 106.299 2.18028 105.162 1.94474C103.5 1.60652 101.095 1.20187 99.1724 0.936132C97.764 0.748905 95.9023 0.622075 94.911 0.56168C93.6961 0.477126 92.0943 0.434848 90.5408 0.434848ZM74.0091 11.5114C73.1689 11.5114 72.3106 11.5416 71.4281 11.602C67.023 11.9485 62.6845 12.8849 58.5291 14.3862C53.7955 16.0697 49.2692 18.2865 45.0377 20.9935C40.7264 23.7082 36.7377 26.9035 33.1482 30.5179C29.9392 33.7224 27.1634 37.3324 24.8914 41.2562C22.9197 44.5845 21.5929 48.2541 20.9806 52.073C20.4299 55.3531 20.8895 58.723 22.2983 61.7363C22.3769 61.8994 22.4554 62.0504 22.5401 62.2074C22.6247 62.3644 22.7093 62.5154 22.8 62.6664C22.8906 62.8174 22.9753 62.9624 23.072 63.1073L23.3621 63.5361C25.1825 66.0514 27.7309 67.9485 30.6639 68.9717C34.1706 70.2104 37.8932 70.7221 41.6045 70.4756C46.1406 70.2229 50.6179 69.3282 54.9024 67.8182C59.8806 66.0999 64.6352 63.7925 69.0647 60.9451C73.7784 57.9625 78.0996 54.4017 81.9274 50.3457C85.2443 46.8772 88.0288 42.9369 90.1902 38.6531C91.9844 35.1977 93.0033 31.3931 93.1762 27.5041C93.3251 24.2426 92.3853 21.0241 90.5045 18.3542L90.4562 18.2878L90.4139 18.2274L90.3232 18.1066C88.3165 15.5598 85.5725 13.6933 82.4654 12.7616C79.7309 11.8991 76.8764 11.4771 74.0091 11.5114Z" fill="#962EB9"/>
</svg>
