<svg width="1854" height="470" viewBox="0 0 1854 470" fill="none" xmlns="http://www.w3.org/2000/svg">
<line x1="59" y1="39.5" x2="59" y2="468.5" stroke="white" stroke-opacity="0.1" stroke-width="1.5"/>
<line x1="132" y1="39.5" x2="132" y2="468.5" stroke="white" stroke-opacity="0.1" stroke-width="1.5"/>
<line x1="205" y1="39.5" x2="205" y2="468.5" stroke="white" stroke-opacity="0.1" stroke-width="1.5"/>
<line x1="278" y1="39.5" x2="278" y2="468.5" stroke="white" stroke-opacity="0.1" stroke-width="1.5"/>
<line x1="351" y1="39.5" x2="351" y2="468.5" stroke="white" stroke-opacity="0.1" stroke-width="1.5"/>
<line x1="424" y1="39.5" x2="424" y2="458.5" stroke="white" stroke-opacity="0.1" stroke-width="1.5"/>
<line x1="497" y1="39.5" x2="497" y2="455.5" stroke="white" stroke-opacity="0.1" stroke-width="1.5"/>
<line x1="570" y1="39.5" x2="570" y2="455.5" stroke="white" stroke-opacity="0.1" stroke-width="1.5"/>
<line x1="643.25" y1="78.25" x2="0.25" y2="78.25" stroke="white" stroke-opacity="0.1" stroke-width="1.5"/>
<line x1="643.25" y1="151.25" x2="0.25" y2="151.25" stroke="white" stroke-opacity="0.1" stroke-width="1.5"/>
<line x1="643.25" y1="224.25" x2="25.25" y2="224.25" stroke="white" stroke-opacity="0.1" stroke-width="1.5"/>
<line x1="643.25" y1="297.25" x2="25.25" y2="297.25" stroke="white" stroke-opacity="0.1" stroke-width="1.5"/>
<line x1="643.25" y1="370.25" x2="0.25" y2="370.25" stroke="white" stroke-opacity="0.1" stroke-width="1.5"/>
<line x1="643.25" y1="443.25" x2="0.25" y2="443.25" stroke="white" stroke-opacity="0.1" stroke-width="1.5"/>
<line x1="642" y1="39.5" x2="642" y2="463.5" stroke="white" stroke-opacity="0.1" stroke-width="1.5"/>
<line x1="715" y1="39.5" x2="715" y2="455.5" stroke="white" stroke-opacity="0.1" stroke-width="1.5"/>
<line x1="788" y1="39.5" x2="788" y2="455.5" stroke="white" stroke-opacity="0.1" stroke-width="1.5"/>
<line x1="861" y1="39.5" x2="861" y2="455.5" stroke="white" stroke-opacity="0.1" stroke-width="1.5"/>
<line x1="934" y1="39.5" x2="934" y2="455.5" stroke="white" stroke-opacity="0.1" stroke-width="1.5"/>
<line x1="1007" y1="39.5" x2="1007" y2="455.5" stroke="white" stroke-opacity="0.1" stroke-width="1.5"/>
<line x1="1080" y1="39.5" x2="1080" y2="455.5" stroke="white" stroke-opacity="0.1" stroke-width="1.5"/>
<line x1="1153" y1="39.5" x2="1153" y2="455.5" stroke="white" stroke-opacity="0.1" stroke-width="1.5"/>
<line x1="1226.25" y1="78.25" x2="641.25" y2="78.25" stroke="white" stroke-opacity="0.1" stroke-width="1.5"/>
<line x1="1226.25" y1="151.25" x2="641.25" y2="151.25" stroke="white" stroke-opacity="0.1" stroke-width="1.5"/>
<line x1="1226.25" y1="224.25" x2="641.25" y2="224.25" stroke="white" stroke-opacity="0.1" stroke-width="1.5"/>
<line x1="1226.25" y1="297.25" x2="641.25" y2="297.25" stroke="white" stroke-opacity="0.1" stroke-width="1.5"/>
<line x1="1226.25" y1="370.25" x2="641.25" y2="370.25" stroke="white" stroke-opacity="0.1" stroke-width="1.5"/>
<line x1="1226.25" y1="443.25" x2="641.25" y2="443.25" stroke="white" stroke-opacity="0.1" stroke-width="1.5"/>
<line x1="1227" y1="39.5" x2="1227" y2="455.5" stroke="white" stroke-opacity="0.1" stroke-width="1.5"/>
<line x1="1300" y1="39.5" x2="1300" y2="455.5" stroke="white" stroke-opacity="0.1" stroke-width="1.5"/>
<line x1="1373" y1="39.5" x2="1373" y2="466.5" stroke="white" stroke-opacity="0.1" stroke-width="1.5"/>
<line x1="1446" y1="39.5" x2="1446" y2="468.5" stroke="white" stroke-opacity="0.1" stroke-width="1.5"/>
<line x1="1519" y1="39.5" x2="1519" y2="468.5" stroke="white" stroke-opacity="0.1" stroke-width="1.5"/>
<line x1="1592" y1="39.5" x2="1592" y2="468.5" stroke="white" stroke-opacity="0.1" stroke-width="1.5"/>
<line x1="1665" y1="39.5" x2="1665" y2="468.5" stroke="white" stroke-opacity="0.1" stroke-width="1.5"/>
<line x1="1738" y1="39.5" x2="1738" y2="468.5" stroke="white" stroke-opacity="0.1" stroke-width="1.5"/>
<line x1="1808" y1="39.5" x2="1808" y2="468.5" stroke="white" stroke-opacity="0.1" stroke-width="1.5"/>
<line x1="1807.25" y1="78.25" x2="1226.25" y2="78.25" stroke="white" stroke-opacity="0.1" stroke-width="1.5"/>
<line x1="1807.25" y1="151.25" x2="1226.25" y2="151.25" stroke="white" stroke-opacity="0.1" stroke-width="1.5"/>
<line x1="1807.25" y1="224.25" x2="1226.25" y2="224.25" stroke="white" stroke-opacity="0.1" stroke-width="1.5"/>
<line x1="1807.25" y1="297.25" x2="1226.25" y2="297.25" stroke="white" stroke-opacity="0.1" stroke-width="1.5"/>
<line x1="1807.25" y1="370.25" x2="1226.25" y2="370.25" stroke="white" stroke-opacity="0.1" stroke-width="1.5"/>
<line x1="1832.25" y1="443.25" x2="1226.25" y2="443.25" stroke="white" stroke-opacity="0.1" stroke-width="1.5"/>
<path d="M1847.75 5L1807.75 39.5H24.75L0.75 82.5V161.5L24.75 191.5V332L0.75 352V468.5H400.75L426.75 453.5H625.75L653.75 468.5H679.75V453.5H1299.25L1383.75 468.5H1831.75V399.5L1807.75 386.5V82.5" stroke="white" stroke-width="1.5"/>
<circle cx="1848.25" cy="5" r="5" fill="white"/>
</svg>
