<svg width="562" height="67" viewBox="0 0 562 67" fill="none" xmlns="http://www.w3.org/2000/svg">
<path d="M309.5 34H320.5L309.5 15H299L309.5 34Z" fill="white"/>
<path d="M328 34H339L328 15H317.5L328 34Z" fill="white"/>
<path d="M346.5 34H357.5L346.5 15H336L346.5 34Z" fill="white"/>
<path d="M365 34H376L365 15H354.5L365 34Z" fill="white"/>
<path d="M383.5 34H394.5L383.5 15H373L383.5 34Z" fill="white"/>
<path d="M402 34H413L402 15H391.5L402 34Z" fill="white"/>
<path d="M420.5 34H431.5L420.5 15H410L420.5 34Z" fill="white"/>
<path d="M439 34H450L439 15H428.5L439 34Z" fill="white"/>
<path d="M457.5 34H468.5L457.5 15H447L457.5 34Z" fill="white"/>
<path d="M476 34H487L476 15H465.5L476 34Z" fill="white"/>
<path d="M494.5 34H505.5L494.5 15H484L494.5 34Z" fill="white"/>
<path d="M513 34H524L513 15H502.5L513 34Z" fill="white"/>
<path d="M531.5 34H542.5L531.5 15H521L531.5 34Z" fill="white"/>
<path d="M85.9842 39H545.601L558.011 63" stroke="white" stroke-width="1.5"/>
<ellipse cx="3.54574" cy="4" rx="3.54574" ry="4" transform="matrix(1 0 0 -1 80.6656 43)" fill="white"/>
<ellipse cx="3.54574" cy="4" rx="3.54574" ry="4" transform="matrix(1 0 0 -1 554.909 67)" fill="white"/>
<path d="M303.161 39L280.114 17H5.31862" stroke="white" stroke-width="1.5"/>
<ellipse cx="3.54574" cy="4" rx="3.54574" ry="4" transform="matrix(1 0 0 -1 0 21)" fill="white"/>
<path d="M16.8423 10L129.912 9.5" stroke="white"/>
<path d="M103.104 0L91.3029 10H108.052H280.114V5.5H141.932L132.034 0H103.104Z" fill="white"/>
</svg>
