<svg width="399" height="250" viewBox="0 0 399 250" fill="none" xmlns="http://www.w3.org/2000/svg">
<path d="M49.3379 239.405C49.3379 241.703 47.5279 243.564 45.2941 243.564H9.36313C7.12933 243.564 5.31934 241.703 5.31934 239.405C5.31934 237.108 7.12933 235.247 9.36313 235.247H45.2941C47.5279 235.247 49.3379 237.108 49.3379 239.405Z" fill="#962EB9"/>
<path d="M49.3379 228.783C49.3379 231.08 47.5279 232.942 45.2941 232.942H9.36313C7.12933 232.942 5.31934 231.08 5.31934 228.783C5.31934 226.486 7.12933 224.624 9.36313 224.624H45.2941C47.5279 224.624 49.3379 226.486 49.3379 228.783Z" fill="#962EB9"/>
<path d="M49.3379 218.156C49.3379 220.454 47.5279 222.315 45.2941 222.315H9.36313C7.12933 222.315 5.31934 220.454 5.31934 218.156C5.31934 215.859 7.12933 213.998 9.36313 213.998H45.2941C47.5279 214.002 49.3379 215.863 49.3379 218.156Z" fill="#962EB9"/>
<path d="M49.3379 207.534C49.3379 209.831 47.5279 211.692 45.2941 211.692H9.36313C7.12933 211.692 5.31934 209.831 5.31934 207.534C5.31934 205.237 7.12933 203.375 9.36313 203.375H45.2941C47.5279 203.379 49.3379 205.241 49.3379 207.534Z" fill="#962EB9"/>
<path d="M49.3379 196.911C49.3379 199.209 47.5279 201.07 45.2941 201.07H9.36313C7.12933 201.07 5.31934 199.209 5.31934 196.911C5.31934 194.614 7.12933 192.753 9.36313 192.753H45.2941C47.5279 192.753 49.3379 194.614 49.3379 196.911Z" fill="#962EB9"/>
<path d="M49.3379 186.289C49.3379 188.586 47.5279 190.447 45.2941 190.447H9.36313C7.12933 190.447 5.31934 188.586 5.31934 186.289C5.31934 183.992 7.12933 182.13 9.36313 182.13H45.2941C47.5279 182.13 49.3379 183.992 49.3379 186.289Z" fill="#962EB9"/>
<path d="M49.3379 175.666C49.3379 177.964 47.5279 179.825 45.2941 179.825H9.36313C7.12933 179.825 5.31934 177.964 5.31934 175.666C5.31934 173.369 7.12933 171.508 9.36313 171.508H45.2941C47.5279 171.508 49.3379 173.369 49.3379 175.666Z" fill="#962EB9"/>
<path d="M49.3379 165.04C49.3379 167.337 47.5279 169.198 45.2941 169.198H9.36313C7.12933 169.198 5.31934 167.337 5.31934 165.04C5.31934 162.743 7.12933 160.881 9.36313 160.881H45.2941C47.5279 160.885 49.3379 162.747 49.3379 165.04Z" fill="#962EB9"/>
<path d="M49.3379 154.417C49.3379 156.715 47.5279 158.576 45.2941 158.576H9.36313C7.12933 158.576 5.31934 156.715 5.31934 154.417C5.31934 152.12 7.12933 150.259 9.36313 150.259H45.2941C47.5279 150.263 49.3379 152.124 49.3379 154.417Z" fill="#962EB9"/>
<path d="M49.3379 143.795C49.3379 146.092 47.5279 147.953 45.2941 147.953H9.36313C7.12933 147.953 5.31934 146.092 5.31934 143.795C5.31934 141.498 7.12933 139.636 9.36313 139.636H45.2941C47.5279 139.636 49.3379 141.498 49.3379 143.795Z" fill="#962EB9"/>
<path d="M49.3379 133.172C49.3379 135.47 47.5279 137.331 45.2941 137.331H9.36313C7.12933 137.331 5.31934 135.47 5.31934 133.172C5.31934 130.875 7.12933 129.014 9.36313 129.014H45.2941C47.5279 129.014 49.3379 130.875 49.3379 133.172Z" fill="#962EB9"/>
<path d="M98.5361 239.405C98.5361 241.703 96.7261 243.564 94.4923 243.564H58.5614C56.3276 243.564 54.5176 241.703 54.5176 239.405C54.5176 237.108 56.3276 235.247 58.5614 235.247H94.4923C96.7261 235.247 98.5361 237.108 98.5361 239.405Z" fill="#962EB9"/>
<path d="M98.5361 228.783C98.5361 231.08 96.7261 232.942 94.4923 232.942H58.5614C56.3276 232.942 54.5176 231.08 54.5176 228.783C54.5176 226.486 56.3276 224.624 58.5614 224.624H94.4923C96.7261 224.624 98.5361 226.486 98.5361 228.783Z" fill="#962EB9"/>
<path d="M98.5361 218.156C98.5361 220.454 96.7261 222.315 94.4923 222.315H58.5614C56.3276 222.315 54.5176 220.454 54.5176 218.156C54.5176 215.859 56.3276 213.998 58.5614 213.998H94.4923C96.7261 214.002 98.5361 215.863 98.5361 218.156Z" fill="#962EB9"/>
<path d="M98.5361 207.534C98.5361 209.831 96.7261 211.692 94.4923 211.692H58.5614C56.3276 211.692 54.5176 209.831 54.5176 207.534C54.5176 205.237 56.3276 203.375 58.5614 203.375H94.4923C96.7261 203.379 98.5361 205.241 98.5361 207.534Z" fill="#962EB9"/>
<path d="M98.5361 196.911C98.5361 199.209 96.7261 201.07 94.4923 201.07H58.5614C56.3276 201.07 54.5176 199.209 54.5176 196.911C54.5176 194.614 56.3276 192.753 58.5614 192.753H94.4923C96.7261 192.753 98.5361 194.614 98.5361 196.911Z" fill="#962EB9"/>
<path d="M98.5361 186.289C98.5361 188.586 96.7261 190.447 94.4923 190.447H58.5614C56.3276 190.447 54.5176 188.586 54.5176 186.289C54.5176 183.992 56.3276 182.13 58.5614 182.13H94.4923C96.7261 182.13 98.5361 183.992 98.5361 186.289Z" fill="#962EB9"/>
<path d="M98.5361 175.666C98.5361 177.964 96.7261 179.825 94.4923 179.825H58.5614C56.3276 179.825 54.5176 177.964 54.5176 175.666C54.5176 173.369 56.3276 171.508 58.5614 171.508H94.4923C96.7261 171.508 98.5361 173.369 98.5361 175.666Z" fill="#962EB9"/>
<path d="M98.5361 165.04C98.5361 167.337 96.7261 169.198 94.4923 169.198H58.5614C56.3276 169.198 54.5176 167.337 54.5176 165.04C54.5176 162.743 56.3276 160.881 58.5614 160.881H94.4923C96.7261 160.885 98.5361 162.747 98.5361 165.04Z" fill="#962EB9"/>
<path d="M98.5361 154.417C98.5361 156.715 96.7261 158.576 94.4923 158.576H58.5614C56.3276 158.576 54.5176 156.715 54.5176 154.417C54.5176 152.12 56.3276 150.259 58.5614 150.259H94.4923C96.7261 150.263 98.5361 152.124 98.5361 154.417Z" fill="#962EB9"/>
<path d="M98.5361 143.795C98.5361 146.092 96.7261 147.953 94.4923 147.953H58.5614C56.3276 147.953 54.5176 146.092 54.5176 143.795C54.5176 141.498 56.3276 139.636 58.5614 139.636H94.4923C96.7261 139.636 98.5361 141.498 98.5361 143.795Z" fill="#962EB9"/>
<path d="M98.5361 133.172C98.5361 135.47 96.7261 137.331 94.4923 137.331H58.5614C56.3276 137.331 54.5176 135.47 54.5176 133.172C54.5176 130.875 56.3276 129.014 58.5614 129.014H94.4923C96.7261 129.014 98.5361 130.875 98.5361 133.172Z" fill="#962EB9"/>
<path d="M98.5361 122.55C98.5361 124.847 96.7261 126.708 94.4923 126.708H58.5614C56.3276 126.708 54.5176 124.847 54.5176 122.55C54.5176 120.253 56.3276 118.391 58.5614 118.391H94.4923C96.7261 118.391 98.5361 120.253 98.5361 122.55Z" fill="#962EB9"/>
<path d="M98.5361 111.927C98.5361 114.225 96.7261 116.086 94.4923 116.086H58.5614C56.3276 116.086 54.5176 114.225 54.5176 111.927C54.5176 109.63 56.3276 107.769 58.5614 107.769H94.4923C96.7261 107.769 98.5361 109.63 98.5361 111.927Z" fill="#962EB9"/>
<path d="M147.736 239.405C147.736 241.703 145.926 243.564 143.692 243.564H107.761C105.527 243.564 103.717 241.703 103.717 239.405C103.717 237.108 105.527 235.247 107.761 235.247H143.692C145.926 235.247 147.736 237.108 147.736 239.405Z" fill="#962EB9"/>
<path d="M147.736 228.783C147.736 231.08 145.926 232.942 143.692 232.942H107.761C105.527 232.942 103.717 231.08 103.717 228.783C103.717 226.486 105.527 224.624 107.761 224.624H143.692C145.926 224.624 147.736 226.486 147.736 228.783Z" fill="#962EB9"/>
<path d="M147.736 218.156C147.736 220.454 145.926 222.315 143.692 222.315H107.761C105.527 222.315 103.717 220.454 103.717 218.156C103.717 215.859 105.527 213.998 107.761 213.998H143.692C145.926 214.002 147.736 215.863 147.736 218.156Z" fill="#962EB9"/>
<path d="M147.736 207.534C147.736 209.831 145.926 211.692 143.692 211.692H107.761C105.527 211.692 103.717 209.831 103.717 207.534C103.717 205.237 105.527 203.375 107.761 203.375H143.692C145.926 203.379 147.736 205.237 147.736 207.534Z" fill="#962EB9"/>
<path d="M196.931 239.405C196.931 241.703 195.121 243.564 192.887 243.564H156.956C154.722 243.564 152.912 241.703 152.912 239.405C152.912 237.108 154.722 235.247 156.956 235.247H192.887C195.121 235.247 196.931 237.108 196.931 239.405Z" fill="#962EB9"/>
<path d="M196.931 228.783C196.931 231.08 195.121 232.942 192.887 232.942H156.956C154.722 232.942 152.912 231.08 152.912 228.783C152.912 226.486 154.722 224.624 156.956 224.624H192.887C195.121 224.624 196.931 226.486 196.931 228.783Z" fill="#962EB9"/>
<path d="M196.931 218.156C196.931 220.454 195.121 222.315 192.887 222.315H156.956C154.722 222.315 152.912 220.454 152.912 218.156C152.912 215.859 154.722 213.998 156.956 213.998H192.887C195.121 214.002 196.931 215.863 196.931 218.156Z" fill="#962EB9"/>
<path d="M196.931 207.534C196.931 209.831 195.121 211.692 192.887 211.692H156.956C154.722 211.692 152.912 209.831 152.912 207.534C152.912 205.237 154.722 203.375 156.956 203.375H192.887C195.121 203.379 196.931 205.237 196.931 207.534Z" fill="#962EB9"/>
<path d="M196.931 196.911C196.931 199.209 195.121 201.07 192.887 201.07H156.956C154.722 201.07 152.912 199.209 152.912 196.911C152.912 194.614 154.722 192.753 156.956 192.753H192.887C195.121 192.753 196.931 194.614 196.931 196.911Z" fill="#962EB9"/>
<path d="M196.931 186.289C196.931 188.586 195.121 190.447 192.887 190.447H156.956C154.722 190.447 152.912 188.586 152.912 186.289C152.912 183.992 154.722 182.13 156.956 182.13H192.887C195.121 182.13 196.931 183.992 196.931 186.289Z" fill="#962EB9"/>
<path d="M246.13 239.405C246.13 241.703 244.32 243.564 242.086 243.564H206.155C203.921 243.564 202.111 241.703 202.111 239.405C202.111 237.108 203.921 235.247 206.155 235.247H242.086C244.32 235.247 246.13 237.108 246.13 239.405Z" fill="#962EB9"/>
<path d="M246.13 228.783C246.13 231.08 244.32 232.942 242.086 232.942H206.155C203.921 232.942 202.111 231.08 202.111 228.783C202.111 226.486 203.921 224.624 206.155 224.624H242.086C244.32 224.624 246.13 226.486 246.13 228.783Z" fill="#962EB9"/>
<path d="M246.13 218.156C246.13 220.454 244.32 222.315 242.086 222.315H206.155C203.921 222.315 202.111 220.454 202.111 218.156C202.111 215.859 203.921 213.998 206.155 213.998H242.086C244.32 214.002 246.13 215.863 246.13 218.156Z" fill="#962EB9"/>
<path d="M246.13 207.534C246.13 209.831 244.32 211.692 242.086 211.692H206.155C203.921 211.692 202.111 209.831 202.111 207.534C202.111 205.237 203.921 203.375 206.155 203.375H242.086C244.32 203.379 246.13 205.237 246.13 207.534Z" fill="#962EB9"/>
<path d="M246.13 196.911C246.13 199.209 244.32 201.07 242.086 201.07H206.155C203.921 201.07 202.111 199.209 202.111 196.911C202.111 194.614 203.921 192.753 206.155 192.753H242.086C244.32 192.753 246.13 194.614 246.13 196.911Z" fill="#962EB9"/>
<path d="M246.13 186.289C246.13 188.586 244.32 190.447 242.086 190.447H206.155C203.921 190.447 202.111 188.586 202.111 186.289C202.111 183.992 203.921 182.13 206.155 182.13H242.086C244.32 182.13 246.13 183.992 246.13 186.289Z" fill="#962EB9"/>
<path d="M246.13 175.666C246.13 177.964 244.32 179.825 242.086 179.825H206.155C203.921 179.825 202.111 177.964 202.111 175.666C202.111 173.369 203.921 171.508 206.155 171.508H242.086C244.32 171.508 246.13 173.369 246.13 175.666Z" fill="#962EB9"/>
<path d="M246.13 165.04C246.13 167.337 244.32 169.198 242.086 169.198H206.155C203.921 169.198 202.111 167.337 202.111 165.04C202.111 162.743 203.921 160.881 206.155 160.881H242.086C244.32 160.885 246.13 162.747 246.13 165.04Z" fill="#962EB9"/>
<path d="M246.13 154.417C246.13 156.715 244.32 158.576 242.086 158.576H206.155C203.921 158.576 202.111 156.715 202.111 154.417C202.111 152.12 203.921 150.259 206.155 150.259H242.086C244.32 150.263 246.13 152.124 246.13 154.417Z" fill="#962EB9"/>
<path d="M246.13 143.795C246.13 146.092 244.32 147.953 242.086 147.953H206.155C203.921 147.953 202.111 146.092 202.111 143.795C202.111 141.498 203.921 139.636 206.155 139.636H242.086C244.32 139.636 246.13 141.498 246.13 143.795Z" fill="#962EB9"/>
<path d="M246.13 133.172C246.13 135.47 244.32 137.331 242.086 137.331H206.155C203.921 137.331 202.111 135.47 202.111 133.172C202.111 130.875 203.921 129.014 206.155 129.014H242.086C244.32 129.014 246.13 130.875 246.13 133.172Z" fill="#962EB9"/>
<path d="M246.13 122.55C246.13 124.847 244.32 126.708 242.086 126.708H206.155C203.921 126.708 202.111 124.847 202.111 122.55C202.111 120.253 203.921 118.391 206.155 118.391H242.086C244.32 118.391 246.13 120.253 246.13 122.55Z" fill="#962EB9"/>
<path d="M246.13 111.927C246.13 114.225 244.32 116.086 242.086 116.086H206.155C203.921 116.086 202.111 114.225 202.111 111.927C202.111 109.63 203.921 107.769 206.155 107.769H242.086C244.32 107.769 246.13 109.63 246.13 111.927Z" fill="#962EB9"/>
<path d="M246.13 101.301C246.13 103.598 244.32 105.459 242.086 105.459H206.155C203.921 105.459 202.111 103.598 202.111 101.301C202.111 99.0035 203.921 97.1422 206.155 97.1422H242.086C244.32 97.1463 246.13 99.0076 246.13 101.301Z" fill="#962EB9"/>
<path d="M246.13 90.6782C246.13 92.9754 244.32 94.8369 242.086 94.8369H206.155C203.921 94.8369 202.111 92.9754 202.111 90.6782C202.111 88.381 203.921 86.5197 206.155 86.5197H242.086C244.32 86.5238 246.13 88.381 246.13 90.6782Z" fill="#962EB9"/>
<path d="M246.13 80.0557C246.13 82.3529 244.32 84.2144 242.086 84.2144H206.155C203.921 84.2144 202.111 82.3529 202.111 80.0557C202.111 77.7585 203.921 75.8972 206.155 75.8972H242.086C244.32 75.8972 246.13 77.7585 246.13 80.0557Z" fill="#962EB9"/>
<path d="M246.13 69.4334C246.13 71.7306 244.32 73.5919 242.086 73.5919H206.155C203.921 73.5919 202.111 71.7306 202.111 69.4334C202.111 67.1362 203.921 65.2747 206.155 65.2747H242.086C244.32 65.2747 246.13 67.1362 246.13 69.4334Z" fill="#962EB9"/>
<path d="M246.13 58.8067C246.13 61.1039 244.32 62.9653 242.086 62.9653H206.155C203.921 62.9653 202.111 61.1039 202.111 58.8067C202.111 56.5095 203.921 54.6482 206.155 54.6482H242.086C244.32 54.6523 246.13 56.5136 246.13 58.8067Z" fill="#962EB9"/>
<path d="M295.329 239.405C295.329 241.703 293.519 243.564 291.285 243.564H255.354C253.12 243.564 251.31 241.703 251.31 239.405C251.31 237.108 253.12 235.247 255.354 235.247H291.285C293.519 235.247 295.329 237.108 295.329 239.405Z" fill="#962EB9"/>
<path d="M295.329 228.783C295.329 231.08 293.519 232.942 291.285 232.942H255.354C253.12 232.942 251.31 231.08 251.31 228.783C251.31 226.486 253.12 224.624 255.354 224.624H291.285C293.519 224.624 295.329 226.486 295.329 228.783Z" fill="#962EB9"/>
<path d="M295.329 218.156C295.329 220.454 293.519 222.315 291.285 222.315H255.354C253.12 222.315 251.31 220.454 251.31 218.156C251.31 215.859 253.12 213.998 255.354 213.998H291.285C293.519 214.002 295.329 215.863 295.329 218.156Z" fill="#962EB9"/>
<path d="M295.329 207.534C295.329 209.831 293.519 211.692 291.285 211.692H255.354C253.12 211.692 251.31 209.831 251.31 207.534C251.31 205.237 253.12 203.375 255.354 203.375H291.285C293.519 203.379 295.329 205.237 295.329 207.534Z" fill="#962EB9"/>
<path d="M295.329 196.911C295.329 199.209 293.519 201.07 291.285 201.07H255.354C253.12 201.07 251.31 199.209 251.31 196.911C251.31 194.614 253.12 192.753 255.354 192.753H291.285C293.519 192.753 295.329 194.614 295.329 196.911Z" fill="#962EB9"/>
<path d="M295.329 186.289C295.329 188.586 293.519 190.447 291.285 190.447H255.354C253.12 190.447 251.31 188.586 251.31 186.289C251.31 183.992 253.12 182.13 255.354 182.13H291.285C293.519 182.13 295.329 183.992 295.329 186.289Z" fill="#962EB9"/>
<path d="M295.329 175.666C295.329 177.964 293.519 179.825 291.285 179.825H255.354C253.12 179.825 251.31 177.964 251.31 175.666C251.31 173.369 253.12 171.508 255.354 171.508H291.285C293.519 171.508 295.329 173.369 295.329 175.666Z" fill="#962EB9"/>
<path d="M295.329 165.04C295.329 167.337 293.519 169.198 291.285 169.198H255.354C253.12 169.198 251.31 167.337 251.31 165.04C251.31 162.743 253.12 160.881 255.354 160.881H291.285C293.519 160.885 295.329 162.747 295.329 165.04Z" fill="#962EB9"/>
<path d="M295.329 154.417C295.329 156.715 293.519 158.576 291.285 158.576H255.354C253.12 158.576 251.31 156.715 251.31 154.417C251.31 152.12 253.12 150.259 255.354 150.259H291.285C293.519 150.263 295.329 152.124 295.329 154.417Z" fill="#962EB9"/>
<path d="M295.329 143.795C295.329 146.092 293.519 147.953 291.285 147.953H255.354C253.12 147.953 251.31 146.092 251.31 143.795C251.31 141.498 253.12 139.636 255.354 139.636H291.285C293.519 139.636 295.329 141.498 295.329 143.795Z" fill="#962EB9"/>
<path d="M295.329 133.172C295.329 135.47 293.519 137.331 291.285 137.331H255.354C253.12 137.331 251.31 135.47 251.31 133.172C251.31 130.875 253.12 129.014 255.354 129.014H291.285C293.519 129.014 295.329 130.875 295.329 133.172Z" fill="#962EB9"/>
<path d="M295.329 122.55C295.329 124.847 293.519 126.708 291.285 126.708H255.354C253.12 126.708 251.31 124.847 251.31 122.55C251.31 120.253 253.12 118.391 255.354 118.391H291.285C293.519 118.391 295.329 120.253 295.329 122.55Z" fill="#962EB9"/>
<path d="M295.329 111.927C295.329 114.225 293.519 116.086 291.285 116.086H255.354C253.12 116.086 251.31 114.225 251.31 111.927C251.31 109.63 253.12 107.769 255.354 107.769H291.285C293.519 107.769 295.329 109.63 295.329 111.927Z" fill="#962EB9"/>
<path d="M295.329 101.301C295.329 103.598 293.519 105.459 291.285 105.459H255.354C253.12 105.459 251.31 103.598 251.31 101.301C251.31 99.0035 253.12 97.1422 255.354 97.1422H291.285C293.519 97.1463 295.329 99.0076 295.329 101.301Z" fill="#962EB9"/>
<path d="M295.329 90.6782C295.329 92.9754 293.519 94.8369 291.285 94.8369H255.354C253.12 94.8369 251.31 92.9754 251.31 90.6782C251.31 88.381 253.12 86.5197 255.354 86.5197H291.285C293.519 86.5238 295.329 88.381 295.329 90.6782Z" fill="#962EB9"/>
<path d="M344.524 239.405C344.524 241.703 342.714 243.564 340.481 243.564H304.55C302.316 243.564 300.506 241.703 300.506 239.405C300.506 237.108 302.316 235.247 304.55 235.247H340.481C342.714 235.247 344.524 237.108 344.524 239.405Z" fill="#962EB9"/>
<path d="M344.524 228.783C344.524 231.08 342.714 232.942 340.481 232.942H304.55C302.316 232.942 300.506 231.08 300.506 228.783C300.506 226.486 302.316 224.624 304.55 224.624H340.481C342.714 224.624 344.524 226.486 344.524 228.783Z" fill="#962EB9"/>
<path d="M344.524 218.156C344.524 220.454 342.714 222.315 340.481 222.315H304.55C302.316 222.315 300.506 220.454 300.506 218.156C300.506 215.859 302.316 213.998 304.55 213.998H340.481C342.714 214.002 344.524 215.863 344.524 218.156Z" fill="#962EB9"/>
<path d="M344.524 207.534C344.524 209.831 342.714 211.692 340.481 211.692H304.55C302.316 211.692 300.506 209.831 300.506 207.534C300.506 205.237 302.316 203.375 304.55 203.375H340.481C342.714 203.379 344.524 205.237 344.524 207.534Z" fill="#962EB9"/>
<path d="M344.524 196.911C344.524 199.209 342.714 201.07 340.481 201.07H304.55C302.316 201.07 300.506 199.209 300.506 196.911C300.506 194.614 302.316 192.753 304.55 192.753H340.481C342.714 192.753 344.524 194.614 344.524 196.911Z" fill="#962EB9"/>
<path d="M344.524 186.289C344.524 188.586 342.714 190.447 340.481 190.447H304.55C302.316 190.447 300.506 188.586 300.506 186.289C300.506 183.992 302.316 182.13 304.55 182.13H340.481C342.714 182.13 344.524 183.992 344.524 186.289Z" fill="#962EB9"/>
<path d="M344.524 175.666C344.524 177.964 342.714 179.825 340.481 179.825H304.55C302.316 179.825 300.506 177.964 300.506 175.666C300.506 173.369 302.316 171.508 304.55 171.508H340.481C342.714 171.508 344.524 173.369 344.524 175.666Z" fill="#962EB9"/>
<path d="M344.524 165.04C344.524 167.337 342.714 169.198 340.481 169.198H304.55C302.316 169.198 300.506 167.337 300.506 165.04C300.506 162.743 302.316 160.881 304.55 160.881H340.481C342.714 160.885 344.524 162.747 344.524 165.04Z" fill="#962EB9"/>
<path d="M393.723 239.405C393.723 241.703 391.913 243.564 389.679 243.564H353.748C351.514 243.564 349.704 241.703 349.704 239.405C349.704 237.108 351.514 235.247 353.748 235.247H389.679C391.913 235.247 393.723 237.108 393.723 239.405Z" fill="#962EB9"/>
<path d="M393.723 228.783C393.723 231.08 391.913 232.942 389.679 232.942H353.748C351.514 232.942 349.704 231.08 349.704 228.783C349.704 226.486 351.514 224.624 353.748 224.624H389.679C391.913 224.624 393.723 226.486 393.723 228.783Z" fill="#962EB9"/>
<path d="M393.723 218.156C393.723 220.454 391.913 222.315 389.679 222.315H353.748C351.514 222.315 349.704 220.454 349.704 218.156C349.704 215.859 351.514 213.998 353.748 213.998H389.679C391.913 214.002 393.723 215.863 393.723 218.156Z" fill="#962EB9"/>
<path d="M393.723 207.534C393.723 209.831 391.913 211.692 389.679 211.692H353.748C351.514 211.692 349.704 209.831 349.704 207.534C349.704 205.237 351.514 203.375 353.748 203.375H389.679C391.913 203.379 393.723 205.237 393.723 207.534Z" fill="#962EB9"/>
<path d="M393.723 196.911C393.723 199.209 391.913 201.07 389.679 201.07H353.748C351.514 201.07 349.704 199.209 349.704 196.911C349.704 194.614 351.514 192.753 353.748 192.753H389.679C391.913 192.753 393.723 194.614 393.723 196.911Z" fill="#962EB9"/>
<path d="M393.723 186.289C393.723 188.586 391.913 190.447 389.679 190.447H353.748C351.514 190.447 349.704 188.586 349.704 186.289C349.704 183.992 351.514 182.13 353.748 182.13H389.679C391.913 182.13 393.723 183.992 393.723 186.289Z" fill="#962EB9"/>
<path d="M393.723 175.666C393.723 177.964 391.913 179.825 389.679 179.825H353.748C351.514 179.825 349.704 177.964 349.704 175.666C349.704 173.369 351.514 171.508 353.748 171.508H389.679C391.913 171.508 393.723 173.369 393.723 175.666Z" fill="#962EB9"/>
<path d="M393.723 165.04C393.723 167.337 391.913 169.198 389.679 169.198H353.748C351.514 169.198 349.704 167.337 349.704 165.04C349.704 162.743 351.514 160.881 353.748 160.881H389.679C391.913 160.885 393.723 162.747 393.723 165.04Z" fill="#962EB9"/>
<path d="M393.723 154.417C393.723 156.715 391.913 158.576 389.679 158.576H353.748C351.514 158.576 349.704 156.715 349.704 154.417C349.704 152.12 351.514 150.259 353.748 150.259H389.679C391.913 150.263 393.723 152.124 393.723 154.417Z" fill="#962EB9"/>
<path d="M393.723 143.795C393.723 146.092 391.913 147.953 389.679 147.953H353.748C351.514 147.953 349.704 146.092 349.704 143.795C349.704 141.498 351.514 139.636 353.748 139.636H389.679C391.913 139.636 393.723 141.498 393.723 143.795Z" fill="#962EB9"/>
<path d="M393.723 133.172C393.723 135.47 391.913 137.331 389.679 137.331H353.748C351.514 137.331 349.704 135.47 349.704 133.172C349.704 130.875 351.514 129.014 353.748 129.014H389.679C391.913 129.014 393.723 130.875 393.723 133.172Z" fill="#962EB9"/>
</svg>
