<svg width="800" height="430" viewBox="0 0 800 430" fill="none" xmlns="http://www.w3.org/2000/svg">
<g filter="url(#filter0_f_219_16019)">
<path d="M311.932 67.4081H332.489L324.915 69.572H295.702L287.047 61.9983H184.26L179.932 57.6704H297.866L311.932 67.4081Z" fill="#DA0000"/>
<path d="M400.653 62.1786L390.915 59.2934L400.653 67.9491L410.39 59.2934L400.653 62.1786Z" fill="#DA0000"/>
<path d="M489.374 67.4081H468.816L476.39 69.572H505.603L514.259 61.9983H617.045L621.373 57.6704H503.439L489.374 67.4081Z" fill="#DA0000"/>
<path d="M84.7194 57.1294H7.90002L36.0311 45.2278H247.014L287.047 40.9H523.997L560.783 45.2278H766.356L790.16 58.2114H727.406L707.93 48.4737H102.031L84.7194 57.1294Z" fill="#DA0000"/>
<g clip-path="url(#clip0_219_16019)">
<line x1="280.842" y1="88.6526" x2="105.563" y2="263.931" stroke="#DA0000" stroke-width="21.1689"/>
<line x1="201.246" y1="88.6526" x2="25.9683" y2="263.931" stroke="#DA0000" stroke-width="21.1689"/>
<line x1="241.043" y1="88.6526" x2="65.7654" y2="263.931" stroke="#DA0000" stroke-width="21.1689"/>
<line x1="161.449" y1="88.6526" x2="-13.8287" y2="263.931" stroke="#DA0000" stroke-width="21.1689"/>
<line x1="320.639" y1="88.6526" x2="145.36" y2="263.931" stroke="#DA0000" stroke-width="21.1689"/>
<line x1="360.436" y1="88.6526" x2="185.158" y2="263.931" stroke="#DA0000" stroke-width="21.1689"/>
<line x1="400.235" y1="88.6526" x2="224.957" y2="263.931" stroke="#DA0000" stroke-width="21.1689"/>
<line x1="440.032" y1="88.6526" x2="264.754" y2="263.931" stroke="#DA0000" stroke-width="21.1689"/>
<line x1="479.829" y1="88.6526" x2="304.551" y2="263.931" stroke="#DA0000" stroke-width="21.1689"/>
<line x1="519.626" y1="88.6526" x2="344.348" y2="263.931" stroke="#DA0000" stroke-width="21.1689"/>
<line x1="559.424" y1="88.6526" x2="384.146" y2="263.931" stroke="#DA0000" stroke-width="21.1689"/>
<line x1="599.221" y1="88.6526" x2="423.943" y2="263.931" stroke="#DA0000" stroke-width="21.1689"/>
<line x1="639.018" y1="88.6526" x2="463.74" y2="263.931" stroke="#DA0000" stroke-width="21.1689"/>
<line x1="678.815" y1="88.6526" x2="503.537" y2="263.931" stroke="#DA0000" stroke-width="21.1689"/>
</g>
<path d="M313.014 362.784H333.571L325.997 360.62H296.784L288.128 368.194H185.342L181.014 372.522H298.948L313.014 362.784Z" fill="#DA0000"/>
<path d="M401.735 368.014L391.997 370.899L401.735 362.243L411.472 370.899L401.735 368.014Z" fill="#DA0000"/>
<path d="M490.456 362.784H469.898L477.472 360.62H506.685L515.341 368.194H618.127L622.455 372.522H504.521L490.456 362.784Z" fill="#DA0000"/>
<path d="M85.8014 373.063H8.98199L37.113 384.964H248.096L288.129 389.292H525.079L561.865 384.964H767.438L791.242 371.981H728.488L709.012 381.719H103.113L85.8014 373.063Z" fill="#DA0000"/>
<g clip-path="url(#clip1_219_16019)">
<line y1="-10.5844" x2="247.881" y2="-10.5844" transform="matrix(-0.707107 -0.707107 -0.707107 0.707107 275.522 349.024)" stroke="#DA0000" stroke-width="21.1689"/>
<line y1="-10.5844" x2="247.881" y2="-10.5844" transform="matrix(-0.707107 -0.707107 -0.707107 0.707107 195.926 349.024)" stroke="#DA0000" stroke-width="21.1689"/>
<line y1="-10.5844" x2="247.881" y2="-10.5844" transform="matrix(-0.707107 -0.707107 -0.707107 0.707107 235.723 349.024)" stroke="#DA0000" stroke-width="21.1689"/>
<line y1="-10.5844" x2="247.881" y2="-10.5844" transform="matrix(-0.707107 -0.707107 -0.707107 0.707107 156.129 349.024)" stroke="#DA0000" stroke-width="21.1689"/>
<line y1="-10.5844" x2="247.881" y2="-10.5844" transform="matrix(-0.707107 -0.707107 -0.707107 0.707107 315.318 349.024)" stroke="#DA0000" stroke-width="21.1689"/>
<line y1="-10.5844" x2="247.881" y2="-10.5844" transform="matrix(-0.707107 -0.707107 -0.707107 0.707107 355.116 349.024)" stroke="#DA0000" stroke-width="21.1689"/>
<line y1="-10.5844" x2="247.881" y2="-10.5844" transform="matrix(-0.707107 -0.707107 -0.707107 0.707107 394.914 349.024)" stroke="#DA0000" stroke-width="21.1689"/>
<line y1="-10.5844" x2="247.881" y2="-10.5844" transform="matrix(-0.707107 -0.707107 -0.707107 0.707107 434.711 349.024)" stroke="#DA0000" stroke-width="21.1689"/>
<line y1="-10.5844" x2="247.881" y2="-10.5844" transform="matrix(-0.707107 -0.707107 -0.707107 0.707107 474.508 349.024)" stroke="#DA0000" stroke-width="21.1689"/>
<line y1="-10.5844" x2="247.881" y2="-10.5844" transform="matrix(-0.707107 -0.707107 -0.707107 0.707107 514.305 349.024)" stroke="#DA0000" stroke-width="21.1689"/>
<line y1="-10.5844" x2="247.881" y2="-10.5844" transform="matrix(-0.707107 -0.707107 -0.707107 0.707107 554.104 349.024)" stroke="#DA0000" stroke-width="21.1689"/>
<line y1="-10.5844" x2="247.881" y2="-10.5844" transform="matrix(-0.707107 -0.707107 -0.707107 0.707107 593.901 349.024)" stroke="#DA0000" stroke-width="21.1689"/>
<line y1="-10.5844" x2="247.881" y2="-10.5844" transform="matrix(-0.707107 -0.707107 -0.707107 0.707107 633.698 349.024)" stroke="#DA0000" stroke-width="21.1689"/>
<line y1="-10.5844" x2="247.881" y2="-10.5844" transform="matrix(-0.707107 -0.707107 -0.707107 0.707107 673.495 349.024)" stroke="#DA0000" stroke-width="21.1689"/>
</g>
<path d="M121.633 241.159V189.034L115.014 203.099V227.921L121.633 241.159Z" fill="#DA0000"/>
<path d="M143.018 285.424L128.125 269.703V161.316L143.018 144.769" stroke="#DA0000" stroke-width="1.65477"/>
<path d="M658.16 285.424L673.053 269.703V161.316L658.16 144.769" stroke="#DA0000" stroke-width="1.65477"/>
<path d="M679.545 241.159V189.034L686.164 203.099V227.921L679.545 241.159Z" fill="#DA0000"/>
<path d="M226.099 187.506C228.181 183.899 233.387 183.9 235.469 187.506L266.391 241.063C268.473 244.67 265.87 249.178 261.706 249.178H199.863C195.699 249.177 193.096 244.67 195.178 241.063L226.099 187.506Z" stroke="#DA0000" stroke-width="2.16393"/>
<line x1="231.49" y1="202.949" x2="231.49" y2="228.672" stroke="#DA0000" stroke-width="3.24589"/>
<rect x="230.679" y="236.833" width="1.62295" height="1.62295" stroke="#DA0000" stroke-width="1.62295"/>
<path d="M565.836 187.506C567.918 183.899 573.123 183.9 575.206 187.506L606.128 241.063C608.21 244.67 605.606 249.178 601.442 249.178H539.599C535.435 249.177 532.833 244.67 534.915 241.063L565.836 187.506Z" stroke="#DA0000" stroke-width="2.16393"/>
<line x1="571.227" y1="202.949" x2="571.227" y2="228.672" stroke="#DA0000" stroke-width="3.24589"/>
<rect x="570.415" y="236.833" width="1.62295" height="1.62295" stroke="#DA0000" stroke-width="1.62295"/>
<path d="M307.625 227.629L313.753 203.77H316.965L316.606 209.92L310.055 234.539H306.716L307.625 227.629ZM303.039 203.77L308.005 227.438L308.449 234.539H304.899L297.778 203.77H303.039ZM323.918 227.375L328.821 203.77H334.104L326.982 234.539H323.432L323.918 227.375ZM318.212 203.77L324.277 227.692L325.165 234.539H321.826L315.381 209.92L315.042 203.77H318.212ZM351.25 207.87L342.058 234.539H336.5L348.08 203.77H351.631L351.25 207.87ZM358.942 234.539L349.729 207.87L349.327 203.77H352.898L364.521 234.539H358.942ZM358.498 223.127V227.333H341.762V223.127H358.498ZM370.13 203.77H381.013C383.351 203.77 385.345 204.123 386.993 204.827C388.641 205.531 389.902 206.574 390.776 207.955C391.663 209.321 392.107 211.012 392.107 213.026C392.107 214.562 391.825 215.914 391.262 217.084C390.698 218.253 389.902 219.239 388.874 220.042C387.845 220.831 386.62 221.444 385.197 221.881L383.591 222.663H373.807L373.764 218.457H381.097C382.365 218.457 383.422 218.232 384.267 217.781C385.112 217.33 385.746 216.717 386.169 215.943C386.606 215.154 386.824 214.266 386.824 213.28C386.824 212.209 386.613 211.279 386.19 210.49C385.781 209.687 385.147 209.075 384.288 208.652C383.429 208.215 382.337 207.997 381.013 207.997H375.434V234.539H370.13V203.77ZM387.69 234.539L380.463 220.718L386.021 220.697L393.354 234.264V234.539H387.69ZM423.962 203.77V234.539H418.657L404.858 212.498V234.539H399.554V203.77H404.858L418.7 225.853V203.77H423.962ZM438.107 203.77V234.539H432.803V203.77H438.107ZM471.272 203.77V234.539H465.968L452.169 212.498V234.539H446.864V203.77H452.169L466.01 225.853V203.77H471.272ZM503.38 218.817V230.566C502.943 231.144 502.26 231.778 501.33 232.468C500.415 233.144 499.196 233.729 497.674 234.222C496.153 234.715 494.258 234.961 491.99 234.961C490.06 234.961 488.292 234.637 486.686 233.989C485.08 233.327 483.692 232.362 482.523 231.094C481.368 229.826 480.473 228.284 479.839 226.466C479.205 224.635 478.888 222.55 478.888 220.211V218.077C478.888 215.752 479.177 213.681 479.754 211.864C480.346 210.033 481.191 208.483 482.29 207.215C483.389 205.947 484.713 204.989 486.263 204.341C487.827 203.679 489.595 203.348 491.567 203.348C494.089 203.348 496.174 203.77 497.822 204.616C499.485 205.447 500.767 206.602 501.668 208.081C502.57 209.561 503.141 211.251 503.38 213.153H498.182C498.013 212.082 497.682 211.124 497.188 210.279C496.709 209.434 496.019 208.772 495.118 208.293C494.23 207.8 493.075 207.553 491.652 207.553C490.426 207.553 489.348 207.786 488.419 208.25C487.489 208.715 486.714 209.399 486.094 210.3C485.488 211.202 485.03 212.301 484.721 213.597C484.411 214.893 484.256 216.372 484.256 218.035V220.211C484.256 221.902 484.432 223.402 484.784 224.712C485.15 226.023 485.671 227.128 486.348 228.03C487.038 228.932 487.876 229.615 488.862 230.08C489.849 230.531 490.962 230.756 492.201 230.756C493.413 230.756 494.406 230.658 495.181 230.46C495.956 230.249 496.569 230.002 497.019 229.721C497.484 229.425 497.844 229.143 498.097 228.875V222.768H491.694V218.817H503.38Z" fill="white"/>
<path d="M291.744 270.893C291.744 272.026 291.431 272.879 290.804 273.453C290.191 274.013 289.304 274.293 288.144 274.293H285.304V272.773H288.344C288.838 272.773 289.238 272.626 289.544 272.333C289.851 272.039 290.004 271.686 290.004 271.273V269.193C290.004 268.793 289.898 268.473 289.684 268.233C289.484 267.979 289.178 267.853 288.764 267.853H288.164C287.178 267.853 286.398 267.566 285.824 266.993C285.251 266.406 284.964 265.559 284.964 264.453V263.693C284.964 262.559 285.271 261.713 285.884 261.153C286.511 260.579 287.404 260.293 288.564 260.293H291.424V261.813H288.364C287.871 261.813 287.471 261.959 287.164 262.253C286.858 262.546 286.704 262.899 286.704 263.313V264.833C286.704 265.246 286.838 265.593 287.104 265.873C287.371 266.139 287.718 266.273 288.144 266.273H288.744C289.691 266.273 290.424 266.546 290.944 267.093C291.478 267.639 291.744 268.466 291.744 269.573V270.893ZM300.045 274.293C298.872 274.293 298.012 274.046 297.465 273.553C296.919 273.046 296.645 272.226 296.645 271.093V267.493C296.645 266.346 296.892 265.526 297.385 265.033C297.879 264.539 298.699 264.293 299.845 264.293H300.785C301.732 264.293 302.445 264.559 302.925 265.093C303.419 265.613 303.665 266.379 303.665 267.393V269.993H298.345V271.493C298.345 271.906 298.472 272.226 298.725 272.453C298.979 272.679 299.352 272.793 299.845 272.793H303.025V274.293H300.045ZM302.005 266.993C302.005 266.646 301.892 266.359 301.665 266.133C301.439 265.906 301.152 265.793 300.805 265.793H299.645C299.165 265.793 298.825 265.906 298.625 266.133C298.439 266.346 298.345 266.666 298.345 267.093V268.493H302.005V266.993ZM309.906 264.293V264.773C310.319 264.453 310.853 264.293 311.506 264.293H312.426C313.506 264.293 314.306 264.546 314.826 265.053C315.359 265.559 315.626 266.373 315.626 267.493V274.293H313.926V267.093C313.926 266.693 313.806 266.379 313.566 266.153C313.339 265.913 313.026 265.793 312.626 265.793H311.306C310.866 265.793 310.539 265.913 310.326 266.153C310.113 266.379 310.006 266.626 310.006 266.893V274.293H308.306V264.293H309.906ZM326.807 271.793C326.807 272.633 326.547 273.259 326.027 273.673C325.52 274.086 324.78 274.293 323.807 274.293H320.827V272.793H324.007C324.367 272.793 324.64 272.719 324.827 272.573C325.013 272.413 325.107 272.186 325.107 271.893V270.833C325.107 270.233 324.82 269.933 324.247 269.933H323.507C322.573 269.933 321.873 269.733 321.407 269.333C320.953 268.919 320.727 268.273 320.727 267.393V266.813C320.727 265.919 320.98 265.279 321.487 264.893C321.993 264.493 322.74 264.293 323.727 264.293H326.407V265.793H323.527C323.193 265.793 322.927 265.873 322.727 266.033C322.527 266.179 322.427 266.399 322.427 266.693V267.413C322.427 267.719 322.513 267.946 322.687 268.093C322.873 268.239 323.107 268.313 323.387 268.313H324.067C324.96 268.313 325.64 268.533 326.107 268.973C326.573 269.399 326.807 270.039 326.807 270.893V271.793ZM336.508 260.293V262.093H334.608V260.293H336.508ZM331.768 265.793V264.293H336.408V272.793H339.368V274.293H334.708V265.793H331.768ZM348.108 274.293C347.428 274.293 346.908 274.073 346.548 273.633C346.188 273.193 346.008 272.613 346.008 271.893V265.793H344.108V264.293H346.008V261.893H347.708V264.293H350.628V265.793H347.708V271.993C347.708 272.286 347.782 272.493 347.928 272.613C348.075 272.733 348.302 272.793 348.608 272.793H350.628V274.293H348.108ZM360.109 260.293V262.093H358.209V260.293H360.109ZM355.369 265.793V264.293H360.009V272.793H362.969V274.293H358.309V265.793H355.369ZM366.85 264.293H368.69L371.03 272.913L373.31 264.293H375.09L372.21 274.293H369.75L366.85 264.293ZM382.651 274.293C381.477 274.293 380.617 274.046 380.071 273.553C379.524 273.046 379.251 272.226 379.251 271.093V267.493C379.251 266.346 379.497 265.526 379.991 265.033C380.484 264.539 381.304 264.293 382.451 264.293H383.391C384.337 264.293 385.051 264.559 385.531 265.093C386.024 265.613 386.271 266.379 386.271 267.393V269.993H380.951V271.493C380.951 271.906 381.077 272.226 381.331 272.453C381.584 272.679 381.957 272.793 382.451 272.793H385.631V274.293H382.651ZM384.611 266.993C384.611 266.646 384.497 266.359 384.271 266.133C384.044 265.906 383.757 265.793 383.411 265.793H382.251C381.771 265.793 381.431 265.906 381.231 266.133C381.044 266.346 380.951 266.666 380.951 267.093V268.493H384.611V266.993ZM407.312 260.293V262.093H405.412V260.293H407.312ZM402.572 265.793V264.293H407.212V272.793H410.172V274.293H405.512V265.793H402.572ZM416.113 264.293V264.773C416.526 264.453 417.06 264.293 417.713 264.293H418.633C419.713 264.293 420.513 264.546 421.033 265.053C421.566 265.559 421.833 266.373 421.833 267.493V274.293H420.133V267.093C420.133 266.693 420.013 266.379 419.773 266.153C419.546 265.913 419.233 265.793 418.833 265.793H417.513C417.073 265.793 416.746 265.913 416.533 266.153C416.32 266.379 416.213 266.626 416.213 266.893V274.293H414.513V264.293H416.113ZM430.654 261.793C430.441 261.793 430.267 261.853 430.134 261.973C430.014 262.079 429.954 262.219 429.954 262.393V264.293H433.174V265.793H429.954V272.793H432.374V274.293H426.554V272.793H428.254V265.793H426.554V264.293H428.254V262.493C428.254 261.813 428.447 261.279 428.834 260.893C429.221 260.493 429.721 260.293 430.334 260.293H433.374V261.793H430.654ZM445.495 271.093C445.495 272.213 445.215 273.026 444.655 273.533C444.108 274.039 443.255 274.293 442.095 274.293H441.435C440.275 274.293 439.415 274.039 438.855 273.533C438.308 273.026 438.035 272.213 438.035 271.093V267.493C438.035 266.373 438.308 265.559 438.855 265.053C439.415 264.546 440.275 264.293 441.435 264.293H442.095C443.255 264.293 444.108 264.546 444.655 265.053C445.215 265.559 445.495 266.373 445.495 267.493V271.093ZM443.795 267.093C443.795 266.679 443.668 266.359 443.415 266.133C443.161 265.906 442.788 265.793 442.295 265.793H441.235C440.741 265.793 440.368 265.906 440.115 266.133C439.861 266.359 439.735 266.679 439.735 267.093V271.493C439.735 271.906 439.861 272.226 440.115 272.453C440.368 272.679 440.741 272.793 441.235 272.793H442.295C442.788 272.793 443.161 272.679 443.415 272.453C443.668 272.226 443.795 271.906 443.795 271.493V267.093ZM451.635 272.793V265.793H450.175V264.293H453.235V264.833C453.675 264.473 454.209 264.293 454.835 264.293H456.895V265.893H454.635C454.209 265.893 453.889 266.033 453.675 266.313C453.462 266.579 453.349 266.853 453.335 267.133V272.793H455.515V274.293H450.175V272.793H451.635ZM462.336 264.293V264.753C462.683 264.446 463.096 264.293 463.576 264.293H463.696C464.63 264.293 465.29 264.559 465.676 265.093C466.116 264.559 466.696 264.293 467.416 264.293H467.536C468.35 264.293 468.95 264.499 469.336 264.913C469.723 265.326 469.916 266.059 469.916 267.113V274.293H468.316V267.093C468.316 266.546 468.256 266.166 468.136 265.953C468.03 265.739 467.776 265.633 467.376 265.633H467.256C466.856 265.633 466.576 265.773 466.416 266.053C466.27 266.319 466.19 266.619 466.176 266.953V274.293H464.576V267.093C464.576 266.533 464.51 266.153 464.376 265.953C464.243 265.739 464.003 265.633 463.656 265.633H463.536C463.136 265.633 462.856 265.753 462.696 265.993C462.536 266.219 462.45 266.479 462.436 266.773V274.293H460.836V264.293H462.336ZM480.117 274.293C479.944 274.293 479.75 274.239 479.537 274.133C479.337 274.026 479.164 273.879 479.017 273.693C478.71 274.093 478.304 274.293 477.797 274.293H476.017C475.004 274.293 474.264 274.093 473.797 273.693C473.344 273.279 473.117 272.579 473.117 271.593V271.193C473.117 269.126 474.09 268.093 476.037 268.093H478.517V267.093C478.517 266.679 478.39 266.359 478.137 266.133C477.884 265.906 477.51 265.793 477.017 265.793H473.917V264.293H476.817C477.977 264.293 478.83 264.546 479.377 265.053C479.937 265.559 480.217 266.373 480.217 267.493V272.293C480.217 272.493 480.29 272.646 480.437 272.753C480.597 272.846 480.857 272.893 481.217 272.893V274.293H480.117ZM477.597 272.793C477.997 272.793 478.25 272.699 478.357 272.513C478.464 272.326 478.517 272.086 478.517 271.793V269.593H476.017C475.67 269.593 475.384 269.706 475.157 269.933C474.93 270.159 474.817 270.446 474.817 270.793V271.793C474.817 272.139 474.897 272.393 475.057 272.553C475.217 272.713 475.47 272.793 475.817 272.793H477.597ZM489.718 274.293C489.038 274.293 488.518 274.073 488.158 273.633C487.798 273.193 487.618 272.613 487.618 271.893V265.793H485.718V264.293H487.618V261.893H489.318V264.293H492.238V265.793H489.318V271.993C489.318 272.286 489.391 272.493 489.538 272.613C489.684 272.733 489.911 272.793 490.218 272.793H492.238V274.293H489.718ZM501.719 260.293V262.093H499.819V260.293H501.719ZM496.979 265.793V264.293H501.619V272.793H504.579V274.293H499.919V265.793H496.979ZM516.299 271.093C516.299 272.213 516.019 273.026 515.459 273.533C514.913 274.039 514.059 274.293 512.899 274.293H512.239C511.079 274.293 510.219 274.039 509.659 273.533C509.113 273.026 508.839 272.213 508.839 271.093V267.493C508.839 266.373 509.113 265.559 509.659 265.053C510.219 264.546 511.079 264.293 512.239 264.293H512.899C514.059 264.293 514.913 264.546 515.459 265.053C516.019 265.559 516.299 266.373 516.299 267.493V271.093ZM514.599 267.093C514.599 266.679 514.473 266.359 514.219 266.133C513.966 265.906 513.593 265.793 513.099 265.793H512.039C511.546 265.793 511.173 265.906 510.919 266.133C510.666 266.359 510.539 266.679 510.539 267.093V271.493C510.539 271.906 510.666 272.226 510.919 272.453C511.173 272.679 511.546 272.793 512.039 272.793H513.099C513.593 272.793 513.966 272.679 514.219 272.453C514.473 272.226 514.599 271.906 514.599 271.493V267.093ZM522.32 264.293V264.773C522.733 264.453 523.267 264.293 523.92 264.293H524.84C525.92 264.293 526.72 264.546 527.24 265.053C527.773 265.559 528.04 266.373 528.04 267.493V274.293H526.34V267.093C526.34 266.693 526.22 266.379 525.98 266.153C525.753 265.913 525.44 265.793 525.04 265.793H523.72C523.28 265.793 522.953 265.913 522.74 266.153C522.527 266.379 522.42 266.626 522.42 266.893V274.293H520.72V264.293H522.32Z" fill="white"/>
<rect width="10" height="10" transform="matrix(0 1 1 0 709.9 9.89999)" fill="#DA0000"/>
<rect width="10" height="10" transform="matrix(0 1 1 0 709.9 23.9)" fill="#DA0000"/>
<rect width="10" height="10" transform="matrix(0 1 1 0 723.9 9.89999)" fill="#DA0000"/>
<rect width="10" height="10" transform="matrix(0 1 1 0 737.9 23.9)" fill="#DA0000"/>
<rect width="10" height="10" transform="matrix(0 1 1 0 751.9 9.89999)" fill="#DA0000"/>
<rect width="10" height="10" transform="matrix(0 1 1 0 751.9 23.9)" fill="#DA0000"/>
<rect width="10" height="10" transform="matrix(0 1 1 0 765.9 9.89999)" fill="#DA0000"/>
<rect width="10" height="10" transform="matrix(0 1 1 0 631.9 7.89999)" fill="#DA0000"/>
<rect width="10" height="10" transform="matrix(0 1 1 0 631.9 21.9)" fill="#DA0000"/>
<rect width="10" height="10" transform="matrix(0 1 1 0 645.9 7.89999)" fill="#DA0000"/>
<rect width="10" height="10" transform="matrix(0 1 1 0 659.9 21.9)" fill="#DA0000"/>
<rect width="10" height="10" transform="matrix(0 1 1 0 673.9 7.89999)" fill="#DA0000"/>
<rect width="10" height="10" transform="matrix(0 1 1 0 673.9 21.9)" fill="#DA0000"/>
<rect width="10" height="10" transform="matrix(0 1 1 0 687.9 7.89999)" fill="#DA0000"/>
<rect x="99.9" y="9.89999" width="10" height="10" transform="rotate(90 99.9 9.89999)" fill="#DA0000"/>
<rect x="99.9" y="23.9" width="10" height="10" transform="rotate(90 99.9 23.9)" fill="#DA0000"/>
<rect x="85.9" y="9.89999" width="10" height="10" transform="rotate(90 85.9 9.89999)" fill="#DA0000"/>
<rect x="71.9" y="23.9" width="10" height="10" transform="rotate(90 71.9 23.9)" fill="#DA0000"/>
<rect x="57.9" y="9.89999" width="10" height="10" transform="rotate(90 57.9 9.89999)" fill="#DA0000"/>
<rect x="57.9" y="23.9" width="10" height="10" transform="rotate(90 57.9 23.9)" fill="#DA0000"/>
<rect x="43.9" y="9.89999" width="10" height="10" transform="rotate(90 43.9 9.89999)" fill="#DA0000"/>
<rect x="177.9" y="7.89999" width="10" height="10" transform="rotate(90 177.9 7.89999)" fill="#DA0000"/>
<rect x="177.9" y="21.9" width="10" height="10" transform="rotate(90 177.9 21.9)" fill="#DA0000"/>
<rect x="163.9" y="7.89999" width="10" height="10" transform="rotate(90 163.9 7.89999)" fill="#DA0000"/>
<rect x="149.9" y="21.9" width="10" height="10" transform="rotate(90 149.9 21.9)" fill="#DA0000"/>
<rect x="135.9" y="7.89999" width="10" height="10" transform="rotate(90 135.9 7.89999)" fill="#DA0000"/>
<rect x="135.9" y="21.9" width="10" height="10" transform="rotate(90 135.9 21.9)" fill="#DA0000"/>
<rect x="121.9" y="7.89999" width="10" height="10" transform="rotate(90 121.9 7.89999)" fill="#DA0000"/>
<rect width="10" height="10" transform="matrix(0 1 1 0 706.9 397.9)" fill="#DA0000"/>
<rect width="10" height="10" transform="matrix(0 1 1 0 706.9 411.9)" fill="#DA0000"/>
<rect width="10" height="10" transform="matrix(0 1 1 0 720.9 397.9)" fill="#DA0000"/>
<rect width="10" height="10" transform="matrix(0 1 1 0 734.9 411.9)" fill="#DA0000"/>
<rect width="10" height="10" transform="matrix(0 1 1 0 748.9 397.9)" fill="#DA0000"/>
<rect width="10" height="10" transform="matrix(0 1 1 0 748.9 411.9)" fill="#DA0000"/>
<rect width="10" height="10" transform="matrix(0 1 1 0 762.9 397.9)" fill="#DA0000"/>
<rect width="10" height="10" transform="matrix(0 1 1 0 628.9 395.9)" fill="#DA0000"/>
<rect width="10" height="10" transform="matrix(0 1 1 0 628.9 409.9)" fill="#DA0000"/>
<rect width="10" height="10" transform="matrix(0 1 1 0 642.9 395.9)" fill="#DA0000"/>
<rect width="10" height="10" transform="matrix(0 1 1 0 656.9 409.9)" fill="#DA0000"/>
<rect width="10" height="10" transform="matrix(0 1 1 0 670.9 395.9)" fill="#DA0000"/>
<rect width="10" height="10" transform="matrix(0 1 1 0 670.9 409.9)" fill="#DA0000"/>
<rect width="10" height="10" transform="matrix(0 1 1 0 684.9 395.9)" fill="#DA0000"/>
<rect x="96.9" y="397.9" width="10" height="10" transform="rotate(90 96.9 397.9)" fill="#DA0000"/>
<rect x="96.9" y="411.9" width="10" height="10" transform="rotate(90 96.9 411.9)" fill="#DA0000"/>
<rect x="82.9" y="397.9" width="10" height="10" transform="rotate(90 82.9 397.9)" fill="#DA0000"/>
<rect x="68.9" y="411.9" width="10" height="10" transform="rotate(90 68.9 411.9)" fill="#DA0000"/>
<rect x="54.9" y="397.9" width="10" height="10" transform="rotate(90 54.9 397.9)" fill="#DA0000"/>
<rect x="54.9" y="411.9" width="10" height="10" transform="rotate(90 54.9 411.9)" fill="#DA0000"/>
<rect x="40.9" y="397.9" width="10" height="10" transform="rotate(90 40.9 397.9)" fill="#DA0000"/>
<rect x="174.9" y="395.9" width="10" height="10" transform="rotate(90 174.9 395.9)" fill="#DA0000"/>
<rect x="174.9" y="409.9" width="10" height="10" transform="rotate(90 174.9 409.9)" fill="#DA0000"/>
<rect x="160.9" y="395.9" width="10" height="10" transform="rotate(90 160.9 395.9)" fill="#DA0000"/>
<rect x="146.9" y="409.9" width="10" height="10" transform="rotate(90 146.9 409.9)" fill="#DA0000"/>
<rect x="132.9" y="395.9" width="10" height="10" transform="rotate(90 132.9 395.9)" fill="#DA0000"/>
<rect x="132.9" y="409.9" width="10" height="10" transform="rotate(90 132.9 409.9)" fill="#DA0000"/>
<rect x="118.9" y="395.9" width="10" height="10" transform="rotate(90 118.9 395.9)" fill="#DA0000"/>
</g>
<path d="M311.932 67.4081H332.489L324.915 69.572H295.702L287.047 61.9983H184.26L179.932 57.6704H297.866L311.932 67.4081Z" fill="#DA0000"/>
<path d="M400.653 62.1786L390.915 59.2934L400.653 67.9491L410.39 59.2934L400.653 62.1786Z" fill="#DA0000"/>
<path d="M489.374 67.4081H468.816L476.39 69.572H505.603L514.259 61.9983H617.045L621.373 57.6704H503.439L489.374 67.4081Z" fill="#DA0000"/>
<path d="M84.7194 57.1294H7.90002L36.0311 45.2278H247.014L287.047 40.9H523.997L560.783 45.2278H766.356L790.16 58.2114H727.406L707.93 48.4737H102.031L84.7194 57.1294Z" fill="#DA0000"/>
<g clip-path="url(#clip2_219_16019)">
<line x1="280.842" y1="88.6526" x2="105.564" y2="263.931" stroke="#DA0000" stroke-width="21.1689"/>
<line x1="201.246" y1="88.6526" x2="25.9683" y2="263.931" stroke="#DA0000" stroke-width="21.1689"/>
<line x1="241.043" y1="88.6526" x2="65.7654" y2="263.931" stroke="#DA0000" stroke-width="21.1689"/>
<line x1="161.449" y1="88.6526" x2="-13.8287" y2="263.931" stroke="#DA0000" stroke-width="21.1689"/>
<line x1="320.639" y1="88.6526" x2="145.36" y2="263.931" stroke="#DA0000" stroke-width="21.1689"/>
<line x1="360.436" y1="88.6526" x2="185.158" y2="263.931" stroke="#DA0000" stroke-width="21.1689"/>
<line x1="400.234" y1="88.6526" x2="224.956" y2="263.931" stroke="#DA0000" stroke-width="21.1689"/>
<line x1="440.032" y1="88.6526" x2="264.754" y2="263.931" stroke="#DA0000" stroke-width="21.1689"/>
<line x1="479.828" y1="88.6526" x2="304.55" y2="263.931" stroke="#DA0000" stroke-width="21.1689"/>
<line x1="519.626" y1="88.6526" x2="344.348" y2="263.931" stroke="#DA0000" stroke-width="21.1689"/>
<line x1="559.424" y1="88.6526" x2="384.146" y2="263.931" stroke="#DA0000" stroke-width="21.1689"/>
<line x1="599.221" y1="88.6526" x2="423.943" y2="263.931" stroke="#DA0000" stroke-width="21.1689"/>
<line x1="639.018" y1="88.6526" x2="463.74" y2="263.931" stroke="#DA0000" stroke-width="21.1689"/>
<line x1="678.816" y1="88.6526" x2="503.537" y2="263.931" stroke="#DA0000" stroke-width="21.1689"/>
</g>
<path d="M313.014 362.784H333.571L325.997 360.62H296.784L288.128 368.194H185.342L181.014 372.522H298.948L313.014 362.784Z" fill="#DA0000"/>
<path d="M401.735 368.014L391.997 370.899L401.735 362.243L411.472 370.899L401.735 368.014Z" fill="#DA0000"/>
<path d="M490.456 362.784H469.898L477.472 360.62H506.685L515.341 368.194H618.127L622.455 372.522H504.521L490.456 362.784Z" fill="#DA0000"/>
<path d="M85.8014 373.063H8.98199L37.113 384.964H248.096L288.129 389.292H525.079L561.865 384.964H767.438L791.242 371.981H728.488L709.012 381.719H103.113L85.8014 373.063Z" fill="#DA0000"/>
<g clip-path="url(#clip3_219_16019)">
<line y1="-10.5844" x2="247.881" y2="-10.5844" transform="matrix(-0.707107 -0.707107 -0.707107 0.707107 275.522 349.024)" stroke="#DA0000" stroke-width="21.1689"/>
<line y1="-10.5844" x2="247.881" y2="-10.5844" transform="matrix(-0.707107 -0.707107 -0.707107 0.707107 195.926 349.024)" stroke="#DA0000" stroke-width="21.1689"/>
<line y1="-10.5844" x2="247.881" y2="-10.5844" transform="matrix(-0.707107 -0.707107 -0.707107 0.707107 235.723 349.024)" stroke="#DA0000" stroke-width="21.1689"/>
<line y1="-10.5844" x2="247.881" y2="-10.5844" transform="matrix(-0.707107 -0.707107 -0.707107 0.707107 156.129 349.024)" stroke="#DA0000" stroke-width="21.1689"/>
<line y1="-10.5844" x2="247.881" y2="-10.5844" transform="matrix(-0.707107 -0.707107 -0.707107 0.707107 315.318 349.024)" stroke="#DA0000" stroke-width="21.1689"/>
<line y1="-10.5844" x2="247.881" y2="-10.5844" transform="matrix(-0.707107 -0.707107 -0.707107 0.707107 355.116 349.024)" stroke="#DA0000" stroke-width="21.1689"/>
<line y1="-10.5844" x2="247.881" y2="-10.5844" transform="matrix(-0.707107 -0.707107 -0.707107 0.707107 394.914 349.024)" stroke="#DA0000" stroke-width="21.1689"/>
<line y1="-10.5844" x2="247.881" y2="-10.5844" transform="matrix(-0.707107 -0.707107 -0.707107 0.707107 434.711 349.024)" stroke="#DA0000" stroke-width="21.1689"/>
<line y1="-10.5844" x2="247.881" y2="-10.5844" transform="matrix(-0.707107 -0.707107 -0.707107 0.707107 474.508 349.024)" stroke="#DA0000" stroke-width="21.1689"/>
<line y1="-10.5844" x2="247.881" y2="-10.5844" transform="matrix(-0.707107 -0.707107 -0.707107 0.707107 514.305 349.024)" stroke="#DA0000" stroke-width="21.1689"/>
<line y1="-10.5844" x2="247.881" y2="-10.5844" transform="matrix(-0.707107 -0.707107 -0.707107 0.707107 554.104 349.024)" stroke="#DA0000" stroke-width="21.1689"/>
<line y1="-10.5844" x2="247.881" y2="-10.5844" transform="matrix(-0.707107 -0.707107 -0.707107 0.707107 593.901 349.024)" stroke="#DA0000" stroke-width="21.1689"/>
<line y1="-10.5844" x2="247.881" y2="-10.5844" transform="matrix(-0.707107 -0.707107 -0.707107 0.707107 633.698 349.024)" stroke="#DA0000" stroke-width="21.1689"/>
<line y1="-10.5844" x2="247.881" y2="-10.5844" transform="matrix(-0.707107 -0.707107 -0.707107 0.707107 673.495 349.024)" stroke="#DA0000" stroke-width="21.1689"/>
</g>
<path d="M121.633 241.159V189.034L115.014 203.099V227.921L121.633 241.159Z" fill="#DA0000"/>
<path d="M143.018 285.424L128.125 269.703V161.316L143.018 144.769" stroke="#DA0000" stroke-width="1.65477"/>
<path d="M658.16 285.424L673.053 269.703V161.316L658.16 144.769" stroke="#DA0000" stroke-width="1.65477"/>
<path d="M679.545 241.159V189.034L686.164 203.099V227.921L679.545 241.159Z" fill="#DA0000"/>
<path d="M226.099 187.506C228.181 183.899 233.387 183.9 235.469 187.506L266.391 241.063C268.473 244.67 265.87 249.178 261.706 249.178H199.863C195.699 249.177 193.096 244.67 195.178 241.063L226.099 187.506Z" stroke="#DA0000" stroke-width="2.16393"/>
<line x1="231.49" y1="202.949" x2="231.49" y2="228.672" stroke="#DA0000" stroke-width="3.24589"/>
<rect x="230.679" y="236.833" width="1.62295" height="1.62295" stroke="#DA0000" stroke-width="1.62295"/>
<path d="M565.836 187.506C567.918 183.899 573.123 183.9 575.206 187.506L606.128 241.063C608.21 244.67 605.606 249.178 601.442 249.178H539.599C535.435 249.177 532.833 244.67 534.915 241.063L565.836 187.506Z" stroke="#DA0000" stroke-width="2.16393"/>
<line x1="571.227" y1="202.949" x2="571.227" y2="228.672" stroke="#DA0000" stroke-width="3.24589"/>
<rect x="570.415" y="236.833" width="1.62295" height="1.62295" stroke="#DA0000" stroke-width="1.62295"/>
<path d="M307.625 227.629L313.753 203.77H316.965L316.606 209.92L310.055 234.539H306.716L307.625 227.629ZM303.039 203.77L308.005 227.438L308.449 234.539H304.899L297.778 203.77H303.039ZM323.918 227.375L328.821 203.77H334.104L326.982 234.539H323.432L323.918 227.375ZM318.212 203.77L324.277 227.692L325.165 234.539H321.826L315.381 209.92L315.042 203.77H318.212ZM351.25 207.87L342.058 234.539H336.5L348.08 203.77H351.631L351.25 207.87ZM358.942 234.539L349.729 207.87L349.327 203.77H352.898L364.521 234.539H358.942ZM358.498 223.127V227.333H341.762V223.127H358.498ZM370.13 203.77H381.013C383.351 203.77 385.345 204.123 386.993 204.827C388.641 205.531 389.902 206.574 390.776 207.955C391.663 209.321 392.107 211.012 392.107 213.026C392.107 214.562 391.825 215.914 391.262 217.084C390.698 218.253 389.902 219.239 388.874 220.042C387.845 220.831 386.62 221.444 385.197 221.881L383.591 222.663H373.807L373.764 218.457H381.097C382.365 218.457 383.422 218.232 384.267 217.781C385.112 217.33 385.746 216.717 386.169 215.943C386.606 215.154 386.824 214.266 386.824 213.28C386.824 212.209 386.613 211.279 386.19 210.49C385.781 209.687 385.147 209.075 384.288 208.652C383.429 208.215 382.337 207.997 381.013 207.997H375.434V234.539H370.13V203.77ZM387.69 234.539L380.463 220.718L386.021 220.697L393.354 234.264V234.539H387.69ZM423.962 203.77V234.539H418.657L404.858 212.498V234.539H399.554V203.77H404.858L418.7 225.853V203.77H423.962ZM438.107 203.77V234.539H432.803V203.77H438.107ZM471.272 203.77V234.539H465.968L452.169 212.498V234.539H446.864V203.77H452.169L466.01 225.853V203.77H471.272ZM503.38 218.817V230.566C502.943 231.144 502.26 231.778 501.33 232.468C500.415 233.144 499.196 233.729 497.674 234.222C496.153 234.715 494.258 234.961 491.99 234.961C490.06 234.961 488.292 234.637 486.686 233.989C485.08 233.327 483.692 232.362 482.523 231.094C481.368 229.826 480.473 228.284 479.839 226.466C479.205 224.635 478.888 222.55 478.888 220.211V218.077C478.888 215.752 479.177 213.681 479.754 211.864C480.346 210.033 481.191 208.483 482.29 207.215C483.389 205.947 484.713 204.989 486.263 204.341C487.827 203.679 489.595 203.348 491.567 203.348C494.089 203.348 496.174 203.77 497.822 204.616C499.485 205.447 500.767 206.602 501.668 208.081C502.57 209.561 503.141 211.251 503.38 213.153H498.182C498.013 212.082 497.682 211.124 497.188 210.279C496.709 209.434 496.019 208.772 495.118 208.293C494.23 207.8 493.075 207.553 491.652 207.553C490.426 207.553 489.348 207.786 488.419 208.25C487.489 208.715 486.714 209.399 486.094 210.3C485.488 211.202 485.03 212.301 484.721 213.597C484.411 214.893 484.256 216.372 484.256 218.035V220.211C484.256 221.902 484.432 223.402 484.784 224.712C485.15 226.023 485.671 227.128 486.348 228.03C487.038 228.932 487.876 229.615 488.862 230.08C489.849 230.531 490.962 230.756 492.201 230.756C493.413 230.756 494.406 230.658 495.181 230.46C495.956 230.249 496.569 230.002 497.019 229.721C497.484 229.425 497.844 229.143 498.097 228.875V222.768H491.694V218.817H503.38Z" fill="white"/>
<path d="M294.514 270.982C294.514 272.085 294.209 272.916 293.599 273.475C293.002 274.02 292.138 274.293 291.009 274.293H288.243V272.813H291.204C291.684 272.813 292.073 272.67 292.372 272.384C292.671 272.098 292.82 271.754 292.82 271.352V269.326C292.82 268.937 292.716 268.625 292.508 268.392C292.314 268.145 292.015 268.022 291.613 268.022H291.028C290.067 268.022 289.308 267.742 288.75 267.184C288.191 266.613 287.912 265.788 287.912 264.711V263.971C287.912 262.867 288.211 262.043 288.808 261.497C289.418 260.939 290.288 260.66 291.418 260.66H294.203V262.14H291.223C290.743 262.14 290.353 262.283 290.054 262.569C289.756 262.854 289.607 263.198 289.607 263.601V265.081C289.607 265.483 289.736 265.821 289.996 266.094C290.256 266.353 290.593 266.483 291.009 266.483H291.593C292.515 266.483 293.229 266.749 293.735 267.282C294.255 267.814 294.514 268.619 294.514 269.697V270.982ZM302.597 274.293C301.455 274.293 300.617 274.052 300.085 273.572C299.553 273.079 299.287 272.28 299.287 271.177V267.671C299.287 266.554 299.527 265.756 300.007 265.276C300.488 264.795 301.286 264.555 302.403 264.555H303.318C304.24 264.555 304.934 264.815 305.402 265.334C305.882 265.84 306.122 266.587 306.122 267.574V270.105H300.942V271.566C300.942 271.969 301.065 272.28 301.312 272.501C301.559 272.722 301.922 272.832 302.403 272.832H305.499V274.293H302.597ZM304.506 267.184C304.506 266.847 304.396 266.567 304.175 266.347C303.954 266.126 303.675 266.016 303.337 266.016H302.208C301.74 266.016 301.409 266.126 301.215 266.347C301.033 266.554 300.942 266.866 300.942 267.282V268.645H304.506V267.184ZM312.199 264.555V265.022C312.602 264.711 313.121 264.555 313.757 264.555H314.653C315.705 264.555 316.484 264.802 316.99 265.295C317.51 265.788 317.769 266.58 317.769 267.671V274.293H316.114V267.282C316.114 266.892 315.997 266.587 315.763 266.366C315.543 266.133 315.238 266.016 314.848 266.016H313.563C313.134 266.016 312.816 266.133 312.608 266.366C312.401 266.587 312.297 266.827 312.297 267.087V274.293H310.641V264.555H312.199ZM328.657 271.858C328.657 272.676 328.404 273.286 327.897 273.689C327.404 274.091 326.683 274.293 325.736 274.293H322.834V272.832H325.93C326.281 272.832 326.547 272.761 326.729 272.618C326.911 272.462 327.001 272.241 327.001 271.956V270.923C327.001 270.339 326.722 270.047 326.164 270.047H325.443C324.535 270.047 323.853 269.852 323.399 269.463C322.957 269.06 322.736 268.431 322.736 267.574V267.009C322.736 266.139 322.983 265.516 323.476 265.139C323.97 264.75 324.697 264.555 325.658 264.555H328.267V266.016H325.463C325.138 266.016 324.879 266.094 324.684 266.249C324.489 266.392 324.392 266.606 324.392 266.892V267.593C324.392 267.892 324.476 268.113 324.645 268.255C324.827 268.398 325.054 268.47 325.327 268.47H325.989C326.859 268.47 327.521 268.684 327.975 269.112C328.43 269.528 328.657 270.151 328.657 270.982V271.858ZM338.103 260.66V262.413H336.253V260.66H338.103ZM333.488 266.016V264.555H338.006V272.832H340.888V274.293H336.35V266.016H333.488ZM349.4 274.293C348.737 274.293 348.231 274.078 347.881 273.65C347.53 273.222 347.355 272.657 347.355 271.956V266.016H345.505V264.555H347.355V262.218H349.01V264.555H351.854V266.016H349.01V272.053C349.01 272.339 349.082 272.54 349.224 272.657C349.367 272.774 349.588 272.832 349.887 272.832H351.854V274.293H349.4ZM361.086 260.66V262.413H359.235V260.66H361.086ZM356.47 266.016V264.555H360.988V272.832H363.871V274.293H359.333V266.016H356.47ZM367.65 264.555H369.441L371.72 272.949L373.94 264.555H375.673L372.869 274.293H370.474L367.65 264.555ZM383.036 274.293C381.893 274.293 381.056 274.052 380.524 273.572C379.991 273.079 379.725 272.28 379.725 271.177V267.671C379.725 266.554 379.965 265.756 380.446 265.276C380.926 264.795 381.725 264.555 382.841 264.555H383.756C384.678 264.555 385.373 264.815 385.84 265.334C386.321 265.84 386.561 266.587 386.561 267.574V270.105H381.38V271.566C381.38 271.969 381.504 272.28 381.75 272.501C381.997 272.722 382.361 272.832 382.841 272.832H385.938V274.293H383.036ZM384.944 267.184C384.944 266.847 384.834 266.567 384.613 266.347C384.393 266.126 384.113 266.016 383.776 266.016H382.646C382.179 266.016 381.848 266.126 381.653 266.347C381.471 266.554 381.38 266.866 381.38 267.282V268.645H384.944V267.184ZM407.05 260.66V262.413H405.2V260.66H407.05ZM402.435 266.016V264.555H406.953V272.832H409.835V274.293H405.298V266.016H402.435ZM415.62 264.555V265.022C416.023 264.711 416.542 264.555 417.178 264.555H418.074C419.126 264.555 419.905 264.802 420.411 265.295C420.931 265.788 421.19 266.58 421.19 267.671V274.293H419.535V267.282C419.535 266.892 419.418 266.587 419.184 266.366C418.964 266.133 418.659 266.016 418.269 266.016H416.984C416.555 266.016 416.237 266.133 416.029 266.366C415.822 266.587 415.718 266.827 415.718 267.087V274.293H414.062V264.555H415.62ZM429.78 262.121C429.572 262.121 429.403 262.179 429.273 262.296C429.157 262.4 429.098 262.536 429.098 262.705V264.555H432.234V266.016H429.098V272.832H431.455V274.293H425.787V272.832H427.443V266.016H425.787V264.555H427.443V262.802C427.443 262.14 427.631 261.621 428.007 261.244C428.384 260.855 428.871 260.66 429.468 260.66H432.428V262.121H429.78ZM444.231 271.177C444.231 272.267 443.959 273.059 443.413 273.553C442.881 274.046 442.05 274.293 440.92 274.293H440.278C439.148 274.293 438.311 274.046 437.765 273.553C437.233 273.059 436.967 272.267 436.967 271.177V267.671C436.967 266.58 437.233 265.788 437.765 265.295C438.311 264.802 439.148 264.555 440.278 264.555H440.92C442.05 264.555 442.881 264.802 443.413 265.295C443.959 265.788 444.231 266.58 444.231 267.671V271.177ZM442.576 267.282C442.576 266.879 442.452 266.567 442.206 266.347C441.959 266.126 441.596 266.016 441.115 266.016H440.083C439.603 266.016 439.239 266.126 438.992 266.347C438.746 266.567 438.622 266.879 438.622 267.282V271.566C438.622 271.969 438.746 272.28 438.992 272.501C439.239 272.722 439.603 272.832 440.083 272.832H441.115C441.596 272.832 441.959 272.722 442.206 272.501C442.452 272.28 442.576 271.969 442.576 271.566V267.282ZM450.211 272.832V266.016H448.789V264.555H451.769V265.081C452.197 264.73 452.717 264.555 453.327 264.555H455.333V266.113H453.132C452.717 266.113 452.405 266.249 452.197 266.522C451.99 266.782 451.879 267.048 451.866 267.321V272.832H453.989V274.293H448.789V272.832H450.211ZM460.631 264.555V265.003C460.969 264.704 461.371 264.555 461.838 264.555H461.955C462.864 264.555 463.507 264.815 463.883 265.334C464.312 264.815 464.877 264.555 465.578 264.555H465.695C466.487 264.555 467.071 264.756 467.447 265.159C467.824 265.561 468.012 266.275 468.012 267.301V274.293H466.454V267.282C466.454 266.749 466.396 266.379 466.279 266.171C466.175 265.964 465.928 265.86 465.539 265.86H465.422C465.032 265.86 464.76 265.996 464.604 266.269C464.461 266.529 464.383 266.821 464.37 267.145V274.293H462.812V267.282C462.812 266.736 462.747 266.366 462.617 266.171C462.488 265.964 462.254 265.86 461.916 265.86H461.799C461.41 265.86 461.137 265.977 460.982 266.21C460.826 266.431 460.741 266.684 460.728 266.97V274.293H459.17V264.555H460.631ZM477.945 274.293C477.777 274.293 477.588 274.241 477.381 274.137C477.186 274.033 477.017 273.89 476.874 273.708C476.576 274.098 476.18 274.293 475.686 274.293H473.953C472.966 274.293 472.246 274.098 471.791 273.708C471.35 273.306 471.129 272.624 471.129 271.664V271.274C471.129 269.262 472.077 268.255 473.972 268.255H476.387V267.282C476.387 266.879 476.264 266.567 476.017 266.347C475.771 266.126 475.407 266.016 474.927 266.016H471.908V264.555H474.732C475.861 264.555 476.692 264.802 477.225 265.295C477.77 265.788 478.043 266.58 478.043 267.671V272.345C478.043 272.54 478.114 272.689 478.257 272.793C478.413 272.884 478.666 272.929 479.016 272.929V274.293H477.945ZM475.491 272.832C475.881 272.832 476.128 272.741 476.231 272.559C476.335 272.378 476.387 272.144 476.387 271.858V269.716H473.953C473.615 269.716 473.336 269.826 473.115 270.047C472.895 270.268 472.784 270.547 472.784 270.885V271.858C472.784 272.196 472.862 272.443 473.018 272.598C473.174 272.754 473.421 272.832 473.758 272.832H475.491ZM487.294 274.293C486.632 274.293 486.126 274.078 485.775 273.65C485.425 273.222 485.249 272.657 485.249 271.956V266.016H483.399V264.555H485.249V262.218H486.905V264.555H489.748V266.016H486.905V272.053C486.905 272.339 486.976 272.54 487.119 272.657C487.262 272.774 487.482 272.832 487.781 272.832H489.748V274.293H487.294ZM498.98 260.66V262.413H497.13V260.66H498.98ZM494.365 266.016V264.555H498.883V272.832H501.765V274.293H497.227V266.016H494.365ZM513.178 271.177C513.178 272.267 512.906 273.059 512.361 273.553C511.828 274.046 510.997 274.293 509.868 274.293H509.225C508.095 274.293 507.258 274.046 506.713 273.553C506.18 273.059 505.914 272.267 505.914 271.177V267.671C505.914 266.58 506.18 265.788 506.713 265.295C507.258 264.802 508.095 264.555 509.225 264.555H509.868C510.997 264.555 511.828 264.802 512.361 265.295C512.906 265.788 513.178 266.58 513.178 267.671V271.177ZM511.523 267.282C511.523 266.879 511.4 266.567 511.153 266.347C510.906 266.126 510.543 266.016 510.062 266.016H509.03C508.55 266.016 508.186 266.126 507.94 266.347C507.693 266.567 507.57 266.879 507.57 267.282V271.566C507.57 271.969 507.693 272.28 507.94 272.501C508.186 272.722 508.55 272.832 509.03 272.832H510.062C510.543 272.832 510.906 272.722 511.153 272.501C511.4 272.28 511.523 271.969 511.523 271.566V267.282ZM519.041 264.555V265.022C519.444 264.711 519.963 264.555 520.599 264.555H521.495C522.547 264.555 523.326 264.802 523.832 265.295C524.352 265.788 524.611 266.58 524.611 267.671V274.293H522.956V267.282C522.956 266.892 522.839 266.587 522.605 266.366C522.385 266.133 522.079 266.016 521.69 266.016H520.405C519.976 266.016 519.658 266.133 519.45 266.366C519.243 266.587 519.139 266.827 519.139 267.087V274.293H517.483V264.555H519.041Z" fill="white"/>
<rect width="10" height="10" transform="matrix(0 1 1 0 709.9 9.89999)" fill="#DA0000"/>
<rect width="10" height="10" transform="matrix(0 1 1 0 709.9 23.9)" fill="#DA0000"/>
<rect width="10" height="10" transform="matrix(0 1 1 0 723.9 9.89999)" fill="#DA0000"/>
<rect width="10" height="10" transform="matrix(0 1 1 0 737.9 23.9)" fill="#DA0000"/>
<rect width="10" height="10" transform="matrix(0 1 1 0 751.9 9.89999)" fill="#DA0000"/>
<rect width="10" height="10" transform="matrix(0 1 1 0 751.9 23.9)" fill="#DA0000"/>
<rect width="10" height="10" transform="matrix(0 1 1 0 765.9 9.89999)" fill="#DA0000"/>
<rect width="10" height="10" transform="matrix(0 1 1 0 631.9 7.89999)" fill="#DA0000"/>
<rect width="10" height="10" transform="matrix(0 1 1 0 631.9 21.9)" fill="#DA0000"/>
<rect width="10" height="10" transform="matrix(0 1 1 0 645.9 7.89999)" fill="#DA0000"/>
<rect width="10" height="10" transform="matrix(0 1 1 0 659.9 21.9)" fill="#DA0000"/>
<rect width="10" height="10" transform="matrix(0 1 1 0 673.9 7.89999)" fill="#DA0000"/>
<rect width="10" height="10" transform="matrix(0 1 1 0 673.9 21.9)" fill="#DA0000"/>
<rect width="10" height="10" transform="matrix(0 1 1 0 687.9 7.89999)" fill="#DA0000"/>
<rect x="99.9" y="9.89999" width="10" height="10" transform="rotate(90 99.9 9.89999)" fill="#DA0000"/>
<rect x="99.9" y="23.9" width="10" height="10" transform="rotate(90 99.9 23.9)" fill="#DA0000"/>
<rect x="85.9" y="9.89999" width="10" height="10" transform="rotate(90 85.9 9.89999)" fill="#DA0000"/>
<rect x="71.9" y="23.9" width="10" height="10" transform="rotate(90 71.9 23.9)" fill="#DA0000"/>
<rect x="57.9" y="9.89999" width="10" height="10" transform="rotate(90 57.9 9.89999)" fill="#DA0000"/>
<rect x="57.9" y="23.9" width="10" height="10" transform="rotate(90 57.9 23.9)" fill="#DA0000"/>
<rect x="43.9" y="9.89999" width="10" height="10" transform="rotate(90 43.9 9.89999)" fill="#DA0000"/>
<rect x="177.9" y="7.89999" width="10" height="10" transform="rotate(90 177.9 7.89999)" fill="#DA0000"/>
<rect x="177.9" y="21.9" width="10" height="10" transform="rotate(90 177.9 21.9)" fill="#DA0000"/>
<rect x="163.9" y="7.89999" width="10" height="10" transform="rotate(90 163.9 7.89999)" fill="#DA0000"/>
<rect x="149.9" y="21.9" width="10" height="10" transform="rotate(90 149.9 21.9)" fill="#DA0000"/>
<rect x="135.9" y="7.89999" width="10" height="10" transform="rotate(90 135.9 7.89999)" fill="#DA0000"/>
<rect x="135.9" y="21.9" width="10" height="10" transform="rotate(90 135.9 21.9)" fill="#DA0000"/>
<rect x="121.9" y="7.89999" width="10" height="10" transform="rotate(90 121.9 7.89999)" fill="#DA0000"/>
<rect width="10" height="10" transform="matrix(0 1 1 0 706.9 397.9)" fill="#DA0000"/>
<rect width="10" height="10" transform="matrix(0 1 1 0 706.9 411.9)" fill="#DA0000"/>
<rect width="10" height="10" transform="matrix(0 1 1 0 720.9 397.9)" fill="#DA0000"/>
<rect width="10" height="10" transform="matrix(0 1 1 0 734.9 411.9)" fill="#DA0000"/>
<rect width="10" height="10" transform="matrix(0 1 1 0 748.9 397.9)" fill="#DA0000"/>
<rect width="10" height="10" transform="matrix(0 1 1 0 748.9 411.9)" fill="#DA0000"/>
<rect width="10" height="10" transform="matrix(0 1 1 0 762.9 397.9)" fill="#DA0000"/>
<rect width="10" height="10" transform="matrix(0 1 1 0 628.9 395.9)" fill="#DA0000"/>
<rect width="10" height="10" transform="matrix(0 1 1 0 628.9 409.9)" fill="#DA0000"/>
<rect width="10" height="10" transform="matrix(0 1 1 0 642.9 395.9)" fill="#DA0000"/>
<rect width="10" height="10" transform="matrix(0 1 1 0 656.9 409.9)" fill="#DA0000"/>
<rect width="10" height="10" transform="matrix(0 1 1 0 670.9 395.9)" fill="#DA0000"/>
<rect width="10" height="10" transform="matrix(0 1 1 0 670.9 409.9)" fill="#DA0000"/>
<rect width="10" height="10" transform="matrix(0 1 1 0 684.9 395.9)" fill="#DA0000"/>
<rect x="96.9" y="397.9" width="10" height="10" transform="rotate(90 96.9 397.9)" fill="#DA0000"/>
<rect x="96.9" y="411.9" width="10" height="10" transform="rotate(90 96.9 411.9)" fill="#DA0000"/>
<rect x="82.9" y="397.9" width="10" height="10" transform="rotate(90 82.9 397.9)" fill="#DA0000"/>
<rect x="68.9" y="411.9" width="10" height="10" transform="rotate(90 68.9 411.9)" fill="#DA0000"/>
<rect x="54.9" y="397.9" width="10" height="10" transform="rotate(90 54.9 397.9)" fill="#DA0000"/>
<rect x="54.9" y="411.9" width="10" height="10" transform="rotate(90 54.9 411.9)" fill="#DA0000"/>
<rect x="40.9" y="397.9" width="10" height="10" transform="rotate(90 40.9 397.9)" fill="#DA0000"/>
<rect x="174.9" y="395.9" width="10" height="10" transform="rotate(90 174.9 395.9)" fill="#DA0000"/>
<rect x="174.9" y="409.9" width="10" height="10" transform="rotate(90 174.9 409.9)" fill="#DA0000"/>
<rect x="160.9" y="395.9" width="10" height="10" transform="rotate(90 160.9 395.9)" fill="#DA0000"/>
<rect x="146.9" y="409.9" width="10" height="10" transform="rotate(90 146.9 409.9)" fill="#DA0000"/>
<rect x="132.9" y="395.9" width="10" height="10" transform="rotate(90 132.9 395.9)" fill="#DA0000"/>
<rect x="132.9" y="409.9" width="10" height="10" transform="rotate(90 132.9 409.9)" fill="#DA0000"/>
<rect x="118.9" y="395.9" width="10" height="10" transform="rotate(90 118.9 395.9)" fill="#DA0000"/>
<defs>
<filter id="filter0_f_219_16019" x="2.43187e-05" y="-6.19888e-06" width="799.142" height="429.8" filterUnits="userSpaceOnUse" color-interpolation-filters="sRGB">
<feFlood flood-opacity="0" result="BackgroundImageFix"/>
<feBlend mode="normal" in="SourceGraphic" in2="BackgroundImageFix" result="shape"/>
<feGaussianBlur stdDeviation="3.95" result="effect1_foregroundBlur_219_16019"/>
</filter>
<clipPath id="clip0_219_16019">
<rect width="569.113" height="17.3114" fill="white" transform="translate(115.014 101.49)"/>
</clipPath>
<clipPath id="clip1_219_16019">
<rect width="569.113" height="17.3114" fill="white" transform="matrix(1 0 0 -1 117.178 328.702)"/>
</clipPath>
<clipPath id="clip2_219_16019">
<rect width="569.113" height="17.3114" fill="white" transform="translate(115.014 101.49)"/>
</clipPath>
<clipPath id="clip3_219_16019">
<rect width="569.113" height="17.3114" fill="white" transform="matrix(1 0 0 -1 117.178 328.702)"/>
</clipPath>
</defs>
</svg>
