<svg width="378" height="365" viewBox="0 0 378 365" fill="none" xmlns="http://www.w3.org/2000/svg">
<path d="M314.476 125.311L313.955 125.221C272.924 117.621 183.541 137.063 114.619 168.558L114.289 168.711L114.189 168.39C99.1031 119.948 100.678 78.5864 118.295 60.4542C125.917 52.6035 136.342 49.6291 148.439 51.8199C180.522 37.2151 214.906 35.9127 245.437 48.1478C261.682 54.7005 276.026 64.6536 287.424 77.2816C299.634 90.6446 308.689 106.635 314.37 124.861L314.476 125.311ZM175.934 144.623C229.627 127.785 283.926 119.263 313.577 124.545C307.946 106.589 298.943 90.8205 286.907 77.6485C275.559 65.0891 261.286 55.1877 245.124 48.6634C214.777 36.5098 180.493 37.8219 148.599 52.4163L148.503 52.4464L148.399 52.4218C136.282 50.1962 126.327 53.0151 118.736 60.8235C101.326 78.7761 99.7762 119.77 114.688 167.882C134.595 158.89 155.054 151.121 175.934 144.623Z" fill="white"/>
<path d="M217.024 41.3802C196.378 37.5559 151.321 47.3711 116.59 63.2238L116.337 62.6973C151.171 46.7797 196.402 36.959 217.168 40.8029L217.024 41.3802Z" fill="white"/>
<path d="M276.444 67.5034C241.072 60.9781 163.882 77.7344 104.393 104.912L104.14 104.386C163.728 77.1604 241.096 60.3563 276.587 66.9261L276.444 67.5034Z" fill="white"/>
<path d="M259.676 125.681L259.076 125.869C245.053 80.8432 219.853 49.6134 191.654 42.3204C176.62 38.439 161.746 41.8753 148.673 52.3689L148.247 51.9373C161.509 41.3438 176.568 37.8249 191.813 41.763C220.258 49.0851 245.594 80.4688 259.676 125.681Z" fill="white"/>
<path d="M188.091 141.236L187.491 141.424C167.743 78.03 153.617 45.505 149.875 46.2038C149.509 46.2694 148.643 46.9829 148.79 52.1273L148.161 52.1688C148.043 47.9244 148.557 45.8392 149.779 45.6197C155.351 44.5928 173.038 92.8985 188.091 141.236Z" fill="white"/>
<path d="M64.2963 239.616L63.776 239.525C50.9336 237.142 43.7804 232.231 43.0903 225.324C42.4545 218.843 47.484 210.905 57.2563 202.265C55.5637 156.926 74.5699 111.096 107.639 79.5798C110.044 71.7604 113.599 65.2832 118.327 60.4441C125.968 52.5709 136.43 49.6014 148.58 51.8494L149.508 52.0085L148.655 52.3987C133.673 59.3066 119.991 68.6047 108.238 79.8667C101.707 101.277 103.835 132.824 114.853 168.182L114.93 168.428L114.674 168.508C89.6186 179.951 70.1314 191.728 57.9406 202.403C58.4084 214.89 60.503 227.213 64.1774 239.097L64.2963 239.616ZM57.2804 202.987C47.9115 211.344 43.0989 218.993 43.7172 225.251C44.3637 231.794 51.1675 236.488 63.4053 238.848C59.8471 227.224 57.7909 215.185 57.2804 202.987ZM107.304 80.7246C74.9431 111.978 56.3077 157.086 57.8562 201.742C70.0793 191.114 89.4094 179.452 114.08 168.154C103.309 133.333 101.115 102.191 107.304 80.7246ZM131.139 53.0943C126.39 54.6144 122.11 57.2969 118.748 60.8607C114.32 65.4255 110.929 71.4995 108.56 78.7916C119.945 68.0085 133.103 59.0468 147.478 52.285C142.089 51.2613 136.46 51.5431 131.107 53.1043L131.139 53.0943Z" fill="white"/>
<path d="M90.8486 99.0327C84.3155 97.8068 80.6476 95.2975 80.2985 91.7475C79.5685 84.3219 93.3727 73.1898 116.337 62.6973L116.59 63.2237C93.8848 73.6186 80.2081 84.457 80.923 91.6663C81.2486 94.9453 84.7335 97.2909 90.9582 98.458L90.8486 99.0327Z" fill="white"/>
<path d="M60.4778 166.183C49.3626 164.127 43.1809 159.876 42.5701 153.895C41.3191 141.278 64.9078 122.33 104.123 104.391L104.376 104.918C65.4242 122.716 41.9714 141.426 43.1707 153.821C43.7397 159.529 49.7542 163.611 60.5874 165.609L60.4778 166.183Z" fill="white"/>
<path d="M61.8217 198.926L61.2219 199.114C49.6066 161.823 54.3143 124.121 74.1295 95.6879C90.9538 71.5825 117.337 55.9981 148.442 51.8597L148.511 52.4439C117.591 56.557 91.3583 72.0041 74.6466 95.9924C54.9299 124.263 50.2579 161.799 61.8217 198.926Z" fill="white"/>
<path d="M43.6611 224.4L43.0613 224.588C32.5319 190.788 37.0518 154.504 55.819 122.421C75.5937 88.5647 108.498 63.5263 148.431 51.8796L148.606 52.4386C108.719 64.0056 76.0188 88.9963 56.3221 122.68C37.6741 154.611 33.1715 190.727 43.6611 224.4Z" fill="white"/>
<path d="M201.939 219.538C147.926 236.477 93.3268 244.994 63.776 239.525L63.5984 239.491L63.5469 239.327C41.1953 167.547 79.237 83.4599 148.346 51.8897L148.45 51.8571L148.552 51.8742C189.704 59.4933 241.351 124.051 263.689 195.786L263.766 196.032L263.51 196.112C243.502 205.174 222.934 213 201.939 219.538ZM64.0953 238.975C105.097 246.477 194.224 227.091 263.007 195.713C240.706 124.319 189.392 60.1232 148.508 52.4612C79.7848 83.9185 41.9461 167.533 64.0953 238.975Z" fill="white"/>
<path d="M160.624 88.9404C133.353 97.4923 105.801 101.785 90.8808 99.0227L91.0225 98.4379C111.669 102.262 156.723 92.4644 191.457 76.5942L191.71 77.1207C181.609 81.6958 171.224 85.6443 160.624 88.9404Z" fill="white"/>
<path d="M179.79 148.964C133.15 163.59 86.0025 170.942 60.4736 166.225L60.6152 165.641C95.9964 172.196 173.179 155.417 232.666 128.232L232.921 128.766C215.654 136.578 197.905 143.326 179.79 148.964Z" fill="white"/>
<path d="M118.845 238.277L118.246 238.465C95.8656 166.736 109.35 83.0466 148.247 51.9372L148.641 52.3788C109.928 83.3484 96.5205 166.751 118.845 238.277Z" fill="white"/>
<path d="M190.389 222.735L189.79 222.923C167.467 151.265 148.795 74.6637 148.161 52.1687L148.79 52.1273C149.419 74.5825 168.079 151.114 190.389 222.735Z" fill="white"/>
<path d="M263.185 196.28L263.084 195.959C240.803 124.403 189.355 60.0041 148.404 52.4367L147.476 52.2775L148.323 51.8973C180.392 37.2478 214.863 35.9426 245.369 48.1281C261.614 54.6808 275.958 64.6338 287.356 77.2618C299.524 90.5728 308.575 106.523 314.251 124.678C326.982 127.071 334.102 131.961 334.759 138.844C336.208 153.437 308.896 175.387 263.491 196.135L263.185 196.28ZM149.451 52.051C190.389 60.4166 241.357 124.377 263.588 195.465C308.545 174.883 335.552 153.25 334.168 138.948C333.509 132.31 326.525 127.574 313.965 125.25L313.787 125.216L313.736 125.052C308.049 106.917 299.061 90.9719 286.916 77.6783C275.568 65.1189 261.295 55.2175 245.133 48.6932C215.047 36.6135 181.098 37.8203 149.451 52.051Z" fill="white"/>
<path d="M191.678 77.1308L191.425 76.6043C214.13 66.2095 227.807 55.3711 227.092 48.1618C226.769 44.8902 223.292 42.5421 217.057 41.3701L217.201 40.7928C223.734 42.0187 227.399 44.5205 227.751 48.0779C228.425 55.5212 214.642 66.6383 191.678 77.1308Z" fill="white"/>
<path d="M232.934 128.721L232.679 128.187C271.647 110.383 295.093 91.6513 293.868 79.2884C293.299 73.5806 287.287 69.5061 276.452 67.5008L276.596 66.9236C287.711 68.9803 293.892 73.2309 294.503 79.2122C295.73 91.8361 272.114 110.81 232.934 128.721Z" fill="white"/>
<path d="M316.651 165.047L316.051 165.235C293.781 93.7162 218.625 43.1214 148.511 52.4438L148.442 51.8596C218.842 42.4967 294.302 93.2747 316.651 165.047Z" fill="white"/>
<path d="M334.819 139.595L334.219 139.783C311.958 68.2942 228.671 29.1074 148.56 52.4288L148.384 51.8698C228.834 28.4505 312.462 67.8005 334.819 139.595Z" fill="white"/>
<path d="M229.425 312.311L229.323 312.294C188.179 304.673 136.524 240.118 114.189 168.39L114.111 168.144L114.375 168.062C183.397 136.519 273.001 117.056 314.106 124.666L314.284 124.7L314.335 124.864C336.685 196.636 298.643 280.724 229.533 312.294L229.425 312.311ZM114.866 168.448C137.172 239.833 188.478 304.03 229.362 311.692C298.083 280.228 335.912 196.608 313.777 125.186C272.752 117.691 183.661 137.108 114.866 168.448Z" fill="white"/>
<path d="M317.251 198.555C281.872 192.007 204.69 208.786 145.2 235.964L144.947 235.438C204.544 208.21 281.904 191.408 317.403 197.975L317.251 198.555Z" fill="white"/>
<path d="M286.88 265.706C266.234 261.881 221.18 271.679 186.446 287.549L186.193 287.023C221.027 271.105 266.266 261.282 287.024 265.128L286.88 265.706Z" fill="white"/>
<path d="M229.591 312.226L229.198 311.785C267.951 280.803 281.35 197.402 259.076 125.869L259.675 125.681C282.015 197.423 268.521 281.107 229.591 312.226Z" fill="white"/>
<path d="M229.709 311.985L229.089 312.024C228.451 289.571 209.792 213.04 187.492 141.424L188.091 141.236C210.406 212.896 229.076 289.49 229.709 311.985Z" fill="white"/>
<path d="M213.479 318.434C186.184 326.993 157.955 326.243 132.468 316.003C116.223 309.451 101.879 299.498 90.4809 286.87C78.3158 273.566 69.2726 257.613 63.5889 239.461C50.8574 237.068 43.7376 232.178 43.0809 225.295C41.6397 210.699 68.949 188.742 114.357 168.002L114.679 167.852L114.779 168.172C137.059 239.721 188.51 304.102 229.458 311.687L230.386 311.846L229.539 312.227C224.325 314.628 218.959 316.701 213.479 318.434ZM114.282 168.688C69.3256 189.27 42.3187 210.904 43.7031 225.206C44.3616 231.844 51.3454 236.579 63.9059 238.903L64.0835 238.938L64.135 239.102C69.822 257.237 78.8102 273.182 90.9603 286.465C102.3 299.028 116.568 308.931 132.727 315.456C162.812 327.503 196.737 326.304 228.421 312.078C187.49 303.735 136.519 239.792 114.282 168.688Z" fill="white"/>
<path d="M101.308 297.195C90.2033 295.143 84.0114 290.888 83.4029 284.914C82.1518 272.298 105.749 253.346 144.956 235.41L145.209 235.937C106.241 253.74 82.7975 272.48 84.0274 284.833C84.5884 290.543 90.611 294.623 101.436 296.623L101.308 297.195Z" fill="white"/>
<path d="M160.71 323.348C154.177 322.122 150.511 319.621 150.154 316.073C149.422 308.64 163.228 297.515 186.193 287.023L186.445 287.549C163.74 297.944 150.075 308.82 150.779 315.992C151.104 319.271 154.587 321.609 160.814 322.784L160.71 323.348Z" fill="white"/>
<path d="M229.428 312.294C159.047 321.659 83.569 270.879 61.222 199.114L61.8218 198.926C84.0893 270.438 159.246 321.032 229.367 311.707L229.428 312.294Z" fill="white"/>
<path d="M229.479 312.287C149.037 335.703 65.4084 296.353 43.0544 224.566L43.6542 224.378C65.9147 295.867 149.2 335.046 229.319 311.722L229.479 312.287Z" fill="white"/>
<path d="M246.939 311.551C241.209 313.235 235.172 313.497 229.425 312.311C224.246 314.68 218.919 316.725 213.479 318.434C186.184 326.993 157.955 326.243 132.468 316.003C116.223 309.451 101.879 299.498 90.4809 286.87C78.2708 273.507 69.2159 257.517 63.5375 239.297L63.3879 238.82L63.9002 238.913C104.932 246.513 194.322 227.068 263.244 195.573L263.566 195.423L263.667 195.744C278.753 244.186 277.183 285.538 259.566 303.67C256.134 307.288 251.774 310.009 246.939 311.551ZM229.363 311.692L229.467 311.717C241.584 313.943 251.539 311.124 259.13 303.315C276.553 285.375 278.102 244.381 263.185 196.279C194.496 227.595 105.572 246.959 64.2962 239.616C69.9272 257.572 78.9279 273.333 90.972 286.503C102.312 299.065 116.58 308.968 132.739 315.493C163.086 327.646 197.378 326.332 229.271 311.737L229.363 311.692Z" fill="white"/>
<path d="M220.586 279.979C173.945 294.605 126.798 301.956 101.267 297.233L101.411 296.655C136.792 303.21 213.975 286.432 273.47 259.244L273.725 259.778C256.456 267.591 238.704 274.339 220.586 279.979Z" fill="white"/>
<path d="M230.48 313.266C203.209 321.818 175.657 326.111 160.734 323.341L160.878 322.764C181.524 326.588 226.578 316.79 261.304 300.922L261.557 301.449C251.459 306.023 241.077 309.971 230.48 313.266Z" fill="white"/>
<path d="M211.938 321.84C203.451 324.477 194.423 324.673 186.026 322.401C157.637 315.061 132.279 283.692 118.205 238.478L118.845 238.277C132.86 283.305 158.068 314.533 186.257 321.821C201.291 325.702 216.153 322.229 229.238 311.772L229.631 312.214C224.422 316.474 218.407 319.746 211.938 321.84Z" fill="white"/>
<path d="M228.229 318.499L228.101 318.539C222.522 319.568 204.843 271.26 189.792 222.93L190.392 222.742C210.132 286.139 224.264 318.654 228 317.965C228.352 317.855 229.229 317.178 229.091 312.031L229.711 311.992C229.821 316.068 229.357 318.145 228.229 318.499Z" fill="white"/>
<path d="M246.939 311.551C241.644 313.211 235.718 313.473 229.323 312.294L228.395 312.135L229.239 311.747C244.223 304.836 257.906 295.537 269.664 284.277C276.188 262.869 274.06 231.322 263.052 195.969L262.98 195.738L263.244 195.655C288.291 184.215 307.786 172.436 319.969 161.763C319.501 149.276 317.407 136.953 313.732 125.069L313.583 124.592L314.103 124.683C326.948 127.016 334.077 131.936 334.783 138.837C335.427 145.315 330.397 153.253 320.622 161.886C322.332 207.195 303.309 253.055 270.232 284.574C267.827 292.393 264.271 298.87 259.584 303.697C256.143 307.308 251.777 310.02 246.939 311.551ZM230.353 311.881C242.036 313.817 251.702 310.917 259.106 303.323C263.533 298.758 266.933 292.682 269.305 285.429C257.911 296.19 244.75 305.13 230.377 311.874L230.353 311.881ZM263.737 196.024C274.54 230.836 276.74 261.968 270.551 283.434C302.912 252.18 321.541 207.083 319.993 162.427C307.794 173.048 288.464 184.709 263.761 196.017L263.737 196.024ZM314.47 125.321C318.025 136.943 320.078 148.98 320.585 161.177C329.954 152.819 334.774 145.168 334.148 138.913C333.512 132.375 326.706 127.673 314.478 125.319L314.47 125.321Z" fill="white"/>
<path d="M273.741 259.773L273.486 259.239C312.446 241.438 335.892 222.706 334.667 210.343C334.098 204.635 328.086 200.561 317.251 198.555L317.403 197.976C328.51 200.035 334.699 204.283 335.31 210.264C336.537 222.888 312.953 241.852 273.741 259.773Z" fill="white"/>
<path d="M261.533 301.456L261.28 300.93C283.993 290.533 297.662 279.697 296.947 272.487C296.624 269.216 293.147 266.868 286.912 265.696L287.056 265.118C293.589 266.344 297.254 268.846 297.606 272.404C298.312 279.837 284.497 290.964 261.533 301.456Z" fill="white"/>
<path d="M249.238 307.932C242.766 309.952 236.135 311.412 229.428 312.294L229.367 311.707C260.29 307.602 286.52 292.147 303.232 268.159C322.944 239.873 327.622 202.384 316.051 165.235L316.651 165.047C328.266 202.338 323.566 240.038 303.741 268.466C290.818 287.094 271.513 301.073 249.238 307.932Z" fill="white"/>
<path d="M232.903 311.245C231.767 311.601 230.631 311.958 229.488 312.316L229.313 311.757C269.106 300.171 301.854 275.222 321.55 241.505C340.19 209.577 344.692 173.462 334.212 139.818L334.812 139.63C345.341 173.43 340.819 209.707 322.092 241.778C302.897 274.625 271.306 299.202 232.903 311.245Z" fill="white"/>
<path d="M231.576 317.49C228.298 318.519 225.461 319.277 223.979 319.677C221.856 320.244 216.934 321.411 213.565 322.042C210.197 322.672 210.245 322.657 205.469 323.394C204.574 323.535 203.507 323.665 202.465 323.787L201.103 323.952C194.868 324.658 188.609 325.005 182.36 324.992C178.705 324.934 174.381 324.759 171.325 324.564C168.749 324.389 165.348 324.047 162.879 323.708C159.059 323.179 154.193 322.339 150.818 321.661C147.443 320.984 143.582 320.042 140.956 319.261C133.511 317.183 126.267 314.564 119.289 311.426C115.974 309.928 112.168 308.043 109.578 306.62C106.491 304.927 102.085 302.331 98.8161 300.171C92.2974 295.871 86.1728 291.073 80.5002 285.824C75.1608 280.652 70.1501 275.185 65.4924 269.45C62.931 266.229 60.5618 262.873 58.3954 259.396C57.1408 257.439 55.7685 254.996 54.4426 252.645C53.8451 251.58 53.2696 250.557 52.7301 249.621C50.7162 245.974 48.9601 242.199 47.4728 238.318L47.2458 237.734C45.5111 233.532 44.0202 229.237 42.7797 224.865C42.5622 223.976 42.311 223.007 42.0505 222.008C41.3403 219.267 40.5395 216.153 40.0471 213.63C39.1893 209.54 38.5711 205.399 38.1953 201.227C38.1534 200.421 38.0742 199.497 38.011 198.567C37.7993 195.735 37.5681 192.533 37.5403 189.979C37.5012 186.045 37.6532 181.012 37.9313 177.445C38.2095 173.879 38.7241 169.526 39.2432 166.391C39.6277 164.06 40.6637 158.177 41.8809 153.767C43.7478 146.976 46.8715 138.367 48.9747 133.057C50.1128 130.244 51.8831 126.758 53.457 123.71C54.023 122.714 54.485 121.75 54.9151 120.797C56.5626 117.637 58.3887 114.559 60.385 111.574C62.9973 107.636 66.714 102.598 69.2802 99.1572C71.6977 95.9958 74.3046 92.964 77.0876 90.0776C80.6378 86.3855 85.6438 81.5655 89.5355 78.0937C91.8336 76.0386 95.4326 73.1744 99.1664 70.4316C102.055 68.2979 105.91 65.6891 108.743 63.9409C113.352 61.0433 118.113 58.3752 123.005 55.9482C125.587 54.6309 130.812 52.2472 134.744 50.695C137.536 49.5985 139.735 48.7695 141.291 48.2407C145.625 46.767 146.054 46.6242 150.744 45.2764C151.36 45.0833 156.989 43.4569 164.319 42.0424C168.625 41.2079 172.27 40.7034 172.424 40.688C173.797 40.5029 175.737 40.2466 177.205 40.081C178.284 39.9638 179.615 39.8409 180.853 39.7555L182.338 39.6173C183.934 39.4688 186.169 39.341 188.972 39.2316C190.52 39.1803 192.669 39.1447 195.529 39.1321C199.237 39.1074 203.576 39.2773 206.582 39.5628C208.809 39.7732 211.286 40.0526 213.748 40.3693C217.052 40.692 220.336 41.1549 223.599 41.758L223.806 41.7997C228.894 42.7498 233.917 43.9482 238.854 45.3902C242.311 46.5 247.529 48.1795 251.287 49.6043C252.693 50.1377 257.56 52.0171 261.164 53.875L261.843 54.2188C265.156 55.9059 269.283 58.0011 272.364 59.7609C275.034 61.298 278.752 63.6604 281.62 65.6346C284.488 67.6088 288.461 70.6444 291.482 73.0782C294.7 75.7204 297.784 78.4699 299.727 80.464C302.082 82.8773 305.648 86.5157 308.108 89.3464C309.966 91.4899 312.556 94.7629 315.035 98.1033C319.063 103.594 322.638 109.377 325.731 115.404C329.158 122.283 332.067 129.396 334.436 136.694C335.558 140.272 336.819 145.19 337.617 148.91C338.168 151.48 338.66 154.756 339.093 157.649C339.229 158.532 339.356 159.384 339.478 160.165C340.012 164.269 340.321 168.404 340.403 172.556C340.52 175.728 340.44 180.125 340.234 183.751C340.027 187.377 339.556 192.15 338.969 196.133C338.643 198.396 338.085 201.101 337.555 203.723C337.32 204.878 337.089 205.99 336.896 207C335.959 211.16 334.784 215.278 333.377 219.336C332.672 221.513 331.67 224.087 330.703 226.576C330.289 227.639 329.896 228.655 329.549 229.591C327.843 233.76 325.899 237.846 323.725 241.831C322.042 245.035 319.928 248.686 318.349 251.13C316.042 254.694 312.637 259.552 309.682 263.517C307.655 266.24 304.756 269.572 303.212 271.317C301.394 273.361 298.901 275.944 296.887 278.008L296.275 278.634C292.244 282.725 287.924 286.556 283.348 290.097C279.43 293.094 276.429 295.287 274.186 296.818C271.369 298.732 267.452 301.197 264.42 302.958C261.263 304.767 257.531 306.813 254.889 308.109L254.529 308.279C253.214 308.929 251.574 309.721 250.295 310.294C247.985 311.33 244.991 312.596 243.132 313.359C242.972 313.409 239.111 315.021 233.419 316.896L231.576 317.49ZM146.392 47.2797C145.032 47.7061 143.824 48.0848 141.483 48.9091C139.935 49.4354 137.744 50.2618 134.968 51.3534C131.06 52.898 125.849 55.2692 123.282 56.5816C118.417 59.0031 113.679 61.6585 109.088 64.5368C106.251 66.2452 102.429 68.8763 99.5467 71.0001C95.8369 73.7353 92.2445 76.5647 89.9727 78.6197C86.0891 82.089 81.1024 86.8865 77.5578 90.5687C74.7882 93.4226 72.1947 96.4229 69.791 99.5537C67.2248 102.995 63.5217 108.02 60.9152 111.948C58.9328 114.912 57.1208 117.97 55.4872 121.109L54.0211 124.024C52.4505 127.055 50.6822 130.491 49.5647 133.314C47.4672 138.614 44.3619 147.226 42.4865 153.962C41.2807 158.352 40.248 164.218 39.8668 166.531C39.3441 169.626 38.8338 173.937 38.55 177.513C38.2661 181.09 38.1185 186.081 38.1608 189.997C38.192 192.534 38.4233 195.736 38.6302 198.553C38.7015 199.48 38.7657 200.385 38.8145 201.213C39.1914 205.364 39.806 209.484 40.6556 213.554C41.1444 216.037 41.9404 219.136 42.6483 221.869C42.9112 222.876 43.1624 223.845 43.3799 224.734C44.6149 229.083 46.0959 233.357 47.8169 237.539L48.0439 238.122C49.5274 241.977 51.2757 245.727 53.2778 249.351C53.815 250.279 54.3928 251.31 54.9904 252.375C56.3083 254.729 57.6759 257.157 58.9258 259.098C61.0778 262.555 63.4319 265.892 65.9777 269.093C70.0561 274.003 75.9623 280.821 80.9326 285.411C86.5799 290.646 92.6847 295.426 99.1874 299.702C102.391 301.85 106.817 304.424 109.893 306.112C112.462 307.525 116.258 309.405 119.555 310.9C126.51 314.019 133.726 316.628 141.142 318.703C143.754 319.472 147.608 320.417 150.954 321.087C154.3 321.757 159.2 322.594 163.01 323.119C165.471 323.46 168.846 323.802 171.411 323.972C174.442 324.167 178.763 324.335 182.409 324.395C188.629 324.414 194.859 324.076 201.065 323.383L202.435 323.215C203.467 323.088 204.533 322.958 205.413 322.822C210.149 322.098 210.149 322.098 213.485 321.477C216.821 320.857 221.716 319.715 223.832 319.125C225.597 318.645 229.242 317.666 233.272 316.345C238.941 314.477 242.784 312.895 242.939 312.83C244.789 312.062 247.777 310.806 250.087 309.77C251.349 309.202 252.987 308.402 254.297 307.762L254.657 307.592C257.282 306.302 261.008 304.29 264.15 302.462C267.156 300.701 271.07 298.253 273.87 296.343C276.1 294.826 279.093 292.634 283.005 289.648C287.554 286.122 291.85 282.313 295.864 278.247L296.468 277.624C298.458 275.567 300.969 272.987 302.782 270.953C304.012 269.552 307.124 266.005 309.215 263.204C312.165 259.25 315.553 254.397 317.858 250.85C319.431 248.417 321.533 244.786 323.205 241.601C325.36 237.64 327.282 233.577 328.963 229.431C329.313 228.502 329.711 227.477 330.127 226.421C331.102 223.929 332.057 221.371 332.782 219.203C334.157 215.175 335.306 211.09 336.226 206.964C336.419 205.954 336.647 204.835 336.883 203.68C337.413 201.058 337.969 198.378 338.293 196.132C338.87 192.12 339.364 187.282 339.563 183.797C339.762 180.313 339.818 175.76 339.72 172.647C339.641 168.519 339.336 164.407 338.808 160.326C338.686 159.545 338.557 158.685 338.423 157.81C337.992 154.924 337.493 151.651 336.946 149.096C336.153 145.39 334.875 140.503 333.779 136.925C331.411 129.642 328.502 122.545 325.072 115.685C322.009 109.681 318.465 103.921 314.468 98.453C311.996 95.1349 309.412 91.852 307.561 89.7308C305.113 86.9125 301.558 83.279 299.21 80.8881C297.285 78.9213 294.218 76.1743 291.005 73.547C288.035 71.1055 284.088 68.1271 281.195 66.1281C278.302 64.1291 274.632 61.8088 271.975 60.2841C268.92 58.5242 264.804 56.434 261.5 54.7519L260.822 54.408C257.247 52.5898 252.411 50.7253 251.014 50.1894C247.268 48.777 242.059 47.095 238.612 45.9901C233.692 44.5585 228.688 43.3651 223.621 42.4144L223.435 42.3826C220.667 41.9572 217.175 41.4394 213.636 40.9937C192.038 38.8679 169.775 42.7466 148.686 52.3563L148.622 52.3764L148.369 51.8499C164.83 44.2102 182.754 40.0976 200.812 39.8168C199.035 39.7519 197.19 39.7245 195.513 39.7265C192.654 39.7391 190.512 39.7721 188.975 39.8284C186.18 39.9353 183.964 40.0655 182.376 40.2115L180.89 40.3497C179.67 40.4624 178.328 40.5803 177.25 40.6727C175.788 40.8283 173.864 41.0796 172.493 41.2722C172.341 41.3199 168.71 41.7871 164.42 42.6166C157.125 44.0285 151.521 45.6548 150.903 45.8404C148.767 46.5349 147.551 46.9161 146.392 47.2797Z" fill="white"/>
<path d="M314.476 125.311L313.955 125.221C272.924 117.621 183.541 137.063 114.619 168.558L114.289 168.711L114.189 168.39C99.1031 119.948 100.678 78.5864 118.295 60.4542C125.917 52.6035 136.342 49.6291 148.439 51.82C180.522 37.2152 214.906 35.9128 245.437 48.1479C261.682 54.7006 276.026 64.6536 287.424 77.2816C299.634 90.6447 308.689 106.635 314.37 124.861L314.476 125.311ZM175.934 144.623C229.627 127.785 283.926 119.263 313.577 124.545C307.946 106.589 298.943 90.8206 286.907 77.6485C275.559 65.0892 261.286 55.1878 245.124 48.6635C214.777 36.5099 180.493 37.822 148.599 52.4164L148.503 52.4465L148.399 52.4219C136.282 50.1962 126.327 53.0152 118.736 60.8235C101.326 78.7762 99.7762 119.77 114.688 167.882C134.595 158.89 155.054 151.121 175.934 144.623Z" fill="white"/>
<path d="M217.024 41.3802C196.378 37.556 151.321 47.3712 116.59 63.2239L116.337 62.6974C151.171 46.7798 196.402 36.9591 217.168 40.8029L217.024 41.3802Z" fill="white"/>
<path d="M276.444 67.5035C241.072 60.9781 163.882 77.7345 104.393 104.913L104.14 104.386C163.728 77.1605 241.096 60.3564 276.587 66.9262L276.444 67.5035Z" fill="white"/>
<path d="M259.676 125.681L259.076 125.869C245.053 80.8433 219.852 49.6134 191.653 42.3205C176.619 38.439 161.746 41.8753 148.672 52.3689L148.247 51.9374C161.509 41.3438 176.567 37.825 191.812 41.7631C220.258 49.0852 245.594 80.4688 259.676 125.681Z" fill="white"/>
<path d="M188.092 141.236L187.492 141.424C167.743 78.0301 153.617 45.5051 149.875 46.2039C149.509 46.2695 148.644 46.983 148.79 52.1275L148.162 52.1689C148.043 47.9245 148.557 45.8394 149.78 45.6198C155.352 44.5929 173.039 92.8986 188.092 141.236Z" fill="white"/>
<path d="M64.2963 239.616L63.776 239.525C50.9336 237.143 43.7804 232.231 43.0903 225.325C42.4545 218.844 47.484 210.905 57.2563 202.266C55.5637 156.926 74.5699 111.097 107.639 79.58C110.044 71.7605 113.599 65.2833 118.327 60.4442C125.968 52.5711 136.43 49.6015 148.58 51.8495L149.508 52.0086L148.655 52.3988C133.673 59.3067 119.991 68.6048 108.238 79.8668C101.707 101.277 103.835 132.824 114.853 168.182L114.93 168.428L114.674 168.508C89.6186 179.951 70.1314 191.728 57.9406 202.403C58.4084 214.89 60.503 227.213 64.1774 239.097L64.2963 239.616ZM57.2804 202.987C47.9115 211.344 43.0989 218.994 43.7172 225.251C44.3637 231.794 51.1675 236.488 63.4053 238.848C59.8471 227.224 57.7909 215.185 57.2804 202.987ZM107.304 80.7247C74.9431 111.978 56.3077 157.086 57.8562 201.742C70.0793 191.114 89.4094 179.452 114.08 168.154C103.309 133.333 101.115 102.191 107.304 80.7247ZM131.139 53.0944C126.39 54.6145 122.11 57.297 118.748 60.8608C114.32 65.4256 110.929 71.4996 108.56 78.7917C119.945 68.0086 133.103 59.0469 147.478 52.2851C142.089 51.2615 136.46 51.5432 131.107 53.1045L131.139 53.0944Z" fill="white"/>
<path d="M90.8486 99.0328C84.3155 97.8069 80.6476 95.2977 80.2985 91.7477C79.5685 84.322 93.3727 73.1899 116.337 62.6974L116.59 63.2239C93.8848 73.6187 80.2081 84.4571 80.923 91.6664C81.2486 94.9454 84.7335 97.291 90.9582 98.4581L90.8486 99.0328Z" fill="white"/>
<path d="M60.4778 166.183C49.3626 164.127 43.1809 159.876 42.5701 153.895C41.3191 141.278 64.9078 122.33 104.123 104.391L104.376 104.918C65.4242 122.716 41.9714 141.426 43.1707 153.821C43.7397 159.529 49.7542 163.611 60.5874 165.609L60.4778 166.183Z" fill="white"/>
<path d="M61.8217 198.926L61.2219 199.114C49.6066 161.823 54.3143 124.121 74.1295 95.688C90.9538 71.5825 117.337 55.9982 148.442 51.8598L148.511 52.4439C117.591 56.557 91.3583 72.0042 74.6466 95.9925C54.9299 124.263 50.2579 161.799 61.8217 198.926Z" fill="white"/>
<path d="M43.6611 224.4L43.0613 224.589C32.5319 190.788 37.0518 154.504 55.819 122.421C75.5937 88.5648 108.498 63.5264 148.431 51.8797L148.606 52.4387C108.719 64.0057 76.0188 88.9964 56.3221 122.681C37.6741 154.611 33.1715 190.727 43.6611 224.4Z" fill="white"/>
<path d="M201.939 219.538C147.926 236.477 93.3268 244.995 63.776 239.525L63.5984 239.491L63.5469 239.327C41.1953 167.547 79.237 83.46 148.346 51.8898L148.45 51.8572L148.552 51.8744C189.704 59.4934 241.351 124.051 263.689 195.786L263.766 196.032L263.51 196.112C243.502 205.174 222.934 213 201.939 219.538ZM64.0953 238.975C105.097 246.478 194.224 227.091 263.007 195.713C240.706 124.319 189.392 60.1234 148.508 52.4613C79.7848 83.9186 41.9461 167.533 64.0953 238.975Z" fill="white"/>
<path d="M160.624 88.9404C133.353 97.4924 105.801 101.785 90.8808 99.0227L91.0225 98.438C111.669 102.262 156.723 92.4644 191.457 76.5943L191.71 77.1208C181.609 81.6958 171.224 85.6444 160.624 88.9404Z" fill="white"/>
<path d="M179.79 148.964C133.15 163.59 86.0025 170.942 60.4736 166.226L60.6152 165.641C95.9964 172.196 173.179 155.417 232.666 128.232L232.921 128.766C215.654 136.578 197.905 143.326 179.79 148.964Z" fill="white"/>
<path d="M118.845 238.277L118.246 238.465C95.8656 166.736 109.35 83.0467 148.247 51.9373L148.641 52.3789C109.928 83.3485 96.5205 166.751 118.845 238.277Z" fill="white"/>
<path d="M190.389 222.735L189.79 222.923C167.467 151.265 148.795 74.6638 148.161 52.1688L148.79 52.1274C149.419 74.5825 168.079 151.114 190.389 222.735Z" fill="white"/>
<path d="M263.185 196.28L263.084 195.959C240.803 124.403 189.355 60.0041 148.404 52.4368L147.476 52.2776L148.323 51.8974C180.392 37.2478 214.863 35.9427 245.369 48.1281C261.614 54.6808 275.958 64.6339 287.356 77.2619C299.524 90.5728 308.575 106.523 314.251 124.678C326.982 127.071 334.102 131.961 334.759 138.844C336.208 153.437 308.896 175.387 263.491 196.135L263.185 196.28ZM149.451 52.051C190.389 60.4166 241.357 124.377 263.588 195.465C308.545 174.883 335.552 153.25 334.168 138.948C333.509 132.31 326.525 127.574 313.965 125.25L313.787 125.216L313.736 125.052C308.049 106.917 299.061 90.9719 286.916 77.6783C275.568 65.119 261.295 55.2176 245.133 48.6932C215.047 36.6136 181.098 37.8204 149.451 52.051Z" fill="white"/>
<path d="M191.678 77.1309L191.425 76.6044C214.13 66.2096 227.807 55.3712 227.092 48.1619C226.769 44.8903 223.292 42.5422 217.057 41.3702L217.201 40.7929C223.734 42.0189 227.399 44.5206 227.751 48.0781C228.425 55.5213 214.642 66.6384 191.678 77.1309Z" fill="white"/>
<path d="M232.934 128.721L232.679 128.187C271.647 110.383 295.093 91.6513 293.868 79.2885C293.299 73.5807 287.287 69.5062 276.452 67.5009L276.596 66.9236C287.711 68.9803 293.892 73.231 294.503 79.2122C295.73 91.8361 272.114 110.81 232.934 128.721Z" fill="white"/>
<path d="M316.651 165.047L316.051 165.235C293.781 93.7163 218.625 43.1215 148.511 52.4439L148.442 51.8597C218.842 42.4968 294.302 93.2747 316.651 165.047Z" fill="white"/>
<path d="M334.819 139.595L334.219 139.783C311.958 68.2943 228.671 29.1075 148.56 52.4289L148.384 51.8698C228.834 28.4506 312.462 67.8006 334.819 139.595Z" fill="white"/>
<path d="M229.425 312.312L229.323 312.294C188.179 304.673 136.524 240.118 114.189 168.39L114.111 168.144L114.375 168.062C183.397 136.519 273.001 117.056 314.106 124.666L314.284 124.7L314.335 124.864C336.685 196.636 298.643 280.724 229.533 312.294L229.425 312.312ZM114.866 168.448C137.172 239.833 188.478 304.031 229.362 311.693C298.083 280.228 335.912 196.608 313.777 125.186C272.752 117.691 183.661 137.108 114.866 168.448Z" fill="white"/>
<path d="M317.251 198.555C281.872 192.008 204.69 208.786 145.2 235.964L144.947 235.438C204.544 208.21 281.904 191.408 317.403 197.975L317.251 198.555Z" fill="white"/>
<path d="M286.88 265.706C266.234 261.881 221.18 271.679 186.446 287.549L186.193 287.023C221.027 271.105 266.266 261.282 287.024 265.128L286.88 265.706Z" fill="white"/>
<path d="M229.591 312.227L229.198 311.785C267.951 280.803 281.35 197.402 259.076 125.869L259.675 125.681C282.015 197.423 268.521 281.107 229.591 312.227Z" fill="white"/>
<path d="M229.709 311.985L229.089 312.024C228.451 289.571 209.792 213.04 187.492 141.424L188.091 141.236C210.406 212.896 229.076 289.49 229.709 311.985Z" fill="white"/>
<path d="M213.479 318.434C186.184 326.993 157.955 326.243 132.468 316.003C116.223 309.451 101.879 299.498 90.4809 286.87C78.3158 273.566 69.2726 257.614 63.5889 239.461C50.8574 237.068 43.7376 232.178 43.0809 225.295C41.6397 210.699 68.949 188.742 114.357 168.002L114.679 167.852L114.779 168.172C137.059 239.721 188.51 304.103 229.458 311.687L230.386 311.846L229.539 312.227C224.325 314.628 218.959 316.701 213.479 318.434ZM114.282 168.688C69.3256 189.271 42.3187 210.904 43.7031 225.206C44.3616 231.844 51.3454 236.579 63.9059 238.903L64.0835 238.938L64.135 239.102C69.822 257.237 78.8102 273.182 90.9603 286.466C102.3 299.028 116.568 308.931 132.727 315.456C162.812 327.503 196.737 326.304 228.421 312.078C187.49 303.735 136.519 239.792 114.282 168.688Z" fill="white"/>
<path d="M101.308 297.195C90.2033 295.143 84.0114 290.888 83.4029 284.914C82.1518 272.298 105.749 253.346 144.956 235.41L145.209 235.937C106.241 253.741 82.7975 272.48 84.0274 284.833C84.5884 290.543 90.611 294.623 101.436 296.623L101.308 297.195Z" fill="white"/>
<path d="M160.71 323.349C154.177 322.123 150.511 319.621 150.154 316.073C149.422 308.64 163.228 297.516 186.193 287.023L186.445 287.55C163.74 297.944 150.075 308.82 150.779 315.992C151.104 319.271 154.587 321.609 160.814 322.784L160.71 323.349Z" fill="white"/>
<path d="M229.428 312.294C159.047 321.66 83.569 270.879 61.222 199.114L61.8218 198.926C84.0893 270.438 159.246 321.032 229.367 311.707L229.428 312.294Z" fill="white"/>
<path d="M229.479 312.287C149.037 335.703 65.4084 296.353 43.0544 224.566L43.6542 224.378C65.9147 295.867 149.2 335.046 229.319 311.723L229.479 312.287Z" fill="white"/>
<path d="M246.939 311.551C241.209 313.235 235.172 313.497 229.425 312.311C224.246 314.68 218.919 316.725 213.479 318.434C186.184 326.993 157.955 326.243 132.468 316.003C116.223 309.451 101.879 299.498 90.4809 286.87C78.2708 273.507 69.2159 257.517 63.5375 239.297L63.3879 238.82L63.9002 238.913C104.932 246.513 194.322 227.068 263.244 195.573L263.566 195.423L263.667 195.744C278.753 244.186 277.183 285.538 259.566 303.67C256.134 307.288 251.774 310.009 246.939 311.551ZM229.363 311.692L229.467 311.717C241.584 313.943 251.539 311.124 259.13 303.315C276.553 285.375 278.102 244.381 263.185 196.28C194.496 227.595 105.572 246.959 64.2962 239.616C69.9272 257.572 78.9279 273.333 90.972 286.503C102.312 299.065 116.58 308.968 132.739 315.493C163.086 327.646 197.378 326.332 229.271 311.737L229.363 311.692Z" fill="white"/>
<path d="M220.586 279.979C173.945 294.605 126.798 301.957 101.267 297.233L101.411 296.655C136.792 303.211 213.975 286.432 273.47 259.244L273.725 259.778C256.456 267.591 238.704 274.339 220.586 279.979Z" fill="white"/>
<path d="M230.48 313.266C203.209 321.818 175.657 326.111 160.734 323.341L160.878 322.764C181.524 326.588 226.578 316.79 261.304 300.923L261.557 301.449C251.459 306.023 241.077 309.971 230.48 313.266Z" fill="white"/>
<path d="M211.938 321.84C203.451 324.477 194.423 324.673 186.026 322.401C157.637 315.061 132.279 283.693 118.205 238.478L118.845 238.277C132.86 283.306 158.068 314.533 186.257 321.821C201.291 325.702 216.153 322.229 229.238 311.772L229.631 312.214C224.422 316.474 218.407 319.746 211.938 321.84Z" fill="white"/>
<path d="M228.229 318.499L228.101 318.539C222.522 319.569 204.843 271.26 189.792 222.93L190.392 222.742C210.132 286.139 224.264 318.654 228 317.965C228.352 317.855 229.229 317.178 229.091 312.031L229.711 311.993C229.821 316.068 229.357 318.145 228.229 318.499Z" fill="white"/>
<path d="M246.939 311.551C241.644 313.212 235.718 313.473 229.323 312.294L228.395 312.135L229.239 311.748C244.223 304.836 257.906 295.537 269.664 284.277C276.188 262.87 274.06 231.322 263.052 195.969L262.98 195.738L263.244 195.655C288.291 184.215 307.786 172.436 319.969 161.763C319.501 149.276 317.407 136.953 313.732 125.069L313.583 124.592L314.103 124.683C326.948 127.016 334.077 131.936 334.783 138.837C335.427 145.315 330.397 153.254 320.622 161.886C322.332 207.195 303.309 253.055 270.232 284.574C267.827 292.393 264.271 298.871 259.584 303.697C256.143 307.308 251.777 310.02 246.939 311.551ZM230.353 311.881C242.036 313.817 251.702 310.917 259.106 303.323C263.533 298.758 266.933 292.682 269.305 285.429C257.911 296.19 244.75 305.13 230.377 311.874L230.353 311.881ZM263.737 196.024C274.54 230.836 276.74 261.968 270.551 283.434C302.912 252.181 321.541 207.083 319.993 162.427C307.794 173.048 288.464 184.709 263.761 196.017L263.737 196.024ZM314.47 125.321C318.025 136.943 320.078 148.98 320.585 161.177C329.954 152.82 334.774 145.168 334.148 138.913C333.512 132.375 326.706 127.673 314.478 125.319L314.47 125.321Z" fill="white"/>
<path d="M273.741 259.773L273.486 259.239C312.446 241.438 335.892 222.706 334.667 210.343C334.098 204.635 328.086 200.561 317.251 198.555L317.403 197.976C328.51 200.035 334.699 204.283 335.31 210.264C336.537 222.888 312.953 241.852 273.741 259.773Z" fill="white"/>
<path d="M261.533 301.456L261.28 300.93C283.993 290.533 297.662 279.697 296.947 272.487C296.624 269.216 293.147 266.868 286.912 265.696L287.056 265.118C293.589 266.344 297.254 268.846 297.606 272.404C298.312 279.837 284.497 290.964 261.533 301.456Z" fill="white"/>
<path d="M249.238 307.932C242.766 309.952 236.135 311.412 229.428 312.294L229.367 311.707C260.29 307.602 286.52 292.147 303.232 268.159C322.944 239.873 327.622 202.385 316.051 165.235L316.651 165.047C328.266 202.338 323.566 240.038 303.741 268.466C290.818 287.094 271.513 301.073 249.238 307.932Z" fill="white"/>
<path d="M232.903 311.245C231.767 311.602 230.631 311.958 229.488 312.316L229.313 311.757C269.106 300.171 301.854 275.222 321.55 241.506C340.19 209.577 344.692 173.462 334.212 139.818L334.812 139.63C345.341 173.43 340.819 209.707 322.092 241.778C302.897 274.625 271.306 299.202 232.903 311.245Z" fill="white"/>
<path d="M231.385 317.55L230.297 317.891C228.302 318.476 225.754 319.202 223.965 319.689C220.104 320.736 215.725 321.618 213.626 322.039C210.503 322.666 205.919 323.342 205.614 323.38C201.896 323.875 199.239 324.225 195.983 324.46C194.061 324.605 191.87 324.76 190.214 324.829C188.038 324.922 185.563 325.01 183.694 324.99L182.687 324.971C180.458 324.949 177.685 324.902 175.606 324.801C171.951 324.629 169.227 324.427 167.264 324.191C164.267 323.821 158.593 323.095 154.327 322.346C150.604 321.679 146.844 320.893 144.442 320.181C143.563 319.925 142.583 319.659 141.559 319.391C139.145 318.723 136.648 318.041 134.622 317.35C132.803 316.733 126.482 314.557 121.574 312.436C118.993 311.322 114.882 309.443 111.793 307.8C109.042 306.338 103.883 303.527 100.201 301.087C93.5112 296.794 87.2269 291.978 81.4113 286.685C76.0109 281.579 70.9508 276.162 66.2579 270.462C63.6419 267.208 61.218 263.817 58.9966 260.304C57.725 258.378 56.3437 255.962 55.0065 253.63C54.3986 252.56 53.8095 251.55 53.255 250.594C51.2022 246.945 49.4041 243.166 47.8717 239.282C46.2825 235.334 44.587 230.684 43.5575 227.429C42.8002 225.014 42.0248 221.925 41.3456 219.199C41.087 218.151 40.8345 217.149 40.5996 216.232C39.4819 211.687 38.7228 207.058 38.3286 202.38L38.1499 200.046C37.9055 197.11 37.6346 193.781 37.5843 191.128C37.5027 187.338 37.6118 182.392 37.8532 178.821C38.0841 175.383 38.5627 170.944 39.0691 167.797C39.4154 165.568 40.3395 159.916 41.4704 155.623C43.1889 149.059 46.129 140.564 48.3026 134.807C49.8766 130.932 51.6528 127.126 53.6246 123.404C55.6793 119.396 57.9502 115.484 60.4282 111.683C61.9975 109.349 67.5115 101.275 72.5072 95.3862C74.9431 92.5101 78.6884 88.3475 81.8924 85.2878L82.4453 84.7542C84.2157 83.0611 86.4264 80.9515 88.1909 79.4076C89.9553 77.8637 93.3947 74.9103 96.0811 72.889L97.0801 72.1254C98.2877 71.2146 99.6479 70.1741 100.776 69.4027C103.212 67.7302 107.273 64.9094 110.381 63.0586C115.913 59.6817 121.649 56.6252 127.556 53.9068L127.682 54.1701L127.556 53.9068C131.106 52.286 135.038 50.6518 138.078 49.5347C140.763 48.5453 141.762 48.1746 144.486 47.2797C147.209 46.3847 150.004 45.5492 150.78 45.3631C152.718 44.8209 154.552 44.3112 157.274 43.6624C159.995 43.0136 161.429 42.7114 164.305 42.1368C166.789 41.6528 167.13 41.5947 172.259 40.8052C173.247 40.6509 174.44 40.506 175.498 40.3788L176.664 40.234C179.419 39.886 184.69 39.4691 187.712 39.3566C191.825 39.1965 197.141 39.1749 200.956 39.2966C204.151 39.4 207.966 39.6609 210.678 39.9645C214.321 40.3775 219.531 41.1097 223.624 41.8075C225.233 42.1215 226.826 42.4405 228.388 42.7696C230.163 43.1378 231.899 43.5186 233.386 43.92C238.421 45.2967 244.351 47.121 248.495 48.5721C254.67 50.729 262.619 54.6219 268.061 57.3526C272.247 59.4837 276.256 61.8978 280.059 64.5768L282.011 65.9865C284.82 67.9957 287.996 70.2824 290.411 72.2106C293.318 74.5099 296.094 76.9508 298.73 79.524L299.834 80.6351C302.236 83.0582 305.223 86.0839 307.362 88.5077C309.501 90.9315 312.304 94.4078 314.365 97.1998C316.427 99.9918 319.261 104.212 321.248 107.469C323.337 110.907 325.743 115.556 326.694 117.411C329.772 123.634 332.347 130.084 334.396 136.706C336.501 144.076 338.143 151.574 339.312 159.16C339.948 163.229 340.288 167.346 340.33 171.481C340.325 172.531 340.334 173.707 340.344 174.915C340.359 177.596 340.378 180.373 340.258 182.679C340.11 186.747 339.729 190.813 339.114 194.859C338.944 195.829 338.77 196.899 338.582 198.006C338.163 200.593 337.66 203.469 337.154 205.748C336.305 209.485 335.021 214.268 333.953 217.64C332.884 221.013 331.418 225.075 330.24 227.957C329.576 229.566 327.232 235.172 325.048 239.41C322.948 243.441 321.158 246.614 319.844 248.811C317.615 252.457 314.801 256.704 312.695 259.624C311.046 261.901 308.533 265.203 306.43 267.655C303.677 270.893 299.857 275.013 297.204 277.786C292.853 282.133 288.249 286.247 283.413 290.109C281.714 291.411 277.373 294.713 273.859 297.092C271.113 298.952 267.191 301.401 264.1 303.198C261.01 304.994 257.258 306.981 254.589 308.301C249.446 310.806 247.5 311.604 243.245 313.356C242.287 313.747 238.761 315.163 233.493 316.906L231.385 317.55ZM146.408 47.2745L144.624 47.8338C141.909 48.7263 140.918 49.0944 138.249 50.0788C135.208 51.1959 131.3 52.8226 127.764 54.4309C121.884 57.1389 116.174 60.1845 110.667 63.5502C107.595 65.4059 103.517 68.1993 101.07 69.8346C99.9574 70.6009 98.6029 71.6315 97.4033 72.5398L96.4043 73.3034C93.7316 75.3123 90.3355 78.2356 88.5494 79.7945C86.7633 81.3534 84.5958 83.4331 82.8231 85.1188L82.2702 85.6524C78.9862 88.8568 75.8686 92.2089 72.9293 95.6959C67.9553 101.57 62.4606 109.622 60.8946 111.938C58.428 115.717 56.1709 119.608 54.1329 123.596C52.1667 127.3 50.3965 131.087 48.8289 134.944C46.6587 140.684 43.7355 149.149 42.0204 155.696C40.8985 159.961 39.9673 165.591 39.629 167.817C39.133 170.969 38.6577 175.392 38.4292 178.836C38.2006 182.281 38.0853 187.319 38.1622 191.094C38.2158 193.73 38.4844 197.051 38.7241 199.972C38.7819 200.773 38.8557 201.568 38.9132 202.312C39.2966 206.959 40.049 211.558 41.1641 216.072C41.3989 216.989 41.6515 217.99 41.9101 219.039C42.587 221.757 43.36 224.839 44.1103 227.231C45.1295 230.481 46.8283 235.114 48.4128 239.046C49.9356 242.906 51.7205 246.662 53.7567 250.289C54.3122 251.22 54.9004 252.256 55.5186 253.331C56.8455 255.657 58.222 258.058 59.4833 259.979C61.6979 263.472 64.1176 266.84 66.7316 270.068C71.4067 275.749 76.4492 281.147 81.832 286.233C87.6269 291.506 93.8881 296.306 100.553 300.584C104.211 303.006 109.352 305.815 112.091 307.265C115.159 308.898 119.253 310.749 121.83 311.881C126.709 313.994 133.02 316.166 134.798 316.82C136.814 317.506 139.293 318.186 141.705 318.846L144.59 319.644C147.813 320.516 151.086 321.233 154.399 321.791C158.655 322.536 164.313 323.267 167.275 323.639C169.213 323.85 171.936 324.077 175.567 324.256C177.67 324.35 180.425 324.37 182.646 324.419L183.659 324.429C185.511 324.453 187.976 324.36 190.144 324.27C191.79 324.196 193.973 324.043 195.887 323.901C199.124 323.664 201.773 323.316 205.444 322.836C205.79 322.793 210.34 322.12 213.445 321.49C215.544 321.069 219.907 320.192 223.744 319.152C225.533 318.665 228.073 317.942 230.068 317.357C231.084 317.039 232.467 316.605 233.187 316.379C238.439 314.642 241.952 313.238 242.899 312.842C247.149 311.1 249.076 310.3 254.206 307.807C256.872 306.504 260.586 304.512 263.671 302.726C266.757 300.94 270.663 298.495 273.395 296.648C276.893 294.274 281.22 290.985 282.919 289.682C287.732 285.844 292.315 281.752 296.644 277.429C299.289 274.659 303.095 270.551 305.843 267.324C307.916 264.889 310.416 261.6 312.067 259.33C314.178 256.425 316.978 252.19 319.226 248.546C320.568 246.357 322.312 243.207 324.406 239.185C326.602 234.984 328.929 229.408 329.617 227.792C330.803 224.964 332.272 220.795 333.31 217.523C334.348 214.25 335.66 209.417 336.498 205.675C337.009 203.411 337.514 200.51 337.92 197.968L338.461 194.818C339.068 190.792 339.447 186.746 339.596 182.698C339.713 180.41 339.688 177.642 339.676 174.969C339.666 173.761 339.657 172.585 339.659 171.528C339.618 167.43 339.284 163.35 338.658 159.316C337.489 151.754 335.852 144.28 333.756 136.932C331.718 130.339 329.155 123.918 326.089 117.723C325.143 115.883 322.732 111.22 320.666 107.823C318.68 104.574 315.926 100.468 313.813 97.5941C311.699 94.7202 308.959 91.3308 306.837 88.9343C304.715 86.5379 301.728 83.5121 299.326 81.089L298.23 79.9755C295.61 77.4311 292.851 75.0175 289.963 72.7439C287.559 70.8207 284.393 68.5389 281.595 66.5346L279.634 65.1274C275.86 62.4637 271.879 60.0653 267.721 57.9503C262.29 55.2245 254.366 51.3565 248.226 49.197L246.711 48.6813C277.704 61.4101 301.652 87.3591 313.239 121.507C313.562 122.536 313.922 123.544 314.247 124.58L314.327 124.834C336.676 196.606 298.634 280.694 229.525 312.264L229.272 311.737C298.114 280.324 335.992 196.526 313.727 125.022L313.647 124.769C300.464 82.7297 268.732 52.6312 228.188 43.3644L226.509 43.0232C225.42 42.7998 224.378 42.5863 223.426 42.3526C219.354 41.6646 214.192 40.9175 210.551 40.5119C207.825 40.2207 204.05 39.9473 200.882 39.8438C197.08 39.7097 191.772 39.7288 187.717 39.8788C184.708 40.0037 179.472 40.418 176.733 40.761L175.539 40.9307C174.491 41.0628 173.306 41.2052 172.368 41.352C167.216 42.1489 166.904 42.1896 164.399 42.6886C161.528 43.2532 160.193 43.5328 157.391 44.2067C154.59 44.8805 152.86 45.3576 150.896 45.8999C150.286 46.0582 148.431 46.64 146.408 47.2745Z" fill="white"/>
<path d="M229.649 313.027L229.547 313.01C188.187 305.342 136.214 240.444 113.778 168.314L113.697 168.053L113.96 167.971C183.368 136.258 273.456 116.685 314.793 124.336L314.971 124.37L315.022 124.534C337.491 196.686 299.209 281.242 229.748 312.98L229.649 313.027ZM114.487 168.362C136.918 240.142 188.51 304.692 229.609 312.368C298.74 280.726 336.763 196.661 314.484 124.834C273.219 117.332 183.646 136.809 114.487 168.362Z" fill="white"/>
<path d="M287.452 266.157C266.693 262.311 221.378 272.141 186.465 288.116L186.212 287.59C221.239 271.587 266.725 261.711 287.594 265.572L287.452 266.157Z" fill="white"/>
<path d="M317.963 198.643C282.388 192.058 204.778 208.93 144.959 236.261L144.706 235.734C204.633 208.354 282.42 191.459 318.107 198.066L317.963 198.643Z" fill="white"/>
<path d="M229.816 312.942L229.423 312.501C268.385 281.346 281.86 197.488 259.462 125.559L260.062 125.371C282.525 197.509 268.955 281.651 229.816 312.942Z" fill="white"/>
<path d="M229.934 312.701L229.306 312.742C228.673 290.165 209.909 213.216 187.482 141.198L188.082 141.01C210.52 213.065 229.297 290.084 229.934 312.701Z" fill="white"/>
<path d="M213.61 319.187C186.163 327.794 157.781 327.034 132.156 316.773C115.815 310.177 101.388 300.156 89.9317 287.443C77.7056 274.085 68.601 258.021 62.8949 239.769C50.0878 237.359 42.9586 232.439 42.2685 225.533C40.8613 210.878 68.3028 188.838 113.961 167.971L114.283 167.821L114.383 168.141C136.786 240.085 188.515 304.821 229.696 312.448L230.624 312.607L229.777 312.987C224.526 315.386 219.125 317.457 213.61 319.187ZM113.871 168.637C68.6691 189.362 41.4786 211.11 42.9047 225.489C43.5646 232.159 50.5921 236.922 63.2259 239.256L63.4035 239.29L63.462 239.477C69.1394 257.721 78.214 273.746 90.4241 287.109C101.829 299.74 116.18 309.696 132.432 316.252C162.678 328.364 196.824 327.169 228.656 312.856C187.486 304.424 136.232 240.111 113.879 168.635L113.871 168.637Z" fill="white"/>
<path d="M160.55 324.127C153.969 322.916 150.3 320.375 149.946 316.81C149.204 309.347 163.087 298.157 186.183 287.607L186.436 288.134C163.595 298.571 149.858 309.527 150.605 316.726C150.927 320.022 154.433 322.378 160.728 323.547L160.55 324.127Z" fill="white"/>
<path d="M100.806 297.861C89.6194 295.802 83.4124 291.526 82.8115 285.493C81.5508 272.789 105.265 253.736 144.702 235.72L144.955 236.246C105.772 254.15 82.2011 272.986 83.4281 285.414C83.9984 291.154 90.0303 295.263 100.945 297.268L100.806 297.861Z" fill="white"/>
<path d="M229.653 313.01C158.825 322.433 83.004 271.4 60.5237 199.211L61.1235 199.023C83.5149 270.929 159.084 321.804 229.584 312.425L229.653 313.01Z" fill="white"/>
<path d="M229.703 313.002C148.788 336.559 64.728 296.984 42.2478 224.795L42.8476 224.607C65.2296 296.483 148.98 335.885 229.533 312.433L229.703 313.002Z" fill="white"/>
<path d="M247.26 312.269C241.498 313.96 235.428 314.221 229.649 313.027C197.436 327.722 162.829 329.069 132.164 316.77C115.823 310.174 101.396 300.153 89.9398 287.441C77.6686 274.023 68.5524 257.921 62.8516 239.602L62.702 239.125L63.2223 239.216C104.442 246.855 194.36 227.302 263.652 195.642L263.982 195.489L264.083 195.81C279.25 244.512 277.667 286.098 259.963 304.348C256.512 307.987 252.125 310.722 247.26 312.269ZM229.587 312.408L229.691 312.433C241.818 314.688 251.887 311.841 259.538 303.973C277.062 285.936 278.619 244.711 263.619 196.348C194.545 227.834 105.135 247.301 63.6366 239.921C69.2979 257.974 78.3451 273.827 90.4492 287.076C101.854 299.708 116.205 309.664 132.457 316.22C162.975 328.442 197.445 327.105 229.52 312.445L229.587 312.408Z" fill="white"/>
<path d="M230.704 313.982C203.29 322.579 175.565 326.91 160.55 324.127L160.694 323.55C181.453 327.396 226.769 317.565 261.679 301.583L261.934 302.117C251.784 306.706 241.352 310.669 230.704 313.982Z" fill="white"/>
<path d="M220.754 280.516C173.866 295.219 126.459 302.611 100.805 297.861L100.949 297.283C136.526 303.875 214.126 286.998 273.954 259.665L274.198 260.194C256.831 268.056 238.977 274.844 220.754 280.516Z" fill="white"/>
<path d="M212.05 322.615C203.517 325.266 194.44 325.463 185.998 323.179C157.447 315.8 131.954 284.253 117.795 238.795L118.395 238.607C132.495 283.879 157.836 315.277 186.187 322.604C201.301 326.518 216.246 323.002 229.407 312.506L229.8 312.947C224.574 317.223 218.54 320.51 212.05 322.615Z" fill="white"/>
<path d="M228.448 319.249L228.312 319.292C222.708 320.329 204.933 271.772 189.791 223.151L190.391 222.963C210.248 286.733 224.453 319.397 228.214 318.7C228.619 318.647 229.457 317.901 229.305 312.742L229.934 312.701C230.05 316.798 229.575 318.896 228.448 319.249Z" fill="white"/>
<path d="M247.26 312.269C241.934 313.939 235.965 314.174 229.548 313.01L228.619 312.851L229.472 312.461C244.538 305.515 258.296 296.166 270.113 284.84C276.679 263.313 274.542 231.597 263.473 196.05L263.396 195.804L263.652 195.724C288.844 184.213 308.468 172.369 320.703 161.639C320.224 149.086 318.109 136.697 314.406 124.752L314.256 124.275L314.777 124.366C327.692 126.758 334.881 131.7 335.573 138.638C336.22 145.156 331.155 153.122 321.333 161.827C323.064 207.4 303.921 253.493 270.669 285.182C268.251 293.046 264.639 299.566 259.958 304.415C256.5 308.029 252.115 310.741 247.26 312.269ZM230.599 312.582C242.348 314.53 252.077 311.635 259.52 303.971C263.977 299.389 267.403 293.312 269.776 285.978C258.316 296.814 245.071 305.812 230.602 312.589L230.599 312.582ZM264.169 196.086C275.033 231.091 277.242 262.392 271.024 283.99C303.558 252.559 322.3 207.205 320.706 162.318C308.446 172.999 289.013 184.725 264.172 196.093L264.169 196.086ZM315.16 124.999C318.739 136.685 320.804 148.79 321.311 161.056C330.745 152.653 335.586 144.954 334.958 138.667C334.313 132.099 327.465 127.378 315.162 125.006L315.16 124.999Z" fill="white"/>
<path d="M261.934 302.117L261.679 301.583C284.52 291.145 298.267 280.195 297.552 272.986C297.221 269.692 293.716 267.336 287.42 266.167L287.562 265.582C294.143 266.793 297.812 269.335 298.166 272.9C298.934 280.362 285.027 291.559 261.934 302.117Z" fill="white"/>
<path d="M274.16 260.182L273.915 259.653C313.097 241.749 336.66 222.915 335.433 210.488C334.863 204.747 328.831 200.638 317.925 198.631L318.069 198.053C329.257 200.12 335.456 204.398 336.063 210.421C337.353 223.107 313.636 242.178 274.16 260.182Z" fill="white"/>
<path d="M249.569 308.622C243.062 310.654 236.395 312.123 229.653 313.01L229.584 312.425C260.673 308.292 287.056 292.765 303.865 268.664C323.686 240.222 328.389 202.504 316.767 165.166L317.367 164.978C329.04 202.48 324.324 240.382 304.37 268.932C291.378 287.665 271.967 301.723 249.569 308.622Z" fill="white"/>
<path d="M233.143 311.956C232 312.315 230.856 312.673 229.713 313.032L229.537 312.473C269.579 300.808 302.49 275.735 322.285 241.832C341.044 209.752 345.566 173.417 335.021 139.597L335.621 139.409C346.207 173.388 341.658 209.862 322.829 242.111C303.522 275.133 271.762 299.845 233.143 311.956Z" fill="white"/>
<path d="M315.159 124.999L314.639 124.908C273.419 117.269 183.509 136.82 114.209 168.482L113.879 168.635L113.778 168.314C98.6084 119.604 100.192 78.0183 117.906 59.7739C125.569 51.8858 136.049 48.8939 148.209 51.0896C180.417 36.4048 215.029 35.0471 245.694 47.3465C262.034 53.9454 276.46 63.9655 287.919 76.6761C300.19 90.0937 309.304 106.188 315.015 124.512L315.159 124.999ZM175.86 144.417C229.858 127.483 284.435 118.923 314.268 124.23C308.605 106.17 299.549 90.3192 287.448 77.0777C276.042 64.4438 261.69 54.4851 245.437 47.9266C214.919 35.7038 180.468 37.0438 148.383 51.6983L148.279 51.7309L148.177 51.7138C136.048 49.4509 125.981 52.305 118.327 60.1657C100.84 78.208 99.2838 119.433 114.31 167.796C134.316 158.758 154.877 150.948 175.86 144.417Z" fill="white"/>
<path d="M276.932 66.8755C241.339 60.2886 163.739 77.1654 103.928 104.494L103.672 103.96C163.599 76.5789 241.378 59.6867 277.074 66.2908L276.932 66.8755Z" fill="white"/>
<path d="M217.186 40.6338C196.427 36.7875 151.12 46.6158 116.201 62.6008L115.949 62.0743C150.975 46.0716 196.459 36.1881 217.33 40.0565L217.186 40.6338Z" fill="white"/>
<path d="M260.062 125.371L259.462 125.56C245.362 80.2879 220.019 48.8819 191.668 41.5546C176.554 37.641 161.617 41.1546 148.451 51.6608L148.055 51.2118C161.401 40.5509 176.528 37.0269 191.857 40.9797C220.41 48.3661 245.908 79.9284 260.062 125.371Z" fill="white"/>
<path d="M188.082 141.01L187.482 141.198C167.666 77.4484 153.418 44.7571 149.652 45.4385C149.276 45.4992 148.415 46.2276 148.561 51.3969L147.932 51.4384C147.817 47.1766 148.347 45.0864 149.557 44.8544C155.165 43.8324 172.947 92.4114 188.082 141.01Z" fill="white"/>
<path d="M63.6128 239.929L63.0925 239.838C50.1687 237.448 42.9798 232.506 42.2885 225.568C41.649 219.047 46.7057 211.084 56.528 202.379C54.7949 156.799 73.938 110.705 107.198 79.0141C109.616 71.1499 113.228 64.6303 117.909 59.7813C125.591 51.8708 136.108 48.8837 148.324 51.1439L149.252 51.3031L148.407 51.6908C133.329 58.6358 119.56 67.9892 107.734 79.3211C101.168 100.848 103.346 132.552 114.374 168.111L114.451 168.357L114.195 168.438C89.0029 179.948 69.3867 191.789 57.1517 202.519C57.6315 215.073 59.7465 227.462 63.4492 239.407L63.6128 239.929ZM56.5601 203.098C47.1343 211.498 42.2853 219.2 42.913 225.487C43.5608 232.062 50.4083 236.783 62.7115 239.155C59.1326 227.469 57.0674 215.364 56.5601 203.098ZM106.851 80.1465C74.3252 111.632 55.5709 156.949 57.136 201.853C69.4273 191.163 88.86 179.436 113.702 168.068C102.836 133.055 100.625 101.747 106.851 80.1465ZM130.82 52.3841C126.036 53.9018 121.721 56.5924 118.33 60.1731C113.876 64.7629 110.447 70.8319 108.063 78.1291C119.536 67.3144 132.786 58.3349 147.254 51.5695C141.226 50.5726 135.748 50.8441 130.82 52.3841Z" fill="white"/>
<path d="M59.7773 166.133C48.5888 164.066 42.3898 159.788 41.7913 153.762C40.5225 141.062 64.2445 122.005 103.682 103.989L103.937 104.523C64.752 122.419 41.1832 141.264 42.4101 153.691C42.9805 159.431 49.0101 163.533 59.9166 165.541L59.7773 166.133Z" fill="white"/>
<path d="M90.3089 98.5717C83.7278 97.3608 80.0585 94.8192 79.7048 91.2543C78.9631 83.7914 92.8539 72.5994 115.941 62.0518L116.194 62.5783C93.3534 73.0158 79.6167 83.9712 80.3613 91.1631C80.6835 94.4595 84.1914 96.8224 90.4872 97.9918L90.3089 98.5717Z" fill="white"/>
<path d="M61.1234 199.023L60.5236 199.211C48.8405 161.703 53.564 123.799 73.5065 95.2122C90.4134 70.9498 116.952 55.3005 148.218 51.1442L148.287 51.7284C117.198 55.8618 90.8145 71.3889 74.0063 95.4894C54.1947 123.962 49.4941 161.687 61.1234 199.023Z" fill="white"/>
<path d="M42.8615 224.651L42.2617 224.839C31.6843 190.858 36.2223 154.379 55.0594 122.127C74.9346 88.0594 108.01 62.8936 148.175 51.1742L148.35 51.7332C108.33 63.3827 75.4054 88.4684 55.6105 122.372C36.847 154.494 32.3168 190.774 42.8615 224.651Z" fill="white"/>
<path d="M202.02 219.767C147.71 236.798 92.8024 245.339 63.1163 239.831L62.9387 239.796L62.8943 239.655C40.4197 167.455 78.6371 82.9195 148.13 51.1718L148.226 51.1417L148.328 51.1588C189.705 58.822 241.64 123.739 264.099 195.862L264.176 196.108L263.912 196.191C243.801 205.31 223.125 213.186 202.02 219.767ZM63.4116 239.288C104.659 246.819 194.251 227.345 263.418 195.789C240.995 124.007 189.401 59.4495 148.295 51.783C79.185 83.3781 41.1306 167.453 63.4116 239.288Z" fill="white"/>
<path d="M179.72 148.741C132.832 163.445 85.4275 170.844 59.7656 166.096L59.9072 165.511C95.4674 172.133 173.094 155.231 232.912 127.893L233.167 128.427C215.798 136.286 197.943 143.072 179.72 148.741Z" fill="white"/>
<path d="M160.463 88.4261C133.048 97.0232 105.321 101.347 90.3092 98.5717L90.4531 97.9944C111.218 101.831 156.527 92.0099 191.445 76.0249L191.698 76.5514C181.549 81.147 171.114 85.114 160.463 88.4261Z" fill="white"/>
<path d="M118.415 238.617L117.816 238.805C95.3518 166.667 108.92 82.5182 148.059 51.2267L148.455 51.6757C109.485 82.8077 96.0101 166.666 118.415 238.617Z" fill="white"/>
<path d="M190.391 222.963L189.791 223.151C167.353 151.096 148.584 74.075 147.94 51.4607L148.568 51.4193C149.198 73.9888 167.965 150.945 190.391 222.963Z" fill="white"/>
<path d="M263.597 196.363L263.497 196.043C241.091 124.092 189.362 59.3551 148.184 51.7362L147.256 51.577L148.108 51.1868C180.378 36.4497 215 35.1218 245.685 47.3988C262.025 53.9977 276.45 64.0178 287.909 76.7283C300.135 90.0864 309.24 106.151 314.954 124.4C327.759 126.803 334.89 131.73 335.572 138.638C337.023 153.321 309.565 175.39 263.905 196.25L263.597 196.363ZM149.217 51.3057C190.37 59.6857 241.636 124.035 263.989 195.512C309.191 174.787 336.382 153.039 334.955 138.66C334.296 131.99 327.268 127.227 314.634 124.893L314.465 124.856L314.413 124.692C308.696 106.461 299.653 90.4258 287.443 77.0628C276.037 64.429 261.686 54.4702 245.433 47.9117C215.215 35.8075 181.059 37.0223 149.217 51.3057Z" fill="white"/>
<path d="M233.167 128.427L232.912 127.893C272.097 109.997 295.665 91.1525 294.438 78.725C293.87 72.9924 287.839 68.8831 276.932 66.8755L277.074 66.2908C288.262 68.3572 294.461 72.6352 295.06 78.6612C296.319 91.3323 272.604 110.411 233.167 128.427Z" fill="white"/>
<path d="M191.698 76.5514L191.445 76.0249C214.278 65.5899 228.023 54.6321 227.276 47.4327C226.946 44.1388 223.448 41.7808 217.144 40.6139L217.288 40.0367C223.869 41.2476 227.547 43.7866 227.892 47.354C228.668 54.8143 214.786 66.0039 191.698 76.5514Z" fill="white"/>
<path d="M317.358 164.948L316.758 165.136C294.367 93.2298 218.787 42.3502 148.287 51.7284L148.218 51.1442C218.997 41.7032 294.885 92.7809 317.358 164.948Z" fill="white"/>
<path d="M335.632 139.389L335.032 139.577C312.648 67.6932 228.898 28.2912 148.344 51.7431L148.169 51.1841C229.051 27.6045 313.145 67.1771 335.632 139.389Z" fill="white"/>
<path d="M231.673 318.278C224.567 320.505 217.318 322.244 209.985 323.483C203.489 324.587 198.263 325.039 196.031 325.231C189.849 325.77 183.726 325.766 183.671 325.759C178.131 325.787 172.606 325.525 167.122 324.973C163.263 324.627 157.998 323.888 154.095 323.122C150.82 322.512 147.073 321.739 144.276 320.97C139.213 319.586 133.254 317.754 129.089 316.293C122.89 314.144 114.885 310.212 109.412 307.466C105.202 305.323 101.17 302.894 97.3478 300.197L95.3996 298.802C92.5761 296.773 89.3766 294.469 86.9394 292.524C83.8108 290.026 80.0543 286.562 78.579 285.191C75.6825 282.48 72.1681 278.752 69.8916 276.142C68.3774 274.423 66.6737 272.239 65.0394 270.165C64.2776 269.192 63.5595 268.247 62.8581 267.411C60.2919 264.127 57.978 260.67 55.9332 257.065C52.1427 250.41 48.7608 243.544 45.8038 236.5C43.6058 230.975 40.855 222.792 39.732 216.382C39.5383 215.288 39.2946 214.063 39.0556 212.852C38.491 209.959 37.8414 206.684 37.6332 204.031C37.5519 202.959 37.4435 201.774 37.3315 200.548C37.0806 197.843 36.8199 195.051 36.7465 192.717C36.5521 188.595 36.5947 184.458 36.8741 180.323C36.9718 179.318 37.0871 178.201 37.1587 177.057C37.3874 174.341 37.6304 171.531 37.9622 169.2C38.5122 165.351 39.4261 160.423 40.2669 156.942C41.1076 153.461 42.253 149.27 43.1953 146.281C44.4493 142.213 45.9201 138.2 47.6021 134.257C50.4873 127.68 53.747 121.244 57.3667 114.977C59.2789 111.831 62.1099 107.554 64.5741 104.096C66.4505 101.453 68.9745 98.2132 70.8276 96.0274C73.3931 93.0043 77.157 88.9013 80.0978 85.8424C81.9287 83.9501 84.4922 81.5089 86.4785 79.7481C88.638 77.8674 91.113 75.7322 93.0364 74.163C94.5295 72.958 96.5676 71.4183 98.1546 70.233L98.7026 69.8237C102.314 67.1111 107.091 64.0821 108.473 63.223C110.611 61.8895 112.213 60.9204 113.379 60.2683C115.839 58.8991 119.814 56.7276 122.936 55.1428C125.026 54.0779 130.111 51.722 134.395 50.0346C143.995 46.1974 153.944 43.275 164.09 41.312C171.205 39.9404 176.658 39.3763 176.66 39.3838C180.181 39.0412 184.301 38.707 187.158 38.5477C189.507 38.4171 192.551 38.3792 194.131 38.375C196.569 38.3635 199.86 38.4368 202.304 38.5547C205.068 38.6866 208.739 38.9926 210.692 39.1988C213.187 39.4234 216.164 39.8407 218.935 40.2735C220.526 40.503 222.119 40.7648 223.695 41.0565L224.214 41.172C230.315 42.5334 237.88 44.1644 243.488 46.0816C247.886 47.5843 253.035 49.5226 256.614 51.02C259.75 52.337 263.701 54.2089 266.459 55.6936C270.4 57.8141 274.979 60.4552 278.105 62.4387C280.647 64.0483 284.211 66.5329 287.179 68.7704C290.147 71.008 293.906 74.1436 297 76.9229C299.13 78.8419 301.648 81.4088 303.867 83.6683L304.927 84.7521C307.592 87.453 310.808 91.4056 313.025 94.247C314.47 96.0534 316.063 98.3294 317.549 100.549C318.254 101.564 318.938 102.569 319.557 103.423C321.945 106.849 324.052 110.449 325.86 114.193C326.311 115.157 326.825 116.207 327.361 117.3C328.575 119.801 329.832 122.378 330.74 124.574C332.198 128.104 333.946 132.893 335.083 136.491C337.258 143.889 338.909 151.434 340.023 159.077C340.717 163.674 341.074 168.324 341.093 172.994C341.085 173.864 341.076 174.817 341.093 175.794C341.088 178.579 341.068 181.737 340.914 184.241C340.715 188.33 340.284 192.414 339.621 196.477L339.267 198.905C338.766 201.706 338.198 204.88 337.61 207.373C336.713 211.126 335.362 215.921 334.252 219.298C331.803 226.758 328.73 234.043 325.062 241.083C324.362 242.408 321.898 246.988 319.739 250.465C317.437 254.134 314.562 258.384 312.41 261.294C310.722 263.559 308.178 266.845 306.079 269.255C303.257 272.498 299.36 276.626 296.655 279.399C292.143 283.818 287.364 287.988 282.344 291.885C279.728 293.851 275.846 296.681 272.821 298.686C270.085 300.494 266.187 302.879 263.122 304.618C253.173 310.259 242.622 314.842 231.673 318.278ZM154.247 322.543C158.155 323.298 163.36 324.04 167.208 324.381C172.674 324.932 178.179 325.198 183.699 325.177C183.755 325.16 189.849 325.181 195.988 324.647C198.221 324.455 203.428 324.001 209.9 322.904C228.51 319.772 246.471 313.392 262.853 304.096C265.904 302.37 269.781 300 272.501 298.197C275.518 296.195 279.389 293.385 282.005 291.418C286.981 287.543 291.722 283.402 296.201 279.017C298.905 276.237 302.822 272.119 305.606 268.896C307.691 266.498 310.222 263.224 311.901 260.962C314.051 258.069 316.92 253.829 319.216 250.17C320.669 247.856 322.663 244.357 324.511 240.839C328.163 233.825 331.225 226.568 333.666 219.138C334.768 215.764 336.113 211.003 336.969 207.263C337.562 204.785 338.124 201.621 338.619 198.829L339.062 196.374C339.715 192.332 340.141 188.268 340.339 184.201C340.493 181.696 340.512 178.563 340.522 175.793C340.529 174.808 340.53 173.858 340.52 172.985C340.5 168.348 340.146 163.73 339.461 159.163C338.352 151.548 336.707 144.032 334.539 136.662C333.41 133.061 331.669 128.294 330.216 124.779C329.315 122.606 328.058 120.028 326.848 117.542C326.31 116.442 325.803 115.414 325.342 114.421C323.546 110.712 321.456 107.145 319.089 103.75C318.46 102.866 317.783 101.883 317.078 100.868C315.562 98.6664 313.988 96.3929 312.58 94.5913C310.359 91.7674 307.167 87.8321 304.524 85.1486L303.454 84.0598C301.245 81.8053 298.732 79.2532 296.612 77.3392C293.528 74.5648 289.692 71.3797 286.829 69.2239C283.966 67.0682 280.337 64.5141 277.823 62.9119C274.7 60.9359 270.139 58.2972 266.208 56.1816C263.473 54.7143 259.54 52.8449 256.425 51.5377C252.848 50.0478 247.717 48.1119 243.345 46.634C237.753 44.7118 230.197 43.0534 224.102 41.7393L223.601 41.6262C222.21 41.3912 220.578 41.1171 218.87 40.8506C195.59 37.5083 171.38 41.228 148.476 51.6607L148.428 51.6757L148.324 51.7083L148.071 51.1818C164.505 43.5453 182.393 39.4069 200.427 39.0694C198.35 39.0003 196.046 38.9617 194.245 38.9615C192.639 38.9658 189.612 39.0062 187.274 39.1417C184.427 39.3059 180.337 39.6799 176.808 39.9677C176.76 39.9828 171.413 40.5217 164.28 41.8909C154.158 43.8539 144.232 46.7772 134.657 50.6157C130.388 52.2981 125.325 54.6391 123.259 55.6964C120.145 57.2787 116.176 59.4403 113.724 60.807C112.558 61.4591 110.969 62.4157 108.839 63.7467C107.466 64.6033 102.702 67.6198 99.1202 70.3149L98.5642 70.7267C96.9578 71.9345 94.9527 73.4393 93.4677 74.6418C91.5499 76.2011 89.0909 78.3312 86.9313 80.2119C84.9517 81.9379 82.3995 84.3592 80.5846 86.2464C77.6495 89.2954 73.9312 93.3759 71.3314 96.4016C69.4797 98.6196 66.9577 101.809 65.0685 104.44C62.6363 107.888 59.7983 112.143 57.9238 115.269C54.3015 121.521 51.0371 127.942 48.1452 134.504C46.4738 138.43 45.009 142.425 43.7564 146.474C42.8056 149.408 41.6277 153.691 40.8482 157.087C40.0687 160.483 39.1321 165.452 38.5705 169.263C38.2396 171.569 37.9977 174.354 37.7737 177.085C37.678 178.237 37.6027 179.341 37.4913 180.359C37.2093 184.469 37.1677 188.581 37.3668 192.678C37.4355 194.998 37.6938 197.782 37.9424 200.479C38.0544 201.705 38.1558 202.868 38.2544 203.967C38.4613 206.588 39.0981 209.851 39.6661 212.726C39.9065 213.969 40.1432 215.172 40.3368 216.266C41.4561 222.636 44.1929 230.775 46.3839 236.277C49.3278 243.29 52.6941 250.125 56.467 256.75C58.5032 260.327 60.803 263.758 63.3501 267.019C64.0251 267.855 64.7856 268.795 65.5234 269.776C67.1624 271.865 68.8568 274.019 70.3686 275.731C72.6471 278.291 76.1238 282.039 79.0133 284.727C80.4806 286.101 84.2244 289.552 87.3404 292.038C89.7592 293.981 92.9564 296.278 95.7776 298.299L97.7281 299.701C101.523 302.378 105.525 304.789 109.705 306.916C115.159 309.659 123.135 313.552 129.312 315.716C133.456 317.167 139.407 319.001 144.45 320.375C147.236 321.139 150.956 321.88 154.23 322.515L154.247 322.543Z" fill="white"/>
</svg>
