<svg width="1849" height="465" viewBox="0 0 1849 465" fill="none" xmlns="http://www.w3.org/2000/svg">
<line x1="59" y1="35.0679" x2="59" y2="464.068" stroke="white" stroke-opacity="0.1" stroke-width="1.5"/>
<line x1="132" y1="35.0679" x2="132" y2="464.068" stroke="white" stroke-opacity="0.1" stroke-width="1.5"/>
<line x1="205" y1="35.0679" x2="205" y2="464.068" stroke="white" stroke-opacity="0.1" stroke-width="1.5"/>
<line x1="278" y1="35.0679" x2="278" y2="464.068" stroke="white" stroke-opacity="0.1" stroke-width="1.5"/>
<line x1="351" y1="35.0679" x2="351" y2="464.068" stroke="white" stroke-opacity="0.1" stroke-width="1.5"/>
<line x1="424" y1="35.0679" x2="424" y2="454.068" stroke="white" stroke-opacity="0.1" stroke-width="1.5"/>
<line x1="497" y1="35.0679" x2="497" y2="451.068" stroke="white" stroke-opacity="0.1" stroke-width="1.5"/>
<line x1="570" y1="35.0679" x2="570" y2="451.068" stroke="white" stroke-opacity="0.1" stroke-width="1.5"/>
<line x1="643.25" y1="73.8179" x2="0.25" y2="73.8178" stroke="white" stroke-opacity="0.1" stroke-width="1.5"/>
<line x1="643.25" y1="146.818" x2="0.25" y2="146.818" stroke="white" stroke-opacity="0.1" stroke-width="1.5"/>
<line x1="643.25" y1="219.818" x2="25.25" y2="219.818" stroke="white" stroke-opacity="0.1" stroke-width="1.5"/>
<line x1="643.25" y1="292.818" x2="25.25" y2="292.818" stroke="white" stroke-opacity="0.1" stroke-width="1.5"/>
<line x1="643.25" y1="365.818" x2="0.25" y2="365.818" stroke="white" stroke-opacity="0.1" stroke-width="1.5"/>
<line x1="643.25" y1="438.818" x2="0.25" y2="438.818" stroke="white" stroke-opacity="0.1" stroke-width="1.5"/>
<line x1="642" y1="35.0679" x2="642" y2="459.068" stroke="white" stroke-opacity="0.1" stroke-width="1.5"/>
<line x1="715" y1="35.0679" x2="715" y2="451.068" stroke="white" stroke-opacity="0.1" stroke-width="1.5"/>
<line x1="788" y1="35.0679" x2="788" y2="451.068" stroke="white" stroke-opacity="0.1" stroke-width="1.5"/>
<line x1="861" y1="35.0679" x2="861" y2="451.068" stroke="white" stroke-opacity="0.1" stroke-width="1.5"/>
<line x1="934" y1="35.0679" x2="934" y2="451.068" stroke="white" stroke-opacity="0.1" stroke-width="1.5"/>
<line x1="1007" y1="35.0679" x2="1007" y2="451.068" stroke="white" stroke-opacity="0.1" stroke-width="1.5"/>
<line x1="1080" y1="35.0679" x2="1080" y2="451.068" stroke="white" stroke-opacity="0.1" stroke-width="1.5"/>
<line x1="1153" y1="35.0679" x2="1153" y2="451.068" stroke="white" stroke-opacity="0.1" stroke-width="1.5"/>
<line x1="1226.25" y1="73.8179" x2="641.25" y2="73.8178" stroke="white" stroke-opacity="0.1" stroke-width="1.5"/>
<line x1="1226.25" y1="146.818" x2="641.25" y2="146.818" stroke="white" stroke-opacity="0.1" stroke-width="1.5"/>
<line x1="1226.25" y1="219.818" x2="641.25" y2="219.818" stroke="white" stroke-opacity="0.1" stroke-width="1.5"/>
<line x1="1226.25" y1="292.818" x2="641.25" y2="292.818" stroke="white" stroke-opacity="0.1" stroke-width="1.5"/>
<line x1="1226.25" y1="365.818" x2="641.25" y2="365.818" stroke="white" stroke-opacity="0.1" stroke-width="1.5"/>
<line x1="1226.25" y1="438.818" x2="641.25" y2="438.818" stroke="white" stroke-opacity="0.1" stroke-width="1.5"/>
<line x1="1227" y1="35.0679" x2="1227" y2="451.068" stroke="white" stroke-opacity="0.1" stroke-width="1.5"/>
<line x1="1300" y1="35.0679" x2="1300" y2="451.068" stroke="white" stroke-opacity="0.1" stroke-width="1.5"/>
<line x1="1373" y1="35.0679" x2="1373" y2="462.068" stroke="white" stroke-opacity="0.1" stroke-width="1.5"/>
<line x1="1446" y1="35.0679" x2="1446" y2="464.068" stroke="white" stroke-opacity="0.1" stroke-width="1.5"/>
<line x1="1519" y1="35.0679" x2="1519" y2="464.068" stroke="white" stroke-opacity="0.1" stroke-width="1.5"/>
<line x1="1592" y1="35.0679" x2="1592" y2="464.068" stroke="white" stroke-opacity="0.1" stroke-width="1.5"/>
<line x1="1665" y1="35.0679" x2="1665" y2="464.068" stroke="white" stroke-opacity="0.1" stroke-width="1.5"/>
<line x1="1738" y1="35.0679" x2="1738" y2="464.068" stroke="white" stroke-opacity="0.1" stroke-width="1.5"/>
<line x1="1808" y1="35.0679" x2="1808" y2="464.068" stroke="white" stroke-opacity="0.1" stroke-width="1.5"/>
<line x1="1807.25" y1="73.8179" x2="1226.25" y2="73.8178" stroke="white" stroke-opacity="0.1" stroke-width="1.5"/>
<line x1="1807.25" y1="146.818" x2="1226.25" y2="146.818" stroke="white" stroke-opacity="0.1" stroke-width="1.5"/>
<line x1="1807.25" y1="219.818" x2="1226.25" y2="219.818" stroke="white" stroke-opacity="0.1" stroke-width="1.5"/>
<line x1="1807.25" y1="292.818" x2="1226.25" y2="292.818" stroke="white" stroke-opacity="0.1" stroke-width="1.5"/>
<line x1="1807.25" y1="365.818" x2="1226.25" y2="365.818" stroke="white" stroke-opacity="0.1" stroke-width="1.5"/>
<line x1="1832.25" y1="438.818" x2="1226.25" y2="438.818" stroke="white" stroke-opacity="0.1" stroke-width="1.5"/>
<path d="M1847.75 0.567871L1807.75 35.0679H24.75L0.75 78.0679V157.068L24.75 187.068V327.568L0.75 347.568V464.068H400.75L426.75 449.068H625.75L653.75 464.068H679.75V449.068H1299.25L1383.75 464.068H1831.75V395.068L1807.75 382.068V78.0679" stroke="white" stroke-width="1.5"/>
</svg>
