<svg width="250" height="399" viewBox="0 0 250 399" fill="none" xmlns="http://www.w3.org/2000/svg">
<path d="M239.405 349.435C241.703 349.435 243.564 351.245 243.564 353.479V389.41C243.564 391.644 241.703 393.454 239.405 393.454C237.108 393.454 235.247 391.644 235.247 389.41V353.479C235.247 351.245 237.108 349.435 239.405 349.435Z" fill="#962EB9"/>
<path d="M228.783 349.435C231.08 349.435 232.942 351.245 232.942 353.479V389.41C232.942 391.644 231.08 393.454 228.783 393.454C226.486 393.454 224.624 391.644 224.624 389.41V353.479C224.624 351.245 226.486 349.435 228.783 349.435Z" fill="#962EB9"/>
<path d="M218.157 349.435C220.454 349.435 222.315 351.245 222.315 353.479V389.41C222.315 391.644 220.454 393.454 218.157 393.454C215.859 393.454 213.998 391.644 213.998 389.41V353.479C214.002 351.245 215.863 349.435 218.157 349.435Z" fill="#962EB9"/>
<path d="M207.534 349.435C209.831 349.435 211.692 351.245 211.692 353.479V389.41C211.692 391.644 209.831 393.454 207.534 393.454C205.237 393.454 203.375 391.644 203.375 389.41V353.479C203.379 351.245 205.241 349.435 207.534 349.435Z" fill="#962EB9"/>
<path d="M196.911 349.435C199.209 349.435 201.07 351.245 201.07 353.479V389.41C201.07 391.644 199.209 393.454 196.911 393.454C194.614 393.454 192.753 391.644 192.753 389.41V353.479C192.753 351.245 194.614 349.435 196.911 349.435Z" fill="#962EB9"/>
<path d="M186.289 349.435C188.586 349.435 190.447 351.245 190.447 353.479V389.41C190.447 391.644 188.586 393.454 186.289 393.454C183.992 393.454 182.13 391.644 182.13 389.41V353.479C182.13 351.245 183.992 349.435 186.289 349.435Z" fill="#962EB9"/>
<path d="M175.666 349.435C177.964 349.435 179.825 351.245 179.825 353.479V389.41C179.825 391.644 177.964 393.454 175.666 393.454C173.369 393.454 171.508 391.644 171.508 389.41V353.479C171.508 351.245 173.369 349.435 175.666 349.435Z" fill="#962EB9"/>
<path d="M165.04 349.435C167.337 349.435 169.198 351.245 169.198 353.479V389.41C169.198 391.644 167.337 393.454 165.04 393.454C162.743 393.454 160.881 391.644 160.881 389.41V353.479C160.885 351.245 162.747 349.435 165.04 349.435Z" fill="#962EB9"/>
<path d="M154.417 349.435C156.715 349.435 158.576 351.245 158.576 353.479V389.41C158.576 391.644 156.715 393.454 154.417 393.454C152.12 393.454 150.259 391.644 150.259 389.41V353.479C150.263 351.245 152.124 349.435 154.417 349.435Z" fill="#962EB9"/>
<path d="M143.795 349.435C146.092 349.435 147.953 351.245 147.953 353.479V389.41C147.953 391.644 146.092 393.454 143.795 393.454C141.498 393.454 139.636 391.644 139.636 389.41V353.479C139.636 351.245 141.498 349.435 143.795 349.435Z" fill="#962EB9"/>
<path d="M133.172 349.435C135.47 349.435 137.331 351.245 137.331 353.479V389.41C137.331 391.644 135.47 393.454 133.172 393.454C130.875 393.454 129.014 391.644 129.014 389.41V353.479C129.014 351.245 130.875 349.435 133.172 349.435Z" fill="#962EB9"/>
<path d="M239.405 300.237C241.703 300.237 243.564 302.047 243.564 304.28V340.211C243.564 342.445 241.703 344.255 239.405 344.255C237.108 344.255 235.247 342.445 235.247 340.211V304.28C235.247 302.047 237.108 300.237 239.405 300.237Z" fill="#962EB9"/>
<path d="M228.783 300.237C231.08 300.237 232.942 302.047 232.942 304.28V340.211C232.942 342.445 231.08 344.255 228.783 344.255C226.486 344.255 224.624 342.445 224.624 340.211V304.28C224.624 302.047 226.486 300.237 228.783 300.237Z" fill="#962EB9"/>
<path d="M218.157 300.237C220.454 300.237 222.315 302.047 222.315 304.28V340.211C222.315 342.445 220.454 344.255 218.157 344.255C215.859 344.255 213.998 342.445 213.998 340.211V304.28C214.002 302.047 215.863 300.237 218.157 300.237Z" fill="#962EB9"/>
<path d="M207.534 300.237C209.831 300.237 211.692 302.047 211.692 304.28V340.211C211.692 342.445 209.831 344.255 207.534 344.255C205.237 344.255 203.375 342.445 203.375 340.211V304.28C203.379 302.047 205.241 300.237 207.534 300.237Z" fill="#962EB9"/>
<path d="M196.911 300.237C199.209 300.237 201.07 302.047 201.07 304.28V340.211C201.07 342.445 199.209 344.255 196.911 344.255C194.614 344.255 192.753 342.445 192.753 340.211V304.28C192.753 302.047 194.614 300.237 196.911 300.237Z" fill="#962EB9"/>
<path d="M186.289 300.237C188.586 300.237 190.447 302.047 190.447 304.28V340.211C190.447 342.445 188.586 344.255 186.289 344.255C183.992 344.255 182.13 342.445 182.13 340.211V304.28C182.13 302.047 183.992 300.237 186.289 300.237Z" fill="#962EB9"/>
<path d="M175.666 300.237C177.964 300.237 179.825 302.047 179.825 304.28V340.211C179.825 342.445 177.964 344.255 175.666 344.255C173.369 344.255 171.508 342.445 171.508 340.211V304.28C171.508 302.047 173.369 300.237 175.666 300.237Z" fill="#962EB9"/>
<path d="M165.04 300.237C167.337 300.237 169.198 302.047 169.198 304.28V340.211C169.198 342.445 167.337 344.255 165.04 344.255C162.743 344.255 160.881 342.445 160.881 340.211V304.28C160.885 302.047 162.747 300.237 165.04 300.237Z" fill="#962EB9"/>
<path d="M154.417 300.237C156.715 300.237 158.576 302.047 158.576 304.28V340.211C158.576 342.445 156.715 344.255 154.417 344.255C152.12 344.255 150.259 342.445 150.259 340.211V304.28C150.263 302.047 152.124 300.237 154.417 300.237Z" fill="#962EB9"/>
<path d="M143.795 300.237C146.092 300.237 147.953 302.047 147.953 304.28V340.211C147.953 342.445 146.092 344.255 143.795 344.255C141.498 344.255 139.636 342.445 139.636 340.211V304.28C139.636 302.047 141.498 300.237 143.795 300.237Z" fill="#962EB9"/>
<path d="M133.172 300.237C135.47 300.237 137.331 302.047 137.331 304.28V340.211C137.331 342.445 135.47 344.255 133.172 344.255C130.875 344.255 129.014 342.445 129.014 340.211V304.28C129.014 302.047 130.875 300.237 133.172 300.237Z" fill="#962EB9"/>
<path d="M122.55 300.237C124.847 300.237 126.708 302.047 126.708 304.28V340.211C126.708 342.445 124.847 344.255 122.55 344.255C120.253 344.255 118.391 342.445 118.391 340.211V304.28C118.391 302.047 120.253 300.237 122.55 300.237Z" fill="#962EB9"/>
<path d="M111.927 300.237C114.225 300.237 116.086 302.047 116.086 304.28V340.211C116.086 342.445 114.225 344.255 111.927 344.255C109.63 344.255 107.769 342.445 107.769 340.211V304.28C107.769 302.047 109.63 300.237 111.927 300.237Z" fill="#962EB9"/>
<path d="M239.405 251.037C241.703 251.037 243.564 252.847 243.564 255.081V291.012C243.564 293.246 241.703 295.056 239.405 295.056C237.108 295.056 235.247 293.246 235.247 291.012V255.081C235.247 252.847 237.108 251.037 239.405 251.037Z" fill="#962EB9"/>
<path d="M228.783 251.037C231.08 251.037 232.942 252.847 232.942 255.081V291.012C232.942 293.246 231.08 295.056 228.783 295.056C226.486 295.056 224.624 293.246 224.624 291.012V255.081C224.624 252.847 226.486 251.037 228.783 251.037Z" fill="#962EB9"/>
<path d="M218.157 251.037C220.454 251.037 222.315 252.847 222.315 255.081V291.012C222.315 293.246 220.454 295.056 218.157 295.056C215.859 295.056 213.998 293.246 213.998 291.012V255.081C214.002 252.847 215.863 251.037 218.157 251.037Z" fill="#962EB9"/>
<path d="M207.534 251.037C209.831 251.037 211.692 252.847 211.692 255.081V291.012C211.692 293.246 209.831 295.056 207.534 295.056C205.237 295.056 203.375 293.246 203.375 291.012V255.081C203.379 252.847 205.237 251.037 207.534 251.037Z" fill="#962EB9"/>
<path d="M239.405 201.843C241.703 201.843 243.564 203.653 243.564 205.886V241.817C243.564 244.051 241.703 245.861 239.405 245.861C237.108 245.861 235.247 244.051 235.247 241.817V205.886C235.247 203.653 237.108 201.843 239.405 201.843Z" fill="#962EB9"/>
<path d="M228.783 201.843C231.08 201.843 232.942 203.653 232.942 205.886V241.817C232.942 244.051 231.08 245.861 228.783 245.861C226.486 245.861 224.624 244.051 224.624 241.817V205.886C224.624 203.653 226.486 201.843 228.783 201.843Z" fill="#962EB9"/>
<path d="M218.157 201.843C220.454 201.843 222.315 203.653 222.315 205.886V241.817C222.315 244.051 220.454 245.861 218.157 245.861C215.859 245.861 213.998 244.051 213.998 241.817V205.886C214.002 203.653 215.863 201.843 218.157 201.843Z" fill="#962EB9"/>
<path d="M207.534 201.843C209.831 201.843 211.692 203.653 211.692 205.886V241.817C211.692 244.051 209.831 245.861 207.534 245.861C205.237 245.861 203.375 244.051 203.375 241.817V205.886C203.379 203.653 205.237 201.843 207.534 201.843Z" fill="#962EB9"/>
<path d="M196.911 201.843C199.209 201.843 201.07 203.653 201.07 205.886V241.817C201.07 244.051 199.209 245.861 196.911 245.861C194.614 245.861 192.753 244.051 192.753 241.817V205.886C192.753 203.653 194.614 201.843 196.911 201.843Z" fill="#962EB9"/>
<path d="M186.289 201.843C188.586 201.843 190.447 203.653 190.447 205.886V241.817C190.447 244.051 188.586 245.861 186.289 245.861C183.992 245.861 182.13 244.051 182.13 241.817V205.886C182.13 203.653 183.992 201.843 186.289 201.843Z" fill="#962EB9"/>
<path d="M239.405 152.643C241.703 152.643 243.564 154.453 243.564 156.687V192.618C243.564 194.851 241.703 196.661 239.405 196.661C237.108 196.661 235.247 194.851 235.247 192.618V156.687C235.247 154.453 237.108 152.643 239.405 152.643Z" fill="#962EB9"/>
<path d="M228.783 152.643C231.08 152.643 232.942 154.453 232.942 156.687V192.618C232.942 194.852 231.08 196.662 228.783 196.662C226.486 196.662 224.624 194.852 224.624 192.618V156.687C224.624 154.453 226.486 152.643 228.783 152.643Z" fill="#962EB9"/>
<path d="M218.157 152.643C220.454 152.643 222.315 154.453 222.315 156.687V192.618C222.315 194.852 220.454 196.662 218.157 196.662C215.859 196.662 213.998 194.852 213.998 192.618V156.687C214.002 154.453 215.863 152.643 218.157 152.643Z" fill="#962EB9"/>
<path d="M207.534 152.643C209.831 152.643 211.692 154.453 211.692 156.687V192.618C211.692 194.852 209.831 196.662 207.534 196.662C205.237 196.662 203.375 194.852 203.375 192.618V156.687C203.379 154.453 205.237 152.643 207.534 152.643Z" fill="#962EB9"/>
<path d="M196.911 152.643C199.209 152.643 201.07 154.453 201.07 156.687V192.618C201.07 194.852 199.209 196.662 196.911 196.662C194.614 196.662 192.753 194.852 192.753 192.618V156.687C192.753 154.453 194.614 152.643 196.911 152.643Z" fill="#962EB9"/>
<path d="M186.289 152.643C188.586 152.643 190.447 154.453 190.447 156.687V192.618C190.447 194.852 188.586 196.662 186.289 196.662C183.992 196.662 182.13 194.852 182.13 192.618V156.687C182.13 154.453 183.992 152.643 186.289 152.643Z" fill="#962EB9"/>
<path d="M175.666 152.643C177.964 152.643 179.825 154.453 179.825 156.687V192.618C179.825 194.852 177.964 196.662 175.666 196.662C173.369 196.662 171.508 194.852 171.508 192.618V156.687C171.508 154.453 173.369 152.643 175.666 152.643Z" fill="#962EB9"/>
<path d="M165.04 152.643C167.337 152.643 169.198 154.453 169.198 156.687V192.618C169.198 194.852 167.337 196.662 165.04 196.662C162.743 196.662 160.881 194.852 160.881 192.618V156.687C160.885 154.453 162.747 152.643 165.04 152.643Z" fill="#962EB9"/>
<path d="M154.417 152.643C156.715 152.643 158.576 154.453 158.576 156.687V192.618C158.576 194.852 156.715 196.662 154.417 196.662C152.12 196.662 150.259 194.852 150.259 192.618V156.687C150.263 154.453 152.124 152.643 154.417 152.643Z" fill="#962EB9"/>
<path d="M143.795 152.643C146.092 152.643 147.953 154.453 147.953 156.687V192.618C147.953 194.852 146.092 196.662 143.795 196.662C141.498 196.662 139.636 194.852 139.636 192.618V156.687C139.636 154.453 141.498 152.643 143.795 152.643Z" fill="#962EB9"/>
<path d="M133.172 152.643C135.47 152.643 137.331 154.453 137.331 156.687V192.618C137.331 194.852 135.47 196.662 133.172 196.662C130.875 196.662 129.014 194.852 129.014 192.618V156.687C129.014 154.453 130.875 152.643 133.172 152.643Z" fill="#962EB9"/>
<path d="M122.55 152.643C124.847 152.643 126.708 154.453 126.708 156.687V192.618C126.708 194.852 124.847 196.662 122.55 196.662C120.253 196.662 118.391 194.852 118.391 192.618V156.687C118.391 154.453 120.253 152.643 122.55 152.643Z" fill="#962EB9"/>
<path d="M111.927 152.643C114.225 152.643 116.086 154.453 116.086 156.687V192.618C116.086 194.852 114.225 196.662 111.927 196.662C109.63 196.662 107.769 194.852 107.769 192.618V156.687C107.769 154.453 109.63 152.643 111.927 152.643Z" fill="#962EB9"/>
<path d="M101.301 152.643C103.598 152.643 105.459 154.453 105.459 156.687V192.618C105.459 194.852 103.598 196.662 101.301 196.662C99.0035 196.662 97.1422 194.852 97.1422 192.618V156.687C97.1463 154.453 99.0076 152.643 101.301 152.643Z" fill="#962EB9"/>
<path d="M90.6782 152.643C92.9754 152.643 94.8369 154.453 94.8369 156.687V192.618C94.8369 194.852 92.9754 196.662 90.6782 196.662C88.381 196.662 86.5197 194.852 86.5197 192.618V156.687C86.5238 154.453 88.381 152.643 90.6782 152.643Z" fill="#962EB9"/>
<path d="M80.0557 152.643C82.3529 152.643 84.2144 154.453 84.2144 156.687V192.618C84.2144 194.852 82.3529 196.662 80.0557 196.662C77.7585 196.662 75.8972 194.852 75.8972 192.618V156.687C75.8972 154.453 77.7585 152.643 80.0557 152.643Z" fill="#962EB9"/>
<path d="M69.4334 152.643C71.7306 152.643 73.5919 154.453 73.5919 156.687V192.618C73.5919 194.852 71.7306 196.662 69.4334 196.662C67.1362 196.662 65.2747 194.852 65.2747 192.618V156.687C65.2747 154.453 67.1362 152.643 69.4334 152.643Z" fill="#962EB9"/>
<path d="M58.8067 152.643C61.1039 152.643 62.9653 154.453 62.9653 156.687V192.618C62.9653 194.852 61.1039 196.662 58.8067 196.662C56.5095 196.662 54.6482 194.852 54.6482 192.618V156.687C54.6522 154.453 56.5136 152.643 58.8067 152.643Z" fill="#962EB9"/>
<path d="M239.405 103.444C241.703 103.444 243.564 105.254 243.564 107.488V143.419C243.564 145.653 241.703 147.463 239.405 147.463C237.108 147.463 235.247 145.653 235.247 143.419V107.488C235.247 105.254 237.108 103.444 239.405 103.444Z" fill="#962EB9"/>
<path d="M228.783 103.444C231.08 103.444 232.942 105.254 232.942 107.488V143.419C232.942 145.653 231.08 147.463 228.783 147.463C226.486 147.463 224.624 145.653 224.624 143.419V107.488C224.624 105.254 226.486 103.444 228.783 103.444Z" fill="#962EB9"/>
<path d="M218.157 103.444C220.454 103.444 222.315 105.254 222.315 107.488V143.419C222.315 145.653 220.454 147.463 218.157 147.463C215.859 147.463 213.998 145.653 213.998 143.419V107.488C214.002 105.254 215.863 103.444 218.157 103.444Z" fill="#962EB9"/>
<path d="M207.534 103.444C209.831 103.444 211.692 105.254 211.692 107.488V143.419C211.692 145.653 209.831 147.463 207.534 147.463C205.237 147.463 203.375 145.653 203.375 143.419V107.488C203.379 105.254 205.237 103.444 207.534 103.444Z" fill="#962EB9"/>
<path d="M196.911 103.444C199.209 103.444 201.07 105.254 201.07 107.488V143.419C201.07 145.653 199.209 147.463 196.911 147.463C194.614 147.463 192.753 145.653 192.753 143.419V107.488C192.753 105.254 194.614 103.444 196.911 103.444Z" fill="#962EB9"/>
<path d="M186.289 103.444C188.586 103.444 190.447 105.254 190.447 107.488V143.419C190.447 145.653 188.586 147.463 186.289 147.463C183.992 147.463 182.13 145.653 182.13 143.419V107.488C182.13 105.254 183.992 103.444 186.289 103.444Z" fill="#962EB9"/>
<path d="M175.666 103.444C177.964 103.444 179.825 105.254 179.825 107.488V143.419C179.825 145.653 177.964 147.463 175.666 147.463C173.369 147.463 171.508 145.653 171.508 143.419V107.488C171.508 105.254 173.369 103.444 175.666 103.444Z" fill="#962EB9"/>
<path d="M165.04 103.444C167.337 103.444 169.198 105.254 169.198 107.488V143.419C169.198 145.653 167.337 147.463 165.04 147.463C162.743 147.463 160.881 145.653 160.881 143.419V107.488C160.885 105.254 162.747 103.444 165.04 103.444Z" fill="#962EB9"/>
<path d="M154.417 103.444C156.715 103.444 158.576 105.254 158.576 107.488V143.419C158.576 145.653 156.715 147.463 154.417 147.463C152.12 147.463 150.259 145.653 150.259 143.419V107.488C150.263 105.254 152.124 103.444 154.417 103.444Z" fill="#962EB9"/>
<path d="M143.795 103.444C146.092 103.444 147.953 105.254 147.953 107.488V143.419C147.953 145.653 146.092 147.463 143.795 147.463C141.498 147.463 139.636 145.653 139.636 143.419V107.488C139.636 105.254 141.498 103.444 143.795 103.444Z" fill="#962EB9"/>
<path d="M133.172 103.444C135.47 103.444 137.331 105.254 137.331 107.488V143.419C137.331 145.653 135.47 147.463 133.172 147.463C130.875 147.463 129.014 145.653 129.014 143.419V107.488C129.014 105.254 130.875 103.444 133.172 103.444Z" fill="#962EB9"/>
<path d="M122.55 103.444C124.847 103.444 126.708 105.254 126.708 107.488V143.419C126.708 145.653 124.847 147.463 122.55 147.463C120.253 147.463 118.391 145.653 118.391 143.419V107.488C118.391 105.254 120.253 103.444 122.55 103.444Z" fill="#962EB9"/>
<path d="M111.927 103.444C114.225 103.444 116.086 105.254 116.086 107.488V143.419C116.086 145.653 114.225 147.463 111.927 147.463C109.63 147.463 107.769 145.653 107.769 143.419V107.488C107.769 105.254 109.63 103.444 111.927 103.444Z" fill="#962EB9"/>
<path d="M101.301 103.444C103.598 103.444 105.459 105.254 105.459 107.488V143.419C105.459 145.653 103.598 147.463 101.301 147.463C99.0035 147.463 97.1422 145.653 97.1422 143.419V107.488C97.1463 105.254 99.0076 103.444 101.301 103.444Z" fill="#962EB9"/>
<path d="M90.6782 103.444C92.9754 103.444 94.8369 105.254 94.8369 107.488V143.419C94.8369 145.653 92.9754 147.463 90.6782 147.463C88.381 147.463 86.5197 145.653 86.5197 143.419V107.488C86.5238 105.254 88.381 103.444 90.6782 103.444Z" fill="#962EB9"/>
<path d="M239.405 54.2488C241.703 54.2488 243.564 56.0588 243.564 58.2926V94.2235C243.564 96.4573 241.703 98.2673 239.405 98.2673C237.108 98.2673 235.247 96.4573 235.247 94.2235V58.2926C235.247 56.0588 237.108 54.2488 239.405 54.2488Z" fill="#962EB9"/>
<path d="M228.783 54.2488C231.08 54.2488 232.942 56.0588 232.942 58.2926V94.2235C232.942 96.4573 231.08 98.2673 228.783 98.2673C226.486 98.2673 224.624 96.4573 224.624 94.2235V58.2926C224.624 56.0588 226.486 54.2488 228.783 54.2488Z" fill="#962EB9"/>
<path d="M218.157 54.2488C220.454 54.2488 222.315 56.0588 222.315 58.2926V94.2235C222.315 96.4573 220.454 98.2673 218.157 98.2673C215.859 98.2673 213.998 96.4573 213.998 94.2235V58.2926C214.002 56.0588 215.863 54.2488 218.157 54.2488Z" fill="#962EB9"/>
<path d="M207.534 54.2488C209.831 54.2488 211.692 56.0588 211.692 58.2926V94.2235C211.692 96.4573 209.831 98.2673 207.534 98.2673C205.237 98.2673 203.375 96.4573 203.375 94.2235V58.2926C203.379 56.0588 205.237 54.2488 207.534 54.2488Z" fill="#962EB9"/>
<path d="M196.911 54.2488C199.209 54.2488 201.07 56.0588 201.07 58.2926V94.2235C201.07 96.4573 199.209 98.2673 196.911 98.2673C194.614 98.2673 192.753 96.4573 192.753 94.2235V58.2926C192.753 56.0588 194.614 54.2488 196.911 54.2488Z" fill="#962EB9"/>
<path d="M186.289 54.2488C188.586 54.2488 190.447 56.0588 190.447 58.2926V94.2235C190.447 96.4573 188.586 98.2673 186.289 98.2673C183.992 98.2673 182.13 96.4573 182.13 94.2235V58.2926C182.13 56.0588 183.992 54.2488 186.289 54.2488Z" fill="#962EB9"/>
<path d="M175.666 54.2488C177.964 54.2488 179.825 56.0588 179.825 58.2926V94.2235C179.825 96.4573 177.964 98.2673 175.666 98.2673C173.369 98.2673 171.508 96.4573 171.508 94.2235V58.2926C171.508 56.0588 173.369 54.2488 175.666 54.2488Z" fill="#962EB9"/>
<path d="M165.04 54.2488C167.337 54.2488 169.198 56.0588 169.198 58.2926V94.2235C169.198 96.4573 167.337 98.2673 165.04 98.2673C162.743 98.2673 160.881 96.4573 160.881 94.2235V58.2926C160.885 56.0588 162.747 54.2488 165.04 54.2488Z" fill="#962EB9"/>
<path d="M239.405 5.05026C241.703 5.05026 243.564 6.86038 243.564 9.09418V45.0251C243.564 47.2589 241.703 49.0688 239.405 49.0688C237.108 49.0688 235.247 47.2589 235.247 45.0251V9.09418C235.247 6.86038 237.108 5.05026 239.405 5.05026Z" fill="#962EB9"/>
<path d="M228.783 5.05026C231.08 5.05026 232.942 6.86038 232.942 9.09418V45.0251C232.942 47.2589 231.08 49.0688 228.783 49.0688C226.486 49.0688 224.624 47.2589 224.624 45.0251V9.09418C224.624 6.86038 226.486 5.05026 228.783 5.05026Z" fill="#962EB9"/>
<path d="M218.157 5.05026C220.454 5.05026 222.315 6.86038 222.315 9.09418V45.0251C222.315 47.2589 220.454 49.0688 218.157 49.0688C215.859 49.0688 213.998 47.2589 213.998 45.0251V9.09418C214.002 6.86038 215.863 5.05026 218.157 5.05026Z" fill="#962EB9"/>
<path d="M207.534 5.05026C209.831 5.05026 211.692 6.86038 211.692 9.09418V45.0251C211.692 47.2589 209.831 49.0688 207.534 49.0688C205.237 49.0688 203.375 47.2589 203.375 45.0251V9.09418C203.379 6.86038 205.237 5.05026 207.534 5.05026Z" fill="#962EB9"/>
<path d="M196.911 5.05026C199.209 5.05026 201.07 6.86038 201.07 9.09418V45.0251C201.07 47.2589 199.209 49.0688 196.911 49.0688C194.614 49.0688 192.753 47.2589 192.753 45.0251V9.09418C192.753 6.86038 194.614 5.05026 196.911 5.05026Z" fill="#962EB9"/>
<path d="M186.289 5.05026C188.586 5.05026 190.447 6.86038 190.447 9.09418V45.0251C190.447 47.2589 188.586 49.0688 186.289 49.0688C183.992 49.0688 182.13 47.2589 182.13 45.0251V9.09418C182.13 6.86038 183.992 5.05026 186.289 5.05026Z" fill="#962EB9"/>
<path d="M175.666 5.05026C177.964 5.05026 179.825 6.86038 179.825 9.09418V45.0251C179.825 47.2589 177.964 49.0688 175.666 49.0688C173.369 49.0688 171.508 47.2589 171.508 45.0251V9.09418C171.508 6.86038 173.369 5.05026 175.666 5.05026Z" fill="#962EB9"/>
<path d="M165.04 5.05026C167.337 5.05026 169.198 6.86038 169.198 9.09418V45.0251C169.198 47.2589 167.337 49.0688 165.04 49.0688C162.743 49.0688 160.881 47.2589 160.881 45.0251V9.09418C160.885 6.86038 162.747 5.05026 165.04 5.05026Z" fill="#962EB9"/>
<path d="M154.417 5.05026C156.715 5.05026 158.576 6.86038 158.576 9.09418V45.0251C158.576 47.2589 156.715 49.0688 154.417 49.0688C152.12 49.0688 150.259 47.2589 150.259 45.0251V9.09418C150.263 6.86038 152.124 5.05026 154.417 5.05026Z" fill="#962EB9"/>
<path d="M143.795 5.05026C146.092 5.05026 147.953 6.86038 147.953 9.09418V45.0251C147.953 47.2589 146.092 49.0688 143.795 49.0688C141.498 49.0688 139.636 47.2589 139.636 45.0251V9.09418C139.636 6.86038 141.498 5.05026 143.795 5.05026Z" fill="#962EB9"/>
<path d="M133.172 5.05026C135.47 5.05026 137.331 6.86038 137.331 9.09418V45.0251C137.331 47.2589 135.47 49.0688 133.172 49.0688C130.875 49.0688 129.014 47.2589 129.014 45.0251V9.09418C129.014 6.86038 130.875 5.05026 133.172 5.05026Z" fill="#962EB9"/>
</svg>
