<svg width="1094" height="601" viewBox="0 0 1094 601" fill="none" xmlns="http://www.w3.org/2000/svg">
<circle cx="374.75" cy="151" r="4" fill="white"/>
<circle cx="19.75" cy="4" r="4" fill="white"/>
<path d="M73.75 478V234.571L146.629 151H374.75" stroke="white" stroke-width="1.5"/>
<circle cx="73.75" cy="482" r="4" fill="white"/>
<circle cx="849.75" cy="560" r="4" fill="white"/>
<circle cx="443.75" cy="597" r="4" fill="white"/>
<path d="M285.75 598.5L310.25 560H846.75" stroke="white" stroke-width="1.5"/>
<path d="M114.25 187.5L19.25 123V7" stroke="white" stroke-width="1.5"/>
<path d="M72.25 407H27.75V517.5L0.75 531V557H27.75V597H443.25" stroke="white" stroke-width="1.5"/>
<path d="M283.75 591H255.75H224.25L241.75 575H276.25L297.75 542.5H762.75L782.75 533.5H827.25L844.25 555H307.25L283.75 591Z" fill="white"/>
<path d="M61.75 390.469L68.75 397V237L61.75 246.329V390.469Z" fill="white"/>
<path d="M366.25 147H152.75L159.75 143H237.25L252.75 134H351.25L366.25 147Z" fill="white"/>
<path d="M30.75 33.5L18.25 18V34.5H13.25V80.5L18.25 89.5V97.5L24.25 85V54H30.75V33.5Z" fill="white"/>
</svg>
