<svg width="812" height="560" viewBox="0 0 812 560" fill="none" xmlns="http://www.w3.org/2000/svg">
<path d="M437.698 18.5985H243.845L250.186 14.9751H320.39L334.43 6.82239H423.657L437.698 18.5985Z" fill="white"/>
<path d="M618.207 18.5985H437.489L433.169 14.9751H556.609L565.667 6.82239H604.619L618.207 18.5985Z" fill="white"/>
<path d="M707.991 18.5985H617.859L613.678 14.9751H700.292L707.991 18.5985Z" fill="white"/>
<path d="M766.485 0.394043L788.945 31.9456V520.727L756.559 554.865" stroke="white" stroke-width="1.35878"/>
<path d="M763.806 530.407H603.958L577.674 507.893H531.007L505.34 530.407H232.767L203.621 491.208V467.6L175 445.807V325.496L203.621 302.342V37.202L243.601 23.1278H763.806" stroke="white"/>
<path d="M803.072 38.3573L810.457 51.529V268.862L803.072 279.04V356.153L810.457 373.824V491.546L803.072 506.364V356.153V279.04V38.3573Z" fill="white"/>
<path d="M803.072 279.04L810.457 268.862V51.529L803.072 38.3573V279.04ZM803.072 279.04V356.153M803.072 356.153L810.457 373.824V491.546L803.072 506.364M803.072 356.153V506.364M803.072 506.364V523.231L794.152 534.766" stroke="white" stroke-width="1.81171"/>
<rect x="579.917" y="516.819" width="7.96055" height="7.96055" transform="rotate(90 579.917 516.819)" fill="white"/>
<rect x="579.917" y="527.964" width="7.96055" height="7.96055" transform="rotate(90 579.917 527.964)" fill="white"/>
<rect x="568.772" y="516.819" width="7.96055" height="7.96055" transform="rotate(90 568.772 516.819)" fill="white"/>
<rect x="557.627" y="527.964" width="7.96055" height="7.96055" transform="rotate(90 557.627 527.964)" fill="white"/>
<rect x="546.483" y="516.819" width="7.96055" height="7.96055" transform="rotate(90 546.483 516.819)" fill="white"/>
<rect x="546.483" y="527.964" width="7.96055" height="7.96055" transform="rotate(90 546.483 527.964)" fill="white"/>
<rect x="535.338" y="516.819" width="7.96055" height="7.96055" transform="rotate(90 535.338 516.819)" fill="white"/>
<line x1="193.796" y1="310.284" x2="193.796" y2="460.656" stroke="white" stroke-opacity="0.1" stroke-width="1.35878"/>
<line x1="259.924" y1="23.1278" x2="259.924" y2="530.407" stroke="white" stroke-opacity="0.1" stroke-width="1.35878"/>
<line x1="326.051" y1="23.1278" x2="326.051" y2="530.407" stroke="white" stroke-opacity="0.1" stroke-width="1.35878"/>
<line x1="392.179" y1="23.1278" x2="392.179" y2="530.407" stroke="white" stroke-opacity="0.1" stroke-width="1.35878"/>
<line x1="458.306" y1="23.1278" x2="458.306" y2="530.407" stroke="white" stroke-opacity="0.1" stroke-width="1.35878"/>
<line x1="524.434" y1="23.1278" x2="524.434" y2="514.101" stroke="white" stroke-opacity="0.1" stroke-width="1.35878"/>
<line x1="590.561" y1="23.1278" x2="590.561" y2="518.631" stroke="white" stroke-opacity="0.1" stroke-width="1.35878"/>
<line x1="656.688" y1="23.1278" x2="656.688" y2="530.407" stroke="white" stroke-opacity="0.1" stroke-width="1.35878"/>
<line x1="722.816" y1="23.1278" x2="722.816" y2="530.407" stroke="white" stroke-opacity="0.1" stroke-width="1.35878"/>
<line x1="789.17" y1="89.9346" x2="203.987" y2="89.9346" stroke="white" stroke-opacity="0.1" stroke-width="1.35878"/>
<line x1="789.17" y1="156.062" x2="203.987" y2="156.062" stroke="white" stroke-opacity="0.1" stroke-width="1.35878"/>
<line x1="789.17" y1="222.189" x2="203.987" y2="222.189" stroke="white" stroke-opacity="0.1" stroke-width="1.35878"/>
<line x1="789.17" y1="288.317" x2="203.987" y2="288.317" stroke="white" stroke-opacity="0.1" stroke-width="1.35878"/>
<line x1="789.17" y1="354.444" x2="175" y2="354.444" stroke="white" stroke-opacity="0.1" stroke-width="1.35878"/>
<line x1="789.17" y1="420.572" x2="175" y2="420.572" stroke="white" stroke-opacity="0.1" stroke-width="1.35878"/>
<line x1="789.17" y1="486.699" x2="203.987" y2="486.699" stroke="white" stroke-opacity="0.1" stroke-width="1.35878"/>
<path d="M263.614 56.2059H264.593L266.582 63.4237H266.712L268.702 56.2059H269.68L267.528 63.8151H265.767L263.614 56.2059ZM270.89 56.2059H275.716V57.0538H273.76V62.9672H275.716V63.8151H270.89V62.9672H272.847V57.0538H270.89V56.2059ZM281.753 58.4017C281.753 58.1553 281.702 57.9379 281.6 57.7495C281.506 57.561 281.376 57.4052 281.209 57.282C281.042 57.1588 280.85 57.0646 280.633 56.9994C280.416 56.9342 280.187 56.9016 279.948 56.9016C279.738 56.9016 279.539 56.9306 279.35 56.9885C279.162 57.0393 278.992 57.1154 278.839 57.2168C278.694 57.3183 278.578 57.4451 278.491 57.5973C278.405 57.7422 278.361 57.9125 278.361 58.1082V58.1734C278.361 58.3836 278.405 58.5647 278.491 58.7169C278.578 58.8618 278.705 58.9887 278.872 59.0974C279.046 59.1988 279.26 59.2858 279.513 59.3583C279.767 59.4235 280.064 59.4815 280.405 59.5322C281.202 59.6554 281.789 59.8909 282.166 60.2387C282.542 60.5793 282.731 61.0395 282.731 61.6193V61.7497C282.731 62.0758 282.673 62.3766 282.557 62.6519C282.448 62.9201 282.282 63.152 282.057 63.3476C281.84 63.5433 281.568 63.6955 281.242 63.8042C280.916 63.9129 280.539 63.9672 280.111 63.9672C279.626 63.9672 279.194 63.8984 278.818 63.7607C278.448 63.6158 278.136 63.4201 277.883 63.1737C277.636 62.9201 277.448 62.6266 277.317 62.2932C277.187 61.9526 277.122 61.583 277.122 61.1845V60.8584H278.035V61.1192C278.035 61.7859 278.216 62.286 278.578 62.6193C278.948 62.9527 279.459 63.1194 280.111 63.1194C280.676 63.1194 281.1 62.9962 281.383 62.7498C281.673 62.4961 281.818 62.1628 281.818 61.7497V61.6845C281.818 61.2859 281.669 60.9815 281.372 60.7714C281.082 60.5612 280.608 60.409 279.948 60.3148C279.564 60.2641 279.216 60.188 278.905 60.0866C278.6 59.9779 278.339 59.8402 278.122 59.6735C277.904 59.4996 277.738 59.293 277.622 59.0539C277.506 58.8147 277.448 58.5321 277.448 58.206V58.0756C277.448 57.7784 277.51 57.5067 277.633 57.2603C277.756 57.0139 277.926 56.8001 278.144 56.6189C278.368 56.4378 278.633 56.3001 278.937 56.2059C279.249 56.1044 279.589 56.0537 279.959 56.0537C280.387 56.0537 280.767 56.1153 281.1 56.2385C281.441 56.3617 281.727 56.5284 281.959 56.7385C282.191 56.9414 282.365 57.1842 282.481 57.4668C282.604 57.7422 282.666 58.0321 282.666 58.3365V58.793H281.753V58.4017ZM284.919 56.2059V61.2497C284.919 61.8657 285.06 62.3331 285.343 62.6519C285.633 62.9636 286.057 63.1194 286.615 63.1194C287.173 63.1194 287.593 62.9636 287.876 62.6519C288.166 62.3331 288.311 61.8657 288.311 61.2497V56.2059H289.224V61.2497C289.224 62.1338 288.992 62.8078 288.528 63.2716C288.064 63.7353 287.427 63.9672 286.615 63.9672C285.803 63.9672 285.166 63.7353 284.702 63.2716C284.238 62.8078 284.006 62.1338 284.006 61.2497V56.2059H284.919ZM294.901 61.9236H291.64L291.086 63.8151H290.108L292.412 56.2059H294.13L296.434 63.8151H295.456L294.901 61.9236ZM293.206 56.5972L291.89 61.0758H294.651L293.336 56.5972H293.206ZM297.546 56.2059H298.459V62.9672H302.438V63.8151H297.546V56.2059ZM310.706 56.2059H313.206C314.148 56.2059 314.836 56.4305 315.271 56.8798C315.706 57.3291 315.923 58.0466 315.923 59.0321V60.9888C315.923 61.9744 315.706 62.6918 315.271 63.1411C314.836 63.5904 314.148 63.8151 313.206 63.8151H310.706V62.9563H311.358V57.0538H310.706V56.2059ZM313.075 62.9672C313.409 62.9672 313.695 62.9346 313.934 62.8694C314.181 62.8041 314.384 62.6954 314.543 62.5432C314.702 62.3838 314.818 62.1737 314.891 61.9128C314.971 61.6519 315.01 61.3221 315.01 60.9236V59.0974C315.01 58.6988 314.971 58.3691 314.891 58.1082C314.818 57.8473 314.702 57.6408 314.543 57.4886C314.384 57.3291 314.181 57.2168 313.934 57.1516C313.695 57.0864 313.409 57.0538 313.075 57.0538H312.271V62.9672H313.075ZM321.525 61.9236H318.264L317.71 63.8151H316.731L319.036 56.2059H320.753L323.058 63.8151H322.079L321.525 61.9236ZM319.829 56.5972L318.514 61.0758H321.275L319.96 56.5972H319.829ZM323.876 56.2059H329.224V57.0538H327.007V63.8151H326.094V57.0538H323.876V56.2059ZM334.837 61.9236H331.576L331.021 63.8151H330.043L332.348 56.2059H334.065L336.37 63.8151H335.391L334.837 61.9236ZM333.141 56.5972L331.826 61.0758H334.587L333.271 56.5972H333.141ZM343.692 56.2059H345.431L346.453 63.4237H346.583L347.605 56.2059H349.344V63.8151H348.496V56.5972H348.366L347.344 63.8151H345.692L344.67 56.5972H344.54V63.8151H343.692V56.2059ZM354.805 61.9236H351.543L350.989 63.8151H350.011L352.315 56.2059H354.033L356.337 63.8151H355.359L354.805 61.9236ZM353.109 56.5972L351.793 61.0758H354.555L353.239 56.5972H353.109ZM357.156 56.2059H362.504V57.0538H360.286V63.8151H359.373V57.0538H357.156V56.2059ZM368.866 63.8151H367.953V61.2714C367.953 61.083 367.91 60.9381 367.823 60.8366C367.736 60.7352 367.584 60.6844 367.366 60.6844H364.997V63.8151H364.084V56.2059H366.801C367.192 56.2059 367.533 56.2639 367.823 56.3798C368.113 56.4885 368.352 56.6371 368.54 56.8255C368.736 57.0139 368.881 57.2349 368.975 57.4886C369.077 57.735 369.127 57.9958 369.127 58.2712V58.5973C369.127 58.88 369.048 59.1626 368.888 59.4452C368.736 59.7278 368.497 59.9453 368.171 60.0974V60.2279C368.388 60.2641 368.558 60.3511 368.682 60.4888C368.805 60.6265 368.866 60.8221 368.866 61.0758V63.8151ZM364.997 59.8365H366.692C367.207 59.8365 367.587 59.7278 367.834 59.5104C368.087 59.2858 368.214 58.9597 368.214 58.5321V58.3365C368.214 57.9524 368.087 57.6444 367.834 57.4125C367.587 57.1733 367.207 57.0538 366.692 57.0538H364.997V59.8365ZM370.729 56.2059H375.555V57.0538H373.598V62.9672H375.555V63.8151H370.729V62.9672H372.685V57.0538H370.729V56.2059ZM377.993 56.2059L379.7 59.5757H379.895L381.602 56.2059H382.602L380.7 59.9344V60.0648L382.602 63.8151H381.602L379.895 60.4235H379.7L377.993 63.8151H376.993L378.895 60.0648V59.9344L376.993 56.2059H377.993Z" fill="white"/>
<g clip-path="url(#clip0_513_19067)">
<rect x="401.438" y="54.8328" width="3.62342" height="9.96441" fill="#D9D9D9"/>
<rect x="406.873" y="54.8328" width="1.81171" height="9.96441" fill="#D9D9D9"/>
<rect x="419.555" y="54.8328" width="1.81171" height="9.96441" fill="#D9D9D9"/>
<rect x="423.178" y="54.8328" width="1.81171" height="9.96441" fill="#D9D9D9"/>
<rect x="426.802" y="54.8328" width="5.43513" height="9.96441" fill="#D9D9D9"/>
<rect x="443.107" y="54.8328" width="3.62342" height="9.96441" fill="#D9D9D9"/>
<rect x="457.601" y="54.8328" width="3.62342" height="9.96441" fill="#D9D9D9"/>
<rect x="463.036" y="54.8328" width="1.81171" height="9.96441" fill="#D9D9D9"/>
<rect x="475.718" y="54.8328" width="3.62342" height="9.96441" fill="#D9D9D9"/>
<rect x="481.153" y="54.8328" width="1.81171" height="9.96441" fill="#D9D9D9"/>
<rect x="484.777" y="54.8328" width="1.81171" height="9.96441" fill="#D9D9D9"/>
<rect x="493.835" y="54.8328" width="1.81171" height="9.96441" fill="#D9D9D9"/>
<rect x="502.894" y="54.8328" width="1.81171" height="9.96441" fill="#D9D9D9"/>
<rect x="506.517" y="54.8328" width="1.81171" height="9.96441" fill="#D9D9D9"/>
<rect x="510.141" y="54.8328" width="1.81171" height="9.96441" fill="#D9D9D9"/>
<rect x="531.881" y="54.8328" width="1.81171" height="9.96441" fill="#D9D9D9"/>
<rect x="544.563" y="54.8328" width="3.62342" height="9.96441" fill="#D9D9D9"/>
<rect x="549.998" y="54.8328" width="1.81171" height="9.96441" fill="#D9D9D9"/>
<rect x="562.68" y="54.8328" width="1.81171" height="9.96441" fill="#D9D9D9"/>
<rect x="566.304" y="54.8328" width="5.43513" height="9.96441" fill="#D9D9D9"/>
<rect x="586.232" y="54.8328" width="1.81171" height="9.96441" fill="#D9D9D9"/>
<rect x="589.856" y="54.8328" width="3.62342" height="9.96441" fill="#D9D9D9"/>
<rect x="604.349" y="54.8328" width="1.81171" height="9.96441" fill="#D9D9D9"/>
<rect x="607.973" y="54.8328" width="3.62342" height="9.96441" fill="#D9D9D9"/>
<rect x="618.843" y="54.8328" width="5.43513" height="9.96441" fill="#D9D9D9"/>
<rect x="626.09" y="54.8328" width="3.62342" height="9.96441" fill="#D9D9D9"/>
<rect x="631.525" y="54.8328" width="1.81171" height="9.96441" fill="#D9D9D9"/>
<rect x="653.266" y="54.8328" width="1.81171" height="9.96441" fill="#D9D9D9"/>
<rect x="656.889" y="54.8328" width="5.43513" height="9.96441" fill="#D9D9D9"/>
<rect x="667.759" y="54.8328" width="1.81171" height="9.96441" fill="#D9D9D9"/>
<rect x="678.63" y="54.8328" width="1.81171" height="9.96441" fill="#D9D9D9"/>
<rect x="682.253" y="54.8328" width="1.81171" height="9.96441" fill="#D9D9D9"/>
<rect x="685.876" y="54.8328" width="1.81171" height="9.96441" fill="#D9D9D9"/>
<rect x="693.123" y="54.8328" width="1.81171" height="9.96441" fill="#D9D9D9"/>
<rect x="696.747" y="54.8328" width="1.81171" height="9.96441" fill="#D9D9D9"/>
<rect x="705.805" y="54.8328" width="1.81171" height="9.96441" fill="#D9D9D9"/>
<rect x="709.429" y="54.8328" width="1.81171" height="9.96441" fill="#D9D9D9"/>
<rect x="713.052" y="54.8328" width="3.62342" height="9.96441" fill="#D9D9D9"/>
<rect x="718.487" y="54.8328" width="3.62342" height="9.96441" fill="#D9D9D9"/>
<rect x="729.358" y="54.8328" width="3.62342" height="9.96441" fill="#D9D9D9"/>
<rect x="734.793" y="54.8328" width="1.81171" height="9.96441" fill="#D9D9D9"/>
<rect x="742.039" y="54.8328" width="1.81171" height="9.96441" fill="#D9D9D9"/>
</g>
<circle cx="755.653" cy="554.865" r="4.52928" transform="rotate(90 755.653 554.865)" fill="white"/>
<path d="M321.141 467.175C321.557 466.779 322.031 466.582 322.562 466.582H325.68C325.701 466.582 325.716 466.589 325.727 466.605C325.742 466.615 325.75 466.631 325.75 466.652V474.332C325.75 474.347 325.742 474.363 325.727 474.378C325.716 474.389 325.701 474.394 325.68 474.394H324.25C324.234 474.394 324.219 474.389 324.203 474.378C324.193 474.363 324.188 474.347 324.188 474.332V467.925H322.883C322.706 467.925 322.549 467.99 322.414 468.121L316.117 474.378C316.102 474.389 316.086 474.394 316.07 474.394H314.078C314.047 474.394 314.026 474.381 314.016 474.355C314.005 474.329 314.01 474.306 314.031 474.285L321.141 467.175ZM353.688 466.652C353.688 466.631 353.693 466.615 353.703 466.605C353.719 466.589 353.737 466.582 353.758 466.582H355.188C355.203 466.582 355.216 466.589 355.227 466.605C355.242 466.615 355.25 466.631 355.25 466.652V474.332C355.25 474.347 355.242 474.363 355.227 474.378C355.216 474.389 355.203 474.394 355.188 474.394H352.281H352.266C351.667 474.378 351.195 474.126 350.852 473.636L347.219 468.222C347.068 468.024 346.88 467.925 346.656 467.925H345.656V474.332C345.656 474.347 345.648 474.363 345.633 474.378C345.622 474.389 345.607 474.394 345.586 474.394H344.156C344.141 474.394 344.125 474.389 344.109 474.378C344.099 474.363 344.094 474.347 344.094 474.332V466.652C344.094 466.631 344.099 466.615 344.109 466.605C344.125 466.589 344.141 466.582 344.156 466.582H347.062H347.078C347.677 466.602 348.148 466.858 348.492 467.347L352.125 472.753C352.271 472.957 352.458 473.058 352.688 473.058H353.688V466.652ZM382.516 466.582C383.135 466.582 383.661 466.8 384.094 467.238C384.531 467.67 384.75 468.196 384.75 468.816V472.16C384.75 472.779 384.531 473.308 384.094 473.746C383.661 474.178 383.135 474.394 382.516 474.394H373.656C373.641 474.394 373.625 474.389 373.609 474.378C373.599 474.363 373.594 474.345 373.594 474.324V466.652C373.594 466.631 373.599 466.615 373.609 466.605C373.625 466.589 373.641 466.582 373.656 466.582H382.516ZM383.188 468.589C383.188 468.407 383.122 468.251 382.992 468.121C382.862 467.985 382.703 467.917 382.516 467.917H375.156V473.058H382.516C382.703 473.058 382.862 472.993 382.992 472.863C383.122 472.727 383.188 472.569 383.188 472.386V468.589ZM414.25 469.597C414.25 470.05 414.13 470.459 413.891 470.824C413.651 471.183 413.333 471.451 412.938 471.628L412.969 471.691L414.211 474.3C414.216 474.321 414.214 474.342 414.203 474.363C414.193 474.384 414.174 474.394 414.148 474.394H412.562C412.536 474.394 412.516 474.381 412.5 474.355L411.297 471.832H404.656V474.332C404.656 474.347 404.648 474.363 404.633 474.378C404.622 474.389 404.607 474.394 404.586 474.394H403.156C403.141 474.394 403.125 474.389 403.109 474.378C403.099 474.363 403.094 474.347 403.094 474.332V466.652C403.094 466.631 403.099 466.615 403.109 466.605C403.125 466.589 403.141 466.582 403.156 466.582H412.023C412.638 466.582 413.161 466.8 413.594 467.238C414.031 467.67 414.25 468.196 414.25 468.816V469.597ZM404.656 470.488H412.023C412.206 470.488 412.362 470.423 412.492 470.292C412.622 470.162 412.688 470.003 412.688 469.816V468.589C412.688 468.407 412.622 468.251 412.492 468.121C412.362 467.99 412.206 467.925 412.023 467.925H404.656V470.488ZM434.156 468.589V469.816H442.57C442.591 469.816 442.607 469.824 442.617 469.839C442.633 469.85 442.641 469.865 442.641 469.886V471.089C442.641 471.11 442.633 471.128 442.617 471.144C442.607 471.154 442.591 471.16 442.57 471.16H434.156V472.386C434.156 472.569 434.221 472.727 434.352 472.863C434.482 472.993 434.641 473.058 434.828 473.058H443.688C443.708 473.058 443.724 473.066 443.734 473.082C443.75 473.092 443.758 473.105 443.758 473.121V474.324C443.758 474.345 443.75 474.363 443.734 474.378C443.724 474.389 443.708 474.394 443.688 474.394H434.828C434.208 474.394 433.68 474.178 433.242 473.746C432.81 473.308 432.594 472.779 432.594 472.16V468.816C432.594 468.196 432.81 467.67 433.242 467.238C433.68 466.8 434.208 466.582 434.828 466.582H443.688C443.708 466.582 443.724 466.589 443.734 466.605C443.75 466.615 443.758 466.631 443.758 466.652V467.855C443.758 467.871 443.75 467.886 443.734 467.902C443.724 467.912 443.708 467.917 443.688 467.917H434.828C434.641 467.917 434.482 467.985 434.352 468.121C434.221 468.251 434.156 468.407 434.156 468.589ZM469.25 467.175C469.667 466.779 470.141 466.582 470.672 466.582H473.789C473.81 466.582 473.826 466.589 473.836 466.605C473.852 466.615 473.859 466.631 473.859 466.652V474.332C473.859 474.347 473.852 474.363 473.836 474.378C473.826 474.389 473.81 474.394 473.789 474.394H472.359C472.344 474.394 472.328 474.389 472.312 474.378C472.302 474.363 472.297 474.347 472.297 474.332V467.925H470.992C470.815 467.925 470.659 467.99 470.523 468.121L464.227 474.378C464.211 474.389 464.195 474.394 464.18 474.394H462.188C462.156 474.394 462.135 474.381 462.125 474.355C462.115 474.329 462.12 474.306 462.141 474.285L469.25 467.175ZM527.625 466.652V474.324C527.625 474.345 527.617 474.363 527.602 474.378C527.591 474.389 527.576 474.394 527.555 474.394H526.125C526.109 474.394 526.094 474.389 526.078 474.378C526.068 474.363 526.062 474.345 526.062 474.324V467.917H525.203C524.917 467.917 524.706 468.069 524.57 468.371L522.461 474.347C522.451 474.378 522.43 474.394 522.398 474.394H521.234C521.208 474.394 521.188 474.378 521.172 474.347L519.07 468.371C518.93 468.069 518.719 467.917 518.438 467.917H517.578V474.324C517.578 474.345 517.57 474.363 517.555 474.378C517.544 474.389 517.529 474.394 517.508 474.394H516.078C516.062 474.394 516.047 474.389 516.031 474.378C516.021 474.363 516.016 474.345 516.016 474.324V466.652C516.016 466.631 516.021 466.615 516.031 466.605C516.047 466.589 516.062 466.582 516.078 466.582H518.953C519.005 466.582 519.057 466.584 519.109 466.589C519.406 466.626 519.664 466.738 519.883 466.925C520.107 467.113 520.268 467.35 520.367 467.636L521.82 471.792L523.266 467.636C523.37 467.35 523.531 467.113 523.75 466.925C523.974 466.733 524.234 466.621 524.531 466.589C524.583 466.584 524.633 466.582 524.68 466.582H527.555C527.576 466.582 527.591 466.589 527.602 466.605C527.617 466.615 527.625 466.631 527.625 466.652ZM547.531 468.589V469.816H555.945C555.966 469.816 555.982 469.824 555.992 469.839C556.008 469.85 556.016 469.865 556.016 469.886V471.089C556.016 471.11 556.008 471.128 555.992 471.144C555.982 471.154 555.966 471.16 555.945 471.16H547.531V472.386C547.531 472.569 547.596 472.727 547.727 472.863C547.857 472.993 548.016 473.058 548.203 473.058H557.062C557.083 473.058 557.099 473.066 557.109 473.082C557.125 473.092 557.133 473.105 557.133 473.121V474.324C557.133 474.345 557.125 474.363 557.109 474.378C557.099 474.389 557.083 474.394 557.062 474.394H548.203C547.583 474.394 547.055 474.178 546.617 473.746C546.185 473.308 545.969 472.779 545.969 472.16V468.816C545.969 468.196 546.185 467.67 546.617 467.238C547.055 466.8 547.583 466.582 548.203 466.582H557.062C557.083 466.582 557.099 466.589 557.109 466.605C557.125 466.615 557.133 466.631 557.133 466.652V467.855C557.133 467.871 557.125 467.886 557.109 467.902C557.099 467.912 557.083 467.917 557.062 467.917H548.203C548.016 467.917 547.857 467.985 547.727 468.121C547.596 468.251 547.531 468.407 547.531 468.589ZM577.047 468.589V469.144C577.047 469.332 577.112 469.49 577.242 469.621C577.372 469.751 577.529 469.816 577.711 469.816H584.414C585.029 469.816 585.552 470.035 585.984 470.472C586.422 470.904 586.641 471.431 586.641 472.05V472.16C586.641 472.774 586.422 473.3 585.984 473.738C585.552 474.175 585.029 474.394 584.414 474.394H575.992C575.977 474.394 575.961 474.389 575.945 474.378C575.935 474.363 575.93 474.345 575.93 474.324V473.121C575.93 473.1 575.935 473.084 575.945 473.074C575.961 473.058 575.977 473.05 575.992 473.05H584.414C584.596 473.05 584.753 472.985 584.883 472.855C585.013 472.725 585.078 472.569 585.078 472.386V471.824C585.078 471.641 585.013 471.485 584.883 471.355C584.753 471.22 584.596 471.152 584.414 471.152H577.711C577.096 471.152 576.57 470.936 576.133 470.503C575.701 470.066 575.484 469.54 575.484 468.925V468.808C575.484 468.194 575.701 467.67 576.133 467.238C576.57 466.8 577.096 466.582 577.711 466.582H586.133C586.148 466.582 586.161 466.589 586.172 466.605C586.188 466.615 586.195 466.628 586.195 466.644V467.855C586.195 467.871 586.188 467.886 586.172 467.902C586.161 467.912 586.148 467.917 586.133 467.917H577.711C577.529 467.917 577.372 467.983 577.242 468.113C577.112 468.243 577.047 468.402 577.047 468.589ZM604.984 466.652C604.984 466.631 604.99 466.615 605 466.605C605.016 466.589 605.031 466.582 605.047 466.582H616.078C616.094 466.582 616.107 466.589 616.117 466.605C616.133 466.615 616.141 466.631 616.141 466.652V467.855C616.141 467.871 616.133 467.886 616.117 467.902C616.107 467.912 616.094 467.917 616.078 467.917H611.344V474.324C611.344 474.345 611.336 474.363 611.32 474.378C611.31 474.389 611.297 474.394 611.281 474.394H609.852C609.831 474.394 609.812 474.389 609.797 474.378C609.786 474.363 609.781 474.345 609.781 474.324V467.917H605.047C605.031 467.917 605.016 467.912 605 467.902C604.99 467.886 604.984 467.871 604.984 467.855V466.652ZM645.641 469.597C645.641 470.05 645.521 470.459 645.281 470.824C645.042 471.183 644.724 471.451 644.328 471.628L644.359 471.691L645.602 474.3C645.607 474.321 645.604 474.342 645.594 474.363C645.583 474.384 645.565 474.394 645.539 474.394H643.953C643.927 474.394 643.906 474.381 643.891 474.355L642.688 471.832H636.047V474.332C636.047 474.347 636.039 474.363 636.023 474.378C636.013 474.389 635.997 474.394 635.977 474.394H634.547C634.531 474.394 634.516 474.389 634.5 474.378C634.49 474.363 634.484 474.347 634.484 474.332V466.652C634.484 466.631 634.49 466.615 634.5 466.605C634.516 466.589 634.531 466.582 634.547 466.582H643.414C644.029 466.582 644.552 466.8 644.984 467.238C645.422 467.67 645.641 468.196 645.641 468.816V469.597ZM636.047 470.488H643.414C643.596 470.488 643.753 470.423 643.883 470.292C644.013 470.162 644.078 470.003 644.078 469.816V468.589C644.078 468.407 644.013 468.251 643.883 468.121C643.753 467.99 643.596 467.925 643.414 467.925H636.047V470.488ZM665.547 468.589V469.816H673.961C673.982 469.816 673.997 469.824 674.008 469.839C674.023 469.85 674.031 469.865 674.031 469.886V471.089C674.031 471.11 674.023 471.128 674.008 471.144C673.997 471.154 673.982 471.16 673.961 471.16H665.547V472.386C665.547 472.569 665.612 472.727 665.742 472.863C665.872 472.993 666.031 473.058 666.219 473.058H675.078C675.099 473.058 675.115 473.066 675.125 473.082C675.141 473.092 675.148 473.105 675.148 473.121V474.324C675.148 474.345 675.141 474.363 675.125 474.378C675.115 474.389 675.099 474.394 675.078 474.394H666.219C665.599 474.394 665.07 474.178 664.633 473.746C664.201 473.308 663.984 472.779 663.984 472.16V468.816C663.984 468.196 664.201 467.67 664.633 467.238C665.07 466.8 665.599 466.582 666.219 466.582H675.078C675.099 466.582 675.115 466.589 675.125 466.605C675.141 466.615 675.148 466.631 675.148 466.652V467.855C675.148 467.871 675.141 467.886 675.125 467.902C675.115 467.912 675.099 467.917 675.078 467.917H666.219C666.031 467.917 665.872 467.985 665.742 468.121C665.612 468.251 665.547 468.407 665.547 468.589Z" fill="#962EB9"/>
<rect x="237.5" y="455.894" width="533" height="30" stroke="white"/>
<path d="M175 361.394L90.5 423.394H11" stroke="white"/>
<circle cx="11" cy="423.394" r="5" fill="white"/>
<circle cx="11" cy="423.394" r="10.5" stroke="white"/>
<defs>
<clipPath id="clip0_513_19067">
<rect width="342.892" height="9.96441" fill="white" transform="translate(401.438 54.8328)"/>
</clipPath>
</defs>
</svg>
