<svg width="144" height="887" viewBox="0 0 144 887" fill="none" xmlns="http://www.w3.org/2000/svg">
<mask id="mask0_513_19049" style="mask-type:luminance" maskUnits="userSpaceOnUse" x="48" y="16" width="66" height="871">
<path d="M114 16H48V887H114V16Z" fill="white"/>
<path d="M52.4907 817.373V883.535H110.535V871.633H93.0181H91.5532V870.168V817.373C91.5532 812.775 89.9256 808.848 86.6704 805.593C83.4152 802.338 79.4886 800.71 74.8906 800.71H69.1533C64.5553 800.71 60.6287 802.338 57.3735 805.593C54.1183 808.848 52.4907 812.775 52.4907 817.373ZM81.3604 871.633H79.8345H64.1484H62.6836V870.168V817.373C62.6836 816.071 63.1515 814.952 64.0874 814.016C65.0233 813.08 66.1423 812.612 67.4443 812.612H76.5386C77.8813 812.612 79.0207 813.08 79.9565 814.016C80.8924 814.952 81.3604 816.071 81.3604 817.373V870.168V871.633ZM50.9648 817.373C50.9648 812.368 52.7349 808.096 56.2749 804.556C59.8149 801.016 64.1077 799.246 69.1533 799.246H74.8906C79.8955 799.246 84.168 801.016 87.708 804.556C91.248 808.096 93.0181 812.368 93.0181 817.373V870.168H111.512C111.634 870.168 111.756 870.229 111.878 870.352C111.959 870.433 112 870.535 112 870.657V884.512C112 884.634 111.959 884.756 111.878 884.878C111.756 884.959 111.634 885 111.512 885H51.4531C51.3311 885 51.2293 884.959 51.1479 884.878C51.0259 884.756 50.9648 884.634 50.9648 884.512V817.373ZM79.8345 870.168V817.373C79.8345 816.478 79.509 815.705 78.8579 815.054C78.2069 814.403 77.4338 814.077 76.5386 814.077H67.4443C66.5492 814.077 65.776 814.403 65.125 815.054C64.474 815.705 64.1484 816.478 64.1484 817.373V870.168H79.8345ZM52.4297 713.247V762.747C52.4297 767.345 54.0573 771.271 57.3125 774.526C60.5677 777.782 64.4943 779.409 69.0923 779.409H93.8726C98.4705 779.409 102.397 777.782 105.652 774.526C108.908 771.271 110.535 767.345 110.535 762.747V713.247C110.535 708.649 108.908 704.722 105.652 701.467C102.397 698.212 98.4705 696.584 93.8726 696.584H69.0923C64.4943 696.584 60.5677 698.212 57.3125 701.467C54.0573 704.722 52.4297 708.649 52.4297 713.247ZM100.281 762.747C100.281 764.049 99.8133 765.168 98.8774 766.104C97.9416 767.039 96.8226 767.507 95.5205 767.507H67.4443C66.1423 767.507 65.0233 767.039 64.0874 766.104C63.1515 765.168 62.6836 764.049 62.6836 762.747V713.247C62.6836 711.904 63.1515 710.765 64.0874 709.829C65.0233 708.893 66.1423 708.425 67.4443 708.425H95.5205C96.8226 708.425 97.9416 708.893 98.8774 709.829C99.8133 710.765 100.281 711.904 100.281 713.247V762.747ZM50.9648 713.247C50.9648 708.242 52.7349 703.97 56.2749 700.43C59.8149 696.89 64.0874 695.12 69.0923 695.12H93.8726C98.8774 695.12 103.15 696.89 106.69 700.43C110.23 703.97 112 708.242 112 713.247V762.747C112 767.751 110.23 772.024 106.69 775.564C103.15 779.104 98.8774 780.874 93.8726 780.874H69.0923C64.0874 780.874 59.8149 779.104 56.2749 775.564C52.7349 772.024 50.9648 767.751 50.9648 762.747V713.247ZM98.8164 762.747V713.247C98.8164 712.352 98.4909 711.579 97.8398 710.928C97.1888 710.277 96.4157 709.951 95.5205 709.951H67.4443C66.5492 709.951 65.776 710.277 65.125 710.928C64.474 711.579 64.1484 712.352 64.1484 713.247V762.747C64.1484 763.642 64.474 764.415 65.125 765.066C65.776 765.717 66.5492 766.042 67.4443 766.042H95.5205C96.4157 766.042 97.1888 765.717 97.8398 765.066C98.4909 764.415 98.8164 763.642 98.8164 762.747ZM52.4907 609.121V675.283H110.535V663.381H93.0181H91.5532V661.917V615.469V614.553L92.4077 614.187L110.535 605.52V592.397L91.3091 601.492L90.0884 602.102L89.356 600.881C87.8504 598.277 85.8159 596.222 83.2524 594.717C80.689 593.211 77.9017 592.458 74.8906 592.458H69.1533C64.5553 592.458 60.6287 594.086 57.3735 597.341C54.1183 600.597 52.4907 604.523 52.4907 609.121ZM81.3604 663.381H79.8345H64.2095H62.6836V661.917V609.121C62.6836 607.819 63.1515 606.7 64.0874 605.764C65.0233 604.828 66.1626 604.36 67.5054 604.36H76.5386C77.8813 604.36 79.0207 604.828 79.9565 605.764C80.8924 606.7 81.3604 607.819 81.3604 609.121V661.917V663.381ZM50.9648 609.121C50.9648 604.116 52.7349 599.844 56.2749 596.304C59.8149 592.764 64.1077 590.994 69.1533 590.994H74.8906C78.1865 590.994 81.2383 591.807 84.0459 593.435C86.8128 595.063 89.0304 597.301 90.6987 600.149L111.329 590.383C111.491 590.302 111.654 590.302 111.817 590.383C111.939 590.465 112 590.607 112 590.811V606.191C112 606.354 111.919 606.497 111.756 606.619L93.0181 615.469V661.917H111.512C111.674 661.917 111.797 661.978 111.878 662.1C111.959 662.181 112 662.283 112 662.405V676.26C112 676.382 111.959 676.504 111.878 676.626C111.797 676.707 111.674 676.748 111.512 676.748H51.4531C51.3311 676.748 51.2293 676.707 51.1479 676.626C51.0259 676.504 50.9648 676.382 50.9648 676.26V609.121ZM79.8345 661.917V609.121C79.8345 608.226 79.5293 607.453 78.9189 606.802C78.2679 606.151 77.4744 605.825 76.5386 605.825H67.5054C66.5695 605.825 65.7964 606.151 65.186 606.802C64.535 607.453 64.2095 608.226 64.2095 609.121V661.917H79.8345ZM52.4297 487.6V570.425H62.6226V536.428V534.963H64.1484H110.474V523.062H64.1484H62.6226V521.597V487.6H52.4297ZM50.9648 486.624C50.9648 486.501 51.0055 486.4 51.0869 486.318C51.1683 486.196 51.2904 486.135 51.4531 486.135H63.6602C63.7822 486.135 63.9043 486.196 64.0264 486.318C64.1077 486.4 64.1484 486.501 64.1484 486.624V521.597H111.451C111.613 521.597 111.756 521.658 111.878 521.78C111.959 521.861 112 521.963 112 522.085V535.94C112 536.103 111.959 536.225 111.878 536.306C111.756 536.388 111.613 536.428 111.451 536.428H64.1484V571.401C64.1484 571.564 64.1077 571.686 64.0264 571.768C63.9043 571.849 63.7822 571.89 63.6602 571.89H51.4531C51.2904 571.89 51.1683 571.849 51.0869 571.768C51.0055 571.686 50.9648 571.564 50.9648 571.401V486.624ZM52.4907 383.474V451.284C52.4907 455.435 53.9556 458.975 56.8853 461.904C59.8149 464.834 63.355 466.299 67.5054 466.299H110.535V454.397H93.0181H91.5532V452.932V391.714H81.3604V452.932V454.397H79.8345H67.5054C66.1626 454.397 65.0233 453.929 64.0874 452.993C63.1515 452.057 62.6836 450.938 62.6836 449.636V383.474H52.4907ZM50.9648 382.498C50.9648 382.335 51.0259 382.213 51.1479 382.131C51.2293 382.05 51.3311 382.009 51.4531 382.009H63.6602C63.8229 382.009 63.9653 382.05 64.0874 382.131C64.1688 382.213 64.2095 382.335 64.2095 382.498V449.636C64.2095 450.531 64.535 451.305 65.186 451.956C65.7964 452.607 66.5695 452.932 67.5054 452.932H79.8345V390.737C79.8345 390.615 79.8955 390.514 80.0176 390.432C80.099 390.31 80.2007 390.249 80.3228 390.249H92.5298C92.6925 390.249 92.8146 390.31 92.896 390.432C92.9774 390.514 93.0181 390.615 93.0181 390.737V452.932H111.512C111.674 452.932 111.797 452.993 111.878 453.115C111.959 453.197 112 453.298 112 453.42V467.275C112 467.397 111.959 467.52 111.878 467.642C111.797 467.723 111.674 467.764 111.512 467.764H67.5054C62.9481 467.764 59.0622 466.156 55.8477 462.942C52.5924 459.727 50.9648 455.841 50.9648 451.284V382.498ZM52.4297 228.201V240.103H93.8726C98.4705 240.103 102.397 238.475 105.652 235.22C108.908 231.965 110.535 228.038 110.535 223.44V157.278H100.281V223.44C100.281 224.742 99.8133 225.861 98.8774 226.797C97.9416 227.733 96.8226 228.201 95.5205 228.201H52.4297ZM50.9648 227.224C50.9648 227.102 51.0259 227 51.1479 226.919C51.2293 226.797 51.3311 226.736 51.4531 226.736H95.5205C96.4157 226.736 97.1888 226.41 97.8398 225.759C98.4909 225.108 98.8164 224.335 98.8164 223.44V156.301C98.8164 156.179 98.8774 156.077 98.9995 155.996C99.0809 155.874 99.1826 155.813 99.3047 155.813H111.512C111.634 155.813 111.756 155.874 111.878 155.996C111.959 156.077 112 156.179 112 156.301V223.44C112 228.445 110.23 232.717 106.69 236.257C103.15 239.797 98.8774 241.567 93.8726 241.567H51.4531C51.3311 241.567 51.2293 241.527 51.1479 241.445C51.0259 241.323 50.9648 241.201 50.9648 241.079V227.224ZM52.4297 124.075V135.977H110.535V124.075H52.4297ZM50.9648 123.098C50.9648 122.935 51.0259 122.813 51.1479 122.732C51.2293 122.651 51.3311 122.61 51.4531 122.61H111.512C111.634 122.61 111.756 122.651 111.878 122.732C111.959 122.813 112 122.935 112 123.098V136.953C112 137.075 111.959 137.197 111.878 137.319C111.756 137.401 111.634 137.441 111.512 137.441H51.4531C51.3311 137.441 51.2293 137.401 51.1479 137.319C51.0259 137.197 50.9648 137.075 50.9648 136.953V123.098ZM52.4297 36.6113V86.1108C52.4297 90.7088 54.0573 94.6354 57.3125 97.8906C60.5677 101.146 64.4943 102.773 69.0923 102.773H93.8726C98.4705 102.773 102.397 101.146 105.652 97.8906C108.908 94.6354 110.535 90.7088 110.535 86.1108V36.6113C110.535 32.0133 108.908 28.0868 105.652 24.8315C102.397 21.5763 98.4705 19.9487 93.8726 19.9487H69.0923C64.4943 19.9487 60.5677 21.5763 57.3125 24.8315C54.0573 28.0868 52.4297 32.0133 52.4297 36.6113ZM100.281 86.1108C100.281 87.4129 99.8133 88.5319 98.8774 89.4678C97.9416 90.4036 96.8226 90.8716 95.5205 90.8716H67.4443C66.1423 90.8716 65.0233 90.4036 64.0874 89.4678C63.1515 88.5319 62.6836 87.4129 62.6836 86.1108V36.6113C62.6836 35.2686 63.1515 34.1292 64.0874 33.1934C65.0233 32.2575 66.1423 31.7896 67.4443 31.7896H95.5205C96.8226 31.7896 97.9416 32.2575 98.8774 33.1934C99.8133 34.1292 100.281 35.2686 100.281 36.6113V86.1108ZM50.9648 36.6113C50.9648 31.6064 52.7349 27.334 56.2749 23.7939C59.8149 20.2539 64.0874 18.4839 69.0923 18.4839H93.8726C98.8774 18.4839 103.15 20.2539 106.69 23.7939C110.23 27.334 112 31.6064 112 36.6113V86.1108C112 91.1157 110.23 95.3882 106.69 98.9282C103.15 102.468 98.8774 104.238 93.8726 104.238H69.0923C64.0874 104.238 59.8149 102.468 56.2749 98.9282C52.7349 95.3882 50.9648 91.1157 50.9648 86.1108V36.6113ZM98.8164 86.1108V36.6113C98.8164 35.7161 98.4909 34.943 97.8398 34.292C97.1888 33.641 96.4157 33.3154 95.5205 33.3154H67.4443C66.5492 33.3154 65.776 33.641 65.125 34.292C64.474 34.943 64.1484 35.7161 64.1484 36.6113V86.1108C64.1484 87.006 64.474 87.7791 65.125 88.4302C65.776 89.0812 66.5492 89.4067 67.4443 89.4067H95.5205C96.4157 89.4067 97.1888 89.0812 97.8398 88.4302C98.4909 87.7791 98.8164 87.006 98.8164 86.1108Z" fill="black"/>
</mask>
<g mask="url(#mask0_513_19049)">
<path d="M52.4907 883.535H50.4907V885.535H52.4907V883.535ZM110.535 883.535V885.535H112.535V883.535H110.535ZM110.535 871.633H112.535V869.633H110.535V871.633ZM91.5532 871.633H89.5532V873.633H91.5532V871.633ZM81.3604 871.633V873.633H83.3604V871.633H81.3604ZM62.6836 871.633H60.6836V873.633H62.6836V871.633ZM93.0181 870.168H91.0181V872.168H93.0181V870.168ZM111.878 884.878L112.987 886.542L113.32 886.32L113.542 885.987L111.878 884.878ZM79.8345 870.168V872.168H81.8345V870.168H79.8345ZM64.1484 870.168H62.1484V872.168H64.1484V870.168ZM52.4907 817.373H50.4907V883.535H52.4907H54.4907V817.373H52.4907ZM52.4907 883.535V885.535H110.535V883.535V881.535H52.4907V883.535ZM110.535 883.535H112.535V871.633H110.535H108.535V883.535H110.535ZM110.535 871.633V869.633H93.0181V871.633V873.633H110.535V871.633ZM93.0181 871.633V869.633H91.5532V871.633V873.633H93.0181V871.633ZM91.5532 871.633H93.5532V870.168H91.5532H89.5532V871.633H91.5532ZM91.5532 870.168H93.5532V817.373H91.5532H89.5532V870.168H91.5532ZM91.5532 817.373H93.5532C93.5532 812.244 91.7144 807.809 88.0846 804.179L86.6704 805.593L85.2562 807.007C88.1368 809.888 89.5532 813.306 89.5532 817.373H91.5532ZM86.6704 805.593L88.0846 804.179C84.4549 800.549 80.0198 798.71 74.8906 798.71V800.71V802.71C78.9575 802.71 82.3755 804.127 85.2562 807.007L86.6704 805.593ZM74.8906 800.71V798.71H69.1533V800.71V802.71H74.8906V800.71ZM69.1533 800.71V798.71C64.0242 798.71 59.5891 800.549 55.9593 804.179L57.3735 805.593L58.7878 807.007C61.6684 804.127 65.0865 802.71 69.1533 802.71V800.71ZM57.3735 805.593L55.9593 804.179C52.3296 807.809 50.4907 812.244 50.4907 817.373H52.4907H54.4907C54.4907 813.306 55.9071 809.888 58.7878 807.007L57.3735 805.593ZM81.3604 871.633V869.633H79.8345V871.633V873.633H81.3604V871.633ZM79.8345 871.633V869.633H64.1484V871.633V873.633H79.8345V871.633ZM64.1484 871.633V869.633H62.6836V871.633V873.633H64.1484V871.633ZM62.6836 871.633H64.6836V870.168H62.6836H60.6836V871.633H62.6836ZM62.6836 870.168H64.6836V817.373H62.6836H60.6836V870.168H62.6836ZM62.6836 817.373H64.6836C64.6836 816.611 64.9339 815.998 65.5016 815.43L64.0874 814.016L62.6732 812.602C61.3692 813.906 60.6836 815.531 60.6836 817.373H62.6836ZM64.0874 814.016L65.5016 815.43C66.0693 814.863 66.6824 814.612 67.4443 814.612V812.612V810.612C65.6021 810.612 63.9772 811.298 62.6732 812.602L64.0874 814.016ZM67.4443 812.612V814.612H76.5386V812.612V810.612H67.4443V812.612ZM76.5386 812.612V814.612C77.3596 814.612 77.9876 814.876 78.5423 815.43L79.9565 814.016L81.3708 812.602C80.0537 811.285 78.4031 810.612 76.5386 810.612V812.612ZM79.9565 814.016L78.5423 815.43C79.1101 815.998 79.3604 816.611 79.3604 817.373H81.3604H83.3604C83.3604 815.531 82.6748 813.906 81.3708 812.602L79.9565 814.016ZM81.3604 817.373H79.3604V870.168H81.3604H83.3604V817.373H81.3604ZM81.3604 870.168H79.3604V871.633H81.3604H83.3604V870.168H81.3604ZM50.9648 817.373H52.9648C52.9648 812.899 54.524 809.135 57.6891 805.97L56.2749 804.556L54.8607 803.141C50.9457 807.056 48.9648 811.838 48.9648 817.373H50.9648ZM56.2749 804.556L57.6891 805.97C60.8508 802.808 64.6335 801.246 69.1533 801.246V799.246V797.246C63.582 797.246 58.7791 799.223 54.8607 803.141L56.2749 804.556ZM69.1533 799.246V801.246H74.8906V799.246V797.246H69.1533V799.246ZM74.8906 799.246V801.246C79.3649 801.246 83.1287 802.805 86.2938 805.97L87.708 804.556L89.1222 803.141C85.2072 799.226 80.4261 797.246 74.8906 797.246V799.246ZM87.708 804.556L86.2938 805.97C89.4589 809.135 91.0181 812.899 91.0181 817.373H93.0181H95.0181C95.0181 811.838 93.0372 807.056 89.1222 803.141L87.708 804.556ZM93.0181 817.373H91.0181V870.168H93.0181H95.0181V817.373H93.0181ZM93.0181 870.168V872.168H111.512V870.168V868.168H93.0181V870.168ZM111.512 870.168V872.168C110.916 872.168 110.56 871.862 110.464 871.766L111.878 870.352L113.292 868.937C112.952 868.597 112.351 868.168 111.512 868.168V870.168ZM111.878 870.352L110.464 871.766C110.323 871.625 110.198 871.445 110.113 871.232C110.028 871.021 110 870.821 110 870.657H112H114C114 870.04 113.773 869.418 113.292 868.937L111.878 870.352ZM112 870.657H110V884.512H112H114V870.657H112ZM112 884.512H110C110 884.165 110.121 883.908 110.214 883.769L111.878 884.878L113.542 885.987C113.798 885.604 114 885.102 114 884.512H112ZM111.878 884.878L110.769 883.214C110.908 883.121 111.165 883 111.512 883V885V887C112.102 887 112.604 886.798 112.987 886.542L111.878 884.878ZM111.512 885V883H51.4531V885V887H111.512V885ZM51.4531 885V883C51.6175 883 51.8172 883.028 52.0281 883.113C52.2413 883.198 52.4212 883.323 52.5622 883.464L51.1479 884.878L49.7337 886.292C50.2147 886.773 50.8363 887 51.4531 887V885ZM51.1479 884.878L52.5622 883.464C52.6581 883.56 52.9648 883.916 52.9648 884.512H50.9648H48.9648C48.9648 885.351 49.3937 885.952 49.7337 886.292L51.1479 884.878ZM50.9648 884.512H52.9648V817.373H50.9648H48.9648V884.512H50.9648ZM79.8345 870.168H81.8345V817.373H79.8345H77.8345V870.168H79.8345ZM79.8345 817.373H81.8345C81.8345 815.931 81.2863 814.654 80.2721 813.639L78.8579 815.054L77.4437 816.468C77.7316 816.756 77.8345 817.025 77.8345 817.373H79.8345ZM78.8579 815.054L80.2721 813.639C79.258 812.625 77.9809 812.077 76.5386 812.077V814.077V816.077C76.8866 816.077 77.1558 816.18 77.4437 816.468L78.8579 815.054ZM76.5386 814.077V812.077H67.4443V814.077V816.077H76.5386V814.077ZM67.4443 814.077V812.077C66.002 812.077 64.7249 812.625 63.7108 813.639L65.125 815.054L66.5392 816.468C66.8271 816.18 67.0963 816.077 67.4443 816.077V814.077ZM65.125 815.054L63.7108 813.639C62.6966 814.654 62.1484 815.931 62.1484 817.373H64.1484H66.1484C66.1484 817.025 66.2513 816.756 66.5392 816.468L65.125 815.054ZM64.1484 817.373H62.1484V870.168H64.1484H66.1484V817.373H64.1484ZM64.1484 870.168V872.168H79.8345V870.168V868.168H64.1484V870.168ZM52.4297 713.247H50.4297V762.747H52.4297H54.4297V713.247H52.4297ZM52.4297 762.747H50.4297C50.4297 767.876 52.2685 772.311 55.8983 775.941L57.3125 774.526L58.7267 773.112C55.8461 770.232 54.4297 766.813 54.4297 762.747H52.4297ZM57.3125 774.526L55.8983 775.941C59.5281 779.57 63.9631 781.409 69.0923 781.409V779.409V777.409C65.0255 777.409 61.6074 775.993 58.7267 773.112L57.3125 774.526ZM69.0923 779.409V781.409H93.8726V779.409V777.409H69.0923V779.409ZM93.8726 779.409V781.409C99.0017 781.409 103.437 779.57 107.067 775.941L105.652 774.526L104.238 773.112C101.357 775.993 97.9394 777.409 93.8726 777.409V779.409ZM105.652 774.526L107.067 775.941C110.696 772.311 112.535 767.876 112.535 762.747H110.535H108.535C108.535 766.813 107.119 770.232 104.238 773.112L105.652 774.526ZM110.535 762.747H112.535V713.247H110.535H108.535V762.747H110.535ZM110.535 713.247H112.535C112.535 708.118 110.696 703.683 107.067 700.053L105.652 701.467L104.238 702.882C107.119 705.762 108.535 709.18 108.535 713.247H110.535ZM105.652 701.467L107.067 700.053C103.437 696.423 99.0017 694.584 93.8726 694.584V696.584V698.584C97.9394 698.584 101.357 700.001 104.238 702.882L105.652 701.467ZM93.8726 696.584V694.584H69.0923V696.584V698.584H93.8726V696.584ZM69.0923 696.584V694.584C63.9631 694.584 59.5281 696.423 55.8983 700.053L57.3125 701.467L58.7267 702.882C61.6074 700.001 65.0255 698.584 69.0923 698.584V696.584ZM57.3125 701.467L55.8983 700.053C52.2685 703.683 50.4297 708.118 50.4297 713.247H52.4297H54.4297C54.4297 709.18 55.8461 705.762 58.7267 702.882L57.3125 701.467ZM100.281 762.747H98.2812C98.2812 763.509 98.031 764.122 97.4632 764.689L98.8774 766.104L100.292 767.518C101.596 766.214 102.281 764.589 102.281 762.747H100.281ZM98.8774 766.104L97.4632 764.689C96.8955 765.257 96.2824 765.507 95.5205 765.507V767.507V769.507C97.3627 769.507 98.9876 768.822 100.292 767.518L98.8774 766.104ZM95.5205 767.507V765.507H67.4443V767.507V769.507H95.5205V767.507ZM67.4443 767.507V765.507C66.6824 765.507 66.0693 765.257 65.5016 764.689L64.0874 766.104L62.6732 767.518C63.9772 768.822 65.6021 769.507 67.4443 769.507V767.507ZM64.0874 766.104L65.5016 764.689C64.9339 764.122 64.6836 763.509 64.6836 762.747H62.6836H60.6836C60.6836 764.589 61.3692 766.214 62.6732 767.518L64.0874 766.104ZM62.6836 762.747H64.6836V713.247H62.6836H60.6836V762.747H62.6836ZM62.6836 713.247H64.6836C64.6836 712.426 64.9469 711.798 65.5016 711.243L64.0874 709.829L62.6732 708.415C61.3562 709.732 60.6836 711.383 60.6836 713.247H62.6836ZM64.0874 709.829L65.5016 711.243C66.0693 710.676 66.6824 710.425 67.4443 710.425V708.425V706.425C65.6021 706.425 63.9772 707.111 62.6732 708.415L64.0874 709.829ZM67.4443 708.425V710.425H95.5205V708.425V706.425H67.4443V708.425ZM95.5205 708.425V710.425C96.2824 710.425 96.8955 710.676 97.4632 711.243L98.8774 709.829L100.292 708.415C98.9876 707.111 97.3627 706.425 95.5205 706.425V708.425ZM98.8774 709.829L97.4632 711.243C98.0179 711.798 98.2812 712.426 98.2812 713.247H100.281H102.281C102.281 711.383 101.609 709.732 100.292 708.415L98.8774 709.829ZM100.281 713.247H98.2812V762.747H100.281H102.281V713.247H100.281ZM50.9648 713.247H52.9648C52.9648 708.773 54.524 705.009 57.6891 701.844L56.2749 700.43L54.8607 699.015C50.9457 702.93 48.9648 707.712 48.9648 713.247H50.9648ZM56.2749 700.43L57.6891 701.844C60.8542 698.679 64.618 697.12 69.0923 697.12V695.12V693.12C63.5568 693.12 58.7757 695.1 54.8607 699.015L56.2749 700.43ZM69.0923 695.12V697.12H93.8726V695.12V693.12H69.0923V695.12ZM93.8726 695.12V697.12C98.3468 697.12 102.111 698.679 105.276 701.844L106.69 700.43L108.104 699.015C104.189 695.1 99.4081 693.12 93.8726 693.12V695.12ZM106.69 700.43L105.276 701.844C108.441 705.009 110 708.773 110 713.247H112H114C114 707.712 112.019 702.93 108.104 699.015L106.69 700.43ZM112 713.247H110V762.747H112H114V713.247H112ZM112 762.747H110C110 767.221 108.441 770.985 105.276 774.15L106.69 775.564L108.104 776.978C112.019 773.063 114 768.282 114 762.747H112ZM106.69 775.564L105.276 774.15C102.111 777.315 98.3468 778.874 93.8726 778.874V780.874V782.874C99.4081 782.874 104.189 780.893 108.104 776.978L106.69 775.564ZM93.8726 780.874V778.874H69.0923V780.874V782.874H93.8726V780.874ZM69.0923 780.874V778.874C64.618 778.874 60.8542 777.315 57.6891 774.15L56.2749 775.564L54.8607 776.978C58.7757 780.893 63.5568 782.874 69.0923 782.874V780.874ZM56.2749 775.564L57.6891 774.15C54.524 770.985 52.9648 767.221 52.9648 762.747H50.9648H48.9648C48.9648 768.282 50.9457 773.063 54.8607 776.978L56.2749 775.564ZM50.9648 762.747H52.9648V713.247H50.9648H48.9648V762.747H50.9648ZM98.8164 762.747H100.816V713.247H98.8164H96.8164V762.747H98.8164ZM98.8164 713.247H100.816C100.816 711.805 100.268 710.528 99.2541 709.514L97.8398 710.928L96.4256 712.342C96.7136 712.63 96.8164 712.899 96.8164 713.247H98.8164ZM97.8398 710.928L99.2541 709.514C98.2399 708.499 96.9628 707.951 95.5205 707.951V709.951V711.951C95.8686 711.951 96.1377 712.054 96.4256 712.342L97.8398 710.928ZM95.5205 709.951V707.951H67.4443V709.951V711.951H95.5205V709.951ZM67.4443 709.951V707.951C66.002 707.951 64.7249 708.499 63.7108 709.514L65.125 710.928L66.5392 712.342C66.8271 712.054 67.0963 711.951 67.4443 711.951V709.951ZM65.125 710.928L63.7108 709.514C62.6966 710.528 62.1484 711.805 62.1484 713.247H64.1484H66.1484C66.1484 712.899 66.2513 712.63 66.5392 712.342L65.125 710.928ZM64.1484 713.247H62.1484V762.747H64.1484H66.1484V713.247H64.1484ZM64.1484 762.747H62.1484C62.1484 764.189 62.6966 765.466 63.7108 766.48L65.125 765.066L66.5392 763.652C66.2513 763.364 66.1484 763.095 66.1484 762.747H64.1484ZM65.125 765.066L63.7108 766.48C64.7249 767.494 66.002 768.042 67.4443 768.042V766.042V764.042C67.0963 764.042 66.8271 763.94 66.5392 763.652L65.125 765.066ZM67.4443 766.042V768.042H95.5205V766.042V764.042H67.4443V766.042ZM95.5205 766.042V768.042C96.9628 768.042 98.2399 767.494 99.2541 766.48L97.8398 765.066L96.4256 763.652C96.1377 763.94 95.8686 764.042 95.5205 764.042V766.042ZM97.8398 765.066L99.2541 766.48C100.268 765.466 100.816 764.189 100.816 762.747H98.8164H96.8164C96.8164 763.095 96.7136 763.364 96.4256 763.652L97.8398 765.066ZM52.4907 675.283H50.4907V677.283H52.4907V675.283ZM110.535 675.283V677.283H112.535V675.283H110.535ZM110.535 663.381H112.535V661.381H110.535V663.381ZM91.5532 663.381H89.5532V665.381H91.5532V663.381ZM91.5532 614.553L90.7654 612.715L89.5532 613.234V614.553H91.5532ZM92.4077 614.187L93.1956 616.025L93.2333 616.009L93.2704 615.991L92.4077 614.187ZM110.535 605.52L111.398 607.324L112.535 606.781V605.52H110.535ZM110.535 592.397H112.535V589.239L109.68 590.59L110.535 592.397ZM91.3091 601.492L90.4539 599.684L90.4342 599.693L90.4147 599.703L91.3091 601.492ZM90.0884 602.102L88.3734 603.131L89.3263 604.719L90.9828 603.891L90.0884 602.102ZM89.356 600.881L87.6245 601.882L87.6326 601.896L87.641 601.91L89.356 600.881ZM81.3604 663.381V665.381H83.3604V663.381H81.3604ZM62.6836 663.381H60.6836V665.381H62.6836V663.381ZM84.0459 593.435L85.06 591.711L85.049 591.705L84.0459 593.435ZM90.6987 600.149L88.973 601.16L89.8988 602.74L91.5544 601.957L90.6987 600.149ZM111.329 590.383L112.184 592.191L112.204 592.182L112.223 592.172L111.329 590.383ZM111.817 590.383L112.926 588.719L112.823 588.65L112.711 588.594L111.817 590.383ZM111.756 606.619L112.61 608.427L112.794 608.34L112.956 608.219L111.756 606.619ZM93.0181 615.469L92.1639 613.66L91.0181 614.202V615.469H93.0181ZM93.0181 661.917H91.0181V663.917H93.0181V661.917ZM111.878 662.1L110.214 663.209L110.324 663.374L110.464 663.514L111.878 662.1ZM111.878 676.626L113.292 678.04L113.432 677.9L113.542 677.735L111.878 676.626ZM79.8345 661.917V663.917H81.8345V661.917H79.8345ZM78.9189 606.802L80.378 605.434L80.356 605.41L80.3332 605.388L78.9189 606.802ZM65.186 606.802L66.6003 608.216L66.6231 608.193L66.6451 608.17L65.186 606.802ZM64.2095 661.917H62.2095V663.917H64.2095V661.917ZM52.4907 609.121H50.4907V675.283H52.4907H54.4907V609.121H52.4907ZM52.4907 675.283V677.283H110.535V675.283V673.283H52.4907V675.283ZM110.535 675.283H112.535V663.381H110.535H108.535V675.283H110.535ZM110.535 663.381V661.381H93.0181V663.381V665.381H110.535V663.381ZM93.0181 663.381V661.381H91.5532V663.381V665.381H93.0181V663.381ZM91.5532 663.381H93.5532V661.917H91.5532H89.5532V663.381H91.5532ZM91.5532 661.917H93.5532V615.469H91.5532H89.5532V661.917H91.5532ZM91.5532 615.469H93.5532V614.553H91.5532H89.5532V615.469H91.5532ZM91.5532 614.553L92.3411 616.392L93.1956 616.025L92.4077 614.187L91.6199 612.349L90.7654 612.715L91.5532 614.553ZM92.4077 614.187L93.2704 615.991L111.398 607.324L110.535 605.52L109.672 603.716L91.545 612.383L92.4077 614.187ZM110.535 605.52H112.535V592.397H110.535H108.535V605.52H110.535ZM110.535 592.397L109.68 590.59L90.4539 599.684L91.3091 601.492L92.1643 603.3L111.39 594.205L110.535 592.397ZM91.3091 601.492L90.4147 599.703L89.194 600.313L90.0884 602.102L90.9828 603.891L92.2035 603.281L91.3091 601.492ZM90.0884 602.102L91.8034 601.073L91.0709 599.852L89.356 600.881L87.641 601.91L88.3734 603.131L90.0884 602.102ZM89.356 600.881L91.0874 599.88C89.411 596.981 87.1305 594.675 84.2653 592.992L83.2524 594.717L82.2396 596.441C84.5014 597.77 86.2898 599.574 87.6245 601.882L89.356 600.881ZM83.2524 594.717L84.2653 592.992C81.3906 591.304 78.253 590.458 74.8906 590.458V592.458V594.458C77.5504 594.458 79.9873 595.119 82.2396 596.441L83.2524 594.717ZM74.8906 592.458V590.458H69.1533V592.458V594.458H74.8906V592.458ZM69.1533 592.458V590.458C64.0242 590.458 59.5891 592.297 55.9593 595.927L57.3735 597.341L58.7878 598.756C61.6684 595.875 65.0865 594.458 69.1533 594.458V592.458ZM57.3735 597.341L55.9593 595.927C52.3296 599.557 50.4907 603.992 50.4907 609.121H52.4907H54.4907C54.4907 605.054 55.9071 601.636 58.7878 598.756L57.3735 597.341ZM81.3604 663.381V661.381H79.8345V663.381V665.381H81.3604V663.381ZM79.8345 663.381V661.381H64.2095V663.381V665.381H79.8345V663.381ZM64.2095 663.381V661.381H62.6836V663.381V665.381H64.2095V663.381ZM62.6836 663.381H64.6836V661.917H62.6836H60.6836V663.381H62.6836ZM62.6836 661.917H64.6836V609.121H62.6836H60.6836V661.917H62.6836ZM62.6836 609.121H64.6836C64.6836 608.359 64.9339 607.746 65.5016 607.178L64.0874 605.764L62.6732 604.35C61.3692 605.654 60.6836 607.279 60.6836 609.121H62.6836ZM64.0874 605.764L65.5016 607.178C66.0563 606.624 66.6844 606.36 67.5054 606.36V604.36V602.36C65.6408 602.36 63.9902 603.033 62.6732 604.35L64.0874 605.764ZM67.5054 604.36V606.36H76.5386V604.36V602.36H67.5054V604.36ZM76.5386 604.36V606.36C77.3596 606.36 77.9876 606.624 78.5423 607.178L79.9565 605.764L81.3708 604.35C80.0537 603.033 78.4031 602.36 76.5386 602.36V604.36ZM79.9565 605.764L78.5423 607.178C79.1101 607.746 79.3604 608.359 79.3604 609.121H81.3604H83.3604C83.3604 607.279 82.6748 605.654 81.3708 604.35L79.9565 605.764ZM81.3604 609.121H79.3604V661.917H81.3604H83.3604V609.121H81.3604ZM81.3604 661.917H79.3604V663.381H81.3604H83.3604V661.917H81.3604ZM50.9648 609.121H52.9648C52.9648 604.647 54.524 600.883 57.6891 597.718L56.2749 596.304L54.8607 594.889C50.9457 598.804 48.9648 603.586 48.9648 609.121H50.9648ZM56.2749 596.304L57.6891 597.718C60.8508 594.556 64.6335 592.994 69.1533 592.994V590.994V588.994C63.582 588.994 58.7791 590.971 54.8607 594.889L56.2749 596.304ZM69.1533 590.994V592.994H74.8906V590.994V588.994H69.1533V590.994ZM74.8906 590.994V592.994C77.84 592.994 80.5449 593.717 83.0428 595.165L84.0459 593.435L85.049 591.705C81.9316 589.898 78.533 588.994 74.8906 588.994V590.994ZM84.0459 593.435L83.0319 595.159C85.496 596.608 87.4721 598.597 88.973 601.16L90.6987 600.149L92.4245 599.138C90.5888 596.004 88.1297 593.517 85.06 591.711L84.0459 593.435ZM90.6987 600.149L91.5544 601.957L112.184 592.191L111.329 590.383L110.473 588.576L89.843 598.341L90.6987 600.149ZM111.329 590.383L112.223 592.172C112.06 592.254 111.837 592.322 111.573 592.322C111.309 592.322 111.086 592.254 110.922 592.172L111.817 590.383L112.711 588.594C111.986 588.232 111.16 588.232 110.434 588.594L111.329 590.383ZM111.817 590.383L110.707 592.047C110.427 591.861 110.229 591.603 110.116 591.339C110.012 591.096 110 590.899 110 590.811H112H114C114 590.221 113.805 589.305 112.926 588.719L111.817 590.383ZM112 590.811H110V606.191H112H114V590.811H112ZM112 606.191H110C110 605.922 110.072 605.657 110.202 605.428C110.326 605.212 110.47 605.083 110.556 605.019L111.756 606.619L112.956 608.219C113.483 607.824 114 607.14 114 606.191H112ZM111.756 606.619L110.902 604.81L92.1639 613.66L93.0181 615.469L93.8722 617.277L112.61 608.427L111.756 606.619ZM93.0181 615.469H91.0181V661.917H93.0181H95.0181V615.469H93.0181ZM93.0181 661.917V663.917H111.512V661.917V659.917H93.0181V661.917ZM111.512 661.917V663.917C111.342 663.917 111.096 663.884 110.831 663.751C110.557 663.614 110.351 663.415 110.214 663.209L111.878 662.1L113.542 660.99C113.044 660.244 112.257 659.917 111.512 659.917V661.917ZM111.878 662.1L110.464 663.514C110.323 663.373 110.198 663.193 110.113 662.98C110.028 662.769 110 662.569 110 662.405H112H114C114 661.788 113.773 661.166 113.292 660.685L111.878 662.1ZM112 662.405H110V676.26H112H114V662.405H112ZM112 676.26H110C110 675.913 110.121 675.656 110.214 675.517L111.878 676.626L113.542 677.735C113.798 677.352 114 676.85 114 676.26H112ZM111.878 676.626L110.464 675.212C110.89 674.786 111.366 674.748 111.512 674.748V676.748V678.748C111.983 678.748 112.703 678.629 113.292 678.04L111.878 676.626ZM111.512 676.748V674.748H51.4531V676.748V678.748H111.512V676.748ZM51.4531 676.748V674.748C51.6175 674.748 51.8172 674.776 52.0281 674.861C52.2413 674.946 52.4212 675.071 52.5622 675.212L51.1479 676.626L49.7337 678.04C50.2147 678.521 50.8363 678.748 51.4531 678.748V676.748ZM51.1479 676.626L52.5622 675.212C52.6581 675.308 52.9648 675.664 52.9648 676.26H50.9648H48.9648C48.9648 677.099 49.3937 677.7 49.7337 678.04L51.1479 676.626ZM50.9648 676.26H52.9648V609.121H50.9648H48.9648V676.26H50.9648ZM79.8345 661.917H81.8345V609.121H79.8345H77.8345V661.917H79.8345ZM79.8345 609.121H81.8345C81.8345 607.72 81.3371 606.457 80.378 605.434L78.9189 606.802L77.4599 608.17C77.7215 608.449 77.8345 608.732 77.8345 609.121H79.8345ZM78.9189 606.802L80.3332 605.388C79.3002 604.355 77.9951 603.825 76.5386 603.825V605.825V607.825C76.9538 607.825 77.2356 607.947 77.5047 608.216L78.9189 606.802ZM76.5386 605.825V603.825H67.5054V605.825V607.825H76.5386V605.825ZM67.5054 605.825V603.825C66.047 603.825 64.7356 604.358 63.727 605.434L65.186 606.802L66.6451 608.17C66.8571 607.943 67.092 607.825 67.5054 607.825V605.825ZM65.186 606.802L63.7718 605.388C62.7577 606.402 62.2095 607.679 62.2095 609.121H64.2095H66.2095C66.2095 608.773 66.3123 608.504 66.6003 608.216L65.186 606.802ZM64.2095 609.121H62.2095V661.917H64.2095H66.2095V609.121H64.2095ZM64.2095 661.917V663.917H79.8345V661.917V659.917H64.2095V661.917ZM52.4297 487.6V485.6H50.4297V487.6H52.4297ZM52.4297 570.425H50.4297V572.425H52.4297V570.425ZM62.6226 570.425V572.425H64.6226V570.425H62.6226ZM62.6226 534.963V532.963H60.6226V534.963H62.6226ZM110.474 534.963V536.963H112.474V534.963H110.474ZM110.474 523.062H112.474V521.062H110.474V523.062ZM62.6226 523.062H60.6226V525.062H62.6226V523.062ZM62.6226 487.6H64.6226V485.6H62.6226V487.6ZM51.0869 486.318L52.5011 487.733L52.6412 487.593L52.751 487.428L51.0869 486.318ZM64.1484 521.597H62.1484V523.597H64.1484V521.597ZM111.878 536.306L112.987 537.97L113.152 537.86L113.292 537.72L111.878 536.306ZM64.1484 536.428V534.428H62.1484V536.428H64.1484ZM64.0264 571.768L65.1358 573.432L65.3005 573.322L65.4406 573.182L64.0264 571.768ZM52.4297 487.6H50.4297V570.425H52.4297H54.4297V487.6H52.4297ZM52.4297 570.425V572.425H62.6226V570.425V568.425H52.4297V570.425ZM62.6226 570.425H64.6226V536.428H62.6226H60.6226V570.425H62.6226ZM62.6226 536.428H64.6226V534.963H62.6226H60.6226V536.428H62.6226ZM62.6226 534.963V536.963H64.1484V534.963V532.963H62.6226V534.963ZM64.1484 534.963V536.963H110.474V534.963V532.963H64.1484V534.963ZM110.474 534.963H112.474V523.062H110.474H108.474V534.963H110.474ZM110.474 523.062V521.062H64.1484V523.062V525.062H110.474V523.062ZM64.1484 523.062V521.062H62.6226V523.062V525.062H64.1484V523.062ZM62.6226 523.062H64.6226V521.597H62.6226H60.6226V523.062H62.6226ZM62.6226 521.597H64.6226V487.6H62.6226H60.6226V521.597H62.6226ZM62.6226 487.6V485.6H52.4297V487.6V489.6H62.6226V487.6ZM50.9648 486.624H52.9648C52.9648 486.788 52.9367 486.988 52.8523 487.198C52.767 487.412 52.6421 487.592 52.5011 487.733L51.0869 486.318L49.6727 484.904C49.1917 485.385 48.9648 486.007 48.9648 486.624H50.9648ZM51.0869 486.318L52.751 487.428C52.6136 487.634 52.4075 487.833 52.1339 487.97C51.8687 488.103 51.6229 488.135 51.4531 488.135V486.135V484.135C50.7078 484.135 49.9205 484.462 49.4228 485.209L51.0869 486.318ZM51.4531 486.135V488.135H63.6602V486.135V484.135H51.4531V486.135ZM63.6602 486.135V488.135C63.0647 488.135 62.7081 487.828 62.6122 487.733L64.0264 486.318L65.4406 484.904C65.1005 484.564 64.4997 484.135 63.6602 484.135V486.135ZM64.0264 486.318L62.6122 487.733C62.4712 487.592 62.3463 487.412 62.261 487.198C62.1766 486.988 62.1484 486.788 62.1484 486.624H64.1484H66.1484C66.1484 486.007 65.9216 485.385 65.4406 484.904L64.0264 486.318ZM64.1484 486.624H62.1484V521.597H64.1484H66.1484V486.624H64.1484ZM64.1484 521.597V523.597H111.451V521.597V519.597H64.1484V521.597ZM111.451 521.597V523.597C111.275 523.597 111.082 523.562 110.892 523.481C110.704 523.4 110.562 523.292 110.464 523.194L111.878 521.78L113.292 520.366C112.82 519.894 112.179 519.597 111.451 519.597V521.597ZM111.878 521.78L110.464 523.194C110.323 523.053 110.198 522.873 110.113 522.66C110.028 522.449 110 522.249 110 522.085H112H114C114 521.468 113.773 520.847 113.292 520.366L111.878 521.78ZM112 522.085H110V535.94H112H114V522.085H112ZM112 535.94H110C110 535.794 110.038 535.318 110.464 534.892L111.878 536.306L113.292 537.72C113.881 537.132 114 536.411 114 535.94H112ZM111.878 536.306L110.769 534.642C111.01 534.481 111.263 534.428 111.451 534.428V536.428V538.428C111.963 538.428 112.501 538.294 112.987 537.97L111.878 536.306ZM111.451 536.428V534.428H64.1484V536.428V538.428H111.451V536.428ZM64.1484 536.428H62.1484V571.401H64.1484H66.1484V536.428H64.1484ZM64.1484 571.401H62.1484C62.1484 571.256 62.1862 570.779 62.6122 570.353L64.0264 571.768L65.4406 573.182C66.0293 572.593 66.1484 571.872 66.1484 571.401H64.1484ZM64.0264 571.768L62.917 570.103C63.0562 570.011 63.3136 569.89 63.6602 569.89V571.89V573.89C64.2508 573.89 64.7524 573.687 65.1358 573.432L64.0264 571.768ZM63.6602 571.89V569.89H51.4531V571.89V573.89H63.6602V571.89ZM51.4531 571.89V569.89C51.5987 569.89 52.0751 569.927 52.5011 570.353L51.0869 571.768L49.6727 573.182C50.2614 573.771 50.9821 573.89 51.4531 573.89V571.89ZM51.0869 571.768L52.5011 570.353C52.9271 570.779 52.9648 571.256 52.9648 571.401H50.9648H48.9648C48.9648 571.872 49.084 572.593 49.6727 573.182L51.0869 571.768ZM50.9648 571.401H52.9648V486.624H50.9648H48.9648V571.401H50.9648ZM52.4907 383.474V381.474H50.4907V383.474H52.4907ZM110.535 466.299V468.299H112.535V466.299H110.535ZM110.535 454.397H112.535V452.397H110.535V454.397ZM91.5532 454.397H89.5532V456.397H91.5532V454.397ZM91.5532 391.714H93.5532V389.714H91.5532V391.714ZM81.3604 391.714V389.714H79.3604V391.714H81.3604ZM81.3604 454.397V456.397H83.3604V454.397H81.3604ZM62.6836 383.474H64.6836V381.474H62.6836V383.474ZM51.1479 382.131L52.2574 383.795L52.4221 383.686L52.5622 383.546L51.1479 382.131ZM64.0874 382.131L65.5016 380.717L65.3616 380.577L65.1968 380.467L64.0874 382.131ZM65.186 451.956L66.6451 450.588L66.6231 450.564L66.6003 450.541L65.186 451.956ZM79.8345 452.932V454.932H81.8345V452.932H79.8345ZM80.0176 390.432L81.127 392.096L81.4598 391.874L81.6817 391.542L80.0176 390.432ZM92.896 390.432L91.2319 391.542L91.3418 391.706L91.4818 391.846L92.896 390.432ZM93.0181 452.932H91.0181V454.932H93.0181V452.932ZM111.878 453.115L110.214 454.225L110.324 454.389L110.464 454.529L111.878 453.115ZM111.878 467.642L113.292 469.056L113.432 468.916L113.542 468.751L111.878 467.642ZM55.8477 462.942L57.2619 461.528L57.2529 461.519L55.8477 462.942ZM52.4907 383.474H50.4907V451.284H52.4907H54.4907V383.474H52.4907ZM52.4907 451.284H50.4907C50.4907 455.964 52.1655 460.013 55.471 463.319L56.8853 461.904L58.2995 460.49C55.7456 457.936 54.4907 454.905 54.4907 451.284H52.4907ZM56.8853 461.904L55.471 463.319C58.7765 466.624 62.8256 468.299 67.5054 468.299V466.299V464.299C63.8844 464.299 60.8534 463.044 58.2995 460.49L56.8853 461.904ZM67.5054 466.299V468.299H110.535V466.299V464.299H67.5054V466.299ZM110.535 466.299H112.535V454.397H110.535H108.535V466.299H110.535ZM110.535 454.397V452.397H93.0181V454.397V456.397H110.535V454.397ZM93.0181 454.397V452.397H91.5532V454.397V456.397H93.0181V454.397ZM91.5532 454.397H93.5532V452.932H91.5532H89.5532V454.397H91.5532ZM91.5532 452.932H93.5532V391.714H91.5532H89.5532V452.932H91.5532ZM91.5532 391.714V389.714H81.3604V391.714V393.714H91.5532V391.714ZM81.3604 391.714H79.3604V452.932H81.3604H83.3604V391.714H81.3604ZM81.3604 452.932H79.3604V454.397H81.3604H83.3604V452.932H81.3604ZM81.3604 454.397V452.397H79.8345V454.397V456.397H81.3604V454.397ZM79.8345 454.397V452.397H67.5054V454.397V456.397H79.8345V454.397ZM67.5054 454.397V452.397C66.6844 452.397 66.0563 452.134 65.5016 451.579L64.0874 452.993L62.6732 454.407C63.9902 455.724 65.6408 456.397 67.5054 456.397V454.397ZM64.0874 452.993L65.5016 451.579C64.9339 451.011 64.6836 450.398 64.6836 449.636H62.6836H60.6836C60.6836 451.478 61.3692 453.103 62.6732 454.407L64.0874 452.993ZM62.6836 449.636H64.6836V383.474H62.6836H60.6836V449.636H62.6836ZM62.6836 383.474V381.474H52.4907V383.474V385.474H62.6836V383.474ZM50.9648 382.498H52.9648C52.9648 382.667 52.9321 382.913 52.7995 383.178C52.6627 383.452 52.4635 383.658 52.2574 383.795L51.1479 382.131L50.0385 380.467C49.2921 380.965 48.9648 381.752 48.9648 382.498H50.9648ZM51.1479 382.131L52.5622 383.546C52.4212 383.687 52.2413 383.811 52.0281 383.897C51.8172 383.981 51.6175 384.009 51.4531 384.009V382.009V380.009C50.8363 380.009 50.2147 380.236 49.7337 380.717L51.1479 382.131ZM51.4531 382.009V384.009H63.6602V382.009V380.009H51.4531V382.009ZM63.6602 382.009V384.009C63.4729 384.009 63.2199 383.957 62.978 383.795L64.0874 382.131L65.1968 380.467C64.7107 380.143 64.1729 380.009 63.6602 380.009V382.009ZM64.0874 382.131L62.6732 383.546C62.2472 383.12 62.2095 382.643 62.2095 382.498H64.2095H66.2095C66.2095 382.027 66.0904 381.306 65.5016 380.717L64.0874 382.131ZM64.2095 382.498H62.2095V449.636H64.2095H66.2095V382.498H64.2095ZM64.2095 449.636H62.2095C62.2095 451.079 62.7577 452.356 63.7718 453.37L65.186 451.956L66.6003 450.541C66.3123 450.253 66.2095 449.984 66.2095 449.636H64.2095ZM65.186 451.956L63.727 453.323C64.7356 454.399 66.047 454.932 67.5054 454.932V452.932V450.932C67.092 450.932 66.8571 450.814 66.6451 450.588L65.186 451.956ZM67.5054 452.932V454.932H79.8345V452.932V450.932H67.5054V452.932ZM79.8345 452.932H81.8345V390.737H79.8345H77.8345V452.932H79.8345ZM79.8345 390.737H81.8345C81.8345 391.028 81.7568 391.329 81.5952 391.598C81.4417 391.854 81.2554 392.011 81.127 392.096L80.0176 390.432L78.9082 388.768C78.3587 389.134 77.8345 389.805 77.8345 390.737H79.8345ZM80.0176 390.432L81.6817 391.542C81.5961 391.67 81.4398 391.856 81.1839 392.01C80.9146 392.171 80.6132 392.249 80.3228 392.249V390.249V388.249C79.3906 388.249 78.7198 388.773 78.3535 389.323L80.0176 390.432ZM80.3228 390.249V392.249H92.5298V390.249V388.249H80.3228V390.249ZM92.5298 390.249V392.249C92.36 392.249 92.1142 392.216 91.849 392.084C91.5755 391.947 91.3693 391.748 91.2319 391.542L92.896 390.432L94.5601 389.323C94.0624 388.576 93.2752 388.249 92.5298 388.249V390.249ZM92.896 390.432L91.4818 391.846C91.3408 391.705 91.2159 391.525 91.1306 391.312C91.0462 391.101 91.0181 390.902 91.0181 390.737H93.0181H95.0181C95.0181 390.121 94.7912 389.499 94.3102 389.018L92.896 390.432ZM93.0181 390.737H91.0181V452.932H93.0181H95.0181V390.737H93.0181ZM93.0181 452.932V454.932H111.512V452.932V450.932H93.0181V452.932ZM111.512 452.932V454.932C111.342 454.932 111.096 454.899 110.831 454.767C110.557 454.63 110.351 454.431 110.214 454.225L111.878 453.115L113.542 452.006C113.044 451.259 112.257 450.932 111.512 450.932V452.932ZM111.878 453.115L110.464 454.529C110.323 454.388 110.198 454.209 110.113 453.995C110.028 453.784 110 453.585 110 453.42H112H114C114 452.804 113.773 452.182 113.292 451.701L111.878 453.115ZM112 453.42H110V467.275H112H114V453.42H112ZM112 467.275H110C110 466.929 110.121 466.671 110.214 466.532L111.878 467.642L113.542 468.751C113.798 468.368 114 467.866 114 467.275H112ZM111.878 467.642L110.464 466.227C110.89 465.801 111.366 465.764 111.512 465.764V467.764V469.764C111.983 469.764 112.703 469.645 113.292 469.056L111.878 467.642ZM111.512 467.764V465.764H67.5054V467.764V469.764H111.512V467.764ZM67.5054 467.764V465.764C63.477 465.764 60.1003 464.366 57.2619 461.528L55.8477 462.942L54.4334 464.356C58.0241 467.947 62.4191 469.764 67.5054 469.764V467.764ZM55.8477 462.942L57.2529 461.519C54.3766 458.678 52.9648 455.304 52.9648 451.284H50.9648H48.9648C48.9648 456.379 50.8083 460.776 54.4424 464.365L55.8477 462.942ZM50.9648 451.284H52.9648V382.498H50.9648H48.9648V451.284H50.9648ZM52.4297 228.201V226.201H50.4297V228.201H52.4297ZM52.4297 240.103H50.4297V242.103H52.4297V240.103ZM110.535 157.278H112.535V155.278H110.535V157.278ZM100.281 157.278V155.278H98.2812V157.278H100.281ZM51.1479 226.919L52.2574 228.583L52.5902 228.361L52.812 228.028L51.1479 226.919ZM98.9995 155.996L100.109 157.66L100.442 157.438L100.664 157.105L98.9995 155.996ZM52.4297 228.201H50.4297V240.103H52.4297H54.4297V228.201H52.4297ZM52.4297 240.103V242.103H93.8726V240.103V238.103H52.4297V240.103ZM93.8726 240.103V242.103C99.0017 242.103 103.437 240.264 107.067 236.634L105.652 235.22L104.238 233.806C101.357 236.686 97.9394 238.103 93.8726 238.103V240.103ZM105.652 235.22L107.067 236.634C110.696 233.004 112.535 228.569 112.535 223.44H110.535H108.535C108.535 227.507 107.119 230.925 104.238 233.806L105.652 235.22ZM110.535 223.44H112.535V157.278H110.535H108.535V223.44H110.535ZM110.535 157.278V155.278H100.281V157.278V159.278H110.535V157.278ZM100.281 157.278H98.2812V223.44H100.281H102.281V157.278H100.281ZM100.281 223.44H98.2812C98.2812 224.202 98.031 224.815 97.4632 225.383L98.8774 226.797L100.292 228.211C101.596 226.907 102.281 225.282 102.281 223.44H100.281ZM98.8774 226.797L97.4632 225.383C96.8955 225.95 96.2824 226.201 95.5205 226.201V228.201V230.201C97.3627 230.201 98.9876 229.515 100.292 228.211L98.8774 226.797ZM95.5205 228.201V226.201H52.4297V228.201V230.201H95.5205V228.201ZM50.9648 227.224H52.9648C52.9648 227.515 52.8872 227.816 52.7256 228.085C52.5721 228.341 52.3857 228.497 52.2574 228.583L51.1479 226.919L50.0385 225.255C49.4891 225.621 48.9648 226.292 48.9648 227.224H50.9648ZM51.1479 226.919L52.812 228.028C52.7265 228.157 52.5701 228.343 52.3143 228.497C52.045 228.658 51.7435 228.736 51.4531 228.736V226.736V224.736C50.5209 224.736 49.8502 225.26 49.4838 225.81L51.1479 226.919ZM51.4531 226.736V228.736H95.5205V226.736V224.736H51.4531V226.736ZM95.5205 226.736V228.736C96.9628 228.736 98.2399 228.188 99.2541 227.173L97.8398 225.759L96.4256 224.345C96.1377 224.633 95.8686 224.736 95.5205 224.736V226.736ZM97.8398 225.759L99.2541 227.173C100.268 226.159 100.816 224.882 100.816 223.44H98.8164H96.8164C96.8164 223.788 96.7136 224.057 96.4256 224.345L97.8398 225.759ZM98.8164 223.44H100.816V156.301H98.8164H96.8164V223.44H98.8164ZM98.8164 156.301H100.816C100.816 156.592 100.739 156.893 100.577 157.162C100.424 157.418 100.237 157.575 100.109 157.66L98.9995 155.996L97.8901 154.332C97.3406 154.698 96.8164 155.369 96.8164 156.301H98.8164ZM98.9995 155.996L100.664 157.105C100.578 157.234 100.422 157.42 100.166 157.574C99.8965 157.735 99.5951 157.813 99.3047 157.813V155.813V153.813C98.3725 153.813 97.7017 154.337 97.3354 154.887L98.9995 155.996ZM99.3047 155.813V157.813H111.512V155.813V153.813H99.3047V155.813ZM111.512 155.813V157.813C110.916 157.813 110.56 157.506 110.464 157.41L111.878 155.996L113.292 154.582C112.952 154.242 112.351 153.813 111.512 153.813V155.813ZM111.878 155.996L110.464 157.41C110.323 157.269 110.198 157.089 110.113 156.876C110.028 156.665 110 156.466 110 156.301H112H114C114 155.684 113.773 155.063 113.292 154.582L111.878 155.996ZM112 156.301H110V223.44H112H114V156.301H112ZM112 223.44H110C110 227.914 108.441 231.678 105.276 234.843L106.69 236.257L108.104 237.672C112.019 233.757 114 228.975 114 223.44H112ZM106.69 236.257L105.276 234.843C102.111 238.008 98.3468 239.567 93.8726 239.567V241.567V243.567C99.4081 243.567 104.189 241.587 108.104 237.672L106.69 236.257ZM93.8726 241.567V239.567H51.4531V241.567V243.567H93.8726V241.567ZM51.4531 241.567V239.567C51.6175 239.567 51.8172 239.596 52.0281 239.68C52.2413 239.765 52.4212 239.89 52.5622 240.031L51.1479 241.445L49.7337 242.859C50.2147 243.341 50.8363 243.567 51.4531 243.567V241.567ZM51.1479 241.445L52.5622 240.031C52.6581 240.127 52.9648 240.484 52.9648 241.079H50.9648H48.9648C48.9648 241.919 49.3937 242.519 49.7337 242.859L51.1479 241.445ZM50.9648 241.079H52.9648V227.224H50.9648H48.9648V241.079H50.9648ZM52.4297 124.075V122.075H50.4297V124.075H52.4297ZM52.4297 135.977H50.4297V137.977H52.4297V135.977ZM110.535 135.977V137.977H112.535V135.977H110.535ZM110.535 124.075H112.535V122.075H110.535V124.075ZM51.1479 122.732L52.2574 124.396L52.4221 124.286L52.5622 124.146L51.1479 122.732ZM111.878 122.732L113.292 121.318L113.152 121.178L112.987 121.068L111.878 122.732ZM111.878 137.319L112.987 138.983L113.32 138.762L113.542 138.429L111.878 137.319ZM52.4297 124.075H50.4297V135.977H52.4297H54.4297V124.075H52.4297ZM52.4297 135.977V137.977H110.535V135.977V133.977H52.4297V135.977ZM110.535 135.977H112.535V124.075H110.535H108.535V135.977H110.535ZM110.535 124.075V122.075H52.4297V124.075V126.075H110.535V124.075ZM50.9648 123.098H52.9648C52.9648 123.268 52.9321 123.514 52.7995 123.779C52.6627 124.052 52.4635 124.259 52.2574 124.396L51.1479 122.732L50.0385 121.068C49.2921 121.565 48.9648 122.353 48.9648 123.098H50.9648ZM51.1479 122.732L52.5622 124.146C52.4212 124.287 52.2413 124.412 52.0281 124.497C51.8172 124.582 51.6175 124.61 51.4531 124.61V122.61V120.61C50.8363 120.61 50.2147 120.837 49.7337 121.318L51.1479 122.732ZM51.4531 122.61V124.61H111.512V122.61V120.61H51.4531V122.61ZM111.512 122.61V124.61C111.165 124.61 110.908 124.489 110.769 124.396L111.878 122.732L112.987 121.068C112.604 120.812 112.102 120.61 111.512 120.61V122.61ZM111.878 122.732L110.464 124.146C110.038 123.72 110 123.244 110 123.098H112H114C114 122.627 113.881 121.906 113.292 121.318L111.878 122.732ZM112 123.098H110V136.953H112H114V123.098H112ZM112 136.953H110C110 136.607 110.121 136.349 110.214 136.21L111.878 137.319L113.542 138.429C113.798 138.045 114 137.544 114 136.953H112ZM111.878 137.319L110.769 135.655C110.908 135.562 111.165 135.441 111.512 135.441V137.441V139.441C112.102 139.441 112.604 139.239 112.987 138.983L111.878 137.319ZM111.512 137.441V135.441H51.4531V137.441V139.441H111.512V137.441ZM51.4531 137.441V135.441C51.6175 135.441 51.8172 135.47 52.0281 135.554C52.2413 135.639 52.4212 135.764 52.5622 135.905L51.1479 137.319L49.7337 138.734C50.2147 139.215 50.8363 139.441 51.4531 139.441V137.441ZM51.1479 137.319L52.5622 135.905C52.6581 136.001 52.9648 136.358 52.9648 136.953H50.9648H48.9648C48.9648 137.793 49.3937 138.393 49.7337 138.734L51.1479 137.319ZM50.9648 136.953H52.9648V123.098H50.9648H48.9648V136.953H50.9648ZM52.4297 36.6113H50.4297V86.1108H52.4297H54.4297V36.6113H52.4297ZM52.4297 86.1108H50.4297C50.4297 91.24 52.2685 95.675 55.8983 99.3048L57.3125 97.8906L58.7267 96.4764C55.8461 93.5958 54.4297 90.1777 54.4297 86.1108H52.4297ZM57.3125 97.8906L55.8983 99.3048C59.5281 102.935 63.9631 104.773 69.0923 104.773V102.773V100.773C65.0255 100.773 61.6074 99.3571 58.7267 96.4764L57.3125 97.8906ZM69.0923 102.773V104.773H93.8726V102.773V100.773H69.0923V102.773ZM93.8726 102.773V104.773C99.0017 104.773 103.437 102.935 107.067 99.3048L105.652 97.8906L104.238 96.4764C101.357 99.3571 97.9394 100.773 93.8726 100.773V102.773ZM105.652 97.8906L107.067 99.3048C110.696 95.675 112.535 91.24 112.535 86.1108H110.535H108.535C108.535 90.1777 107.119 93.5958 104.238 96.4764L105.652 97.8906ZM110.535 86.1108H112.535V36.6113H110.535H108.535V86.1108H110.535ZM110.535 36.6113H112.535C112.535 31.4822 110.696 27.0471 107.067 23.4174L105.652 24.8315L104.238 26.2457C107.119 29.1264 108.535 32.5445 108.535 36.6113H110.535ZM105.652 24.8315L107.067 23.4174C103.437 19.7875 99.0017 17.9487 93.8726 17.9487V19.9487V21.9487C97.9394 21.9487 101.357 23.3651 104.238 26.2457L105.652 24.8315ZM93.8726 19.9487V17.9487H69.0923V19.9487V21.9487H93.8726V19.9487ZM69.0923 19.9487V17.9487C63.9631 17.9487 59.5281 19.7875 55.8983 23.4174L57.3125 24.8315L58.7267 26.2457C61.6074 23.3651 65.0255 21.9487 69.0923 21.9487V19.9487ZM57.3125 24.8315L55.8983 23.4174C52.2685 27.0471 50.4297 31.4822 50.4297 36.6113H52.4297H54.4297C54.4297 32.5445 55.8461 29.1264 58.7267 26.2457L57.3125 24.8315ZM100.281 86.1108H98.2812C98.2812 86.8727 98.031 87.4858 97.4632 88.0536L98.8774 89.4678L100.292 90.882C101.596 89.578 102.281 87.9531 102.281 86.1108H100.281ZM98.8774 89.4678L97.4632 88.0536C96.8955 88.6213 96.2824 88.8716 95.5205 88.8716V90.8716V92.8716C97.3627 92.8716 98.9876 92.186 100.292 90.882L98.8774 89.4678ZM95.5205 90.8716V88.8716H67.4443V90.8716V92.8716H95.5205V90.8716ZM67.4443 90.8716V88.8716C66.6824 88.8716 66.0693 88.6213 65.5016 88.0536L64.0874 89.4678L62.6732 90.882C63.9772 92.186 65.6021 92.8716 67.4443 92.8716V90.8716ZM64.0874 89.4678L65.5016 88.0536C64.9339 87.4858 64.6836 86.8727 64.6836 86.1108H62.6836H60.6836C60.6836 87.9531 61.3692 89.578 62.6732 90.882L64.0874 89.4678ZM62.6836 86.1108H64.6836V36.6113H62.6836H60.6836V86.1108H62.6836ZM62.6836 36.6113H64.6836C64.6836 35.7903 64.9469 35.1623 65.5016 34.6075L64.0874 33.1934L62.6732 31.7792C61.3562 33.0962 60.6836 34.7468 60.6836 36.6113H62.6836ZM64.0874 33.1934L65.5016 34.6075C66.0693 34.0399 66.6824 33.7896 67.4443 33.7896V31.7896V29.7896C65.6021 29.7896 63.9772 30.4752 62.6732 31.7792L64.0874 33.1934ZM67.4443 31.7896V33.7896H95.5205V31.7896V29.7896H67.4443V31.7896ZM95.5205 31.7896V33.7896C96.2824 33.7896 96.8955 34.0399 97.4632 34.6075L98.8774 33.1934L100.292 31.7792C98.9876 30.4752 97.3627 29.7896 95.5205 29.7896V31.7896ZM98.8774 33.1934L97.4632 34.6075C98.0179 35.1623 98.2812 35.7903 98.2812 36.6113H100.281H102.281C102.281 34.7468 101.609 33.0962 100.292 31.7792L98.8774 33.1934ZM100.281 36.6113H98.2812V86.1108H100.281H102.281V36.6113H100.281ZM50.9648 36.6113H52.9648C52.9648 32.1371 54.524 28.3732 57.6891 25.2081L56.2749 23.7939L54.8607 22.3798C50.9457 26.2947 48.9648 31.0758 48.9648 36.6113H50.9648ZM56.2749 23.7939L57.6891 25.2081C60.8542 22.0431 64.618 20.4839 69.0923 20.4839V18.4839V16.4839C63.5568 16.4839 58.7757 18.4647 54.8607 22.3798L56.2749 23.7939ZM69.0923 18.4839V20.4839H93.8726V18.4839V16.4839H69.0923V18.4839ZM93.8726 18.4839V20.4839C98.3468 20.4839 102.111 22.0431 105.276 25.2081L106.69 23.7939L108.104 22.3798C104.189 18.4647 99.4081 16.4839 93.8726 16.4839V18.4839ZM106.69 23.7939L105.276 25.2081C108.441 28.3732 110 32.1371 110 36.6113H112H114C114 31.0758 112.019 26.2947 108.104 22.3798L106.69 23.7939ZM112 36.6113H110V86.1108H112H114V36.6113H112ZM112 86.1108H110C110 90.5851 108.441 94.3489 105.276 97.514L106.69 98.9282L108.104 100.342C112.019 96.4274 114 91.6464 114 86.1108H112ZM106.69 98.9282L105.276 97.514C102.111 100.679 98.3468 102.238 93.8726 102.238V104.238V106.238C99.4081 106.238 104.189 104.257 108.104 100.342L106.69 98.9282ZM93.8726 104.238V102.238H69.0923V104.238V106.238H93.8726V104.238ZM69.0923 104.238V102.238C64.618 102.238 60.8542 100.679 57.6891 97.514L56.2749 98.9282L54.8607 100.342C58.7757 104.257 63.5568 106.238 69.0923 106.238V104.238ZM56.2749 98.9282L57.6891 97.514C54.524 94.3489 52.9648 90.5851 52.9648 86.1108H50.9648H48.9648C48.9648 91.6464 50.9457 96.4274 54.8607 100.342L56.2749 98.9282ZM50.9648 86.1108H52.9648V36.6113H50.9648H48.9648V86.1108H50.9648ZM98.8164 86.1108H100.816V36.6113H98.8164H96.8164V86.1108H98.8164ZM98.8164 36.6113H100.816C100.816 35.169 100.268 33.8919 99.2541 32.8778L97.8398 34.292L96.4256 35.7062C96.7136 35.9941 96.8164 36.2632 96.8164 36.6113H98.8164ZM97.8398 34.292L99.2541 32.8778C98.2399 31.8636 96.9628 31.3154 95.5205 31.3154V33.3154V35.3154C95.8686 35.3154 96.1377 35.4183 96.4256 35.7062L97.8398 34.292ZM95.5205 33.3154V31.3154H67.4443V33.3154V35.3154H95.5205V33.3154ZM67.4443 33.3154V31.3154C66.002 31.3154 64.7249 31.8636 63.7108 32.8778L65.125 34.292L66.5392 35.7062C66.8271 35.4183 67.0963 35.3154 67.4443 35.3154V33.3154ZM65.125 34.292L63.7108 32.8778C62.6966 33.8919 62.1484 35.169 62.1484 36.6113H64.1484H66.1484C66.1484 36.2632 66.2513 35.9941 66.5392 35.7062L65.125 34.292ZM64.1484 36.6113H62.1484V86.1108H64.1484H66.1484V36.6113H64.1484ZM64.1484 86.1108H62.1484C62.1484 87.5532 62.6966 88.8303 63.7108 89.8444L65.125 88.4302L66.5392 87.016C66.2513 86.728 66.1484 86.4589 66.1484 86.1108H64.1484ZM65.125 88.4302L63.7108 89.8444C64.7249 90.8585 66.002 91.4067 67.4443 91.4067V89.4067V87.4067C67.0963 87.4067 66.8271 87.3039 66.5392 87.016L65.125 88.4302ZM67.4443 89.4067V91.4067H95.5205V89.4067V87.4067H67.4443V89.4067ZM95.5205 89.4067V91.4067C96.9628 91.4067 98.2399 90.8585 99.2541 89.8444L97.8398 88.4302L96.4256 87.016C96.1377 87.3039 95.8686 87.4067 95.5205 87.4067V89.4067ZM97.8398 88.4302L99.2541 89.8444C100.268 88.8303 100.816 87.5532 100.816 86.1108H98.8164H96.8164C96.8164 86.4589 96.7136 86.728 96.4256 87.016L97.8398 88.4302Z" fill="white"/>
</g>
<path d="M83 354.141C104.617 354.141 122.141 336.617 122.141 315C122.141 293.383 104.617 275.859 83 275.859C61.3832 275.859 43.8594 293.383 43.8594 315C43.8594 336.617 61.3832 354.141 83 354.141Z" stroke="white" stroke-width="1.40625"/>
<path d="M83 359.766C107.723 359.766 127.766 339.723 127.766 315C127.766 290.277 107.723 270.234 83 270.234C58.2766 270.234 38.2344 290.277 38.2344 315C38.2344 339.723 58.2766 359.766 83 359.766Z" stroke="white" stroke-width="0.46875"/>
<path d="M83 338.203C95.8147 338.203 106.203 327.815 106.203 315C106.203 302.185 95.8147 291.797 83 291.797C70.1853 291.797 59.7969 302.185 59.7969 315C59.7969 327.815 70.1853 338.203 83 338.203Z" stroke="white" stroke-width="0.46875"/>
<path d="M83 311.154V318.637" stroke="white" stroke-width="0.46875"/>
<path d="M86.75 314.896H79.25" stroke="white" stroke-width="0.46875"/>
<path d="M93.7814 294.586C87.6876 291.304 79.0157 291.07 72.4532 294.586" stroke="white" stroke-width="2.8125"/>
<path d="M93.7814 335.367C87.6876 338.648 79.0157 338.882 72.4532 335.367" stroke="white" stroke-width="2.8125"/>
<path d="M58.6251 294.841C71.1064 279.863 94.4206 278.436 107.844 295.317" stroke="white" stroke-width="0.46875"/>
<path d="M58.8595 335.167C71.2219 350.146 94.314 351.572 107.609 334.692" stroke="white" stroke-width="0.46875"/>
</svg>
