<svg width="150" height="39" viewBox="0 0 150 39" fill="none" xmlns="http://www.w3.org/2000/svg">
<rect y="2" width="150" height="37" rx="5" fill="white" fill-opacity="0.71"/>
<path d="M35.3281 13.5156V24.5469C35.3281 25.776 34.8906 26.8281 34.0156 27.7031C33.151 28.5677 32.099 29 30.8594 29H17.4688C16.2396 29 15.1875 28.5677 14.3125 27.7031C13.4375 26.8281 13 25.776 13 24.5469V13.5156C13 13.474 13.0104 13.4427 13.0312 13.4219C13.0625 13.3906 13.099 13.375 13.1406 13.375H16C16.0312 13.375 16.0573 13.3906 16.0781 13.4219C16.1094 13.4427 16.125 13.474 16.125 13.5156V24.9844C16.125 25.3594 16.2552 25.6771 16.5156 25.9375C16.7865 26.1979 17.1042 26.3281 17.4688 26.3281H30.8594C31.2344 26.3281 31.5521 26.1979 31.8125 25.9375C32.0729 25.6771 32.2031 25.3594 32.2031 24.9844V13.5156C32.2031 13.474 32.2135 13.4427 32.2344 13.4219C32.2656 13.3906 32.3021 13.375 32.3438 13.375H35.1875C35.2292 13.375 35.2604 13.3906 35.2812 13.4219C35.3125 13.4427 35.3281 13.474 35.3281 13.5156ZM40.0312 13.5156C40.0312 13.474 40.0417 13.4427 40.0625 13.4219C40.0938 13.3906 40.125 13.375 40.1562 13.375H62.2188C62.25 13.375 62.276 13.3906 62.2969 13.4219C62.3281 13.4427 62.3438 13.474 62.3438 13.5156V15.9219C62.3438 15.9531 62.3281 15.9844 62.2969 16.0156C62.276 16.0365 62.25 16.0469 62.2188 16.0469H52.75V28.8594C52.75 28.901 52.7344 28.9375 52.7031 28.9688C52.6823 28.9896 52.6562 29 52.625 29H49.7656C49.724 29 49.6875 28.9896 49.6562 28.9688C49.6354 28.9375 49.625 28.901 49.625 28.8594V16.0469H40.1562C40.125 16.0469 40.0938 16.0365 40.0625 16.0156C40.0417 15.9844 40.0312 15.9531 40.0312 15.9219V13.5156ZM71.5 26.3281H89.2188C89.2604 26.3281 89.2917 26.3438 89.3125 26.375C89.3438 26.3958 89.3594 26.4219 89.3594 26.4531V28.8594C89.3594 28.901 89.3438 28.9375 89.3125 28.9688C89.2917 28.9896 89.2604 29 89.2188 29H71.5C70.2604 29 69.2031 28.5677 68.3281 27.7031C67.4635 26.8281 67.0312 25.7708 67.0312 24.5312V17.8438C67.0312 16.6042 67.4635 15.5521 68.3281 14.6875C69.2031 13.8125 70.2604 13.375 71.5 13.375H89.2188C89.2604 13.375 89.2917 13.3906 89.3125 13.4219C89.3438 13.4427 89.3594 13.474 89.3594 13.5156V15.9219C89.3594 15.9531 89.3438 15.9844 89.3125 16.0156C89.2917 16.0365 89.2604 16.0469 89.2188 16.0469H71.5C71.125 16.0469 70.8073 16.1823 70.5469 16.4531C70.2865 16.7135 70.1562 17.026 70.1562 17.3906V24.9844C70.1562 25.349 70.2865 25.6667 70.5469 25.9375C70.8073 26.1979 71.125 26.3281 71.5 26.3281ZM105.141 19.6406C105.161 19.6406 105.182 19.6562 105.203 19.6875C105.224 19.7083 105.234 19.7396 105.234 19.7812V22.1875C105.234 22.2292 105.224 22.2656 105.203 22.2969C105.182 22.3177 105.161 22.3281 105.141 22.3281H101.219V26.4688C101.219 26.4896 101.203 26.5104 101.172 26.5312C101.151 26.5521 101.12 26.5625 101.078 26.5625H98.2188C98.1875 26.5625 98.1562 26.5521 98.125 26.5312C98.1042 26.5104 98.0938 26.4896 98.0938 26.4688V22.3281H94.1719C94.1406 22.3281 94.1146 22.3177 94.0938 22.2969C94.0729 22.2656 94.0625 22.2292 94.0625 22.1875V19.7812C94.0625 19.7396 94.0729 19.7083 94.0938 19.6875C94.1146 19.6562 94.1406 19.6406 94.1719 19.6406H98.0938V15.5C98.0938 15.4688 98.1042 15.4479 98.125 15.4375C98.1562 15.4167 98.1875 15.4062 98.2188 15.4062H101.078C101.12 15.4062 101.151 15.4167 101.172 15.4375C101.203 15.4479 101.219 15.4688 101.219 15.5V19.6406H105.141ZM129.141 17.4062C129.141 17.0312 129.005 16.7135 128.734 16.4531C128.474 16.1927 128.161 16.0625 127.797 16.0625H110.969C110.927 16.0625 110.891 16.0521 110.859 16.0312C110.839 16 110.828 15.9635 110.828 15.9219V13.5156C110.828 13.474 110.839 13.4427 110.859 13.4219C110.891 13.3906 110.927 13.375 110.969 13.375H127.797C129.026 13.375 130.078 13.8125 130.953 14.6875C131.828 15.5625 132.266 16.6146 132.266 17.8438V18.0625C132.266 19.3021 131.828 20.3594 130.953 21.2344C130.078 22.099 129.026 22.5312 127.797 22.5312H114.406C114.031 22.5312 113.714 22.6615 113.453 22.9219C113.193 23.1823 113.062 23.5 113.062 23.875V26.3281H131.234C131.266 26.3281 131.292 26.3438 131.312 26.375C131.344 26.3958 131.359 26.4271 131.359 26.4688V28.875C131.359 28.9062 131.344 28.9375 131.312 28.9688C131.292 28.9896 131.266 29 131.234 29H110.078C110.036 29 110 28.9896 109.969 28.9688C109.948 28.9375 109.938 28.9062 109.938 28.875V24.3125C109.938 23.0833 110.37 22.0365 111.234 21.1719C112.109 20.2969 113.167 19.8594 114.406 19.8594H127.797C128.161 19.8594 128.474 19.7292 128.734 19.4688C129.005 19.1979 129.141 18.8802 129.141 18.5156V17.4062Z" fill="#010101"/>
</svg>
