<svg width="412" height="19" viewBox="0 0 412 19" fill="none" xmlns="http://www.w3.org/2000/svg">
<path d="M11.5 0H22.5L11.5 19H1L11.5 0Z" fill="white"/>
<path d="M30 0H41L30 19H19.5L30 0Z" fill="white"/>
<path d="M48.5 0H59.5L48.5 19H38L48.5 0Z" fill="white"/>
<path d="M67 0H78L67 19H56.5L67 0Z" fill="white"/>
<path d="M85.5 0H96.5L85.5 19H75L85.5 0Z" fill="white"/>
<path d="M104 0H115L104 19H93.5L104 0Z" fill="white"/>
<path d="M122.5 0H133.5L122.5 19H112L122.5 0Z" fill="white"/>
<path d="M141 0H152L141 19H130.5L141 0Z" fill="white"/>
<path d="M159.5 0H170.5L159.5 19H149L159.5 0Z" fill="white"/>
<path d="M178 0H189L178 19H167.5L178 0Z" fill="white"/>
<path d="M196.5 0H207.5L196.5 19H186L196.5 0Z" fill="white"/>
<path d="M215 0H226L215 19H204.5L215 0Z" fill="white"/>
<path d="M233.5 0H244.5L233.5 19H223L233.5 0Z" fill="white"/>
<path d="M252 0H263L252 19H241.5L252 0Z" fill="white"/>
<path d="M270.5 0H281.5L270.5 19H260L270.5 0Z" fill="white"/>
<path d="M289 0H300L289 19H278.5L289 0Z" fill="white"/>
<path d="M307.5 0H318.5L307.5 19H297L307.5 0Z" fill="white"/>
<path d="M326 0H337L326 19H315.5L326 0Z" fill="white"/>
<path d="M344.5 0H355.5L344.5 19H334L344.5 0Z" fill="white"/>
<path d="M363 0H374L363 19H352.5L363 0Z" fill="white"/>
<path d="M381.5 0H392.5L381.5 19H371L381.5 0Z" fill="white"/>
<path d="M400 0H411L400 19H389.5L400 0Z" fill="white"/>
</svg>
