<svg width="212" height="182" viewBox="0 0 212 182" fill="none" xmlns="http://www.w3.org/2000/svg">
<g clip-path="url(#clip0_616_2807)">
<path d="M148.001 17.6118C156.948 40.7115 138.434 58.1482 106.838 58.8877L148.001 17.6118Z" fill="#F89F2B"/>
<path d="M148.021 17.6121C124.985 8.64075 107.596 27.2062 106.858 58.888L148.021 17.6121Z" fill="#F89F2B"/>
<path d="M148.001 103.141C156.948 80.0417 138.434 62.605 106.839 61.8655L148.001 103.141Z" fill="#F89F2B"/>
<path d="M148.001 103.141C124.965 112.113 107.576 93.5473 106.839 61.8655L148.001 103.141Z" fill="#F89F2B"/>
<path d="M62.1824 103.141C53.2357 80.0417 71.7502 62.605 103.345 61.8655L62.1824 103.141Z" fill="#F89F2B"/>
<path d="M62.1822 103.141C85.2186 112.113 102.608 93.5473 103.345 61.8655L62.1822 103.141Z" fill="#F89F2B"/>
<path d="M62.1823 17.6118C53.2356 40.7115 71.7501 58.1482 103.345 58.8877L62.1823 17.6118Z" fill="#F89F2B"/>
<path d="M62.1822 17.6121C85.2186 8.64075 102.608 27.2062 103.345 58.888L62.1822 17.6121Z" fill="#F89F2B"/>
<path d="M105.092 0C82.4825 9.98329 83.2782 35.4378 105.092 58.3818V0Z" fill="#FFB759"/>
<path d="M105.092 0C127.702 9.98329 126.906 35.4378 105.092 58.3818V0Z" fill="#FFB759"/>
<path d="M105.092 120.734C82.4825 110.75 83.2782 85.2959 105.092 62.3518V120.734Z" fill="#FFB759"/>
<path d="M105.092 120.734C127.702 110.75 126.906 85.2959 105.092 62.3518V120.734Z" fill="#FFB759"/>
<path d="M166.185 60.3472C156.23 37.6756 130.845 38.4735 107.964 60.3472H166.185Z" fill="#FFB759"/>
<path d="M166.185 60.3474C156.23 83.019 130.845 82.2211 107.964 60.3474H166.185Z" fill="#FFB759"/>
<path d="M43.9978 60.3472C53.9537 37.6756 79.3385 38.4735 102.22 60.3472H43.9978Z" fill="#FFB759"/>
<path d="M43.9978 60.3474C53.9538 83.019 79.3385 82.2211 102.22 60.3474H43.9978Z" fill="#FFB759"/>
<g filter="url(#filter0_d_616_2807)">
<path d="M96.3972 90.1806C88.9059 76.7722 89.1194 63.7531 99.9293 57.0586C103.151 55.0737 107.207 55.132 110.429 57.0976C121.064 63.5585 121.549 76.0133 113.631 90.0833C109.866 96.7777 100.143 96.8945 96.3972 90.1806Z" fill="#F89F2B"/>
<path d="M102.937 95.4543C103.655 95.5906 104.354 95.6684 105.033 95.6684C105.674 95.6684 106.314 95.61 106.974 95.4738L104.956 98.4124L102.937 95.4543Z" fill="black"/>
<path d="M104.509 96.8945C104.684 96.8945 104.859 96.8945 105.053 96.8945C105.189 96.8945 105.305 96.8945 105.441 96.8945L104.975 97.7313L104.509 96.875M108.798 94.1895C107.498 94.8317 106.275 95.143 105.033 95.143C103.791 95.143 102.53 94.8122 101.132 94.1895C101.152 96.3496 102.53 98.7043 104.956 101.195C106.974 99.58 108.197 97.2058 108.779 94.1895H108.798Z" fill="black"/>
<path d="M118.987 70.9144C109.827 75.5266 100.376 75.3515 91.3127 70.7588L92.0114 63.1497C101.075 68.8711 109.303 68.91 118.463 63.1497L118.987 70.9144Z" fill="black"/>
<path d="M115.96 85.6657C107.13 89.6746 102.918 89.6941 94.1849 85.7046C93.1757 83.4472 92.3994 80.9952 91.8366 78.3875C100.57 83.3499 109.536 83.3888 118.386 78.3875C117.862 80.6254 117.008 83.0775 115.979 85.6657H115.96Z" fill="black"/>
<path d="M105.092 55.054C116.018 57.3698 133.485 50.8894 142.043 65.913C143.771 68.9488 143.421 74.787 141.558 77.1612C128.633 93.6443 116.212 65.913 105.092 55.054Z" fill="white" stroke="white" stroke-width="0.314239" stroke-miterlimit="10"/>
<path d="M105.189 55.054C94.2625 57.3698 76.7959 50.8894 68.2373 65.913C66.5101 68.9488 66.8594 74.787 68.7225 77.1612C81.6478 93.6443 94.0684 65.913 105.189 55.054Z" fill="white" stroke="white" stroke-width="0.298528" stroke-miterlimit="10"/>
<path d="M105.092 55.6574C92.7102 55.6574 92.7102 38.2207 105.092 38.2207C117.416 38.2207 117.649 55.6574 105.092 55.6574Z" fill="black"/>
<path d="M116.639 35.7298C113.204 33.6086 110.817 36.0411 108.798 40.1279" stroke="black" stroke-width="0.628479" stroke-miterlimit="10" stroke-linecap="round"/>
<path d="M93.5251 35.7298C96.9602 33.6086 99.3473 36.0411 101.366 40.1279" stroke="black" stroke-width="0.628479" stroke-miterlimit="10" stroke-linecap="round"/>
</g>
</g>
<path d="M191.079 173.516C191.079 174.286 190.891 174.936 190.517 175.466C190.142 175.997 189.594 176.399 188.873 176.675C188.159 176.944 187.283 177.078 186.244 177.078C185.424 177.078 184.717 177.018 184.123 176.898C183.537 176.785 182.982 176.608 182.459 176.368V174.215C183.017 174.477 183.643 174.703 184.335 174.894C185.035 175.085 185.696 175.18 186.318 175.18C187.138 175.18 187.728 175.053 188.089 174.798C188.449 174.537 188.629 174.191 188.629 173.759C188.629 173.505 188.555 173.279 188.407 173.081C188.265 172.876 187.997 172.667 187.601 172.455C187.212 172.236 186.64 171.975 185.883 171.671C185.141 171.374 184.516 171.077 184.007 170.78C183.498 170.483 183.113 170.126 182.851 169.709C182.59 169.285 182.459 168.745 182.459 168.087C182.459 167.048 182.869 166.26 183.689 165.723C184.516 165.179 185.608 164.906 186.965 164.906C187.686 164.906 188.364 164.981 189.001 165.129C189.644 165.271 190.273 165.479 190.888 165.755L190.103 167.631C189.573 167.398 189.039 167.207 188.502 167.059C187.972 166.903 187.431 166.826 186.88 166.826C186.237 166.826 185.746 166.924 185.406 167.122C185.074 167.32 184.908 167.603 184.908 167.971C184.908 168.246 184.989 168.479 185.152 168.67C185.314 168.861 185.594 169.052 185.989 169.243C186.392 169.434 186.951 169.67 187.665 169.953C188.364 170.222 188.969 170.505 189.478 170.801C189.994 171.091 190.389 171.448 190.665 171.872C190.941 172.296 191.079 172.844 191.079 173.516Z" fill="#E17A17"/>
<path d="M174.704 164.906C175.75 164.906 176.648 165.122 177.397 165.553C178.147 165.984 178.723 166.596 179.126 167.387C179.528 168.179 179.73 169.126 179.73 170.229V171.565H171.895C171.923 172.703 172.227 173.579 172.807 174.194C173.393 174.809 174.213 175.117 175.266 175.117C176.016 175.117 176.687 175.046 177.281 174.905C177.882 174.756 178.5 174.54 179.136 174.258V176.283C178.55 176.558 177.952 176.76 177.344 176.887C176.736 177.014 176.008 177.078 175.16 177.078C174.008 177.078 172.994 176.855 172.117 176.41C171.248 175.958 170.566 175.286 170.071 174.396C169.583 173.505 169.34 172.399 169.34 171.077C169.34 169.762 169.562 168.646 170.008 167.727C170.453 166.808 171.078 166.108 171.884 165.627C172.69 165.147 173.63 164.906 174.704 164.906ZM174.704 166.783C173.92 166.783 173.284 167.038 172.796 167.546C172.315 168.055 172.033 168.801 171.948 169.784H177.291C177.284 169.197 177.185 168.677 176.994 168.225C176.811 167.773 176.528 167.419 176.146 167.165C175.772 166.91 175.291 166.783 174.704 166.783Z" fill="#E17A17"/>
<path d="M165.814 176.866H163.312V160.369H165.814V176.866Z" fill="#E17A17"/>
<path d="M159.099 176.866H156.597V160.369H159.099V176.866Z" fill="#E17A17"/>
<path d="M152.372 165.129V176.866H149.88V165.129H152.372ZM151.142 160.634C151.524 160.634 151.852 160.736 152.128 160.941C152.411 161.146 152.552 161.5 152.552 162.001C152.552 162.496 152.411 162.85 152.128 163.062C151.852 163.267 151.524 163.369 151.142 163.369C150.746 163.369 150.411 163.267 150.135 163.062C149.866 162.85 149.732 162.496 149.732 162.001C149.732 161.5 149.866 161.146 150.135 160.941C150.411 160.736 150.746 160.634 151.142 160.634Z" fill="#E17A17"/>
<path d="M141.394 164.906C142.44 164.906 143.338 165.122 144.087 165.553C144.836 165.984 145.412 166.596 145.815 167.387C146.218 168.179 146.419 169.126 146.419 170.229V171.565H138.584C138.612 172.703 138.916 173.579 139.496 174.194C140.083 174.809 140.903 175.117 141.956 175.117C142.705 175.117 143.376 175.046 143.97 174.905C144.571 174.756 145.189 174.54 145.826 174.258V176.283C145.239 176.558 144.642 176.76 144.034 176.887C143.426 177.014 142.698 177.078 141.85 177.078C140.698 177.078 139.683 176.855 138.807 176.41C137.937 175.958 137.255 175.286 136.761 174.396C136.273 173.505 136.029 172.399 136.029 171.077C136.029 169.762 136.252 168.646 136.697 167.727C137.142 166.808 137.768 166.108 138.574 165.627C139.379 165.147 140.319 164.906 141.394 164.906ZM141.394 166.783C140.609 166.783 139.973 167.038 139.485 167.546C139.005 168.055 138.722 168.801 138.637 169.784H143.981C143.974 169.197 143.875 168.677 143.684 168.225C143.5 167.773 143.217 167.419 142.836 167.165C142.461 166.91 141.98 166.783 141.394 166.783Z" fill="#E17A17"/>
<path d="M125.03 160.369V164.345C125.03 164.804 125.016 165.256 124.988 165.702C124.966 166.14 124.945 166.483 124.924 166.73H125.03C125.348 166.221 125.79 165.794 126.355 165.447C126.928 165.094 127.659 164.917 128.55 164.917C129.942 164.917 131.063 165.43 131.911 166.454C132.759 167.472 133.183 168.981 133.183 170.982C133.183 172.31 132.989 173.427 132.6 174.332C132.211 175.237 131.664 175.922 130.957 176.389C130.257 176.848 129.434 177.078 128.486 177.078C127.596 177.078 126.875 176.915 126.324 176.59C125.779 176.258 125.352 175.873 125.041 175.435H124.86L124.405 176.866H122.538V160.369H125.03ZM127.893 166.942C127.186 166.942 126.624 167.083 126.207 167.366C125.797 167.649 125.5 168.073 125.316 168.638C125.133 169.197 125.037 169.907 125.03 170.77V170.992C125.03 172.3 125.235 173.3 125.645 173.993C126.062 174.685 126.818 175.032 127.914 175.032C128.783 175.032 129.451 174.682 129.918 173.982C130.384 173.275 130.617 172.264 130.617 170.95C130.617 169.621 130.384 168.621 129.918 167.949C129.458 167.278 128.783 166.942 127.893 166.942Z" fill="#E17A17"/>
<path d="M117.391 176.866L115.875 172.561H109.948L108.432 176.866H105.75L111.517 161.302H114.337L120.095 176.866H117.391ZM115.217 170.377L113.744 166.136C113.687 165.952 113.606 165.694 113.5 165.362C113.394 165.023 113.288 164.68 113.182 164.334C113.076 163.98 112.987 163.684 112.917 163.443C112.846 163.733 112.758 164.058 112.652 164.419C112.553 164.772 112.454 165.104 112.355 165.415C112.263 165.726 112.192 165.967 112.143 166.136L110.658 170.377H115.217Z" fill="#E17A17"/>
<path d="M93.0288 177.078C92.2937 177.078 91.6505 176.997 91.0992 176.834C90.5549 176.671 90.1061 176.495 89.7527 176.304V175.233C90.1556 175.473 90.6433 175.689 91.2158 175.88C91.7883 176.064 92.3891 176.155 93.0182 176.155C93.7321 176.155 94.3117 176.056 94.757 175.859C95.2023 175.661 95.531 175.389 95.743 175.042C95.9621 174.689 96.0717 174.282 96.0717 173.823C96.0717 173.413 95.9763 173.07 95.7854 172.795C95.5946 172.519 95.326 172.271 94.9797 172.052C94.6404 171.826 94.2481 171.589 93.8028 171.342C93.3009 171.059 92.8521 170.78 92.4563 170.504C92.0605 170.229 91.7495 169.914 91.5233 169.561C91.2971 169.2 91.184 168.762 91.184 168.246C91.184 167.553 91.3501 166.977 91.6823 166.518C92.0216 166.058 92.481 165.712 93.0606 165.479C93.6402 165.239 94.294 165.118 95.0221 165.118C95.7077 165.118 96.3262 165.189 96.8775 165.33C97.4288 165.472 97.9059 165.638 98.3088 165.829L97.9589 166.741C97.5914 166.557 97.1531 166.398 96.6442 166.263C96.1424 166.129 95.5981 166.062 95.0115 166.062C94.2128 166.062 93.5519 166.235 93.0288 166.582C92.5128 166.928 92.2548 167.462 92.2548 168.182C92.2548 168.543 92.3432 168.854 92.5199 169.115C92.7037 169.37 92.9617 169.603 93.2939 169.815C93.6332 170.027 94.029 170.257 94.4813 170.504C94.9549 170.773 95.3967 171.045 95.8066 171.321C96.2166 171.596 96.5453 171.925 96.7927 172.307C97.0471 172.681 97.1744 173.162 97.1744 173.749C97.1744 174.406 97.0188 174.986 96.7078 175.487C96.4039 175.989 95.9409 176.382 95.3189 176.664C94.704 176.94 93.9406 177.078 93.0288 177.078Z" fill="white"/>
<path d="M83.471 177.078C82.7147 177.078 82.0256 176.919 81.4036 176.601C80.7886 176.283 80.2974 175.798 79.9298 175.148C79.5693 174.498 79.3891 173.674 79.3891 172.678C79.3891 171.667 79.534 170.709 79.8238 169.805C80.1136 168.9 80.52 168.098 81.0431 167.398C81.5661 166.691 82.1846 166.136 82.8985 165.733C83.6124 165.323 84.397 165.118 85.2522 165.118C86.1711 165.118 86.8885 165.352 87.4045 165.818C87.9276 166.285 88.1891 166.907 88.1891 167.684C88.1891 168.342 88.023 168.911 87.6908 169.391C87.3656 169.872 86.8921 170.268 86.27 170.579C85.648 170.89 84.9059 171.123 84.0435 171.278C83.1812 171.434 82.2164 171.512 81.1491 171.512H80.5554C80.5342 171.653 80.5165 171.83 80.5023 172.042C80.4882 172.247 80.4811 172.448 80.4811 172.646C80.4811 173.77 80.7603 174.636 81.3187 175.244C81.8771 175.844 82.6582 176.145 83.6619 176.145C84.2556 176.145 84.7998 176.067 85.2946 175.912C85.7965 175.749 86.2594 175.569 86.6835 175.371V176.336C86.2806 176.541 85.8071 176.717 85.2628 176.866C84.7186 177.007 84.1213 177.078 83.471 177.078ZM80.7144 170.589H81.4248C82.5062 170.589 83.4746 170.494 84.3298 170.303C85.1921 170.105 85.8742 169.798 86.3761 169.381C86.8779 168.964 87.1288 168.423 87.1288 167.758C87.1288 167.264 86.9627 166.857 86.6305 166.539C86.3054 166.214 85.8141 166.051 85.1568 166.051C84.5489 166.051 83.9446 166.228 83.3438 166.582C82.743 166.935 82.2093 167.451 81.7428 168.129C81.2763 168.808 80.9335 169.628 80.7144 170.589Z" fill="white"/>
<path d="M73.2462 176.866L76.745 160.369H77.8158L74.317 176.866H73.2462Z" fill="white"/>
<path d="M58.0432 176.866L60.4818 165.341H61.3724L60.9059 168.023H60.9695C61.224 167.614 61.542 167.186 61.9237 166.741C62.3054 166.295 62.7472 165.917 63.249 165.606C63.7579 165.295 64.3269 165.14 64.956 165.14C65.1822 165.14 65.4048 165.157 65.6239 165.193C65.8431 165.221 66.0445 165.263 66.2283 165.32L65.995 166.285C65.8325 166.242 65.6558 166.207 65.4649 166.179C65.2811 166.15 65.0797 166.136 64.8606 166.136C64.3446 166.136 63.8427 166.274 63.355 166.55C62.8673 166.825 62.4185 167.204 62.0085 167.684C61.5986 168.165 61.2452 168.713 60.9483 169.328C60.6585 169.935 60.4394 170.579 60.2909 171.257L59.1141 176.866H58.0432Z" fill="white"/>
<path d="M48.6022 177.078C47.9944 177.078 47.4713 176.972 47.0331 176.76C46.5949 176.541 46.2591 176.219 46.0259 175.795C45.7997 175.371 45.6866 174.851 45.6866 174.236C45.6866 173.989 45.7043 173.731 45.7396 173.462C45.782 173.194 45.8279 172.918 45.8774 172.635L47.4254 165.341H48.5068L46.9271 172.763C46.8705 173.031 46.8281 173.279 46.7998 173.505C46.7716 173.724 46.7574 173.925 46.7574 174.109C46.7574 174.795 46.9377 175.307 47.2981 175.647C47.6586 175.979 48.1817 176.145 48.8673 176.145C49.5529 176.145 50.2244 175.929 50.8817 175.498C51.5462 175.06 52.1293 174.452 52.6311 173.675C53.1401 172.89 53.5041 171.975 53.7232 170.928L54.9107 165.341H55.9709L53.5217 176.866H52.6311L53.1082 174.173H53.0446C52.7902 174.59 52.4509 175.025 52.0268 175.477C51.6098 175.922 51.115 176.3 50.5425 176.611C49.977 176.922 49.3303 177.078 48.6022 177.078Z" fill="white"/>
<path d="M36.8074 177.057C35.9168 177.057 35.1676 176.873 34.5597 176.505C33.9519 176.138 33.4924 175.622 33.1814 174.957C32.8775 174.293 32.7255 173.523 32.7255 172.646C32.7255 171.805 32.8139 171.01 32.9906 170.261C33.1744 169.511 33.4359 168.826 33.7752 168.204C34.1215 167.575 34.535 167.034 35.0156 166.582C35.5033 166.122 36.0511 165.769 36.659 165.521C37.2739 165.267 37.9348 165.14 38.6417 165.14C39.5181 165.14 40.2567 165.327 40.8576 165.702C41.4584 166.076 41.9143 166.596 42.2253 167.26C42.5433 167.917 42.7024 168.681 42.7024 169.55C42.7024 170.328 42.6175 171.084 42.4479 171.819C42.2853 172.554 42.0415 173.24 41.7163 173.876C41.3912 174.512 40.9883 175.067 40.5077 175.541C40.0341 176.014 39.4863 176.385 38.8643 176.654C38.2494 176.922 37.5637 177.057 36.8074 177.057ZM36.9029 176.134C37.4683 176.134 37.9914 176.028 38.472 175.816C38.9597 175.597 39.3944 175.29 39.7761 174.894C40.1649 174.498 40.4935 174.024 40.7621 173.473C41.0378 172.922 41.2463 172.307 41.3877 171.628C41.529 170.95 41.5997 170.225 41.5997 169.455C41.5997 168.833 41.4937 168.267 41.2816 167.758C41.0696 167.242 40.7445 166.832 40.3062 166.529C39.8751 166.225 39.3167 166.073 38.6311 166.073C38.0656 166.073 37.539 166.175 37.0513 166.38C36.5636 166.585 36.1183 166.882 35.7154 167.271C35.3196 167.659 34.9803 168.126 34.6976 168.67C34.4148 169.214 34.1957 169.826 34.0402 170.504C33.8918 171.176 33.8176 171.9 33.8176 172.678C33.8176 173.745 34.0756 174.59 34.5915 175.212C35.1146 175.827 35.885 176.134 36.9029 176.134Z" fill="white"/>
<path d="M18.0902 181.966L21.6102 165.341H22.5008L22.0237 168.034H22.0873C22.3841 167.554 22.7446 167.094 23.1687 166.656C23.5999 166.211 24.0911 165.847 24.6425 165.564C25.1938 165.274 25.8052 165.129 26.4767 165.129C27.1552 165.129 27.7383 165.292 28.2261 165.617C28.7208 165.935 29.1025 166.398 29.3711 167.006C29.6468 167.607 29.7846 168.328 29.7846 169.169C29.7846 169.932 29.7033 170.692 29.5408 171.448C29.3782 172.198 29.1414 172.912 28.8304 173.59C28.5194 174.262 28.1271 174.862 27.6535 175.392C27.18 175.916 26.6322 176.329 26.0102 176.633C25.3952 176.93 24.7025 177.078 23.9321 177.078C23.2818 177.078 22.7376 176.958 22.2993 176.718C21.8611 176.47 21.5112 176.156 21.2497 175.774C20.9952 175.385 20.8115 174.979 20.6984 174.555H20.6348C20.5853 174.944 20.5181 175.375 20.4333 175.848C20.3485 176.322 20.2637 176.753 20.1788 177.142L19.1504 181.966H18.0902ZM23.9003 176.145C24.5223 176.145 25.0842 176.014 25.5861 175.753C26.0879 175.484 26.5297 175.12 26.9114 174.661C27.3001 174.194 27.6253 173.661 27.8868 173.06C28.1483 172.459 28.3462 171.827 28.4805 171.162C28.6148 170.498 28.682 169.826 28.682 169.148C28.682 168.172 28.4664 167.416 28.0352 166.879C27.604 166.335 26.982 166.062 26.1692 166.062C25.738 166.062 25.3139 166.154 24.8969 166.338C24.4869 166.515 24.0947 166.769 23.72 167.101C23.3525 167.427 23.0132 167.812 22.7022 168.257C22.3912 168.702 22.1226 169.19 21.8964 169.72C21.6702 170.243 21.4935 170.798 21.3663 171.385C21.2391 171.971 21.1755 172.565 21.1755 173.166C21.1755 174.134 21.4193 174.873 21.907 175.382C22.3947 175.891 23.0592 176.145 23.9003 176.145Z" fill="white"/>
<path d="M206.181 147.227C205.298 147.227 204.495 147.075 203.771 146.771C203.061 146.453 202.446 146.026 201.925 145.49C201.404 144.94 200.999 144.317 200.709 143.623C200.434 142.913 200.297 142.16 200.297 141.364C200.297 140.293 200.543 139.316 201.035 138.433C201.527 137.535 202.215 136.819 203.098 136.283C203.981 135.733 205.016 135.458 206.203 135.458C207.39 135.458 208.41 135.733 209.264 136.283C210.133 136.819 210.806 137.528 211.284 138.411C211.761 139.294 212 140.242 212 141.256C212 141.429 211.993 141.596 211.978 141.755C211.964 141.9 211.95 142.023 211.935 142.124H202.837C202.88 142.79 203.061 143.376 203.38 143.883C203.713 144.375 204.133 144.766 204.639 145.056C205.146 145.331 205.689 145.468 206.268 145.468C206.905 145.468 207.505 145.309 208.07 144.99C208.649 144.672 209.04 144.252 209.243 143.731L211.284 144.317C211.038 144.867 210.661 145.367 210.155 145.816C209.662 146.25 209.076 146.597 208.396 146.858C207.715 147.104 206.977 147.227 206.181 147.227ZM202.772 140.539H209.633C209.59 139.888 209.402 139.316 209.069 138.824C208.75 138.317 208.338 137.926 207.831 137.651C207.339 137.362 206.789 137.217 206.181 137.217C205.587 137.217 205.037 137.362 204.531 137.651C204.039 137.926 203.633 138.317 203.315 138.824C202.996 139.316 202.815 139.888 202.772 140.539ZM206.941 134.025L205.378 133.547L206.615 131.159H208.895L206.941 134.025Z" fill="white"/>
<path d="M198.877 146.423C198.674 146.524 198.421 146.633 198.117 146.749C197.813 146.864 197.465 146.966 197.074 147.053C196.698 147.139 196.307 147.183 195.902 147.183C195.41 147.183 194.954 147.096 194.534 146.922C194.114 146.749 193.774 146.474 193.513 146.097C193.267 145.706 193.144 145.207 193.144 144.599V137.499H191.646V135.653H193.144V131.918H195.533V135.653H198.008V137.499H195.533V143.839C195.562 144.23 195.685 144.519 195.902 144.708C196.133 144.896 196.416 144.99 196.749 144.99C197.081 144.99 197.4 144.932 197.704 144.816C198.008 144.7 198.232 144.606 198.377 144.534L198.877 146.423Z" fill="white"/>
<path d="M186.648 147.01V135.654H189.037V147.01H186.648ZM186.648 133.786V131.159H189.037V133.786H186.648Z" fill="white"/>
<path d="M179.369 147.227C178.414 147.227 177.509 147.075 176.655 146.771C175.801 146.452 175.07 145.982 174.462 145.359L175.352 143.753C176.003 144.332 176.655 144.751 177.306 145.012C177.972 145.273 178.631 145.403 179.282 145.403C179.948 145.403 180.491 145.28 180.911 145.034C181.331 144.773 181.54 144.397 181.54 143.905C181.54 143.543 181.432 143.275 181.215 143.101C180.998 142.927 180.679 142.775 180.259 142.645C179.854 142.515 179.362 142.37 178.783 142.211C177.972 141.965 177.292 141.712 176.742 141.451C176.192 141.176 175.779 140.843 175.504 140.452C175.229 140.061 175.092 139.562 175.092 138.954C175.092 138.216 175.28 137.586 175.656 137.065C176.032 136.544 176.554 136.146 177.219 135.871C177.9 135.596 178.681 135.458 179.565 135.458C180.39 135.458 181.15 135.588 181.844 135.849C182.554 136.095 183.176 136.486 183.712 137.021L182.691 138.606C182.185 138.143 181.664 137.803 181.128 137.586C180.607 137.369 180.042 137.26 179.434 137.26C179.087 137.26 178.754 137.304 178.435 137.391C178.117 137.463 177.849 137.608 177.632 137.825C177.429 138.027 177.328 138.317 177.328 138.693C177.328 138.997 177.415 139.243 177.589 139.432C177.762 139.62 178.023 139.779 178.37 139.909C178.718 140.04 179.145 140.184 179.651 140.344C180.534 140.604 181.287 140.865 181.91 141.125C182.532 141.371 183.01 141.697 183.343 142.102C183.69 142.493 183.864 143.036 183.864 143.731C183.864 144.831 183.451 145.692 182.626 146.315C181.816 146.923 180.73 147.227 179.369 147.227Z" fill="white"/>
<path d="M172.941 137.716C172.015 137.731 171.19 137.941 170.466 138.346C169.757 138.751 169.25 139.323 168.946 140.061V147.01H166.558V135.653H168.772V138.194C169.163 137.412 169.677 136.79 170.314 136.327C170.951 135.849 171.624 135.588 172.333 135.545C172.478 135.545 172.594 135.545 172.681 135.545C172.782 135.545 172.869 135.552 172.941 135.567V137.716Z" fill="white"/>
<path d="M158.139 147.227C157.256 147.227 156.453 147.075 155.729 146.771C155.02 146.452 154.405 146.025 153.883 145.49C153.362 144.94 152.957 144.317 152.667 143.622C152.392 142.913 152.255 142.16 152.255 141.364C152.255 140.293 152.501 139.316 152.993 138.433C153.485 137.535 154.173 136.819 155.056 136.283C155.939 135.733 156.974 135.458 158.161 135.458C159.348 135.458 160.369 135.733 161.223 136.283C162.091 136.819 162.764 137.528 163.242 138.411C163.72 139.294 163.959 140.242 163.959 141.256C163.959 141.429 163.951 141.596 163.937 141.755C163.922 141.9 163.908 142.023 163.893 142.124H154.795C154.839 142.79 155.02 143.376 155.338 143.883C155.671 144.375 156.091 144.766 156.598 145.055C157.104 145.33 157.647 145.468 158.226 145.468C158.863 145.468 159.464 145.309 160.028 144.99C160.607 144.672 160.998 144.252 161.201 143.731L163.242 144.317C162.996 144.867 162.62 145.367 162.113 145.815C161.621 146.25 161.034 146.597 160.354 146.858C159.674 147.104 158.935 147.227 158.139 147.227ZM154.73 140.539H161.592C161.548 139.888 161.36 139.316 161.027 138.824C160.709 138.317 160.296 137.926 159.79 137.651C159.297 137.362 158.747 137.217 158.139 137.217C157.546 137.217 156.996 137.362 156.489 137.651C155.997 137.926 155.592 138.317 155.273 138.824C154.955 139.316 154.774 139.888 154.73 140.539Z" fill="white"/>
<path d="M144.083 147.01L139.762 135.654H142.237L145.472 144.795L148.708 135.654H151.009L146.688 147.01H144.083Z" fill="white"/>
<path d="M135.001 147.01V135.654H137.39V147.01H135.001ZM135.001 133.786V131.159H137.39V133.786H135.001Z" fill="white"/>
<path d="M119.808 141.343C119.808 140.257 120.025 139.273 120.46 138.39C120.908 137.492 121.516 136.783 122.283 136.262C123.051 135.726 123.934 135.458 124.933 135.458C125.801 135.458 126.583 135.683 127.278 136.132C127.987 136.58 128.537 137.138 128.928 137.804V131.159H131.316V144.318C131.316 144.593 131.367 144.788 131.468 144.904C131.57 145.02 131.736 145.085 131.968 145.099V147.01C131.519 147.082 131.172 147.119 130.925 147.119C130.477 147.119 130.093 146.988 129.775 146.728C129.471 146.467 129.311 146.156 129.297 145.794L129.275 144.947C128.841 145.671 128.255 146.236 127.516 146.641C126.778 147.032 126.011 147.227 125.215 147.227C124.433 147.227 123.709 147.075 123.043 146.771C122.392 146.467 121.82 146.04 121.328 145.49C120.85 144.94 120.474 144.31 120.199 143.601C119.938 142.892 119.808 142.139 119.808 141.343ZM128.928 142.928V139.953C128.769 139.49 128.508 139.077 128.146 138.716C127.799 138.339 127.401 138.042 126.952 137.825C126.518 137.608 126.083 137.5 125.649 137.5C125.142 137.5 124.679 137.608 124.259 137.825C123.854 138.042 123.499 138.332 123.195 138.694C122.906 139.056 122.682 139.468 122.522 139.931C122.363 140.395 122.283 140.88 122.283 141.386C122.283 141.907 122.37 142.4 122.544 142.863C122.718 143.312 122.964 143.717 123.282 144.079C123.615 144.426 123.992 144.701 124.411 144.904C124.846 145.092 125.316 145.186 125.823 145.186C126.141 145.186 126.46 145.128 126.778 145.012C127.111 144.897 127.422 144.737 127.712 144.535C128.016 144.332 128.269 144.093 128.472 143.818C128.689 143.543 128.841 143.246 128.928 142.928Z" fill="white"/>
<path d="M111.914 147.227C111.017 147.227 110.213 147.075 109.504 146.771C108.795 146.452 108.18 146.018 107.658 145.468C107.152 144.918 106.761 144.295 106.486 143.601C106.211 142.891 106.073 142.139 106.073 141.342C106.073 140.546 106.211 139.793 106.486 139.084C106.761 138.375 107.152 137.752 107.658 137.217C108.18 136.667 108.795 136.24 109.504 135.936C110.228 135.617 111.031 135.458 111.914 135.458C112.797 135.458 113.594 135.617 114.303 135.936C115.027 136.24 115.642 136.667 116.149 137.217C116.67 137.752 117.068 138.375 117.343 139.084C117.618 139.793 117.755 140.546 117.755 141.342C117.755 142.139 117.618 142.891 117.343 143.601C117.068 144.295 116.67 144.918 116.149 145.468C115.642 146.018 115.027 146.452 114.303 146.771C113.594 147.075 112.797 147.227 111.914 147.227ZM108.527 141.364C108.527 142.088 108.679 142.739 108.983 143.318C109.287 143.897 109.692 144.353 110.199 144.686C110.706 145.019 111.277 145.186 111.914 145.186C112.537 145.186 113.101 145.019 113.608 144.686C114.129 144.339 114.542 143.876 114.846 143.297C115.15 142.703 115.302 142.052 115.302 141.342C115.302 140.619 115.15 139.967 114.846 139.388C114.542 138.809 114.129 138.353 113.608 138.02C113.101 137.673 112.537 137.499 111.914 137.499C111.277 137.499 110.706 137.673 110.199 138.02C109.692 138.368 109.287 138.831 108.983 139.41C108.679 139.974 108.527 140.626 108.527 141.364Z" fill="white"/>
<path d="M100.901 147.01V135.654H103.29V147.01H100.901ZM100.901 133.787V131.159H103.29V133.787H100.901Z" fill="white"/>
<path d="M98.0176 143.036C98.0176 143.861 97.8005 144.571 97.3662 145.164C96.9464 145.758 96.3746 146.213 95.6508 146.532C94.927 146.85 94.1309 147.01 93.2623 147.01H85.9014V131.593H93.8486C94.5724 131.593 95.1948 131.788 95.716 132.179C96.2516 132.556 96.6569 133.048 96.9319 133.656C97.2214 134.249 97.3662 134.872 97.3662 135.523C97.3662 136.276 97.1708 136.985 96.7799 137.651C96.4035 138.303 95.8607 138.787 95.1514 139.106C96.0344 139.366 96.7293 139.844 97.2359 140.539C97.757 141.219 98.0176 142.052 98.0176 143.036ZM95.5205 142.58C95.5205 142.146 95.4264 141.755 95.2383 141.408C95.0645 141.046 94.8184 140.756 94.5 140.539C94.196 140.307 93.8341 140.192 93.4143 140.192H88.3333V144.903H93.2623C93.6966 144.903 94.0802 144.802 94.4131 144.599C94.7605 144.382 95.0283 144.1 95.2165 143.753C95.4192 143.391 95.5205 143 95.5205 142.58ZM88.3333 133.699V138.237H92.8063C93.2116 138.237 93.5735 138.143 93.892 137.955C94.2105 137.752 94.4638 137.485 94.652 137.152C94.8402 136.804 94.9343 136.413 94.9343 135.979C94.9343 135.53 94.8474 135.14 94.6737 134.807C94.5 134.459 94.2611 134.191 93.9571 134.003C93.6676 133.801 93.3274 133.699 92.9366 133.699H88.3333Z" fill="white"/>
<path d="M65.5895 142.602V135.654H67.978V142.124C67.978 143.138 68.159 143.905 68.5209 144.426C68.8972 144.933 69.4401 145.186 70.1494 145.186C70.5981 145.186 71.0324 145.092 71.4522 144.904C71.8865 144.715 72.2773 144.44 72.6247 144.078C72.9866 143.702 73.2761 143.253 73.4933 142.732V135.654H75.8818V144.317C75.8818 144.592 75.9325 144.788 76.0338 144.904C76.1351 145.019 76.3016 145.084 76.5332 145.099V147.01C76.2871 147.053 76.0844 147.082 75.9252 147.097C75.766 147.111 75.614 147.118 75.4692 147.118C75.035 147.118 74.6731 147.003 74.3835 146.771C74.094 146.525 73.9276 146.214 73.8841 145.837L73.8407 144.708C73.334 145.533 72.6754 146.163 71.8648 146.597C71.0541 147.017 70.1639 147.227 69.194 147.227C68.007 147.227 67.1095 146.836 66.5015 146.054C65.8935 145.273 65.5895 144.122 65.5895 142.602Z" fill="white"/>
<path d="M51.9656 143.687C51.9656 142.964 52.1683 142.334 52.5736 141.798C52.9934 141.248 53.5652 140.829 54.289 140.539C55.0128 140.235 55.8524 140.083 56.8078 140.083C57.3144 140.083 57.8283 140.119 58.3495 140.192C58.8851 140.264 59.3555 140.38 59.7608 140.539V139.822C59.7608 139.026 59.522 138.404 59.0443 137.955C58.5666 137.506 57.879 137.282 56.9815 137.282C56.3446 137.282 55.7438 137.398 55.1793 137.629C54.6147 137.847 54.014 138.158 53.377 138.563L52.5736 136.956C53.3264 136.45 54.0791 136.073 54.8318 135.827C55.5991 135.581 56.4025 135.458 57.2421 135.458C58.762 135.458 59.9563 135.863 60.8248 136.674C61.7078 137.47 62.1493 138.606 62.1493 140.083V144.317C62.1493 144.592 62.1928 144.788 62.2796 144.903C62.381 145.019 62.5474 145.084 62.779 145.099V147.01C62.5619 147.053 62.3665 147.082 62.1928 147.096C62.0191 147.111 61.8743 147.118 61.7585 147.118C61.2519 147.118 60.8682 146.995 60.6077 146.749C60.3471 146.503 60.1951 146.213 60.1517 145.881L60.0865 145.229C59.5944 145.866 58.9647 146.358 58.1975 146.706C57.4302 147.053 56.6558 147.227 55.8741 147.227C55.1214 147.227 54.4482 147.075 53.8547 146.771C53.2612 146.452 52.798 146.025 52.4651 145.49C52.1321 144.954 51.9656 144.353 51.9656 143.687ZM59.1963 144.382C59.37 144.194 59.5075 144.006 59.6089 143.818C59.7102 143.63 59.7608 143.463 59.7608 143.318V142.016C59.3555 141.856 58.9285 141.74 58.4797 141.668C58.031 141.581 57.5895 141.538 57.1552 141.538C56.2867 141.538 55.5773 141.712 55.0273 142.059C54.4917 142.406 54.2239 142.884 54.2239 143.492C54.2239 143.825 54.3107 144.143 54.4844 144.447C54.6726 144.751 54.9332 144.998 55.2661 145.186C55.6135 145.374 56.0406 145.468 56.5472 145.468C57.0683 145.468 57.5678 145.367 58.0455 145.164C58.5232 144.961 58.9068 144.701 59.1963 144.382Z" fill="white"/>
<path d="M44.3715 147.227C43.4885 147.227 42.6851 147.075 41.9613 146.771C41.252 146.452 40.6368 146.025 40.1156 145.49C39.5945 144.94 39.1892 144.317 38.8997 143.622C38.6246 142.913 38.4871 142.16 38.4871 141.364C38.4871 140.293 38.7332 139.316 39.2254 138.433C39.7176 137.535 40.4052 136.819 41.2882 136.283C42.1712 135.733 43.2062 135.458 44.3932 135.458C45.5803 135.458 46.6008 135.733 47.4549 136.283C48.3234 136.819 48.9965 137.528 49.4742 138.411C49.9519 139.294 50.1908 140.242 50.1908 141.256C50.1908 141.429 50.1836 141.596 50.1691 141.755C50.1546 141.9 50.1401 142.023 50.1257 142.124H41.0276C41.0711 142.79 41.252 143.376 41.5705 143.883C41.9034 144.375 42.3232 144.766 42.8299 145.055C43.3365 145.33 43.8794 145.468 44.4584 145.468C45.0953 145.468 45.6961 145.309 46.2606 144.99C46.8396 144.672 47.2305 144.252 47.4332 143.731L49.4742 144.317C49.2282 144.867 48.8518 145.367 48.3451 145.815C47.853 146.25 47.2667 146.597 46.5863 146.858C45.906 147.104 45.1677 147.227 44.3715 147.227ZM40.9625 140.539H47.824C47.7806 139.888 47.5924 139.316 47.2594 138.824C46.941 138.317 46.5284 137.926 46.0218 137.651C45.5296 137.362 44.9795 137.217 44.3715 137.217C43.778 137.217 43.2279 137.362 42.7213 137.651C42.2291 137.926 41.8238 138.317 41.5053 138.824C41.1869 139.316 41.0059 139.888 40.9625 140.539Z" fill="white"/>
<path d="M31.9467 147.227C30.9913 147.227 30.0865 147.075 29.2324 146.771C28.3784 146.452 27.6474 145.982 27.0394 145.359L27.9296 143.753C28.581 144.332 29.2324 144.751 29.8839 145.012C30.5497 145.273 31.2084 145.403 31.8598 145.403C32.5257 145.403 33.0685 145.28 33.4883 145.034C33.9081 144.773 34.118 144.397 34.118 143.905C34.118 143.543 34.0095 143.275 33.7923 143.101C33.5752 142.927 33.2567 142.775 32.8369 142.645C32.4316 142.515 31.9394 142.37 31.3604 142.211C30.5497 141.965 29.8694 141.712 29.3193 141.451C28.7692 141.176 28.3567 140.843 28.0816 140.452C27.8066 140.061 27.6691 139.562 27.6691 138.954C27.6691 138.216 27.8572 137.586 28.2336 137.065C28.61 136.544 29.1311 136.146 29.797 135.871C30.4774 135.596 31.2591 135.458 32.1421 135.458C32.9672 135.458 33.7272 135.588 34.422 135.849C35.1313 136.095 35.7538 136.486 36.2894 137.021L35.2688 138.606C34.7622 138.143 34.2411 137.803 33.7055 137.586C33.1843 137.369 32.6198 137.26 32.0118 137.26C31.6644 137.26 31.3314 137.304 31.013 137.391C30.6945 137.463 30.4267 137.608 30.2096 137.825C30.0069 138.027 29.9056 138.317 29.9056 138.693C29.9056 138.997 29.9924 139.243 30.1661 139.432C30.3398 139.62 30.6004 139.779 30.9478 139.909C31.2952 140.04 31.7223 140.184 32.2289 140.344C33.112 140.604 33.8647 140.865 34.4872 141.125C35.1096 141.371 35.5873 141.697 35.9203 142.102C36.2677 142.493 36.4414 143.036 36.4414 143.731C36.4414 144.831 36.0288 145.692 35.2037 146.315C34.3931 146.923 33.3074 147.227 31.9467 147.227Z" fill="white"/>
<path d="M19.489 147.227C18.6059 147.227 17.8025 147.075 17.0787 146.771C16.3694 146.453 15.7542 146.026 15.2331 145.49C14.712 144.94 14.3066 144.318 14.0171 143.623C13.7421 142.913 13.6046 142.161 13.6046 141.365C13.6046 140.293 13.8506 139.316 14.3428 138.433C14.835 137.536 15.5226 136.819 16.4056 136.284C17.2886 135.734 18.3237 135.458 19.5107 135.458C20.6977 135.458 21.7182 135.734 22.5723 136.284C23.4408 136.819 24.114 137.528 24.5917 138.412C25.0694 139.295 25.3082 140.243 25.3082 141.256C25.3082 141.43 25.301 141.596 25.2865 141.755C25.272 141.9 25.2576 142.023 25.2431 142.125H16.1451C16.1885 142.79 16.3694 143.377 16.6879 143.883C17.0208 144.376 17.4406 144.766 17.9473 145.056C18.4539 145.331 18.9968 145.468 19.5758 145.468C20.2127 145.468 20.8135 145.309 21.378 144.991C21.9571 144.672 22.3479 144.252 22.5506 143.731L24.5917 144.318C24.3456 144.868 23.9692 145.367 23.4626 145.816C22.9704 146.25 22.3841 146.598 21.7038 146.858C21.0234 147.104 20.2851 147.227 19.489 147.227ZM16.0799 140.539H22.9414C22.898 139.888 22.7098 139.316 22.3769 138.824C22.0584 138.317 21.6458 137.927 21.1392 137.652C20.647 137.362 20.0969 137.217 19.489 137.217C18.8955 137.217 18.3454 137.362 17.8387 137.652C17.3465 137.927 16.9412 138.317 16.6228 138.824C16.3043 139.316 16.1233 139.888 16.0799 140.539ZM20.2489 134.025L18.6856 133.548L19.9232 131.159H22.2032L20.2489 134.025Z" fill="white"/>
<path d="M0 147.01L0 131.593H6.70952C7.40436 131.593 8.0413 131.738 8.62033 132.027C9.19936 132.317 9.69877 132.7 10.1186 133.178C10.5528 133.656 10.8858 134.191 11.1174 134.785C11.3635 135.378 11.4865 135.986 11.4865 136.609C11.4865 137.289 11.3635 137.941 11.1174 138.563C10.8713 139.186 10.5167 139.721 10.0534 140.17C9.60468 140.619 9.07631 140.944 8.46833 141.147L12.0945 147.01H9.35859L6.01469 141.646H2.43193V147.01H0ZM2.43193 139.497H6.68781C7.13656 139.497 7.53464 139.366 7.88206 139.106C8.22948 138.845 8.50452 138.498 8.70718 138.064C8.90984 137.615 9.01117 137.13 9.01117 136.609C9.01117 136.073 8.89537 135.596 8.66376 135.176C8.43214 134.741 8.12815 134.394 7.75178 134.134C7.38989 133.873 6.9918 133.743 6.55753 133.743H2.43193L2.43193 139.497Z" fill="white"/>
<defs>
<filter id="filter0_d_616_2807" x="66.9662" y="34.6331" width="76.3562" height="68.1335" filterUnits="userSpaceOnUse" color-interpolation-filters="sRGB">
<feFlood flood-opacity="0" result="BackgroundImageFix"/>
<feColorMatrix in="SourceAlpha" type="matrix" values="0 0 0 0 0 0 0 0 0 0 0 0 0 0 0 0 0 0 127 0" result="hardAlpha"/>
<feOffset dy="1.5712"/>
<feComposite in2="hardAlpha" operator="out"/>
<feColorMatrix type="matrix" values="0 0 0 0 0 0 0 0 0 0 0 0 0 0 0 0 0 0 0.19 0"/>
<feBlend mode="normal" in2="BackgroundImageFix" result="effect1_dropShadow_616_2807"/>
<feBlend mode="normal" in="SourceGraphic" in2="effect1_dropShadow_616_2807" result="shape"/>
</filter>
<clipPath id="clip0_616_2807">
<rect width="122.188" height="120.734" fill="white" transform="translate(43.9976)"/>
</clipPath>
</defs>
</svg>
