<svg width="44" height="80" viewBox="0 0 44 80" fill="none" xmlns="http://www.w3.org/2000/svg">
<g clip-path="url(#clip0_344_14256)">
<g filter="url(#filter0_f_344_14256)">
<path d="M38.7956 33.8793C38.4706 34.0623 38.7355 33.1806 38.4172 33.5288C38.257 33.7052 38.3727 34.0913 38.5107 34.2454C38.5324 34.2707 38.5486 34.3005 38.5582 34.3328C38.5678 34.3651 38.5706 34.3992 38.5663 34.4329C38.5456 34.6129 38.5923 34.7617 38.7066 34.8793C38.7277 34.9005 38.7444 34.9279 38.7559 34.9597C38.7674 34.9916 38.7733 35.0272 38.7733 35.0646L38.7756 35.4373C38.7754 35.4712 38.7666 35.5035 38.7505 35.529C38.7343 35.5545 38.7118 35.5717 38.6865 35.578C38.0389 35.732 38.1323 35.0378 37.6916 34.761C37.6353 34.7253 37.5885 34.6732 37.5514 34.6047C37.2265 33.9976 36.7435 34.915 36.2561 34.232C36.2391 34.2079 36.2139 34.1906 36.1848 34.1829C36.1556 34.1752 36.1243 34.1776 36.0958 34.1896C35.8465 34.2952 35.6225 34.2565 35.4236 34.0735C35.3719 34.0258 35.3043 33.9974 35.2322 33.9931C35.023 33.9812 34.8546 33.8837 34.727 33.7007C34.7065 33.6714 34.6797 33.6484 34.65 33.6345C34.6203 33.6206 34.5891 33.6165 34.5601 33.6226C34.3805 33.6583 34.2381 33.7431 34.1327 33.877C34.1129 33.9029 34.0861 33.9219 34.0564 33.9312C34.0266 33.9405 33.9956 33.9395 33.968 33.9284C33.5986 33.7781 33.287 33.5511 33.0332 33.2476C33.0084 33.2178 32.9792 33.194 32.9479 33.1781C32.9165 33.1622 32.884 33.1546 32.853 33.156C32.6615 33.162 32.5087 33.2372 32.3945 33.3815C32.3869 33.3912 32.3774 33.3992 32.3665 33.4048C32.3555 33.4105 32.3435 33.4138 32.331 33.4144C32.3186 33.415 32.3062 33.413 32.2945 33.4085C32.2828 33.404 32.2721 33.3971 32.2631 33.3882L31.8358 32.9618C31.8138 32.9406 31.7843 32.9252 31.7498 32.917C31.7153 32.9088 31.6768 32.9081 31.6377 32.915C31.2534 32.9819 30.8736 32.9395 30.4982 32.7877C30.4347 32.7632 30.3618 32.7617 30.2912 32.7833C29.7644 32.944 29.3898 32.7624 29.1672 32.2386C29.1358 32.1628 29.088 32.1052 29.0336 32.0779C28.9001 32.0095 28.7532 31.9961 28.593 32.0377C28.5609 32.0458 28.5275 32.045 28.4968 32.0355C28.4661 32.0261 28.4392 32.0082 28.4193 31.9842C28.0988 31.6032 27.7153 31.5303 27.2687 31.7654C27.2393 31.7805 27.2063 31.7857 27.1754 31.78C27.1444 31.7742 27.1176 31.758 27.0995 31.7341L26.897 31.4596C26.8799 31.4367 26.855 31.4206 26.8263 31.4137C26.7977 31.4068 26.7669 31.4096 26.7389 31.4216C26.1736 31.6672 25.8019 29.6828 25.6817 29.3011C25.658 29.2252 25.6313 29.2237 25.6016 29.2966C25.3835 29.8234 25.842 30.0109 25.6639 30.4752C24.787 27.6135 23.9323 24.7459 23.0999 21.8724C22.8662 21.0666 22.4411 20.0978 21.4774 20.7429C21.2474 20.8962 21.0797 21.1558 20.9744 21.5219C20.3437 23.7109 19.6998 25.894 19.0424 28.0711C18.7576 28.3122 18.5632 28.6143 18.4593 28.9774C18.4519 29.0057 18.4511 29.0057 18.4571 28.9774C18.5328 28.5726 18.4437 28.2408 18.19 27.9819C18.1681 27.9598 18.1395 27.9434 18.1066 27.9341C18.0737 27.9248 18.0375 27.9228 18.0008 27.9283C17.661 27.9848 17.4592 27.871 17.3954 27.5868C17.3821 27.5243 17.3531 27.5161 17.3086 27.5622C17.0682 27.8211 16.8167 27.8144 16.5541 27.5421C16.5457 27.5335 16.5355 27.5268 16.5241 27.5225C16.5127 27.5181 16.5004 27.5162 16.488 27.5168C16.4755 27.5174 16.4631 27.5206 16.4515 27.5261C16.4399 27.5316 16.4294 27.5393 16.4206 27.5488C16.3553 27.6202 16.2722 27.6321 16.1713 27.5845C16.1423 27.5705 16.1105 27.5643 16.0791 27.5666C16.0478 27.569 16.0181 27.5798 15.9932 27.5979C15.8345 27.711 15.669 27.7333 15.4969 27.6649C15.4398 27.6434 15.3856 27.5906 15.3455 27.5176C15.0785 27.0309 14.6645 26.772 14.1036 26.7408C14.0432 26.7378 13.9771 26.7086 13.9166 26.6582C13.8276 26.5853 13.7156 26.5414 13.5806 26.5265C13.5514 26.5241 13.5237 26.5114 13.502 26.4904C13.4802 26.4694 13.4656 26.4412 13.4604 26.4104C13.4307 26.2288 13.332 26.1172 13.1643 26.0756C13.135 26.0683 13.1029 26.0709 13.0718 26.0832C13.0406 26.0954 13.0118 26.1168 12.9885 26.1448C12.852 26.3159 12.6814 26.4506 12.4766 26.5488C12.4502 26.5614 12.4194 26.5635 12.3894 26.5545C12.3594 26.5456 12.3321 26.5262 12.3119 26.4997L12.116 26.243C12.0967 26.218 12.0704 26.1975 12.0392 26.1832C12.0079 26.1689 11.9726 26.1611 11.9358 26.1604C11.4995 26.1574 11.0967 26.0503 10.7272 25.839C10.558 25.743 10.5425 25.5331 10.2665 25.5823C10.2299 25.5886 10.1939 25.5884 10.1605 25.5819C10.1272 25.5754 10.0974 25.5626 10.0728 25.5443C9.83543 25.3747 9.5958 25.359 9.35394 25.4974C9.31955 25.5178 9.28313 25.5306 9.24836 25.5345C9.21359 25.5384 9.18168 25.5333 9.15585 25.5198L8.78416 25.3166C8.75836 25.3032 8.72904 25.299 8.70162 25.3048C8.67421 25.3105 8.65055 25.3258 8.63503 25.3479C8.53859 25.4893 8.41469 25.5659 8.26334 25.5778C8.25099 25.5787 8.23871 25.5763 8.2275 25.5707C8.21629 25.565 8.20648 25.5564 8.19888 25.5455C8.19127 25.5346 8.18608 25.5218 8.18375 25.508C8.18141 25.4942 8.18199 25.4798 8.18544 25.4662L8.67955 23.455C8.69884 23.3761 8.67287 23.356 8.60165 23.3947L8.42359 23.4907C10.3525 16.9936 11.573 13.0143 12.0849 11.553C12.7348 9.70252 14.2594 8.82081 16.178 8.77393C19.7183 8.68613 23.2579 8.67423 26.7968 8.73822C29.9662 8.79625 31.3061 9.40118 32.2275 12.3901C34.4369 19.5464 36.6263 26.7095 38.7956 33.8793Z" fill="white"/>
<path d="M19.0424 28.0713L13.7497 46.1452C13.735 46.1954 13.7066 46.2404 13.6676 46.2751C13.6287 46.3099 13.5807 46.3329 13.5294 46.3417C8.86131 47.1676 4.3958 48.6713 0.13283 50.8529C0.0334147 50.905 2.89623e-05 50.8775 0.0326727 50.7703L8.42359 23.4908L8.60165 23.3948C8.67287 23.3561 8.69884 23.3762 8.67955 23.4551L8.18544 25.4663C8.18199 25.48 8.18141 25.4943 8.18375 25.5081C8.18608 25.5219 8.19127 25.5348 8.19887 25.5456C8.20648 25.5565 8.21629 25.5652 8.2275 25.5708C8.23871 25.5764 8.25099 25.5788 8.26334 25.5779C8.41469 25.566 8.53858 25.4894 8.63503 25.348C8.65055 25.3259 8.6742 25.3106 8.70162 25.3049C8.72904 25.2991 8.75836 25.3033 8.78415 25.3167L9.15585 25.5199C9.18168 25.5334 9.21359 25.5385 9.24836 25.5346C9.28313 25.5307 9.31954 25.5179 9.35393 25.4975C9.59579 25.3592 9.83543 25.3748 10.0728 25.5444C10.0974 25.5627 10.1272 25.5755 10.1605 25.582C10.1939 25.5886 10.2299 25.5887 10.2665 25.5824C10.5425 25.5333 10.558 25.7431 10.7272 25.8391C11.0967 26.0504 11.4995 26.1575 11.9358 26.1605C11.9726 26.1612 12.0079 26.169 12.0392 26.1833C12.0704 26.1976 12.0966 26.2181 12.116 26.2431L12.3119 26.4998C12.332 26.5263 12.3594 26.5457 12.3894 26.5546C12.4194 26.5636 12.4502 26.5616 12.4766 26.5489C12.6814 26.4507 12.852 26.316 12.9885 26.1449C13.0118 26.1169 13.0406 26.0955 13.0718 26.0833C13.1029 26.0711 13.135 26.0684 13.1643 26.0757C13.332 26.1174 13.4307 26.229 13.4604 26.4105C13.4656 26.4413 13.4802 26.4695 13.502 26.4905C13.5237 26.5115 13.5514 26.5242 13.5806 26.5266C13.7156 26.5415 13.8276 26.5854 13.9166 26.6583C13.9771 26.7087 14.0432 26.7379 14.1036 26.7409C14.6645 26.7721 15.0785 27.0311 15.3455 27.5177C15.3856 27.5907 15.4398 27.6435 15.4969 27.665C15.669 27.7335 15.8345 27.7111 15.9932 27.598C16.0181 27.5799 16.0478 27.5691 16.0791 27.5668C16.1105 27.5644 16.1423 27.5706 16.1713 27.5846C16.2722 27.6323 16.3553 27.6204 16.4206 27.5489C16.4294 27.5394 16.4399 27.5317 16.4515 27.5262C16.4631 27.5207 16.4755 27.5176 16.488 27.5169C16.5004 27.5163 16.5127 27.5182 16.5241 27.5226C16.5355 27.5269 16.5457 27.5336 16.5541 27.5422C16.8167 27.8146 17.0682 27.8212 17.3086 27.5623C17.3531 27.5162 17.3821 27.5244 17.3954 27.5869C17.4592 27.8711 17.661 27.9849 18.0008 27.9284C18.0375 27.9229 18.0737 27.9249 18.1066 27.9342C18.1395 27.9435 18.1681 27.9599 18.19 27.982C18.4437 28.2409 18.5328 28.5728 18.4571 28.9775C18.4511 29.0058 18.4519 29.0058 18.4593 28.9775C18.5632 28.6144 18.7575 28.3123 19.0424 28.0713Z" fill="white"/>
<path d="M38.7957 33.8794L43.9704 50.7949C44.0001 50.8916 43.9697 50.9169 43.8792 50.8708C39.6414 48.6952 35.1782 47.1855 30.4893 46.3417C30.449 46.3343 30.4115 46.3158 30.3809 46.2883C30.3502 46.2607 30.3277 46.2251 30.3157 46.1854L25.664 30.4754C25.8421 30.0111 25.3836 29.8236 25.6017 29.2968C25.6314 29.2238 25.6581 29.2253 25.6818 29.3012C25.802 29.6829 26.1737 31.6673 26.739 31.4218C26.767 31.4098 26.7978 31.4069 26.8264 31.4138C26.8551 31.4207 26.88 31.4369 26.897 31.4597L27.0996 31.7343C27.1176 31.7582 27.1445 31.7744 27.1754 31.7801C27.2064 31.7858 27.2394 31.7807 27.2687 31.7656C27.7154 31.5304 28.0989 31.6033 28.4194 31.9843C28.4393 32.0084 28.4662 32.0262 28.4969 32.0357C28.5276 32.0452 28.5609 32.0459 28.593 32.0379C28.7533 31.9962 28.9002 32.0096 29.0337 32.0781C29.0881 32.1054 29.1359 32.163 29.1673 32.2388C29.3898 32.7626 29.7645 32.9441 30.2913 32.7834C30.3619 32.7618 30.4348 32.7634 30.4982 32.7879C30.8736 32.9397 31.2535 32.9821 31.6378 32.9151C31.6769 32.9083 31.7154 32.909 31.7498 32.9172C31.7843 32.9253 31.8139 32.9407 31.8359 32.962L32.2632 33.3883C32.2722 33.3972 32.2829 33.4041 32.2946 33.4086C32.3063 33.4132 32.3187 33.4152 32.3311 33.4145C32.3435 33.4139 32.3556 33.4106 32.3665 33.405C32.3775 33.3993 32.387 33.3914 32.3945 33.3816C32.5088 33.2373 32.6616 33.1622 32.853 33.1562C32.8841 33.1548 32.9166 33.1623 32.9479 33.1782C32.9793 33.1941 33.0085 33.2179 33.0333 33.2477C33.2871 33.5513 33.5987 33.7782 33.9681 33.9285C33.9957 33.9396 34.0267 33.9406 34.0565 33.9314C34.0862 33.9221 34.113 33.9031 34.1328 33.8772C34.2382 33.7433 34.3806 33.6584 34.5602 33.6227C34.5891 33.6166 34.6204 33.6208 34.6501 33.6347C34.6798 33.6486 34.7066 33.6716 34.7271 33.7009C34.8547 33.8839 35.0231 33.9814 35.2323 33.9933C35.3044 33.9976 35.372 34.026 35.4237 34.0736C35.6226 34.2567 35.8466 34.2954 36.0959 34.1897C36.1243 34.1777 36.1557 34.1754 36.1849 34.1831C36.214 34.1908 36.2391 34.2081 36.2561 34.2321C36.7436 34.9152 37.2266 33.9977 37.5515 34.6049C37.5886 34.6733 37.6353 34.7254 37.6917 34.7611C38.1324 35.0379 38.0389 35.7321 38.6866 35.5781C38.7119 35.5719 38.7344 35.5546 38.7505 35.5291C38.7667 35.5036 38.7755 35.4714 38.7756 35.4375L38.7734 35.0647C38.7734 35.0274 38.7675 34.9917 38.756 34.9599C38.7445 34.928 38.7277 34.9007 38.7066 34.8794C38.5924 34.7619 38.5457 34.6131 38.5664 34.433C38.5707 34.3993 38.5679 34.3653 38.5583 34.333C38.5487 34.3007 38.5325 34.2709 38.5108 34.2455C38.3728 34.0915 38.2571 33.7053 38.4173 33.529C38.7356 33.1808 38.4707 34.0625 38.7957 33.8794Z" fill="white"/>
<path d="M17.1038 54.7593L16.8767 54.8798C16.8504 54.8943 16.8306 54.9186 16.8215 54.9476C16.8124 54.9767 16.8146 55.0083 16.8278 55.0361C17.106 55.6276 17.5244 55.7325 18.1053 55.9423C18.8309 56.2035 19.4229 56.6187 20.1463 56.8955C20.4512 57.0116 20.656 57.275 20.9987 57.3977C22.1249 57.7951 23.1755 58.3866 23.7408 58.6366C25.235 59.3018 26.3953 59.8591 27.2218 60.3085C27.5334 60.4804 27.865 60.429 28.1833 60.6299C28.6574 60.9335 29.6011 61.7326 30.1353 61.2549C30.146 61.2453 30.1647 61.2416 30.1883 61.2444C30.212 61.2472 30.2395 61.2564 30.2666 61.2706L30.3756 61.3264C29.1945 62.2817 27.9659 63.1716 26.6899 63.9961C24.0502 65.6992 23.0664 68.043 24.3907 71.1681C24.4441 71.2931 24.4093 71.3258 24.2861 71.2663C22.0159 70.1561 20.6181 68.4113 20.0929 66.0318C19.6833 64.1679 20.5358 60.9179 18.2166 60.1143C16.3225 59.4603 14.4084 60.65 14.1146 62.6969C14.0909 62.8621 14.0249 62.8815 13.9165 62.755C11.2568 59.6679 10.6514 55.6187 11.6641 51.7302C11.6968 51.6067 11.7494 51.5978 11.8221 51.7034C12.9795 53.3887 15.1963 54.2526 17.1038 54.7593Z" fill="#FF5D01"/>
<path d="M31.8579 59.3821C31.8016 59.2348 31.8016 59.0837 31.8579 58.929C31.863 58.9158 31.8653 58.9017 31.8649 58.8876C31.8645 58.8735 31.8613 58.8597 31.8554 58.847C31.8496 58.8342 31.8413 58.8229 31.831 58.8136C31.8208 58.8043 31.8087 58.7972 31.7956 58.7928C31.5285 58.7058 31.3282 58.5317 31.0589 58.4803C30.1686 58.3129 29.383 57.708 28.7798 57.4401C27.1936 56.7318 26.195 56.2444 25.784 55.978C25.5065 55.801 25.2365 55.6938 24.9738 55.6566C24.4263 55.5785 24.0346 55.4267 23.5583 55.3731C26.5763 55.3173 30.0507 54.6454 32.5346 52.8128C32.5482 52.8028 32.564 52.7962 32.5807 52.7937C32.5973 52.7911 32.6144 52.7927 32.6303 52.7981C32.6463 52.8036 32.6607 52.8129 32.6723 52.8252C32.6839 52.8374 32.6924 52.8523 32.697 52.8686C33.3277 55.2109 33.048 57.3821 31.8579 59.3821Z" fill="#FF4C0E"/>
<path d="M17.1038 54.7593C19.2272 55.2593 21.3787 55.4639 23.5584 55.3731C24.0347 55.4267 24.4264 55.5785 24.9739 55.6566C25.2366 55.6938 25.5066 55.801 25.7841 55.978C26.1951 56.2444 27.1937 56.7318 28.7799 57.4401C29.3831 57.708 30.1687 58.3129 31.059 58.4803C31.3283 58.5317 31.5287 58.7058 31.7957 58.7928C31.8088 58.7972 31.8209 58.8043 31.8312 58.8136C31.8414 58.8229 31.8497 58.8343 31.8555 58.847C31.8614 58.8597 31.8646 58.8735 31.865 58.8876C31.8655 58.9017 31.8631 58.9158 31.8581 58.929C31.8017 59.0838 31.8017 59.2348 31.8581 59.3821C31.447 60.0845 30.9529 60.7326 30.3757 61.3264L30.2667 61.2706C30.2396 61.2564 30.2121 61.2472 30.1884 61.2444C30.1648 61.2415 30.1461 61.2453 30.1354 61.2549C29.6012 61.7326 28.6575 60.9335 28.1834 60.6299C27.8651 60.429 27.5335 60.4804 27.2219 60.3085C26.3954 59.8591 25.2351 59.3018 23.7409 58.6366C23.1756 58.3866 22.125 57.795 20.9988 57.3977C20.6561 57.2749 20.4513 57.0115 20.1464 56.8955C19.423 56.6187 18.831 56.2035 18.1054 55.9423C17.5245 55.7325 17.1061 55.6276 16.8279 55.0361C16.8147 55.0083 16.8125 54.9767 16.8216 54.9476C16.8307 54.9186 16.8505 54.8943 16.8768 54.8798L17.1038 54.7593Z" fill="#FF5607"/>
</g>
<path d="M38.7956 33.8793C38.4706 34.0623 38.7355 33.1806 38.4172 33.5288C38.257 33.7052 38.3727 34.0913 38.5107 34.2454C38.5324 34.2707 38.5486 34.3005 38.5582 34.3328C38.5678 34.3651 38.5706 34.3992 38.5663 34.4329C38.5456 34.6129 38.5923 34.7617 38.7066 34.8793C38.7277 34.9005 38.7444 34.9279 38.7559 34.9597C38.7674 34.9916 38.7733 35.0272 38.7733 35.0646L38.7756 35.4373C38.7754 35.4712 38.7666 35.5035 38.7505 35.529C38.7343 35.5545 38.7118 35.5717 38.6865 35.578C38.0389 35.732 38.1323 35.0378 37.6916 34.761C37.6353 34.7253 37.5885 34.6732 37.5514 34.6047C37.2265 33.9976 36.7435 34.915 36.2561 34.232C36.2391 34.2079 36.2139 34.1906 36.1848 34.1829C36.1556 34.1752 36.1243 34.1776 36.0958 34.1896C35.8465 34.2952 35.6225 34.2565 35.4236 34.0735C35.3719 34.0258 35.3043 33.9974 35.2322 33.9931C35.023 33.9812 34.8546 33.8837 34.727 33.7007C34.7065 33.6714 34.6797 33.6484 34.65 33.6345C34.6203 33.6206 34.5891 33.6165 34.5601 33.6226C34.3805 33.6583 34.2381 33.7431 34.1327 33.877C34.1129 33.9029 34.0861 33.9219 34.0564 33.9312C34.0266 33.9405 33.9956 33.9395 33.968 33.9284C33.5986 33.7781 33.287 33.5511 33.0332 33.2476C33.0084 33.2178 32.9792 33.194 32.9479 33.1781C32.9165 33.1622 32.884 33.1546 32.853 33.156C32.6615 33.162 32.5087 33.2372 32.3945 33.3815C32.3869 33.3912 32.3774 33.3992 32.3665 33.4048C32.3555 33.4105 32.3435 33.4138 32.331 33.4144C32.3186 33.415 32.3062 33.413 32.2945 33.4085C32.2828 33.404 32.2721 33.3971 32.2631 33.3882L31.8358 32.9618C31.8138 32.9406 31.7843 32.9252 31.7498 32.917C31.7153 32.9088 31.6768 32.9081 31.6377 32.915C31.2534 32.9819 30.8736 32.9395 30.4982 32.7877C30.4347 32.7632 30.3618 32.7617 30.2912 32.7833C29.7644 32.944 29.3898 32.7624 29.1672 32.2386C29.1358 32.1628 29.088 32.1052 29.0336 32.0779C28.9001 32.0095 28.7532 31.9961 28.593 32.0377C28.5609 32.0458 28.5275 32.045 28.4968 32.0355C28.4661 32.0261 28.4392 32.0082 28.4193 31.9842C28.0988 31.6032 27.7153 31.5303 27.2687 31.7654C27.2393 31.7805 27.2063 31.7857 27.1754 31.78C27.1444 31.7742 27.1176 31.758 27.0995 31.7341L26.897 31.4596C26.8799 31.4367 26.855 31.4206 26.8263 31.4137C26.7977 31.4068 26.7669 31.4096 26.7389 31.4216C26.1736 31.6672 25.8019 29.6828 25.6817 29.3011C25.658 29.2252 25.6313 29.2237 25.6016 29.2966C25.3835 29.8234 25.842 30.0109 25.6639 30.4752C24.787 27.6135 23.9323 24.7459 23.0999 21.8724C22.8662 21.0666 22.4411 20.0978 21.4774 20.7429C21.2474 20.8962 21.0797 21.1558 20.9744 21.5219C20.3437 23.7109 19.6998 25.894 19.0424 28.0711C18.7576 28.3122 18.5632 28.6143 18.4593 28.9774C18.4519 29.0057 18.4511 29.0057 18.4571 28.9774C18.5328 28.5726 18.4437 28.2408 18.19 27.9819C18.1681 27.9598 18.1395 27.9434 18.1066 27.9341C18.0737 27.9248 18.0375 27.9228 18.0008 27.9283C17.661 27.9848 17.4592 27.871 17.3954 27.5868C17.3821 27.5243 17.3531 27.5161 17.3086 27.5622C17.0682 27.8211 16.8167 27.8144 16.5541 27.5421C16.5457 27.5335 16.5355 27.5268 16.5241 27.5225C16.5127 27.5181 16.5004 27.5162 16.488 27.5168C16.4755 27.5174 16.4631 27.5206 16.4515 27.5261C16.4399 27.5316 16.4294 27.5393 16.4206 27.5488C16.3553 27.6202 16.2722 27.6321 16.1713 27.5845C16.1423 27.5705 16.1105 27.5643 16.0791 27.5666C16.0478 27.569 16.0181 27.5798 15.9932 27.5979C15.8345 27.711 15.669 27.7333 15.4969 27.6649C15.4398 27.6434 15.3856 27.5906 15.3455 27.5176C15.0785 27.0309 14.6645 26.772 14.1036 26.7408C14.0432 26.7378 13.9771 26.7086 13.9166 26.6582C13.8276 26.5853 13.7156 26.5414 13.5806 26.5265C13.5514 26.5241 13.5237 26.5114 13.502 26.4904C13.4802 26.4694 13.4656 26.4412 13.4604 26.4104C13.4307 26.2288 13.332 26.1172 13.1643 26.0756C13.135 26.0683 13.1029 26.0709 13.0718 26.0832C13.0406 26.0954 13.0118 26.1168 12.9885 26.1448C12.852 26.3159 12.6814 26.4506 12.4766 26.5488C12.4502 26.5614 12.4194 26.5635 12.3894 26.5545C12.3594 26.5456 12.3321 26.5262 12.3119 26.4997L12.116 26.243C12.0967 26.218 12.0704 26.1975 12.0392 26.1832C12.0079 26.1689 11.9726 26.1611 11.9358 26.1604C11.4995 26.1574 11.0967 26.0503 10.7272 25.839C10.558 25.743 10.5425 25.5331 10.2665 25.5823C10.2299 25.5886 10.1939 25.5884 10.1605 25.5819C10.1272 25.5754 10.0974 25.5626 10.0728 25.5443C9.83543 25.3747 9.5958 25.359 9.35394 25.4974C9.31955 25.5178 9.28313 25.5306 9.24836 25.5345C9.21359 25.5384 9.18168 25.5333 9.15585 25.5198L8.78416 25.3166C8.75836 25.3032 8.72904 25.299 8.70162 25.3048C8.67421 25.3105 8.65055 25.3258 8.63503 25.3479C8.53859 25.4893 8.41469 25.5659 8.26334 25.5778C8.25099 25.5787 8.23871 25.5763 8.2275 25.5707C8.21629 25.565 8.20648 25.5564 8.19888 25.5455C8.19127 25.5346 8.18608 25.5218 8.18375 25.508C8.18141 25.4942 8.18199 25.4798 8.18544 25.4662L8.67955 23.455C8.69884 23.3761 8.67287 23.356 8.60165 23.3947L8.42359 23.4907C10.3525 16.9936 11.573 13.0143 12.0849 11.553C12.7348 9.70252 14.2594 8.82081 16.178 8.77393C19.7183 8.68613 23.2579 8.67423 26.7968 8.73822C29.9662 8.79625 31.3061 9.40118 32.2275 12.3901C34.4369 19.5464 36.6263 26.7095 38.7956 33.8793Z" fill="white"/>
<path d="M19.0424 28.0713L13.7497 46.1452C13.735 46.1954 13.7066 46.2404 13.6676 46.2751C13.6287 46.3099 13.5807 46.3329 13.5294 46.3417C8.86131 47.1676 4.3958 48.6713 0.13283 50.8529C0.0334147 50.905 2.89623e-05 50.8775 0.0326727 50.7703L8.42359 23.4908L8.60165 23.3948C8.67287 23.3561 8.69884 23.3762 8.67955 23.4551L8.18544 25.4663C8.18199 25.48 8.18141 25.4943 8.18375 25.5081C8.18608 25.5219 8.19127 25.5348 8.19887 25.5456C8.20648 25.5565 8.21629 25.5652 8.2275 25.5708C8.23871 25.5764 8.25099 25.5788 8.26334 25.5779C8.41469 25.566 8.53858 25.4894 8.63503 25.348C8.65055 25.3259 8.6742 25.3106 8.70162 25.3049C8.72904 25.2991 8.75836 25.3033 8.78415 25.3167L9.15585 25.5199C9.18168 25.5334 9.21359 25.5385 9.24836 25.5346C9.28313 25.5307 9.31954 25.5179 9.35393 25.4975C9.59579 25.3592 9.83543 25.3748 10.0728 25.5444C10.0974 25.5627 10.1272 25.5755 10.1605 25.582C10.1939 25.5886 10.2299 25.5887 10.2665 25.5824C10.5425 25.5333 10.558 25.7431 10.7272 25.8391C11.0967 26.0504 11.4995 26.1575 11.9358 26.1605C11.9726 26.1612 12.0079 26.169 12.0392 26.1833C12.0704 26.1976 12.0966 26.2181 12.116 26.2431L12.3119 26.4998C12.332 26.5263 12.3594 26.5457 12.3894 26.5546C12.4194 26.5636 12.4502 26.5616 12.4766 26.5489C12.6814 26.4507 12.852 26.316 12.9885 26.1449C13.0118 26.1169 13.0406 26.0955 13.0718 26.0833C13.1029 26.0711 13.135 26.0684 13.1643 26.0757C13.332 26.1174 13.4307 26.229 13.4604 26.4105C13.4656 26.4413 13.4802 26.4695 13.502 26.4905C13.5237 26.5115 13.5514 26.5242 13.5806 26.5266C13.7156 26.5415 13.8276 26.5854 13.9166 26.6583C13.9771 26.7087 14.0432 26.7379 14.1036 26.7409C14.6645 26.7721 15.0785 27.0311 15.3455 27.5177C15.3856 27.5907 15.4398 27.6435 15.4969 27.665C15.669 27.7335 15.8345 27.7111 15.9932 27.598C16.0181 27.5799 16.0478 27.5691 16.0791 27.5668C16.1105 27.5644 16.1423 27.5706 16.1713 27.5846C16.2722 27.6323 16.3553 27.6204 16.4206 27.5489C16.4294 27.5394 16.4399 27.5317 16.4515 27.5262C16.4631 27.5207 16.4755 27.5176 16.488 27.5169C16.5004 27.5163 16.5127 27.5182 16.5241 27.5226C16.5355 27.5269 16.5457 27.5336 16.5541 27.5422C16.8167 27.8146 17.0682 27.8212 17.3086 27.5623C17.3531 27.5162 17.3821 27.5244 17.3954 27.5869C17.4592 27.8711 17.661 27.9849 18.0008 27.9284C18.0375 27.9229 18.0737 27.9249 18.1066 27.9342C18.1395 27.9435 18.1681 27.9599 18.19 27.982C18.4437 28.2409 18.5328 28.5728 18.4571 28.9775C18.4511 29.0058 18.4519 29.0058 18.4593 28.9775C18.5632 28.6144 18.7575 28.3123 19.0424 28.0713Z" fill="white"/>
<path d="M38.7957 33.8794L43.9704 50.7949C44.0001 50.8916 43.9697 50.9169 43.8792 50.8708C39.6414 48.6952 35.1782 47.1855 30.4893 46.3417C30.449 46.3343 30.4115 46.3158 30.3809 46.2883C30.3502 46.2607 30.3277 46.2251 30.3157 46.1854L25.664 30.4754C25.8421 30.0111 25.3836 29.8236 25.6017 29.2968C25.6314 29.2238 25.6581 29.2253 25.6818 29.3012C25.802 29.6829 26.1737 31.6673 26.739 31.4218C26.767 31.4098 26.7978 31.4069 26.8264 31.4138C26.8551 31.4207 26.88 31.4369 26.897 31.4597L27.0996 31.7343C27.1176 31.7582 27.1445 31.7744 27.1754 31.7801C27.2064 31.7858 27.2394 31.7807 27.2687 31.7656C27.7154 31.5304 28.0989 31.6033 28.4194 31.9843C28.4393 32.0084 28.4662 32.0262 28.4969 32.0357C28.5276 32.0452 28.5609 32.0459 28.593 32.0379C28.7533 31.9962 28.9002 32.0096 29.0337 32.0781C29.0881 32.1054 29.1359 32.163 29.1673 32.2388C29.3898 32.7626 29.7645 32.9441 30.2913 32.7834C30.3619 32.7618 30.4348 32.7634 30.4982 32.7879C30.8736 32.9397 31.2535 32.9821 31.6378 32.9151C31.6769 32.9083 31.7154 32.909 31.7498 32.9172C31.7843 32.9253 31.8139 32.9407 31.8359 32.962L32.2632 33.3883C32.2722 33.3972 32.2829 33.4041 32.2946 33.4086C32.3063 33.4132 32.3187 33.4152 32.3311 33.4145C32.3435 33.4139 32.3556 33.4106 32.3665 33.405C32.3775 33.3993 32.387 33.3914 32.3945 33.3816C32.5088 33.2373 32.6616 33.1622 32.853 33.1562C32.8841 33.1548 32.9166 33.1623 32.9479 33.1782C32.9793 33.1941 33.0085 33.2179 33.0333 33.2477C33.2871 33.5513 33.5987 33.7782 33.9681 33.9285C33.9957 33.9396 34.0267 33.9406 34.0565 33.9314C34.0862 33.9221 34.113 33.9031 34.1328 33.8772C34.2382 33.7433 34.3806 33.6584 34.5602 33.6227C34.5891 33.6166 34.6204 33.6208 34.6501 33.6347C34.6798 33.6486 34.7066 33.6716 34.7271 33.7009C34.8547 33.8839 35.0231 33.9814 35.2323 33.9933C35.3044 33.9976 35.372 34.026 35.4237 34.0736C35.6226 34.2567 35.8466 34.2954 36.0959 34.1897C36.1243 34.1777 36.1557 34.1754 36.1849 34.1831C36.214 34.1908 36.2391 34.2081 36.2561 34.2321C36.7436 34.9152 37.2266 33.9977 37.5515 34.6049C37.5886 34.6733 37.6353 34.7254 37.6917 34.7611C38.1324 35.0379 38.0389 35.7321 38.6866 35.5781C38.7119 35.5719 38.7344 35.5546 38.7505 35.5291C38.7667 35.5036 38.7755 35.4714 38.7756 35.4375L38.7734 35.0647C38.7734 35.0274 38.7675 34.9917 38.756 34.9599C38.7445 34.928 38.7277 34.9007 38.7066 34.8794C38.5924 34.7619 38.5457 34.6131 38.5664 34.433C38.5707 34.3993 38.5679 34.3653 38.5583 34.333C38.5487 34.3007 38.5325 34.2709 38.5108 34.2455C38.3728 34.0915 38.2571 33.7053 38.4173 33.529C38.7356 33.1808 38.4707 34.0625 38.7957 33.8794Z" fill="white"/>
<path d="M17.1038 54.7593L16.8767 54.8798C16.8504 54.8943 16.8306 54.9186 16.8215 54.9476C16.8124 54.9767 16.8146 55.0083 16.8278 55.0361C17.106 55.6276 17.5244 55.7325 18.1053 55.9423C18.8309 56.2035 19.4229 56.6187 20.1463 56.8955C20.4512 57.0116 20.656 57.275 20.9987 57.3977C22.1249 57.7951 23.1755 58.3866 23.7408 58.6366C25.235 59.3018 26.3953 59.8591 27.2218 60.3085C27.5334 60.4804 27.865 60.429 28.1833 60.6299C28.6574 60.9335 29.6011 61.7326 30.1353 61.2549C30.146 61.2453 30.1647 61.2416 30.1883 61.2444C30.212 61.2472 30.2395 61.2564 30.2666 61.2706L30.3756 61.3264C29.1945 62.2817 27.9659 63.1716 26.6899 63.9961C24.0502 65.6992 23.0664 68.043 24.3907 71.1681C24.4441 71.2931 24.4093 71.3258 24.2861 71.2663C22.0159 70.1561 20.6181 68.4113 20.0929 66.0318C19.6833 64.1679 20.5358 60.9179 18.2166 60.1143C16.3225 59.4603 14.4084 60.65 14.1146 62.6969C14.0909 62.8621 14.0249 62.8815 13.9165 62.755C11.2568 59.6679 10.6514 55.6187 11.6641 51.7302C11.6968 51.6067 11.7494 51.5978 11.8221 51.7034C12.9795 53.3887 15.1963 54.2526 17.1038 54.7593Z" fill="#FF5D01"/>
<path d="M31.8579 59.3821C31.8016 59.2348 31.8016 59.0837 31.8579 58.929C31.863 58.9158 31.8653 58.9017 31.8649 58.8876C31.8645 58.8735 31.8613 58.8597 31.8554 58.847C31.8496 58.8342 31.8413 58.8229 31.831 58.8136C31.8208 58.8043 31.8087 58.7972 31.7956 58.7928C31.5285 58.7058 31.3282 58.5317 31.0589 58.4803C30.1686 58.3129 29.383 57.708 28.7798 57.4401C27.1936 56.7318 26.195 56.2444 25.784 55.978C25.5065 55.801 25.2365 55.6938 24.9738 55.6566C24.4263 55.5785 24.0346 55.4267 23.5583 55.3731C26.5763 55.3173 30.0507 54.6454 32.5346 52.8128C32.5482 52.8028 32.564 52.7962 32.5807 52.7937C32.5973 52.7911 32.6144 52.7927 32.6303 52.7981C32.6463 52.8036 32.6607 52.8129 32.6723 52.8252C32.6839 52.8374 32.6924 52.8523 32.697 52.8686C33.3277 55.2109 33.048 57.3821 31.8579 59.3821Z" fill="#FF4C0E"/>
<path d="M17.1038 54.7593C19.2272 55.2593 21.3787 55.4639 23.5584 55.3731C24.0347 55.4267 24.4264 55.5785 24.9739 55.6566C25.2366 55.6938 25.5066 55.801 25.7841 55.978C26.1951 56.2444 27.1937 56.7318 28.7799 57.4401C29.3831 57.708 30.1687 58.3129 31.059 58.4803C31.3283 58.5317 31.5287 58.7058 31.7957 58.7928C31.8088 58.7972 31.8209 58.8043 31.8312 58.8136C31.8414 58.8229 31.8497 58.8343 31.8555 58.847C31.8614 58.8597 31.8646 58.8735 31.865 58.8876C31.8655 58.9017 31.8631 58.9158 31.8581 58.929C31.8017 59.0838 31.8017 59.2348 31.8581 59.3821C31.447 60.0845 30.9529 60.7326 30.3757 61.3264L30.2667 61.2706C30.2396 61.2564 30.2121 61.2472 30.1884 61.2444C30.1648 61.2415 30.1461 61.2453 30.1354 61.2549C29.6012 61.7326 28.6575 60.9335 28.1834 60.6299C27.8651 60.429 27.5335 60.4804 27.2219 60.3085C26.3954 59.8591 25.2351 59.3018 23.7409 58.6366C23.1756 58.3866 22.125 57.795 20.9988 57.3977C20.6561 57.2749 20.4513 57.0115 20.1464 56.8955C19.423 56.6187 18.831 56.2035 18.1054 55.9423C17.5245 55.7325 17.1061 55.6276 16.8279 55.0361C16.8147 55.0083 16.8125 54.9767 16.8216 54.9476C16.8307 54.9186 16.8505 54.8943 16.8768 54.8798L17.1038 54.7593Z" fill="#FF5607"/>
</g>
<defs>
<filter id="filter0_f_344_14256" x="-6.97943" y="1.69775" width="57.9609" height="76.5974" filterUnits="userSpaceOnUse" color-interpolation-filters="sRGB">
<feFlood flood-opacity="0" result="BackgroundImageFix"/>
<feBlend mode="normal" in="SourceGraphic" in2="BackgroundImageFix" result="shape"/>
<feGaussianBlur stdDeviation="3.5" result="effect1_foregroundBlur_344_14256"/>
</filter>
<clipPath id="clip0_344_14256">
<rect width="44" height="80" fill="white"/>
</clipPath>
</defs>
</svg>
